/* XPM */
static char * bottom_left_active_xpm[] = {
"5 5 4 1",
" 	c None",
".	c #66667E",
"+	c #FBFCFD",
"@	c #A8A9BB",
".+@..",
".+@@@",
".+@@@",
".++++",
"....."};
