/* XPM */
static char * close_pressed_xpm[] = {
"21 21 86 1",
" 	c None",
".	c #9198AA",
"+	c #BE3F3B",
"@	c #C23F4B",
"#	c #FFAF97",
"$	c #FAE9B6",
"%	c #DB5B54",
"&	c #E06357",
"*	c #E86658",
"=	c #E9695C",
"-	c #EC6A5D",
";	c #EB695C",
">	c #E7685C",
",	c #E66457",
"'	c #E9675A",
")	c #EA6A5C",
"!	c #461E1A",
"~	c #EF6F5F",
"{	c #EB6B5D",
"]	c #EE6D5E",
"^	c #FFFFFF",
"/	c #F07060",
"(	c #EC6B5D",
"_	c #F06E61",
":	c #F17061",
"<	c #F27063",
"[	c #F37664",
"}	c #F47765",
"|	c #F47865",
"1	c #F27562",
"2	c #F47664",
"3	c #F67968",
"4	c #F67868",
"5	c #F57768",
"6	c #F57668",
"7	c #F67A67",
"8	c #F97C68",
"9	c #F87B68",
"0	c #F77B68",
"a	c #FA7C67",
"b	c #FE8067",
"c	c #FD7F67",
"d	c #FD7E66",
"e	c #FD8068",
"f	c #FD806B",
"g	c #FC806C",
"h	c #FB7F6C",
"i	c #FB7D68",
"j	c #FC806D",
"k	c #FC816E",
"l	c #FB816D",
"m	c #FA816D",
"n	c #FB7F6B",
"o	c #FB826E",
"p	c #FE866F",
"q	c #FE846F",
"r	c #FF8470",
"s	c #FE8A71",
"t	c #FF8973",
"u	c #532520",
"v	c #FF8C75",
"w	c #FF8D77",
"x	c #FF927D",
"y	c #FF937E",
"z	c #FF947E",
"A	c #FF947C",
"B	c #FFA38A",
"C	c #FFAA90",
"D	c #FFAE93",
"E	c #FFAE91",
"F	c #FFA186",
"G	c #FFA28A",
"H	c #FFB098",
"I	c #FFBEA1",
"J	c #FFC5A1",
"K	c #FEC7A1",
"L	c #FFC7A1",
"M	c #FFC7A2",
"N	c #FFAB90",
"O	c #FFCBA4",
"P	c #9CA4B9",
"Q	c #FFC3AA",
"R	c #FFD5B7",
"S	c #FFE3B9",
"T	c #FAEBB7",
"U	c #F9E9B6",
" .+++++++++++++++++. ",
".+@@@@@@@@@@@@@@@@@+.",
"+@#$$$$$$$$$$$$$$$#@+",
"+#%&*=-;;;;;;;-=*&%#+",
"+>,')!!~~~~~~~!!)',>+",
"+>>{]^^!/////!^^]{>>+",
"+>(_:^^^!<<<!^^^:_(>+",
"+//[}|^^^!|!^^^|}[//+",
"+123456^^^!^^^654321+",
"+1789000^^^^^0009871+",
"+7abcddd!^^^!dddcba7+",
"+7efghh!^^^^^!hhgfe7+",
"+ijklm!^^^m^^^!mlkji+",
"+nopq!^^^qqq^^^!qpon+",
"+rstu^^^sssss^^^utsr+",
"+vwxy^^zzzzzzz^^yxwv+",
"+AzBCDEEEEEEEEEDCBzA+",
"+FGHIJKLMMMMMLKJIHGF+",
"+N##OOOOOOOOOOOOO##N+",
"P+QRSTUU$UUU$UUTSRQ+P",
" P+++++++++++++++++P "};
