/* XPM */
static char * close_inactive_xpm[] = {
"21 21 100 2",
"  	c None",
". 	c #D8BFC2",
"+ 	c #C19095",
"@ 	c #F6CBC3",
"# 	c #F7DBCF",
"$ 	c #F7E9D9",
"% 	c #F7F0D9",
"& 	c #F7EFD8",
"* 	c #F6EFD8",
"= 	c #EFC0BA",
"- 	c #F0C2BE",
"; 	c #F0D6CB",
"> 	c #EDBAB5",
", 	c #EDBDB9",
"' 	c #F0C1BD",
") 	c #F2CAC3",
"! 	c #F0D1C7",
"~ 	c #F0D4C9",
"{ 	c #EED4C9",
"] 	c #EED5CA",
"^ 	c #E9B7B4",
"/ 	c #E9B8B6",
"( 	c #ECBBB8",
"_ 	c #EEBFBB",
": 	c #683F3B",
"< 	c #673F3B",
"[ 	c #EBC6C0",
"} 	c #EBC8C1",
"| 	c #ECC6C0",
"1 	c #67403B",
"2 	c #E8B3B2",
"3 	c #E8B4B3",
"4 	c #E9B5B4",
"5 	c #E9B6B5",
"6 	c #FAF1F0",
"7 	c #663D39",
"8 	c #E9B9B6",
"9 	c #E6B1B0",
"0 	c #E6B4B2",
"a 	c #E8B5B2",
"b 	c #FAF0EF",
"c 	c #663C38",
"d 	c #E7B4B2",
"e 	c #E3AEAD",
"f 	c #E4B0B0",
"g 	c #E6B2B0",
"h 	c #E6B3B2",
"i 	c #E6B2B1",
"j 	c #FAEFEF",
"k 	c #663B38",
"l 	c #E3ACAC",
"m 	c #E4AFAF",
"n 	c #E5B0B0",
"o 	c #E5B0AF",
"p 	c #F9EFEF",
"q 	c #653B38",
"r 	c #E0ABAB",
"s 	c #E3AEAC",
"t 	c #E4AFAD",
"u 	c #E3AFAE",
"v 	c #F9EFEE",
"w 	c #E4B0AF",
"x 	c #E2ACAB",
"y 	c #E4AEAC",
"z 	c #653A37",
"A 	c #F9EEEE",
"B 	c #DEA8A8",
"C 	c #E3ADAC",
"D 	c #E2ADAD",
"E 	c #DFA9AA",
"F 	c #E1ACAC",
"G 	c #E2ACAC",
"H 	c #DDA7A8",
"I 	c #DFA9A9",
"J 	c #643936",
"K 	c #F8EDEE",
"L 	c #D8A4A6",
"M 	c #DAA5A6",
"N 	c #DCA7A8",
"O 	c #6E3F3B",
"P 	c #F8EDED",
"Q 	c #DDA8A9",
"R 	c #DAA6A8",
"S 	c #DCA6A7",
"T 	c #DBA6A7",
"U 	c #D7A1A3",
"V 	c #D8A3A5",
"W 	c #D9A4A7",
"X 	c #DAA5A7",
"Y 	c #D19FA3",
"Z 	c #D4A0A3",
"` 	c #D5A1A4",
" .	c #C3929D",
"..	c #D19FA2",
"+.	c #D4A0A2",
"@.	c #D4A1A4",
"#.	c #D4A1A3",
"$.	c #D29FA2",
"%.	c #C6C9D3",
"&.	c #C19094",
"  . + + + + + + + + + + + + + + + + + .   ",
". + @ # $ % & * * & * * & * * % $ # @ + . ",
"+ = - - ; ; ; ; ; ; ; ; ; ; ; ; ; - - = + ",
"+ > , ' ) ! ~ { ] ~ { ] ~ { ] ! ) ' , > + ",
"+ ^ / ( _ : < [ } | [ } | [ 1 : _ ( / ^ + ",
"+ 2 3 4 5 6 6 7 8 8 8 8 8 7 6 6 / 5 3 2 + ",
"+ 9 0 2 a b b b c 0 0 0 c b b b d 2 0 9 + ",
"+ e f g h i j j j k i k j j j i h g f e + ",
"+ l m n o f f p p p q p p p f f o n m l + ",
"+ r s t o u u u v v v v v u u u w t s r + ",
"+ r x y t e e e z A A A z e e e t y x r + ",
"+ B r C l D D z A A A A A z D D l C r B + ",
"+ B E F G F z A A A F A A A z F F F E B + ",
"+ H H I E J K K K E E E K K K J E I H H + ",
"+ L M N O P P P Q Q Q Q Q P P P O N M L + ",
"+ L L R M P P S S S S S S S P P T R L L + ",
"+ L U V W X X X X X X X X X X X X V U L + ",
"+ Y Y Z U L L L L L L L L L L L V ` Y Y + ",
"+  .Y ..+.@.@.@.@.@.@.@.@.@.@.@.#.$.Y  .+ ",
"%.+  . . . . . . . . . . . . . . . . .+ %.",
"  %.+ + + + &.+ &.&.+ + + + + + + + + %.  "};
