/* XPM */
static char * close_active_xpm[] = {
"21 21 75 1",
" 	c None",
".	c #848CA2",
"+	c #A63944",
"@	c #9198AA",
"#	c #FF9F8D",
"$	c #FEBFA4",
"%	c #FADCB7",
"&	c #FAEBB7",
"*	c #FAE9B6",
"=	c #F9E9B6",
"-	c #F48A7D",
";	c #F59085",
">	c #F2B89E",
",	c #F18075",
"'	c #F0847C",
")	c #F58C84",
"!	c #F79D8E",
"~	c #F2AB96",
"{	c #F1B29B",
"]	c #EDB49B",
"^	c #ECB59C",
"/	c #EA7973",
"(	c #E97C78",
"_	c #EF817A",
":	c #F28981",
"<	c #461E1A",
"[	c #EB988B",
"}	c #EA9B8C",
"|	c #ED978A",
"1	c #E7736F",
"2	c #E77572",
"3	c #EA7673",
"4	c #EA7876",
"5	c #FFFFFF",
"6	c #E97E78",
"7	c #E46E6D",
"8	c #E4746F",
"9	c #E7716F",
"0	c #E06968",
"a	c #E16D6C",
"b	c #E4716D",
"c	c #E4716F",
"d	c #E4706E",
"e	c #E06665",
"f	c #E16A6A",
"g	c #E36C6C",
"h	c #DB6464",
"i	c #E16965",
"j	c #E06C69",
"k	c #DF6564",
"l	c #E06A68",
"m	c #D75F5F",
"n	c #E06765",
"o	c #DE6767",
"p	c #D96162",
"q	c #DC6565",
"r	c #D55D60",
"s	c #D86061",
"t	c #CD595E",
"u	c #D15A5E",
"v	c #D45D61",
"w	c #532520",
"x	c #D65F63",
"y	c #D05B60",
"z	c #D45C5F",
"A	c #CB5459",
"B	c #CD565B",
"C	c #CE595F",
"D	c #D05A5F",
"E	c #C2525B",
"F	c #AA3C55",
"G	c #C6545A",
"H	c #C6555C",
"I	c #9CA4B9",
"J	c #A73A44",
" .+++++++++++++++++. ",
"@+#$%&*==*==*==&%$#+@",
"+-;;>>>>>>>>>>>>>;;-+",
"+,')!~{]^{]^{]^~!)',+",
"+/(_:<<[}|[}|[<<:_(/+",
"+123455<66666<554321+",
"+7898555<888<5558987+",
"+0abcd555<d<555ddba0+",
"+efgggg555<555ggggfe+",
"+hijjjjj55555jjjjjih+",
"+hklllll<555<lllllkh+",
"+mhneoo<55555<ooenhm+",
"+mpqqq<555q555<qqqpm+",
"+rrsp<555ppp555<psrr+",
"+tuvw555xxxxx555wvut+",
"+ttyz55zzzzzzz55zytt+",
"+tABCDDDDDDDDDDDCBAt+",
"+EEAtttttttttttttAEE+",
"+FEGHHHHHHHHHHHHHGEF+",
"I+FFFFFFFFFFFFFFFFF+I",
" I++++J+JJ+++++++++I "};
