/* XPM */
static char * hide_active_xpm[] = {
"21 21 46 1",
" 	c None",
".	c #848CA2",
"+	c #6B758F",
"@	c #CCCBDD",
"#	c #FBFBFC",
"$	c #FFFFFF",
"%	c #D2D1E3",
"&	c #F2F1F7",
"*	c #EDEBF3",
"=	c #E9E8F1",
"-	c #D5D4E3",
";	c #E0DFEA",
">	c #D5D5E3",
",	c #DCDBE7",
"'	c #DDDBE7",
")	c #D6D6E4",
"!	c #D8D8E5",
"~	c #D8D8E6",
"{	c #D3D3E1",
"]	c #D3D3E0",
"^	c #D3D3E2",
"/	c #CFD0DD",
"(	c #D0D1E0",
"_	c #CBCBDC",
":	c #CBCCDE",
"<	c #C8CAD9",
"[	c #C8C9D9",
"}	c #C8C9DB",
"|	c #C3C4D6",
"1	c #C3C5D9",
"2	c #BCBDD1",
"3	c #252536",
"4	c #BFC1D6",
"5	c #B8B9CE",
"6	c #6E6D8F",
"7	c #BCBED4",
"8	c #B2B2CA",
"9	c #B6B9D1",
"0	c #ADAEC6",
"a	c #ACAEC6",
"b	c #B2B5D0",
"c	c #A7A8C2",
"d	c #8589B0",
"e	c #9C9EBE",
"f	c #9CA4B9",
"g	c #6C7690",
" .+++++++++++++++++. ",
".+@#$$$$$$$$$$$$$#@+.",
"+%&&&&&&&&&&&&&&&&&%+",
"+*=================*+",
"+-;;;;;;;;;;;;;;;;;-+",
"+>,,',,,,,,,,,,,,,,>+",
"+)!~!!!~~~~~!!!~~!!)+",
"+!{{{{{{{{{{{{{{{{{!+",
"+)]]]]]]]]]]]]]]]]])+",
"+^/////////////////^+",
"+(_________________(+",
"+:<<<<<<<<<[<<<<<[<:+",
"+}|||||||||||||||||}+",
"+122$333333322222221+",
"+455$666666355555554+",
"+788$666666388888887+",
"+900$$$$$$$$0a0000a9+",
"+bcccccccccccccccccb+",
"+deeeeeeeeeeeeeeeeed+",
"f+ddddddddddddddddd+f",
" f++++g+gg+++++++++f "};
