/* XPM */
static char * hide_pressed_xpm[] = {
"21 21 36 1",
" 	c None",
".	c #7B8399",
"+	c #4F596F",
"@	c #D8D7E9",
"#	c #ECE9F8",
"$	c #8D90AE",
"%	c #8387AD",
"&	c #9C9EB5",
"*	c #8B8FB2",
"=	c #A1A3BB",
"-	c #9498B9",
";	c #A6A9BE",
">	c #9DA0BD",
",	c #AEB0C3",
"'	c #A7ABC5",
")	c #B1B3C7",
"!	c #B2B4CD",
"~	c #BABBCE",
"{	c #BDBED3",
"]	c #BFC1D2",
"^	c #C6C7DB",
"/	c #C0C0D4",
"(	c #CED0E1",
"_	c #C3C4D5",
":	c #D6D6E6",
"<	c #C7C7D9",
"[	c #DBDBE9",
"}	c #C6C6DB",
"|	c #FFFFFF",
"1	c #252536",
"2	c #CDCDE1",
"3	c #6E6D8F",
"4	c #D3D1E4",
"5	c #FEFBFF",
"6	c #5B667E",
"7	c #535C72",
" .+++++++++++++++++. ",
".+@###############@+.",
"+@$$$$$$$$$$$$$$$$$@+",
"+%&&&&&&&&&&&&&&&&&%+",
"+*=================*+",
"+-;;;;;;;;;;;;;;;;;-+",
"+>,,,,,,,,,,,,,,,,,>+",
"+')))))))))))))))))'+",
"+!~~~~~~~~~~~~~~~~~!+",
"+{]]]]]]]]]]]]]]]]]{+",
"+^/////////////////^+",
"+(_________________(+",
"+:<<<<<<<<<<<<<<<<<:+",
"+[}}|1111111}}}}}}}[+",
"+[22|33333312222222[+",
"+[44|33333314444444[+",
"+[@@||||||||@@@@@@@[+",
"+5#################5+",
"+@55555555555555555@+",
".6@|||||||||||||||@+.",
" .++++7+77+++++++++. "};
