/* XPM */
static char * left_inactive_xpm[] = {
"5 5 4 1",
" 	c None",
".	c #C9C9D7",
"+	c #FDFFFC",
"@	c #E6E9E4",
".++@.",
".++@.",
".++@.",
".++@.",
".++@."};
