/* XPM */
static char * maximize_active_xpm[] = {
"21 21 46 1",
" 	c None",
".	c #848CA2",
"+	c #6B758F",
"@	c #CCCBDD",
"#	c #FBFBFC",
"$	c #FFFFFF",
"%	c #D2D1E3",
"&	c #F2F1F7",
"*	c #EDEBF3",
"=	c #E9E8F1",
"-	c #D5D4E3",
";	c #E0DFEA",
">	c #D5D5E3",
",	c #DCDBE7",
"'	c #DDDBE7",
")	c #252536",
"!	c #D6D6E4",
"~	c #D8D8E5",
"{	c #D8D8E6",
"]	c #6E6D8F",
"^	c #D3D3E1",
"/	c #D3D3E0",
"(	c #D3D3E2",
"_	c #CFD0DD",
":	c #D0D1E0",
"<	c #CBCBDC",
"[	c #CBCCDE",
"}	c #C8CAD9",
"|	c #C8C9D9",
"1	c #C8C9DB",
"2	c #C3C4D6",
"3	c #C3C5D9",
"4	c #BCBDD1",
"5	c #BFC1D6",
"6	c #B8B9CE",
"7	c #BCBED4",
"8	c #B2B2CA",
"9	c #B6B9D1",
"0	c #ADAEC6",
"a	c #ACAEC6",
"b	c #B2B5D0",
"c	c #A7A8C2",
"d	c #8589B0",
"e	c #9C9EBE",
"f	c #9CA4B9",
"g	c #6C7690",
" .+++++++++++++++++. ",
".+@#$$$$$$$$$$$$$#@+.",
"+%&&&&&&&&&&&&&&&&&%+",
"+*=================*+",
"+-;;;;;;;;;;;;;;;;;-+",
"+>,,'))))))))))),,,>+",
"+!~{$]]]]]]]]]]){~~!+",
"+~^^$]]]]]]]]]])^^^~+",
"+!//$)$$$$$$$$$)///!+",
"+(__$)________$)___(+",
"+:<<$)<<<<<<<<$)<<<:+",
"+[}}$)}}}}}|}}$)}|}[+",
"+122$)22222222$)2221+",
"+344$)44444444$)4443+",
"+566$)66666666$)6665+",
"+788$)))))))))))8887+",
"+900$$$$$$$$$$$$00a9+",
"+bcccccccccccccccccb+",
"+deeeeeeeeeeeeeeeeed+",
"f+ddddddddddddddddd+f",
" f++++g+gg+++++++++f "};
