/* XPM */
static char * maximize_inactive_xpm[] = {
"21 21 60 1",
" 	c None",
".	c #B7BBC4",
"+	c #A9ADB9",
"@	c #E1E1E9",
"#	c #FDFDFD",
"$	c #FFFFFF",
"%	c #F3F2F6",
"&	c #F4F3F7",
"*	c #F0EFF4",
"=	c #E5E5EC",
"-	c #E9E9EF",
";	c #E7E7ED",
">	c #868691",
",	c #E6E6ED",
"'	c #F1F1F5",
")	c #A9A9BD",
"!	c #858591",
"~	c #E2E2E9",
"{	c #F0F0F3",
"]	c #A8A7BC",
"^	c #83838F",
"/	c #E4E4EB",
"(	c #E3E3E8",
"_	c #84848F",
":	c #E2E2EA",
"<	c #E1E1E7",
"[	c #EFEFF2",
"}	c #83838E",
"|	c #E0E0E9",
"1	c #DEDEE7",
"2	c #EEEEF2",
"3	c #81818E",
"4	c #DDDEE7",
"5	c #DCDEE5",
"6	c #EDEEF1",
"7	c #80818D",
"8	c #DADBE4",
"9	c #DADBE3",
"0	c #ECECF0",
"a	c #7F808C",
"b	c #D7D8E2",
"c	c #D6D7E1",
"d	c #EAEAEF",
"e	c #7D7E8B",
"f	c #D4D6E0",
"g	c #D4D5DE",
"h	c #E9E9EE",
"i	c #7C7D8A",
"j	c #D2D3DF",
"k	c #D1D1DC",
"l	c #7B7B89",
"m	c #D0D0DC",
"n	c #CECEDA",
"o	c #E6E6EC",
"p	c #CCCEDB",
"q	c #CACBD8",
"r	c #CBCCDA",
"s	c #C3C5D4",
"t	c #C6C9D3",
"u	c #BDBED2",
" .+++++++++++++++++. ",
".+@#$$$$$$$$$$$$$#@+.",
"+@%%%%%%%%%%%%%%%%%@+",
"+&*****************&+",
"+=-----------------=+",
"+=;;;>>>>>>>>>>>;;;=+",
"+,=='))))))))))!===,+",
"+,~~{]]]]]]]]]]^~~~,+",
"+/(({_{{{{{{{{{_(((/+",
"+:<<[}<<<<<<<<[}<<<:+",
"+|11231111111123111|+",
"+4556755555555675554+",
"+8990a999999990a9998+",
"+bccdeccccccccdecccb+",
"+fgghigggggggghigggf+",
"+jkk;lllllllllllkkkj+",
"+mnnoooooooooooonnnm+",
"+pqqqqqqqqqqqqqqqqqp+",
"+rsssssssssssssssssr+",
"t+uuuuuuuuuuuuuuuuu+t",
" t+++++++++++++++++t "};
