/* XPM */
static char * menu_inactive_xpm[] = {
"21 21 46 1",
" 	c None",
".	c #B7BBC4",
"+	c #A9ADB9",
"@	c #E1E1E9",
"#	c #FDFDFD",
"$	c #FFFFFF",
"%	c #F3F2F6",
"&	c #F4F3F7",
"*	c #F0EFF4",
"=	c #E5E5EC",
"-	c #E9E9EF",
";	c #E7E7ED",
">	c #E6E6ED",
",	c #E2E2E9",
"'	c #717174",
")	c #E4E4EB",
"!	c #E3E3E8",
"~	c #E2E2EA",
"{	c #E1E1E7",
"]	c #707073",
"^	c #E0E0E9",
"/	c #DEDEE7",
"(	c #6F6F73",
"_	c #DDDEE7",
":	c #DCDEE5",
"<	c #6E6F72",
"[	c #DADBE4",
"}	c #DADBE3",
"|	c #6D6D71",
"1	c #D7D8E2",
"2	c #D6D7E1",
"3	c #6B6B70",
"4	c #D4D6E0",
"5	c #D4D5DE",
"6	c #6A6A6F",
"7	c #D2D3DF",
"8	c #D1D1DC",
"9	c #D0D0DC",
"0	c #CECEDA",
"a	c #CECFDA",
"b	c #CCCEDB",
"c	c #CACBD8",
"d	c #CBCCDA",
"e	c #C3C5D4",
"f	c #C6C9D3",
"g	c #BDBED2",
" .+++++++++++++++++. ",
".+@#$$$$$$$$$$$$$#@+.",
"+@%%%%%%%%%%%%%%%%%@+",
"+&*****************&+",
"+=-----------------=+",
"+=;;;;;;;;;;;;;;;;;=+",
"+>=================>+",
"+>,,,,,,',,,',,,,,,>+",
"+)!!!!!!''!''!!!!!!)+",
"+~{{{{{{{]]]{{{{{{{~+",
"+^////////(////////^+",
"+_::::::<:::<::::::_+",
"+[}}}}}}||}||}}}}}}[+",
"+1222222233322222221+",
"+4555555556555555554+",
"+7888888888888888887+",
"+9000aa0000000000009+",
"+bcccccccccccccccccb+",
"+deeeeeeeeeeeeeeeeed+",
"f+ggggggggggggggggg+f",
" f+++++++++++++++++f "};
