/* XPM */
static char * menu_pressed_xpm[] = {
"21 21 35 1",
" 	c None",
".	c #7B8399",
"+	c #4F596F",
"@	c #D8D7E9",
"#	c #ECE9F8",
"$	c #8D90AE",
"%	c #8387AD",
"&	c #9C9EB5",
"*	c #8B8FB2",
"=	c #A1A3BB",
"-	c #9498B9",
";	c #A6A9BE",
">	c #9DA0BD",
",	c #AEB0C3",
"'	c #A7ABC5",
")	c #B1B3C7",
"!	c #000000",
"~	c #B2B4CD",
"{	c #BABBCE",
"]	c #BDBED3",
"^	c #BFC1D2",
"/	c #C6C7DB",
"(	c #C0C0D4",
"_	c #CED0E1",
":	c #C3C4D5",
"<	c #D6D6E6",
"[	c #C7C7D9",
"}	c #DBDBE9",
"|	c #C6C6DB",
"1	c #CDCDE1",
"2	c #D3D1E4",
"3	c #FEFBFF",
"4	c #5B667E",
"5	c #FFFFFF",
"6	c #535C72",
" .+++++++++++++++++. ",
".+@###############@+.",
"+@$$$$$$$$$$$$$$$$$@+",
"+%&&&&&&&&&&&&&&&&&%+",
"+*=================*+",
"+-;;;;;;;;;;;;;;;;;-+",
"+>,,,,,,,,,,,,,,,,,>+",
"+'))))))!)))!))))))'+",
"+~{{{{{{!!{!!{{{{{{~+",
"+]^^^^^^^!!!^^^^^^^]+",
"+/((((((((!((((((((/+",
"+_::::::!:::!::::::_+",
"+<[[[[[[!![!![[[[[[<+",
"+}|||||||!!!|||||||}+",
"+}11111111!11111111}+",
"+}22222222222222222}+",
"+}@@@@@@@@@@@@@@@@@}+",
"+3#################3+",
"+@33333333333333333@+",
".4@555555555555555@+.",
" .++++6+66+++++++++. "};
