/* XPM */
static char * right_active_xpm[] = {
"5 5 4 1",
" 	c None",
".	c #66667E",
"+	c #A8A9BB",
"@	c #FBFCFD",
".+@@.",
".+@@.",
".+@@.",
".+@@.",
".+@@."};
