/* XPM */
static char * shade_toggled_prelight_xpm[] = {
"21 21 39 1",
" 	c None",
".	c #8088A0",
"+	c #5F6A85",
"@	c #E0DFF3",
"#	c #FFFFFF",
"$	c #E9E7FB",
"%	c #ECEBFB",
"&	c #FAF9FE",
"*	c #EDEDFC",
"=	c #F5F4FD",
"-	c #F6F4FD",
";	c #EEEEFD",
">	c #F1F1FD",
",	c #EAEAF9",
"'	c #000000",
")	c #EAEAF8",
"!	c #EAEAFA",
"~	c #E5E6F4",
"{	c #E6E7F7",
"]	c #DFDFF1",
"^	c #E0E1F4",
"/	c #DBDDED",
"(	c #DBDCED",
"_	c #DCDDF0",
":	c #D5D7E9",
"<	c #D5D7EC",
"[	c #CCCDE2",
"}	c #D0D1E8",
"|	c #C6C8DD",
"1	c #CCCEE5",
"2	c #BEBED8",
"3	c #BEBFD8",
"4	c #C4C8E1",
"5	c #B7B9D2",
"6	c #BFC2DF",
"7	c #B0B1CD",
"8	c #8488B1",
"9	c #A2A4C6",
"0	c #A1A9C0",
" .+++++++++++++++++. ",
".+@###############@+.",
"+$#################$+",
"+###################+",
"+%&&&&&&&&&&&&&&&&&%+",
"+*==-==============*+",
"+;>>>>>>>>>>>>>>>>>;+",
"+>,,,,,',,,,,',,,,,>+",
"+;))))''')))'''))));+",
"+!~~~~~'''~'''~~~~~!+",
"+{]]]]]]''''']]]]]]{+",
"+^///////'''/////(/^+",
"+_::::::::'::::::::_+",
"+<[[[[[[[[[[[[[[[[[<+",
"+}|||||||||||||||||}+",
"+1222332222222222221+",
"+4555555555555555554+",
"+6777777777777777776+",
"+8999999999999999998+",
"0+88888888888888888+0",
" 0+++++++++++++++++0 "};
