/* XPM */
static char * shade_active_xpm[] = {
"21 21 46 1",
" 	c None",
".	c #848CA2",
"+	c #6B758F",
"@	c #CCCBDD",
"#	c #FBFBFC",
"$	c #FFFFFF",
"%	c #D2D1E3",
"&	c #F2F1F7",
"*	c #EDEBF3",
"=	c #E9E8F1",
"-	c #D5D4E3",
";	c #E0DFEA",
">	c #D5D5E3",
",	c #DCDBE7",
"'	c #DDDBE7",
")	c #D6D6E4",
"!	c #D8D8E5",
"~	c #D8D8E6",
"{	c #D3D3E1",
"]	c #000000",
"^	c #D3D3E0",
"/	c #D3D3E2",
"(	c #CFD0DD",
"_	c #D0D1E0",
":	c #CBCBDC",
"<	c #CBCCDE",
"[	c #C8CAD9",
"}	c #C8C9D9",
"|	c #C8C9DB",
"1	c #C3C4D6",
"2	c #C3C5D9",
"3	c #BCBDD1",
"4	c #BFC1D6",
"5	c #B8B9CE",
"6	c #BCBED4",
"7	c #B2B2CA",
"8	c #B2B3CA",
"9	c #B6B9D1",
"0	c #ADAEC6",
"a	c #ACAEC6",
"b	c #B2B5D0",
"c	c #A7A8C2",
"d	c #8589B0",
"e	c #9C9EBE",
"f	c #9CA4B9",
"g	c #6C7690",
" .+++++++++++++++++. ",
".+@#$$$$$$$$$$$$$#@+.",
"+%&&&&&&&&&&&&&&&&&%+",
"+*=================*+",
"+-;;;;;;;;;;;;;;;;;-+",
"+>,,',,,,,,,,,,,,,,>+",
"+)!~!!!~~~~~!!!~~!!)+",
"+!{{{{{{{{]{{{{{{{{!+",
"+)^^^^^^^]]]^^^^^^^)+",
"+/((((((]]]]]((((((/+",
"+_:::::]]]:]]]:::::_+",
"+<[[[[]]][[}]]][[}[<+",
"+|11111]11111]11111|+",
"+2333333333333333332+",
"+4555555555555555554+",
"+6777887777777777776+",
"+900a00000000a0000a9+",
"+bcccccccccccccccccb+",
"+deeeeeeeeeeeeeeeeed+",
"f+ddddddddddddddddd+f",
" f++++g+gg+++++++++f "};
