/* XPM */
static char * shade_toggled_inactive_xpm[] = {
"21 21 44 1",
" 	c None",
".	c #B7BBC4",
"+	c #A9ADB9",
"@	c #E1E1E9",
"#	c #FDFDFD",
"$	c #FFFFFF",
"%	c #F3F2F6",
"&	c #F4F3F7",
"*	c #F0EFF4",
"=	c #E5E5EC",
"-	c #E9E9EF",
";	c #E7E7ED",
">	c #E6E6ED",
",	c #E2E2E9",
"'	c #717174",
")	c #E4E4EB",
"!	c #E3E3E8",
"~	c #E2E2EA",
"{	c #E1E1E7",
"]	c #707073",
"^	c #E0E0E9",
"/	c #DEDEE7",
"(	c #6F6F73",
"_	c #DDDEE7",
":	c #DCDEE5",
"<	c #6E6F72",
"[	c #DADBE4",
"}	c #DADBE3",
"|	c #6D6D71",
"1	c #D7D8E2",
"2	c #D6D7E1",
"3	c #D4D6E0",
"4	c #D4D5DE",
"5	c #D2D3DF",
"6	c #D1D1DC",
"7	c #D0D0DC",
"8	c #CECEDA",
"9	c #CECFDA",
"0	c #CCCEDB",
"a	c #CACBD8",
"b	c #CBCCDA",
"c	c #C3C5D4",
"d	c #C6C9D3",
"e	c #BDBED2",
" .+++++++++++++++++. ",
".+@#$$$$$$$$$$$$$#@+.",
"+@%%%%%%%%%%%%%%%%%@+",
"+&*****************&+",
"+=-----------------=+",
"+=;;;;;;;;;;;;;;;;;=+",
"+>=================>+",
"+>,,,,,',,,,,',,,,,>+",
"+)!!!!'''!!!'''!!!!)+",
"+~{{{{{]]]{]]]{{{{{~+",
"+^//////(((((//////^+",
"+_:::::::<<<:::::::_+",
"+[}}}}}}}}|}}}}}}}}[+",
"+1222222222222222221+",
"+3444444444444444443+",
"+5666666666666666665+",
"+7888998888888888887+",
"+0aaaaaaaaaaaaaaaaa0+",
"+bcccccccccccccccccb+",
"d+eeeeeeeeeeeeeeeee+d",
" d+++++++++++++++++d "};
