/* XPM */
static char * stick_toggled_inactive_xpm[] = {
"21 21 81 1",
" 	c None",
".	c #B7BBC4",
"+	c #A9ADB9",
"@	c #E1E1E9",
"#	c #FDFDFD",
"$	c #FFFFFF",
"%	c #F3F2F6",
"&	c #F4F3F7",
"*	c #F0EFF4",
"=	c #E5E5EC",
"-	c #E9E9EF",
";	c #E7E7ED",
">	c #ABBAC5",
",	c #DFE1DF",
"'	c #AEBEC8",
")	c #E6E6ED",
"!	c #A9B9C3",
"~	c #E5E5E1",
"{	c #E7E7E3",
"]	c #EAEAE6",
"^	c #ECECE9",
"/	c #EFEFEC",
"(	c #B3C3CF",
"_	c #E2E2E9",
":	c #F1F1EF",
"<	c #F3F3F1",
"[	c #B6C5D2",
"}	c #E4E4EB",
"|	c #E3E3E8",
"1	c #E2E8DE",
"2	c #A9DCA6",
"3	c #4DBF4A",
"4	c #A0D29E",
"5	c #E8EEE6",
"6	c #F5F5F3",
"7	c #F7F7F6",
"8	c #E2E2EA",
"9	c #E1E1E7",
"0	c #55D551",
"a	c #43C33F",
"b	c #29A826",
"c	c #9ACC98",
"d	c #F9F9F8",
"e	c #BAC9D6",
"f	c #E0E0E9",
"g	c #DEDEE7",
"h	c #42C33F",
"i	c #38B935",
"j	c #21A121",
"k	c #269623",
"l	c #FAFAF9",
"m	c #F3F5F6",
"n	c #DDDEE7",
"o	c #DCDEE5",
"p	c #2AA827",
"q	c #22A220",
"r	c #139210",
"s	c #98C897",
"t	c #FCFCFB",
"u	c #BCCBD9",
"v	c #DADBE4",
"w	c #DADBE3",
"x	c #249624",
"y	c #98C997",
"z	c #EEF3ED",
"A	c #D7D8E2",
"B	c #D6D7E1",
"C	c #BCCCD9",
"D	c #D4D6E0",
"E	c #D4D5DE",
"F	c #D2D3DF",
"G	c #D1D1DC",
"H	c #D0D0DC",
"I	c #CECEDA",
"J	c #CECFDA",
"K	c #CCCEDB",
"L	c #CACBD8",
"M	c #CBCCDA",
"N	c #C3C5D4",
"O	c #C6C9D3",
"P	c #BDBED2",
" .+++++++++++++++++. ",
".+@#$$$$$$$$$$$$$#@+.",
"+@%%%%%%%%%%%%%%%%%@+",
"+&*****************&+",
"+=-----------------=+",
"+=;;;;;;;>,';;;;;;;=+",
"+)=====!~{]^/(=====)+",
"+)____!~{]^/:<[____)+",
"+}||||~{1234567||||}+",
"+8999>{]20abc7de9998+",
"+fggg,]^3hijkdlmgggf+",
"+nooo'^/4pqrsltuooon+",
"+vwwww/:5cxyzt#wwwwv+",
"+ABBBB(<67dlt#CBBBBA+",
"+DEEEEE[7dlt#CEEEEED+",
"+FGGGGGGGemuGGGGGGGF+",
"+HIIIJJIIIIIIIIIIIIH+",
"+KLLLLLLLLLLLLLLLLLK+",
"+MNNNNNNNNNNNNNNNNNM+",
"O+PPPPPPPPPPPPPPPPP+O",
" O+++++++++++++++++O "};
