/* XPM */
static char * stick_inactive_xpm[] = {
"21 21 62 1",
" 	c None",
".	c #B7BBC4",
"+	c #A9ADB9",
"@	c #E1E1E9",
"#	c #FDFDFD",
"$	c #FFFFFF",
"%	c #F3F2F6",
"&	c #F4F3F7",
"*	c #F0EFF4",
"=	c #E5E5EC",
"-	c #E9E9EF",
";	c #E7E7ED",
">	c #A7B7C1",
",	c #DADCDA",
"'	c #ABBAC6",
")	c #E6E6ED",
"!	c #A6B5BF",
"~	c #E0E0DB",
"{	c #E2E2DE",
"]	c #E5E5E2",
"^	c #E8E8E5",
"/	c #ECECE9",
"(	c #B2C1CD",
"_	c #E2E2E9",
":	c #EFEFEC",
"<	c #F1F1EF",
"[	c #B5C4D0",
"}	c #E4E4EB",
"|	c #E3E3E8",
"1	c #F3F3F1",
"2	c #F5F5F4",
"3	c #E2E2EA",
"4	c #E1E1E7",
"5	c #F7F7F6",
"6	c #B9C8D5",
"7	c #E0E0E9",
"8	c #DEDEE7",
"9	c #F9F9F8",
"0	c #F2F4F5",
"a	c #DDDEE7",
"b	c #DCDEE5",
"c	c #FBFBFA",
"d	c #BCCBD8",
"e	c #DADBE4",
"f	c #DADBE3",
"g	c #FDFDFC",
"h	c #D7D8E2",
"i	c #D6D7E1",
"j	c #BCCCD9",
"k	c #D4D6E0",
"l	c #D4D5DE",
"m	c #D2D3DF",
"n	c #D1D1DC",
"o	c #D0D0DC",
"p	c #CECEDA",
"q	c #CECFDA",
"r	c #CCCEDB",
"s	c #CACBD8",
"t	c #CBCCDA",
"u	c #C3C5D4",
"v	c #C6C9D3",
"w	c #BDBED2",
" .+++++++++++++++++. ",
".+@#$$$$$$$$$$$$$#@+.",
"+@%%%%%%%%%%%%%%%%%@+",
"+&*****************&+",
"+=-----------------=+",
"+=;;;;;;;>,';;;;;;;=+",
"+)=====!~{]^/(=====)+",
"+)____!~{]^/:<[____)+",
"+}||||~{]^/:<12||||}+",
"+3444>{]^/:<12564443+",
"+7888,]^/:<125908887+",
"+abbb'^/:<1259cdbbba+",
"+effff/:<1259cgffffe+",
"+hiiii(<1259cgjiiiih+",
"+klllll[259cgjlllllk+",
"+mnnnnnnn60dnnnnnnnm+",
"+opppqqppppppppppppo+",
"+rsssssssssssssssssr+",
"+tuuuuuuuuuuuuuuuuut+",
"v+wwwwwwwwwwwwwwwww+v",
" v+++++++++++++++++v "};
