/* XPM */
static char * stick_toggled_active_xpm[] = {
"21 21 88 1",
" 	c None",
".	c #848CA2",
"+	c #6B758F",
"@	c #CCCBDD",
"#	c #FBFBFC",
"$	c #FFFFFF",
"%	c #D2D1E3",
"&	c #F2F1F7",
"*	c #EDEBF3",
"=	c #E9E8F1",
"-	c #D5D4E3",
";	c #E0DFEA",
">	c #D5D5E3",
",	c #DCDBE7",
"'	c #DDDBE7",
")	c #ABBAC5",
"!	c #DFE1DF",
"~	c #AEBEC8",
"{	c #D6D6E4",
"]	c #D8D8E5",
"^	c #D8D8E6",
"/	c #A9B9C3",
"(	c #E5E5E1",
"_	c #E7E7E3",
":	c #EAEAE6",
"<	c #ECECE9",
"[	c #EFEFEC",
"}	c #B3C3CF",
"|	c #D3D3E1",
"1	c #F1F1EF",
"2	c #F3F3F1",
"3	c #B6C5D2",
"4	c #D3D3E0",
"5	c #E2E8DE",
"6	c #A9DCA6",
"7	c #4DBF4A",
"8	c #A0D29E",
"9	c #E8EEE6",
"0	c #F5F5F3",
"a	c #F7F7F6",
"b	c #D3D3E2",
"c	c #CFD0DD",
"d	c #55D551",
"e	c #43C33F",
"f	c #29A826",
"g	c #9ACC98",
"h	c #F9F9F8",
"i	c #BAC9D6",
"j	c #D0D1E0",
"k	c #CBCBDC",
"l	c #42C33F",
"m	c #38B935",
"n	c #21A121",
"o	c #269623",
"p	c #FAFAF9",
"q	c #F3F5F6",
"r	c #CBCCDE",
"s	c #C8CAD9",
"t	c #2AA827",
"u	c #22A220",
"v	c #139210",
"w	c #98C897",
"x	c #FCFCFB",
"y	c #BCCBD9",
"z	c #C8C9D9",
"A	c #C8C9DB",
"B	c #C3C4D6",
"C	c #249624",
"D	c #98C997",
"E	c #EEF3ED",
"F	c #FDFDFD",
"G	c #C3C5D9",
"H	c #BCBDD1",
"I	c #BCCCD9",
"J	c #BFC1D6",
"K	c #B8B9CE",
"L	c #BCBED4",
"M	c #B2B2CA",
"N	c #B2B3CA",
"O	c #B6B9D1",
"P	c #ADAEC6",
"Q	c #ACAEC6",
"R	c #B2B5D0",
"S	c #A7A8C2",
"T	c #8589B0",
"U	c #9C9EBE",
"V	c #9CA4B9",
"W	c #6C7690",
" .+++++++++++++++++. ",
".+@#$$$$$$$$$$$$$#@+.",
"+%&&&&&&&&&&&&&&&&&%+",
"+*=================*+",
"+-;;;;;;;;;;;;;;;;;-+",
"+>,,',,,,)!~,,,,,,,>+",
"+{]^]]]/(_:<[}]^^]]{+",
"+]||||/(_:<[123||||]+",
"+{4444(_567890a4444{+",
"+bccc)_:6defgahicccb+",
"+jkkk!:<7lmnohpqkkkj+",
"+rsss~<[8tuvwpxyszsr+",
"+ABBBB[19gCDExFBBBBA+",
"+GHHHH}20ahpxFIHHHHG+",
"+JKKKKK3ahpxFIKKKKKJ+",
"+LMMMNNMMiqyMMMMMMML+",
"+OPPQPPPPPPPPQPPPPQO+",
"+RSSSSSSSSSSSSSSSSSR+",
"+TUUUUUUUUUUUUUUUUUT+",
"V+TTTTTTTTTTTTTTTTT+V",
" V++++W+WW+++++++++V "};
