/* XPM */
static char * stick_active_xpm[] = {
"21 21 68 1",
" 	c None",
".	c #848CA2",
"+	c #6B758F",
"@	c #CCCBDD",
"#	c #FBFBFC",
"$	c #FFFFFF",
"%	c #D2D1E3",
"&	c #F2F1F7",
"*	c #EDEBF3",
"=	c #E9E8F1",
"-	c #D5D4E3",
";	c #E0DFEA",
">	c #D5D5E3",
",	c #DCDBE7",
"'	c #DDDBE7",
")	c #A7B7C1",
"!	c #DADCDA",
"~	c #ABBAC6",
"{	c #D6D6E4",
"]	c #D8D8E5",
"^	c #D8D8E6",
"/	c #A6B5BF",
"(	c #E0E0DB",
"_	c #E2E2DE",
":	c #E5E5E2",
"<	c #E8E8E5",
"[	c #ECECE9",
"}	c #B2C1CD",
"|	c #D3D3E1",
"1	c #EFEFEC",
"2	c #F1F1EF",
"3	c #B5C4D0",
"4	c #D3D3E0",
"5	c #F3F3F1",
"6	c #F5F5F4",
"7	c #D3D3E2",
"8	c #CFD0DD",
"9	c #F7F7F6",
"0	c #B9C8D5",
"a	c #D0D1E0",
"b	c #CBCBDC",
"c	c #F9F9F8",
"d	c #F2F4F5",
"e	c #CBCCDE",
"f	c #C8CAD9",
"g	c #FBFBFA",
"h	c #BCCBD8",
"i	c #C8C9D9",
"j	c #C8C9DB",
"k	c #C3C4D6",
"l	c #FDFDFC",
"m	c #C3C5D9",
"n	c #BCBDD1",
"o	c #BCCCD9",
"p	c #BFC1D6",
"q	c #B8B9CE",
"r	c #BCBED4",
"s	c #B2B2CA",
"t	c #B2B3CA",
"u	c #B6B9D1",
"v	c #ADAEC6",
"w	c #ACAEC6",
"x	c #B2B5D0",
"y	c #A7A8C2",
"z	c #8589B0",
"A	c #9C9EBE",
"B	c #9CA4B9",
"C	c #6C7690",
" .+++++++++++++++++. ",
".+@#$$$$$$$$$$$$$#@+.",
"+%&&&&&&&&&&&&&&&&&%+",
"+*=================*+",
"+-;;;;;;;;;;;;;;;;;-+",
"+>,,',,,,)!~,,,,,,,>+",
"+{]^]]]/(_:<[}]^^]]{+",
"+]||||/(_:<[123||||]+",
"+{4444(_:<[12564444{+",
"+7888)_:<[1256908887+",
"+abbb!:<[12569cdbbba+",
"+efff~<[12569cghfife+",
"+jkkkk[12569cglkkkkj+",
"+mnnnn}2569cglonnnnm+",
"+pqqqqq369cgloqqqqqp+",
"+rsssttss0dhsssssssr+",
"+uvvwvvvvvvvvwvvvvwu+",
"+xyyyyyyyyyyyyyyyyyx+",
"+zAAAAAAAAAAAAAAAAAz+",
"B+zzzzzzzzzzzzzzzzz+B",
" B++++C+CC+++++++++B "};
