/* XPM */
static char * stick_pressed_xpm[] = {
"21 21 57 1",
" 	c None",
".	c #7B8399",
"+	c #4F596F",
"@	c #D8D7E9",
"#	c #ECE9F8",
"$	c #8D90AE",
"%	c #8387AD",
"&	c #9C9EB5",
"*	c #8B8FB2",
"=	c #A1A3BB",
"-	c #9498B9",
";	c #A6A9BE",
">	c #8A99A0",
",	c #B6B7AF",
"'	c #91A0A6",
")	c #9DA0BD",
"!	c #AEB0C3",
"~	c #87979E",
"{	c #B7B7AD",
"]	c #BCBBB1",
"^	c #C1C1B6",
"/	c #C7C6BB",
"(	c #CDCCC0",
"_	c #9DACB1",
":	c #A7ABC5",
"<	c #B1B3C7",
"[	c #D2D1C5",
"}	c #D7D5C8",
"|	c #A4B2B6",
"1	c #B2B4CD",
"2	c #BABBCE",
"3	c #DBDACC",
"4	c #DFDDCF",
"5	c #BDBED3",
"6	c #BFC1D2",
"7	c #E3E1D3",
"8	c #ABBABD",
"9	c #C6C7DB",
"0	c #C0C0D4",
"a	c #E6E5D6",
"b	c #E2E2D6",
"c	c #CED0E1",
"d	c #C3C4D5",
"e	c #EAE8D9",
"f	c #B0BEC1",
"g	c #D6D6E6",
"h	c #C7C7D9",
"i	c #EDEBDB",
"j	c #DBDBE9",
"k	c #C6C6DB",
"l	c #B2C0C2",
"m	c #CDCDE1",
"n	c #D3D1E4",
"o	c #FEFBFF",
"p	c #5B667E",
"q	c #FFFFFF",
"r	c #535C72",
" .+++++++++++++++++. ",
".+@###############@+.",
"+@$$$$$$$$$$$$$$$$$@+",
"+%&&&&&&&&&&&&&&&&&%+",
"+*=================*+",
"+-;;;;;;;>,';;;;;;;-+",
"+)!!!!!~{]^/(_!!!!!)+",
"+:<<<<~{]^/([}|<<<<:+",
"+12222{]^/([}3422221+",
"+5666>]^/([}34786665+",
"+9000,^/([}347ab0009+",
"+cddd'/([}347aefdddc+",
"+ghhhh([}347aeihhhhg+",
"+jkkkk_}347aeilkkkkj+",
"+jmmmmm|47aeilmmmmmj+",
"+jnnnnnnn8bfnnnnnnnj+",
"+j@@@@@@@@@@@@@@@@@j+",
"+o#################o+",
"+@ooooooooooooooooo@+",
".p@qqqqqqqqqqqqqqq@+.",
" .++++r+rr+++++++++. "};
