/* XPM */
static char * stick_toggled_prelight_xpm[] = {
"21 21 90 1",
" 	c None",
".	c #8088A0",
"+	c #5F6A85",
"@	c #E0DFF3",
"#	c #FFFFFF",
"$	c #E9E7FB",
"%	c #ECEBFB",
"&	c #FAF9FE",
"*	c #EDEDFC",
"=	c #F5F4FD",
"-	c #F6F4FD",
";	c #BCB694",
">	c #F4D48C",
",	c #BCAF83",
"'	c #EEEEFD",
")	c #F1F1FD",
"!	c #BCB99F",
"~	c #FEDF9C",
"{	c #FDD98C",
"]	c #FDD684",
"^	c #FCD37C",
"/	c #FCD074",
"(	c #BAA871",
"_	c #EAEAF9",
":	c #FBDC98",
"<	c #F7E3B3",
"[	c #F2EDD7",
"}	c #F6E0AC",
"|	c #FAD17B",
"1	c #FBC863",
"2	c #BAA365",
"3	c #EAEAF8",
"4	c #E9ECD2",
"5	c #ACDEA0",
"6	c #4DBF48",
"7	c #A0D194",
"8	c #E7E8CE",
"9	c #F9CB6D",
"0	c #FAC254",
"a	c #EAEAFA",
"b	c #E5E6F4",
"c	c #55D551",
"d	c #43C33F",
"e	c #29A826",
"f	c #98C88C",
"g	c #F5D99C",
"h	c #FAC04E",
"i	c #B99E58",
"j	c #E6E7F7",
"k	c #DFDFF1",
"l	c #42C33F",
"m	c #38B935",
"n	c #21A121",
"o	c #259520",
"p	c #F2EBD4",
"q	c #F9BD48",
"r	c #F0B745",
"s	c #E0E1F4",
"t	c #DBDDED",
"u	c #2AA827",
"v	c #22A220",
"w	c #139210",
"x	c #93C288",
"y	c #F5D797",
"z	c #F9BB43",
"A	c #B99B51",
"B	c #DBDCED",
"C	c #DCDDF0",
"D	c #D5D7E9",
"E	c #98C98C",
"F	c #239521",
"G	c #93C388",
"H	c #E6E6CD",
"I	c #F8C259",
"J	c #F9B93E",
"K	c #D5D7EC",
"L	c #CCCDE2",
"M	c #B9994E",
"N	c #D0D1E8",
"O	c #C6C8DD",
"P	c #CCCEE5",
"Q	c #BEBED8",
"R	c #BEBFD8",
"S	c #C4C8E1",
"T	c #B7B9D2",
"U	c #BFC2DF",
"V	c #B0B1CD",
"W	c #8488B1",
"X	c #A2A4C6",
"Y	c #A1A9C0",
" .+++++++++++++++++. ",
".+@###############@+.",
"+$#################$+",
"+###################+",
"+%&&&&&&&&&&&&&&&&&%+",
"+*==-====;>,=======*+",
"+')))))!~{]^/()))))'+",
"+)____!~:<[}|12____)+",
"+'3333~:45678903333'+",
"+abbb;{<5cdefghibbba+",
"+jkkk>][6lmnopqrkkkj+",
"+sttt,^}7uvwxyzAtBts+",
"+CDDDD/|8EFGHIJDDDDC+",
"+KLLLL(19gpyIJMLLLLK+",
"+NOOOOO20hqzJMOOOOON+",
"+PQQQRRQQirAQQQQQQQP+",
"+STTTTTTTTTTTTTTTTTS+",
"+UVVVVVVVVVVVVVVVVVU+",
"+WXXXXXXXXXXXXXXXXXW+",
"Y+WWWWWWWWWWWWWWWWW+Y",
" Y+++++++++++++++++Y "};
