/* XPM */
static char * stick_prelight_xpm[] = {
"21 21 73 1",
" 	c None",
".	c #8088A0",
"+	c #5F6A85",
"@	c #E0DFF3",
"#	c #FFFFFF",
"$	c #E9E7FB",
"%	c #ECEBFB",
"&	c #FAF9FE",
"*	c #EDEDFC",
"=	c #F5F4FD",
"-	c #F6F4FD",
";	c #BCB694",
">	c #F4D48C",
",	c #BCAF83",
"'	c #EEEEFD",
")	c #F1F1FD",
"!	c #BCB99F",
"~	c #FEDF9C",
"{	c #FDD98C",
"]	c #FDD684",
"^	c #FCD37C",
"/	c #FCD074",
"(	c #BAA871",
"_	c #EAEAF9",
":	c #FBDC98",
"<	c #F7E3B3",
"[	c #F2EDD7",
"}	c #F6E0AC",
"|	c #FAD17B",
"1	c #FBC863",
"2	c #BAA365",
"3	c #EAEAF8",
"4	c #F2EEDA",
"5	c #F1EFDF",
"6	c #F2EDD8",
"7	c #F9CB6D",
"8	c #FAC254",
"9	c #EAEAFA",
"0	c #E5E6F4",
"a	c #F5D99C",
"b	c #FAC04E",
"c	c #B99E58",
"d	c #E6E7F7",
"e	c #DFDFF1",
"f	c #F2EBD4",
"g	c #F9BD48",
"h	c #F0B745",
"i	c #E0E1F4",
"j	c #DBDDED",
"k	c #F5D797",
"l	c #F9BB43",
"m	c #B99B51",
"n	c #DBDCED",
"o	c #DCDDF0",
"p	c #D5D7E9",
"q	c #F1ECD7",
"r	c #F8C259",
"s	c #F9B93E",
"t	c #D5D7EC",
"u	c #CCCDE2",
"v	c #B9994E",
"w	c #D0D1E8",
"x	c #C6C8DD",
"y	c #CCCEE5",
"z	c #BEBED8",
"A	c #BEBFD8",
"B	c #C4C8E1",
"C	c #B7B9D2",
"D	c #BFC2DF",
"E	c #B0B1CD",
"F	c #8488B1",
"G	c #A2A4C6",
"H	c #A1A9C0",
" .+++++++++++++++++. ",
".+@###############@+.",
"+$#################$+",
"+###################+",
"+%&&&&&&&&&&&&&&&&&%+",
"+*==-====;>,=======*+",
"+')))))!~{]^/()))))'+",
"+)____!~:<[}|12____)+",
"+'3333~:45556783333'+",
"+9000;{<55555abc0009+",
"+deee>][55555fgheeed+",
"+ijjj,^}55555klmjnji+",
"+opppp/|6555qrsppppo+",
"+tuuuu(17afkrsvuuuut+",
"+wxxxxx28bglsvxxxxxw+",
"+yzzzAAzzchmzzzzzzzy+",
"+BCCCCCCCCCCCCCCCCCB+",
"+DEEEEEEEEEEEEEEEEED+",
"+FGGGGGGGGGGGGGGGGGF+",
"H+FFFFFFFFFFFFFFFFF+H",
" H+++++++++++++++++H "};
