/* XPM */
static char * stick_toggled_pressed_xpm[] = {
"21 21 78 1",
" 	c None",
".	c #7B8399",
"+	c #4F596F",
"@	c #D8D7E9",
"#	c #ECE9F8",
"$	c #8D90AE",
"%	c #8387AD",
"&	c #9C9EB5",
"*	c #8B8FB2",
"=	c #A1A3BB",
"-	c #9498B9",
";	c #A6A9BE",
">	c #8A99A0",
",	c #B6B7AF",
"'	c #91A0A6",
")	c #9DA0BD",
"!	c #AEB0C3",
"~	c #87979E",
"{	c #B7B7AD",
"]	c #BCBBB1",
"^	c #C1C1B6",
"/	c #C7C6BB",
"(	c #CDCCC0",
"_	c #9DACB1",
":	c #A7ABC5",
"<	c #B1B3C7",
"[	c #D2D1C5",
"}	c #D7D5C8",
"|	c #A4B2B6",
"1	c #B2B4CD",
"2	c #BABBCE",
"3	c #BBC1B0",
"4	c #93C58A",
"5	c #49BB45",
"6	c #8DBF84",
"7	c #CDD1BF",
"8	c #DBDACC",
"9	c #DFDDCF",
"0	c #BDBED3",
"a	c #BFC1D2",
"b	c #55D551",
"c	c #43C33F",
"d	c #29A826",
"e	c #8BBB80",
"f	c #E3E1D3",
"g	c #ABBABD",
"h	c #C6C7DB",
"i	c #C0C0D4",
"j	c #42C33F",
"k	c #38B935",
"l	c #21A121",
"m	c #23931F",
"n	c #E6E5D6",
"o	c #E2E2D6",
"p	c #CED0E1",
"q	c #C3C4D5",
"r	c #8DBF85",
"s	c #2AA827",
"t	c #22A220",
"u	c #139210",
"v	c #8ABA80",
"w	c #EAE8D9",
"x	c #B0BEC1",
"y	c #D6D6E6",
"z	c #C7C7D9",
"A	c #8BBC80",
"B	c #219320",
"C	c #DBDFCC",
"D	c #EDEBDB",
"E	c #DBDBE9",
"F	c #C6C6DB",
"G	c #B2C0C2",
"H	c #CDCDE1",
"I	c #D3D1E4",
"J	c #FEFBFF",
"K	c #5B667E",
"L	c #FFFFFF",
"M	c #535C72",
" .+++++++++++++++++. ",
".+@###############@+.",
"+@$$$$$$$$$$$$$$$$$@+",
"+%&&&&&&&&&&&&&&&&&%+",
"+*=================*+",
"+-;;;;;;;>,';;;;;;;-+",
"+)!!!!!~{]^/(_!!!!!)+",
"+:<<<<~{]^/([}|<<<<:+",
"+12222{]345678922221+",
"+0aaa>]^4bcde9fgaaa0+",
"+hiii,^/5jklmfnoiiih+",
"+pqqq'/(rstuvnwxqqqp+",
"+yzzzz([7ABvCwDzzzzy+",
"+EFFFF_}89fnwDGFFFFE+",
"+EHHHHH|9fnwDGHHHHHE+",
"+EIIIIIIIgoxIIIIIIIE+",
"+E@@@@@@@@@@@@@@@@@E+",
"+J#################J+",
"+@JJJJJJJJJJJJJJJJJ@+",
".K@LLLLLLLLLLLLLLL@+.",
" .++++M+MM+++++++++. "};
