/* XPM */
static char * title_3_active_xpm[] = {
"19 29 86 1",
" 	c None",
".	c #66667E",
"+	c #A8A7BF",
"@	c #FFFFFF",
"#	c #D7D8E2",
"$	c #BCBCCF",
"%	c #A4A3BE",
"&	c #ACABC4",
"*	c #AFAEC7",
"=	c #B1B3C8",
"-	c #B4B6C7",
";	c #B7B8C9",
">	c #B6B9C9",
",	c #B7B9C9",
"'	c #B6B8C9",
")	c #B7B8C8",
"!	c #B6B9C8",
"~	c #BABBCC",
"{	c #B9BCCB",
"]	c #BABCCB",
"^	c #B9BCCC",
"/	c #BABCCC",
"(	c #BEC0CF",
"_	c #BEC0CE",
":	c #BDC0CE",
"<	c #BDC0CF",
"[	c #C1C4D2",
"}	c #C2C4D1",
"|	c #C1C4D1",
"1	c #C2C4D2",
"2	c #C5C7D4",
"3	c #C5C7D5",
"4	c #C4C7D5",
"5	c #C4C8D4",
"6	c #C4C7D4",
"7	c #C5C8D4",
"8	c #C5C8D5",
"9	c #CBCDD9",
"0	c #CACDD9",
"a	c #CBCED8",
"b	c #CACDD8",
"c	c #CBCDD8",
"d	c #CBCED9",
"e	c #CACED8",
"f	c #D0D2DC",
"g	c #CFD2DC",
"h	c #CFD2DD",
"i	c #D5D8E1",
"j	c #D5D7E0",
"k	c #D6D8E0",
"l	c #D6D8E1",
"m	c #D6D7E1",
"n	c #D6D7E0",
"o	c #D5D8E0",
"p	c #D5D7E1",
"q	c #DCDEE5",
"r	c #DCDEE6",
"s	c #DDDEE5",
"t	c #E3E4EB",
"u	c #E3E5EA",
"v	c #E3E4EA",
"w	c #E3E5EB",
"x	c #EAEBF0",
"y	c #EAEBEF",
"z	c #EAECF0",
"A	c #F0F2F5",
"B	c #F1F1F4",
"C	c #F1F2F4",
"D	c #F0F2F4",
"E	c #F0F1F5",
"F	c #F0F1F4",
"G	c #F1F1F5",
"H	c #F6F7F9",
"I	c #F6F7F8",
"J	c #F7F7F9",
"K	c #F7F7F8",
"L	c #FCFCFC",
"M	c #FCFCFD",
"N	c #FBFBFD",
"O	c #FCFBFC",
"P	c #FBFCFC",
"Q	c #FBFCFD",
"R	c #FBFBFC",
"S	c #E4E3E3",
"T	c #BCBDCD",
"U	c #777792",
"...................",
"+++++++++++++++++++",
"@@@@@@@@@@@@@@@@@@@",
"###################",
"$$$$$$$$$$$$$$$$$$$",
"+++++++++++++++++++",
"%%%%%%%%%%%%%%%%%%%",
"&&&&&&&&&&&&&&&&&&&",
"*******************",
"===================",
"-------------------",
";>,'';';)',)!>;,>''",
"~{]^{^/]]/{^/]]//^/",
"(_(:__:__::<:_(__<(",
"[[}[[|[1[}[[[}1|[11",
"2233345672573226822",
"90abc9dcacccebab09c",
"ffgfgfhfggghffggffg",
"ijklmnkinljomlnpjpl",
"qqrqrqqqrqqqqsrqrqr",
"tuvvtwvuttwttwttuvw",
"xyxxyxzyyxxxyxxxxyx",
"ABCDBEEFBBFEDBECGCF",
"HHHIJJHJIHJIHHIKHII",
"LMLNMOPQOLPPQOPRLPN",
"@@@@@@@@@@@@@@@@@@@",
"SSSSSSSSSSSSSSSSSSS",
"TTTTTTTTTTTTTTTTTTT",
"UUUUUUUUUUUUUUUUUUU"};
