/* XPM */
static char * title_5_inactive_xpm[] = {
"19 29 26 1",
" 	c None",
".	c #BABAC5",
"+	c #ECEEF5",
"@	c #FFFFFF",
"#	c #E4E5ED",
"$	c #D7D7E3",
"%	c #D9D9E5",
"&	c #DBDDE6",
"*	c #DCDDE8",
"=	c #DEE0E6",
"-	c #DEDFEA",
";	c #E3E6E8",
">	c #E6E8ED",
",	c #E8E9F1",
"'	c #EEEEEE",
")	c #EDF0F3",
"!	c #F4F3F5",
"~	c #F6F6F6",
"{	c #F8F8F9",
"]	c #FAFAFB",
"^	c #FBFBFC",
"/	c #FCFCFD",
"(	c #FEFDFE",
"_	c #FDFFFC",
":	c #EAEDF5",
"<	c #CCCBD9",
"...................",
"+++++++++++++++++++",
"@@@@@@@@@@@@@@@@@@@",
"+++++++++++++++++++",
"###################",
"$$$$$$$$$$$$$$$$$$$",
"$$$$$$$$$$$$$$$$$$$",
"%%%%%%%%%%%%%%%%%%%",
"&&&&&&&&&&&&&&&&&&&",
"*******************",
"===================",
"-------------------",
";;;;;;;;;;;;;;;;;;;",
"###################",
">>>>>>>>>>>>>>>>>>>",
",,,,,,,,,,,,,,,,,,,",
"'''''''''''''''''''",
")))))))))))))))))))",
"!!!!!!!!!!!!!!!!!!!",
"~~~~~~~~~~~~~~~~~~~",
"{{{{{{{{{{{{{{{{{{{",
"]]]]]]]]]]]]]]]]]]]",
"^^^^^^^^^^^^^^^^^^^",
"///////////////////",
"(((((((((((((((((((",
"@@@@@@@@@@@@@@@@@@@",
"___________________",
":::::::::::::::::::",
"<<<<<<<<<<<<<<<<<<<"};
