/* XPM */
static char * top_right_active_xpm[] = {
"6 29 85 1",
" 	c None",
".	c #66667E",
"+	c #88879D",
"@	c #FCFCFC",
"#	c #D1D1DE",
"$	c #9594AB",
"%	c #F2F1F3",
"&	c #D7D8E2",
"*	c #D0D0E0",
"=	c #E4E3E8",
"-	c #87879B",
";	c #B1B0C4",
">	c #BCBCCF",
",	c #D2D2E0",
"'	c #E6E6ED",
")	c #A8A7BF",
"!	c #A4A3BE",
"~	c #B5B4C9",
"{	c #D2D2DF",
"]	c #C0C1D1",
"^	c #ACABC4",
"/	c #C7C7D4",
"(	c #AFAEC7",
"_	c #B8B7CF",
":	c #C6C8D7",
"<	c #B1B3C8",
"[	c #B4B6C7",
"}	c #B6B9C9",
"|	c #B6B8C9",
"1	c #C7C9D7",
"2	c #BABCCC",
"3	c #BABBCC",
"4	c #B9BCCB",
"5	c #B6B8C8",
"6	c #C9CAD8",
"7	c #BDC0CF",
"8	c #BEC0CF",
"9	c #BEC0CE",
"0	c #CACCD8",
"a	c #C1C4D2",
"b	c #C2C4D1",
"c	c #C1C4D1",
"d	c #CCCEDA",
"e	c #C4C8D5",
"f	c #C4C8D4",
"g	c #C5C7D5",
"h	c #CFCFDA",
"i	c #CACED8",
"j	c #CACED9",
"k	c #CBCDD9",
"l	c #D0D2DB",
"m	c #D0D2DD",
"n	c #D0D2DC",
"o	c #CFD2DC",
"p	c #D2D4DD",
"q	c #D6D8E0",
"r	c #D5D8E1",
"s	c #D5D7E0",
"t	c #D5D6DD",
"u	c #DCDEE5",
"v	c #DCDEE6",
"w	c #D7D8DE",
"x	c #E3E4EA",
"y	c #E3E5EA",
"z	c #E3E5EB",
"A	c #D9D9DF",
"B	c #EAEBEF",
"C	c #EAEBF0",
"D	c #DCDBE0",
"E	c #F0F1F4",
"F	c #F1F1F4",
"G	c #F0F2F4",
"H	c #DEDDE1",
"I	c #F7F7F8",
"J	c #F7F7F9",
"K	c #E0E0E1",
"L	c #FBFCFC",
"M	c #FCFBFD",
"N	c #FBFCFD",
"O	c #E2E1E2",
"P	c #FFFFFF",
"Q	c #E4E3E3",
"R	c #BCBDCD",
"S	c #777792",
"T	c #9898A7",
".     ",
"+..   ",
"@#$.  ",
"%@&$. ",
"*=@&- ",
";>,').",
"!!~{].",
"^^^/].",
"(((_:.",
"<<<<:.",
"[[[[:.",
"}|}[1.",
"23456.",
"78890.",
"abcad.",
"effgh.",
"ijkkl.",
"mnnop.",
"qrsrt.",
"uuvuw.",
"xyxzA.",
"BCBBD.",
"EEFGH.",
"IJIJK.",
"L@MNO.",
"PPPPE.",
"QQQQJ.",
"RRRRJ.",
"SSSTJ."};
