/* XPM */
static char * top_left_inactive_xpm[] = {
"6 29 43 1",
" 	c None",
".	c #BABAC5",
"+	c #D2D2DE",
"@	c #C6C6D2",
"#	c #E5E5EC",
"$	c #FBFBFB",
"%	c #E8E9EE",
"&	c #F6F6F7",
"*	c #EFEEF1",
"=	c #E5E5ED",
"-	c #D0D0DC",
";	c #F0F0F3",
">	c #E6E6ED",
",	c #DADAE4",
"'	c #D5D4DE",
")	c #DCDDE5",
"!	c #E6E6EC",
"~	c #D7D6E1",
"{	c #D7D7E3",
"]	c #E0E0E7",
"^	c #D9D9E5",
"/	c #EAEDF5",
"(	c #D8D8E4",
"_	c #DBDDE6",
":	c #DCDDE8",
"<	c #DEDFEA",
"[	c #DEE0E6",
"}	c #E3E6E8",
"|	c #E4E5ED",
"1	c #E6E8ED",
"2	c #E8E9F1",
"3	c #EEEEEE",
"4	c #EDF0F3",
"5	c #F4F3F5",
"6	c #F6F6F6",
"7	c #F8F8F9",
"8	c #FAFAFB",
"9	c #FBFBFC",
"0	c #FCFCFD",
"a	c #FEFDFE",
"b	c #FFFFFF",
"c	c #FDFFFC",
"d	c #CCCBD9",
"     .",
"   ..+",
"  .@#$",
" .@%$&",
" .%$*=",
".-;>,'",
".)!~{{",
".%]^^^",
"./(___",
"./_:::",
"./<[[[",
"./<<<<",
"./}}}}",
"./||||",
"./1111",
"./2222",
"./3333",
"./4444",
"./5555",
"./6666",
"./7777",
"./8888",
"./9999",
"./0000",
"./aaaa",
"./bbbb",
"./cccc",
"./////",
".//ddd"};
