/* XPM */
static char * top_right_inactive_xpm[] = {
"6 29 43 1",
" 	c None",
".	c #BABAC5",
"+	c #D2D2DE",
"@	c #FBFBFB",
"#	c #E5E5EC",
"$	c #C6C6D2",
"%	c #F6F6F7",
"&	c #E8E9EE",
"*	c #E5E5ED",
"=	c #EFEEF1",
"-	c #D5D4DE",
";	c #DADAE4",
">	c #E6E6ED",
",	c #F0F0F3",
"'	c #D0D0DC",
")	c #D7D7E3",
"!	c #D7D6E1",
"~	c #E6E6EC",
"{	c #DCDDE5",
"]	c #D9D9E5",
"^	c #E0E0E7",
"/	c #DBDDE6",
"(	c #D8D8E4",
"_	c #EAEDF5",
":	c #DCDDE8",
"<	c #DEE0E6",
"[	c #DEDFEA",
"}	c #E3E6E8",
"|	c #E4E5ED",
"1	c #E6E8ED",
"2	c #E8E9F1",
"3	c #EEEEEE",
"4	c #EDF0F3",
"5	c #F4F3F5",
"6	c #F6F6F6",
"7	c #F8F8F9",
"8	c #FAFAFB",
"9	c #FBFBFC",
"0	c #FCFCFD",
"a	c #FEFDFE",
"b	c #FFFFFF",
"c	c #FDFFFC",
"d	c #CCCBD9",
".     ",
"+..   ",
"@#$.  ",
"%@&$. ",
"*=@&. ",
"-;>,'.",
"))!~{.",
"]]]^&.",
"///(_.",
":::/_.",
"<<<[_.",
"[[[[_.",
"}}}}_.",
"||||_.",
"1111_.",
"2222_.",
"3333_.",
"4444_.",
"5555_.",
"6666_.",
"7777_.",
"8888_.",
"9999_.",
"0000_.",
"aaaa_.",
"bbbb_.",
"cccc_.",
"___c_.",
"dddc_."};
