/* XPM */
static char * top_left_active_xpm[] = {
"6 29 84 1",
" 	c None",
".	c #66667E",
"+	c #88879D",
"@	c #9594AB",
"#	c #D1D1DE",
"$	c #FCFCFC",
"%	c #D7D8E2",
"&	c #F2F1F3",
"*	c #87879B",
"=	c #E4E3E8",
"-	c #D0D0E0",
";	c #A8A7BF",
">	c #E6E6ED",
",	c #D2D2E0",
"'	c #BCBCCF",
")	c #B1B0C4",
"!	c #C0C1D1",
"~	c #D2D2DF",
"{	c #B5B4C9",
"]	c #A4A3BE",
"^	c #C7C7D4",
"/	c #ACABC4",
"(	c #C6C8D7",
"_	c #B8B7CF",
":	c #AFAEC7",
"<	c #B1B3C8",
"[	c #B4B6C7",
"}	c #C7C9D7",
"|	c #B6B8C8",
"1	c #B6B8C9",
"2	c #B6B9C9",
"3	c #C9CAD8",
"4	c #B9BCCB",
"5	c #BABCCB",
"6	c #BABCCC",
"7	c #CACCD8",
"8	c #BEC0CF",
"9	c #BDC0CF",
"0	c #BEC0CE",
"a	c #CCCEDA",
"b	c #C2C4D2",
"c	c #C1C4D1",
"d	c #C1C4D2",
"e	c #CFCFDA",
"f	c #C5C8D4",
"g	c #D0D2DB",
"h	c #CBCDD8",
"i	c #CACDD9",
"j	c #CBCED8",
"k	c #CACDD8",
"l	c #D2D4DD",
"m	c #CFD2DC",
"n	c #D0D2DC",
"o	c #D0D2DD",
"p	c #D5D6DD",
"q	c #D5D8E0",
"r	c #D6D8E1",
"s	c #D7D8DE",
"t	c #DCDEE6",
"u	c #D9D9DF",
"v	c #E3E5EA",
"w	c #E3E4EA",
"x	c #E3E5EB",
"y	c #DCDBE0",
"z	c #EAEBF0",
"A	c #EAECF0",
"B	c #E9EBEF",
"C	c #DEDDE1",
"D	c #F1F1F4",
"E	c #F0F1F4",
"F	c #F0F2F4",
"G	c #E0E0E1",
"H	c #F6F7F9",
"I	c #F7F7F9",
"J	c #E2E1E2",
"K	c #FBFCFC",
"L	c #FBFBFC",
"M	c #FBFCFD",
"N	c #FCFBFD",
"O	c #FFFFFF",
"P	c #E4E3E3",
"Q	c #BCBDCD",
"R	c #9898A7",
"S	c #777792",
"     .",
"   ..+",
"  .@#$",
" .@%$&",
" *%$=-",
".;>,')",
".!~{]]",
".!^///",
".(_:::",
".(<<<<",
".([[[[",
".}[|12",
".3|456",
".78900",
".abcdd",
".effff",
".ghijk",
".lmnon",
".pqrqq",
".stttt",
".uvwxx",
".yzzAB",
".CDDEF",
".GHIHH",
".JKLMN",
".EOOOO",
".IPPPP",
".IQQQQ",
".IRSSS"};
