/* XPM */
static char * title_1_inactive_xpm[] = {
"1 30 29 1",
" 	c None",
".	c #4D73C3",
"+	c #85B3E3",
"@	c #4F74B7",
"#	c #5175B7",
"$	c #5379BC",
"%	c #537CBC",
"&	c #547DBE",
"*	c #5580C0",
"=	c #5582C2",
"-	c #5886C3",
";	c #5688C5",
">	c #588CC8",
",	c #598ECB",
"'	c #5C91CE",
")	c #5B92CF",
"!	c #6FA1D9",
"~	c #72A4DB",
"{	c #77A9E0",
"]	c #7AADE3",
"^	c #7DAFE1",
"/	c #80B2E2",
"(	c #83B7E3",
"_	c #83B7E2",
":	c #87BCE5",
"<	c #8BBEE4",
"[	c #8EC0E6",
"}	c #90C3E6",
"|	c #79A6E3",
".",
"+",
"@",
"#",
"$",
"%",
"&",
"*",
"=",
"-",
";",
">",
">",
",",
"'",
")",
"!",
"~",
"{",
"]",
"^",
"/",
"(",
"_",
":",
"<",
"[",
"}",
"}",
"|"};
