/* XPM */
static char * title_1_active_xpm[] = {
"1 30 29 1",
" 	c None",
".	c #2A4DAB",
"+	c #99C6F1",
"@	c #83C2ED",
"#	c #80BEED",
"$	c #7BBBEB",
"%	c #76B8EC",
"&	c #72B3E9",
"*	c #70B1EB",
"=	c #6DAAE9",
"-	c #68A5E8",
";	c #64A3EA",
">	c #609EE7",
",	c #5A98E1",
"'	c #5593DE",
")	c #3980D2",
"!	c #3A7CD0",
"~	c #3779CD",
"{	c #3677C9",
"]	c #3472C5",
"^	c #376FC2",
"/	c #3369C1",
"(	c #3367BD",
"_	c #3261BB",
":	c #315FB7",
"<	c #305BB7",
"[	c #2E57B1",
"}	c #2C55B1",
"|	c #254394",
".",
"+",
"@",
"#",
"$",
"%",
"&",
"*",
"=",
"-",
";",
";",
">",
",",
"'",
")",
"!",
"~",
"{",
"]",
"^",
"/",
"(",
"_",
":",
"<",
"[",
"}",
"}",
"|"};
