/* XPM */
static char * top_right_active_xpm[] = {
"6 30 65 1",
" 	c None",
".	c #2A4DAB",
"+	c #7099D7",
"@	c #9BC8F1",
"#	c #99C6F1",
"$	c #80BEED",
"%	c #7BBBEB",
"&	c #76B8EC",
"*	c #2D56B0",
"=	c #72B3E9",
"-	c #89B5E7",
";	c #3262BD",
">	c #70B1EB",
",	c #8BB5E7",
"'	c #6DAAE9",
")	c #8AB9E7",
"!	c #68A5E8",
"~	c #8AB9E8",
"{	c #64A3EA",
"]	c #609EE7",
"^	c #5A98E1",
"/	c #8BBAE7",
"(	c #5593DE",
"_	c #8ABBE7",
":	c #3980D2",
"<	c #8ABBE8",
"[	c #3A7CD0",
"}	c #3779CD",
"|	c #397ACE",
"1	c #8FBEE8",
"2	c #3677C9",
"3	c #3A7ACA",
"4	c #8FBDE8",
"5	c #3472C5",
"6	c #3B78C8",
"7	c #376FC2",
"8	c #4078C6",
"9	c #90BFE8",
"0	c #3369C1",
"a	c #4176C7",
"b	c #91BFE8",
"c	c #3367BD",
"d	c #4478C5",
"e	c #91C0E8",
"f	c #3261BB",
"g	c #4877C6",
"h	c #93C1E9",
"i	c #315FB7",
"j	c #4C7AC4",
"k	c #95C2E9",
"l	c #305BB7",
"m	c #507BC6",
"n	c #96C2E9",
"o	c #2E57B1",
"p	c #547DC4",
"q	c #98C3E9",
"r	c #2C55B1",
"s	c #2D56B1",
"t	c #5881C7",
"u	c #5A83C8",
"v	c #96C0E8",
"w	c #254394",
"x	c #224FA8",
"y	c #5E89CB",
"z	c #96C3E9",
".     ",
"+..   ",
"@#+.  ",
"$$#+. ",
"%%%#. ",
"&&&#+*",
"====-;",
">>>>,;",
"'''');",
"!!!!~;",
"{{{{~;",
"{{{{~;",
"]]]]);",
"^^^^/;",
"((((_;",
"::::<;",
"[[[[_;",
"}}}|1;",
"22234;",
"55561;",
"77789;",
"000ab;",
"cccde;",
"fffgh;",
"iiijk;",
"lllmn;",
"ooopq;",
"rrstq;",
"rrruv;",
"wwxyz;"};
