/* XPM */
static char * top_left_active_xpm[] = {
"6 30 63 1",
" 	c None",
".	c #2A4DAB",
"+	c #7099D7",
"@	c #99C6F1",
"#	c #9BC8F1",
"$	c #80BEED",
"%	c #7BBBEB",
"&	c #76B8EC",
"*	c #3262BD",
"=	c #89B5E7",
"-	c #72B3E9",
";	c #8BB5E7",
">	c #70B1EB",
",	c #8AB9E7",
"'	c #6DAAE9",
")	c #8AB9E8",
"!	c #68A5E8",
"~	c #64A3EA",
"{	c #609EE7",
"]	c #8BBAE7",
"^	c #5A98E1",
"/	c #8ABBE7",
"(	c #5593DE",
"_	c #8ABBE8",
":	c #3980D2",
"<	c #3A7CD0",
"[	c #8FBEE8",
"}	c #397ACE",
"|	c #3779CD",
"1	c #8FBDE8",
"2	c #3A7ACA",
"3	c #3677C9",
"4	c #3B78C8",
"5	c #3472C5",
"6	c #90BFE8",
"7	c #4078C6",
"8	c #376FC2",
"9	c #91BFE8",
"0	c #4176C7",
"a	c #3369C1",
"b	c #91C0E8",
"c	c #4478C5",
"d	c #3367BD",
"e	c #93C1E9",
"f	c #4877C6",
"g	c #3261BB",
"h	c #95C2E9",
"i	c #4C7AC4",
"j	c #315FB7",
"k	c #96C2E9",
"l	c #507BC6",
"m	c #305BB7",
"n	c #98C3E9",
"o	c #547DC4",
"p	c #2E57B1",
"q	c #5680C6",
"r	c #2C55B1",
"s	c #96C0E8",
"t	c #5A83C8",
"u	c #96C3E9",
"v	c #5E89CB",
"w	c #184DAF",
"x	c #254394",
"     .",
"   ..+",
"  .+@#",
" .+@$$",
" .@%%%",
".+@&&&",
"*=----",
"*;>>>>",
"*,''''",
"*)!!!!",
"*)~~~~",
"*)~~~~",
"*,{{{{",
"*]^^^^",
"*/((((",
"*_::::",
"*/<<<<",
"*[}|||",
"*12333",
"*[4555",
"*67888",
"*90aaa",
"*bcddd",
"*efggg",
"*hijjj",
"*klmmm",
"*noppp",
"*nqrrr",
"*strrr",
"*uvwxx"};
