/* XPM */
static char * top_right_inactive_xpm[] = {
"6 30 75 1",
" 	c None",
".	c #4D73C3",
"+	c #5D7CBD",
"@	c #87B5E3",
"#	c #85B3E3",
"$	c #5175B7",
"%	c #5379BC",
"&	c #537CBC",
"*	c #547DBE",
"=	c #7AA6DD",
"-	c #5580C0",
";	c #7BA8DD",
">	c #4D74C4",
",	c #5582C2",
"'	c #7CA8DD",
")	c #4D75C5",
"!	c #5886C3",
"~	c #7EA9DD",
"{	c #4E77C5",
"]	c #5688C5",
"^	c #7FAADE",
"/	c #4E79C8",
"(	c #588CC8",
"_	c #81AADE",
":	c #4F7AC9",
"<	c #598ECB",
"[	c #83ACDE",
"}	c #4F7CCA",
"|	c #5C91CE",
"1	c #85AEDF",
"2	c #507ECC",
"3	c #5B92CF",
"4	c #87B1E0",
"5	c #5081CD",
"6	c #6FA1D9",
"7	c #88B2E1",
"8	c #5182CF",
"9	c #72A4DB",
"0	c #8BB4E1",
"a	c #5185D1",
"b	c #77A9E0",
"c	c #8CB5E1",
"d	c #5288D2",
"e	c #7AADE3",
"f	c #8FB8E2",
"g	c #5289D5",
"h	c #7DAFE1",
"i	c #91B9E2",
"j	c #538DD6",
"k	c #80B2E2",
"l	c #93BAE3",
"m	c #538ED8",
"n	c #83B7E3",
"o	c #96BDE3",
"p	c #5391D9",
"q	c #83B7E2",
"r	c #97BFE4",
"s	c #5493DB",
"t	c #87BCE5",
"u	c #98C0E5",
"v	c #5495DD",
"w	c #8BBEE4",
"x	c #9AC1E5",
"y	c #5597DE",
"z	c #8EC0E6",
"A	c #9CC3E5",
"B	c #5599E0",
"C	c #90C3E6",
"D	c #9EC4E5",
"E	c #569AE1",
"F	c #9FC5E7",
"G	c #579CE2",
"H	c #79A6E3",
"I	c #A1C6E7",
"J	c #579DE3",
".     ",
"+..   ",
"@#+.  ",
"$$#+. ",
"%%%#. ",
"&&&#..",
"****=.",
"----;>",
",,,,')",
"!!!!~{",
"]]]]^/",
"((((_:",
"((((_:",
"<<<<[}",
"||||12",
"333345",
"666678",
"99990a",
"bbbbcd",
"eeeefg",
"hhhhij",
"kkkklm",
"nnnnop",
"qqqqrs",
"ttttuv",
"wwwwxy",
"zzzzAB",
"CCCCDE",
"CCCCFG",
"HHHCIJ"};
