/* XPM */
static char * top_left_inactive_xpm[] = {
"6 30 76 1",
" 	c None",
".	c #4D73C3",
"+	c #5D7CBD",
"@	c #85B3E3",
"#	c #87B5E3",
"$	c #5175B7",
"%	c #5379BC",
"&	c #537CBC",
"*	c #7AA6DD",
"=	c #547DBE",
"-	c #4D74C4",
";	c #7BA8DD",
">	c #5580C0",
",	c #4D75C5",
"'	c #7CA8DD",
")	c #5582C2",
"!	c #4E77C5",
"~	c #7EA9DD",
"{	c #5886C3",
"]	c #4E79C8",
"^	c #7FAADE",
"/	c #5688C5",
"(	c #4F7AC9",
"_	c #81AADE",
":	c #588CC8",
"<	c #4F7CCA",
"[	c #83ACDE",
"}	c #598ECB",
"|	c #507ECC",
"1	c #85AEDF",
"2	c #5C91CE",
"3	c #5081CD",
"4	c #87B1E0",
"5	c #5B92CF",
"6	c #5182CF",
"7	c #88B2E1",
"8	c #6FA1D9",
"9	c #5185D1",
"0	c #8BB4E1",
"a	c #72A4DB",
"b	c #5288D2",
"c	c #8CB5E1",
"d	c #77A9E0",
"e	c #5289D5",
"f	c #8FB8E2",
"g	c #7AADE3",
"h	c #538DD6",
"i	c #91B9E2",
"j	c #7DAFE1",
"k	c #538ED8",
"l	c #93BAE3",
"m	c #80B2E2",
"n	c #5391D9",
"o	c #96BDE3",
"p	c #83B7E3",
"q	c #5493DB",
"r	c #97BFE4",
"s	c #83B7E2",
"t	c #5495DD",
"u	c #98C0E5",
"v	c #87BCE5",
"w	c #5597DE",
"x	c #9AC1E5",
"y	c #8BBEE4",
"z	c #5599E0",
"A	c #9CC3E5",
"B	c #8EC0E6",
"C	c #569AE1",
"D	c #9EC4E5",
"E	c #90C3E6",
"F	c #579CE2",
"G	c #9FC5E7",
"H	c #579DE3",
"I	c #A1C6E7",
"J	c #8FC0E5",
"K	c #79A6E3",
"     .",
"   ..+",
"  .+@#",
" .+@$$",
" .@%%%",
"..@&&&",
".*====",
"-;>>>>",
",'))))",
"!~{{{{",
"]^////",
"(_::::",
"(_::::",
"<[}}}}",
"|12222",
"345555",
"678888",
"90aaaa",
"bcdddd",
"efgggg",
"hijjjj",
"klmmmm",
"nopppp",
"qrssss",
"tuvvvv",
"wxyyyy",
"zABBBB",
"CDEEEE",
"FGEEEE",
"HIJKKK"};
