/* XPM */
static char *bottom_active[] = {
/* columns rows colors chars-per-pixel */
"11 3 2 1 ",
"  c #1B1B1B",
". c gray52",
/* pixels */
"           ",
"...........",
"           "
};
