/* XPM */
static char *close_pressed[] = {
/* columns rows colors chars-per-pixel */
"21 21 191 2 ",
"   c #222222",
".  c #232323",
"X  c gray14",
"o  c #252525",
"O  c #282828",
"+  c gray17",
"@  c #2C2C2C",
"#  c #2D2D2D",
"$  c gray18",
"%  c gray20",
"&  c gray22",
"*  c #434343",
"=  c #565656",
"-  c gray34",
";  c #635F66",
":  c #626067",
">  c #6D6267",
",  c #6E6267",
"<  c #62626A",
"1  c #716064",
"2  c #706265",
"3  c #9F391F",
"4  c #AB360F",
"5  c #A53717",
"6  c #A63717",
"7  c #A93612",
"8  c #A83615",
"9  c #A83715",
"0  c #A33819",
"q  c #A1391A",
"w  c #A0391C",
"e  c #A2381C",
"r  c #AE3E19",
"t  c #AB3E1C",
"y  c #973C26",
"u  c #9D3A20",
"i  c #953C29",
"p  c #963C28",
"a  c #943D2A",
"s  c #9B432E",
"d  c #A54023",
"f  c #AE4828",
"g  c #A94A2E",
"h  c #B24722",
"j  c #A04D39",
"k  c #AE563D",
"l  c #B35437",
"z  c #B55434",
"x  c #9D5D4E",
"c  c #A55946",
"v  c #A55A47",
"b  c #AB5841",
"n  c #A85945",
"m  c #AB5A45",
"M  c #A55D4C",
"N  c #A85C49",
"B  c #AB5E4A",
"V  c #A85E4C",
"C  c #9D6052",
"Z  c #9C6355",
"A  c #9B6759",
"S  c #9F675A",
"D  c #9E685B",
"F  c #9C695C",
"G  c #9F6B5E",
"H  c #9E6B5F",
"J  c #9C6C5F",
"K  c #A4604F",
"L  c #AB604E",
"P  c #A9624F",
"I  c #AF654C",
"U  c #AD664F",
"Y  c #B66346",
"T  c #B56447",
"R  c #B86246",
"E  c #B5624A",
"W  c #B26549",
"Q  c #B1654A",
"!  c #A36353",
"~  c #A66555",
"^  c #A56557",
"/  c #A66556",
"(  c #AB6351",
")  c #AA6352",
"_  c #A96453",
"`  c #AA6452",
"'  c #AB6653",
"]  c #AB6753",
"[  c #AC6751",
"{  c #AD6652",
"}  c #A86555",
"|  c #AB6754",
" . c #AA6655",
".. c #AB6655",
"X. c #AA6755",
"o. c #AB6755",
"O. c #A86757",
"+. c #AB6656",
"@. c #AA6756",
"#. c #AC6655",
"$. c #AF6A55",
"%. c #AD6857",
"&. c #A16759",
"*. c #A36659",
"=. c #A56558",
"-. c #A56859",
";. c #A66859",
":. c #A4685B",
">. c #A2695C",
",. c #A16A5C",
"<. c #A26A5C",
"1. c #A06A5E",
"2. c #A66B5C",
"3. c #A26C5F",
"4. c #A36C5F",
"5. c #A56C5E",
"6. c #AB6959",
"7. c #A86A5B",
"8. c #AE6A59",
"9. c #B16F5C",
"0. c #B06F5F",
"q. c #B67059",
"w. c #B5705A",
"e. c #B7705A",
"r. c #B4725B",
"t. c #B3725C",
"y. c #B2725D",
"u. c #B0725F",
"i. c #B1725F",
"p. c #B5705C",
"a. c #9B6C61",
"s. c #9C6F62",
"d. c #9F6E62",
"f. c #997065",
"g. c #957268",
"h. c #9D7A72",
"j. c #A16D61",
"k. c #AF7261",
"l. c #AE7262",
"z. c #AF7262",
"x. c #AE7465",
"c. c #AD776A",
"v. c #AB786C",
"b. c #AB7B6F",
"n. c #AD796C",
"m. c #AC796D",
"M. c #AE7A6D",
"N. c #AE7C6F",
"B. c #B27563",
"V. c #B27565",
"C. c #B57C6A",
"Z. c #B57C6B",
"A. c #B67C6B",
"S. c #B37C6C",
"D. c #B27C6D",
"F. c #B17D6F",
"G. c #B27C6F",
"H. c #B37C6F",
"J. c #B27D6F",
"K. c #B47C6C",
"L. c #AB7C71",
"P. c #AB7E73",
"I. c #AE7D71",
"U. c #AF7E72",
"Y. c #B17D70",
"T. c #B37F71",
"R. c #A98076",
"E. c #AF8175",
"W. c #AE8176",
"Q. c #AE8277",
"!. c #AB8278",
"~. c #AC8278",
"^. c #B28073",
"/. c #B08075",
"(. c #B18075",
"). c #B28074",
"_. c #B58477",
"`. c #B58478",
"'. c #B5948B",
"]. c #B5958B",
"[. c #B6948B",
"{. c #B7948B",
"}. c #B3958E",
"|. c #B5958C",
" X c #B4958D",
".X c #B8948A",
"XX c #F0C8BE",
"oX c #EBCFC8",
"OX c #FBF4F2",
"+X c white",
"@X c None",
/* pixels */
"@X= * * * * * * * * * * * * * * * * * - @X",
"= = , ~.~.~.E.E.E.E.E.E.E.E.(.(.(.Y.1 - = ",
"* > h.g.f.s.j.j.j.4.4.5.5.5.4.7.7.$.x.1 * ",
"* R.+.+.O.a.s.F a.1.1.:.:.:.:./ O.+.+.Y.* ",
"* P.` ( ( F D S &.&./ / / ~ ~ ` ( ( ` I.* ",
"* P.P L ! oX+XA A A A A D A +XoX! L P N.* ",
"* b.V B K +X+X+XZ Z Z Z Z +X+X+XK B V D.* ",
"* v.V b M C +X+X+XC C C +X+X+XC M b V v.* ",
"* v.c b c x x +X+X+Xx +X+X+Xx x c b n v.* ",
"& +.e 5 u a a a +X+X+X+X+Xa a a u 6 w X.& ",
"% X.0 7 3 a a i i +X+X+Xi i i i 3 9 0 X.% ",
"$ +.5 7 3 p y y +X+X+X+X+Xp p i w 7 6 ` $ ",
"+ +.9 4 0 y y +X+X+Xp +X+XOXp y e 4 5 { + ",
"O 8.t r d s +X+X+Xs s s +X+X+Xs d r r $.O ",
"o 0.f h g +X+X+Xj j j j j +X+X+Xg h f 9.X ",
"o V.l z k XX+Xc c c c c c c +XXXk z z B.X ",
"X H.E Y Y ` +.#.X.] [ U I I Q T T R E K.X ",
". _.p.q.9.B.k.k.z.u.u.u.t.r.q.q.q.e.e._.X ",
". ; ^.H.H.H.Y.H.H.N.^.H.K.K.K.K.K.K.^.:   ",
"$ % < }.}.}.}.}. X].].].].].]..X.X.X< % # ",
"@X+               o               . . # @X"
};
