/* XPM */
static char *close_prelight[] = {
/* columns rows colors chars-per-pixel */
"21 21 225 2 ",
"   c #222222",
".  c #232323",
"X  c gray14",
"o  c #252525",
"O  c #282828",
"+  c gray17",
"@  c #2C2C2C",
"#  c #2D2D2D",
"$  c gray18",
"%  c gray20",
"&  c gray22",
"*  c #434343",
"=  c #565656",
"-  c gray34",
";  c #DF3E16",
":  c #DB3F1B",
">  c #DE3F18",
",  c #DD3F1A",
"<  c #DC3F1B",
"1  c #D8401D",
"2  c #DA401D",
"3  c #D9401F",
"4  c #D8411F",
"5  c #E2441C",
"6  c #E0441F",
"7  c #CF4427",
"8  c #CF4528",
"9  c #CF4429",
"0  c #CE4629",
"q  c #CE442A",
"w  c #CF452A",
"e  c #CD462B",
"r  c #CE462A",
"t  c #CD472C",
"y  c #D64121",
"u  c #D54222",
"i  c #D14326",
"p  c #D04327",
"a  c #DB4624",
"s  c #D04328",
"d  c #D24B2E",
"f  c #D24B2F",
"g  c #D4482C",
"h  c #DE4D2C",
"j  c #D14E32",
"k  c #D84F34",
"l  c #D65439",
"z  c #D6553A",
"x  c #DB573D",
"c  c #DD573C",
"v  c #DB583E",
"b  c #DD5A3F",
"n  c #E44B23",
"m  c #E24B27",
"M  c #E75430",
"N  c #E55432",
"B  c #E15637",
"V  c #E05739",
"C  c #E0583D",
"Z  c #E75F3D",
"A  c #E85E3D",
"S  c #E5603F",
"D  c #E6603E",
"F  c #B3655E",
"G  c #B3665F",
"H  c #A66360",
"J  c #A56460",
"K  c #A56663",
"L  c #B06660",
"P  c #B06760",
"I  c #D55B43",
"U  c #D55D45",
"Y  c #D55E46",
"T  c #DB5B41",
"R  c #DE5B41",
"E  c #DA5D44",
"W  c #DA5E45",
"Q  c #DB5F45",
"!  c #DA5F46",
"~  c #DE5E44",
"^  c #DF5F45",
"/  c #D55F48",
"(  c #E05B40",
")  c #E05D43",
"_  c #E75E40",
"`  c #DE6046",
"'  c #DF6046",
"]  c #DF6247",
"[  c #D4614A",
"{  c #D4624A",
"}  c #D4624B",
"|  c #D7624B",
" . c #D4634D",
".. c #D5634D",
"X. c #D6634C",
"o. c #D3654E",
"O. c #D4644D",
"+. c #D5654F",
"@. c #D7644E",
"#. c #D6644F",
"$. c #DA6148",
"%. c #DB6148",
"&. c #DB6149",
"*. c #DA614A",
"=. c #DB614A",
"-. c #D8624B",
";. c #DB634B",
":. c #DC6148",
">. c #DC6149",
",. c #DF6148",
"<. c #DF6149",
"1. c #DD6249",
"2. c #DF6248",
"3. c #DE6249",
"4. c #DF6249",
"5. c #DC624A",
"6. c #DF634B",
"7. c #D9634D",
"8. c #DA634C",
"9. c #D8644D",
"0. c #D9644D",
"q. c #D8644E",
"w. c #DB654E",
"e. c #D9664F",
"r. c #DA664F",
"t. c #DD644C",
"y. c #DC644D",
"u. c #D46650",
"i. c #D56751",
"p. c #D66751",
"a. c #D86650",
"s. c #D36852",
"d. c #D36853",
"f. c #D06956",
"g. c #D26C56",
"h. c #D16F59",
"j. c #D56F5C",
"k. c #D0725D",
"l. c #DF715C",
"z. c #DF725D",
"x. c #DE745F",
"c. c #E36140",
"v. c #E26141",
"b. c #E16143",
"n. c #E16145",
"m. c #E06245",
"M. c #E06146",
"N. c #E06147",
"B. c #E06246",
"V. c #E06247",
"C. c #E16349",
"Z. c #E26448",
"A. c #E1644A",
"S. c #E3674C",
"D. c #E3674F",
"F. c #E7684B",
"G. c #E3694F",
"H. c #E4694D",
"J. c #E5694D",
"K. c #E6694C",
"L. c #E7684D",
"P. c #E8684B",
"I. c #E26951",
"U. c #E26A50",
"Y. c #E26A51",
"T. c #E16B53",
"R. c #E56C52",
"E. c #E46C53",
"W. c #E16D57",
"Q. c #E06E58",
"!. c #E16F58",
"~. c #E06F59",
"^. c #E16F59",
"/. c #E77157",
"(. c #E0705B",
"). c #E1705B",
"_. c #E3725A",
"`. c #E3725B",
"'. c #E57158",
"]. c #E57159",
"[. c #E67158",
"{. c #E4715A",
"}. c #E5715A",
"|. c #E4725A",
" X c #E4725B",
".X c #E2725C",
"XX c #E5735C",
"oX c #E1745F",
"OX c #E3745E",
"+X c #E2745F",
"@X c #E5745D",
"#X c #E4745E",
"$X c #DF7561",
"%X c #E17560",
"&X c #E07561",
"*X c #E67660",
"=X c #E67661",
"-X c #E7826E",
";X c #E6826F",
":X c #E7826F",
">X c #E8826E",
",X c #E58370",
"<X c #E68270",
"1X c #EEBBAF",
"2X c #EFC2B8",
"3X c #EAC7BF",
"4X c #EACBC4",
"5X c #F9EBE7",
"6X c #FBEBE8",
"7X c #FBEDEA",
"8X c #FCF2F1",
"9X c #FCF3F1",
"0X c #FCF5F3",
"qX c #FDF6F5",
"wX c #FDF8F7",
"eX c #FDF8F8",
"rX c #FDF9F8",
"tX c #FDFAF9",
"yX c #FEFAFA",
"uX c #FEFBFA",
"iX c #FEFCFB",
"pX c #FEFCFC",
"aX c #FEFEFE",
"sX c white",
"dX c None",
/* pixels */
"dX= * * * * * * * * * * * * * * * * * = dX",
"= = P &X$XoXoXoXoXoXoXoXoX@X@XoX@X@XL - = ",
"* L k.f.f.p.p.a.e.e.e.e.e.e.y.t.t.C.I.F * ",
"* oXC.n.,.p.@.@.e.e.7.7.7.;.7.,.,.n.` oX* ",
"* l.) ,.^ ....} } ;.;.;.,.` ,.` ` ` n._.* ",
"* l.^ ) E 4XsXg.} [ [ [ } k.sX4X;.( R oX* ",
"* ~.R ( E eXsXsXs.Y [ U f.sXsXrXE ( R Q.* ",
"* Q.R c E } eXsXeX..U s.sXsX0X[ T C b _.* ",
"* l.c c v U } eXsXqXo.eXsX0XY I v V c W.* ",
"& ` : ; u s q t wXsXsXsX7Xq q q 4 < 3 ` & ",
"% ` 2 5 y i q i t sXsXsXq s i i y 2 3 ,.% ",
"$ ,.2 2 y i i q eXsXsXsXeXq i s 3 < : n.$ ",
"+ n.< ; 1 i 7 eXsXwXq eXsX5X7 i : ; < n.+ ",
"+ ,.5 5 a j iXsXeXf g d eXsXeXf a 5 5 C.O ",
"o D.m n h sXsXiXl k k k l iXsX9Xh n n S.o ",
"o E.N N B 2XwX;.v v x x v E 6X1XV N N R.o ",
"o {._ A Z ,.,.` V.V.V.m.m.S S S D A c./.o ",
"  =XL.P.L.I.I.I.Y.G.H.H.H.K.K.K.K.P.P.*XX ",
"  J @XXX X{.`.`.{.`.{.{././.'./././.{.J . ",
"$ % J <X,X<X,X,X<X<X:X:X-X-X-X-X>X>XJ % $ ",
"dX$             . .   .               @ dX"
};
