/* XPM */
static char *hide_prelight[] = {
/* columns rows colors chars-per-pixel */
"21 21 99 2 ",
"   c #222222",
".  c #232323",
"X  c gray14",
"o  c #252525",
"O  c #282828",
"+  c gray17",
"@  c #2C2C2C",
"#  c #2D2D2D",
"$  c gray18",
"%  c gray20",
"&  c #373737",
"*  c gray22",
"=  c #434343",
"-  c #464646",
";  c #474646",
":  c #464746",
">  c #464647",
",  c #474647",
"<  c #494848",
"1  c #494948",
"2  c #484849",
"3  c #494849",
"4  c #484949",
"5  c #494949",
"6  c #4B4B4B",
"7  c #4C4B4B",
"8  c #4B4C4B",
"9  c #4C4C4B",
"0  c #4B4B4C",
"q  c #4B4C4C",
"w  c #4C4C4C",
"e  c #4E4E4E",
"r  c #4F4E4E",
"t  c #4E4F4F",
"y  c #515050",
"u  c #505150",
"i  c #505051",
"p  c #515051",
"a  c #515151",
"s  c #535353",
"d  c #535453",
"f  c #545453",
"g  c #535354",
"h  c #545354",
"j  c #535454",
"k  c gray33",
"l  c #565656",
"z  c gray34",
"x  c #585858",
"c  c #595858",
"v  c #595958",
"b  c #585859",
"n  c #595859",
"m  c #585959",
"M  c gray35",
"N  c #5A5A5A",
"B  c #5B5B5B",
"V  c #5C5B5B",
"C  c #5B5C5B",
"Z  c #5B5B5C",
"A  c #5C5B5C",
"S  c #5B5C5C",
"D  c gray36",
"F  c #5D5D5D",
"G  c #5E5E5D",
"H  c #5E5D5E",
"J  c #5D5E5E",
"K  c gray37",
"L  c #606060",
"P  c #616060",
"I  c #606160",
"U  c #616160",
"Y  c #606061",
"T  c #606161",
"R  c gray38",
"E  c #626262",
"W  c gray39",
"Q  c #646363",
"!  c #646463",
"~  c #646364",
"^  c #656565",
"/  c #666566",
"(  c #656666",
")  c gray40",
"_  c #676767",
"`  c #686868",
"'  c DimGray",
"]  c #6A6A6A",
"[  c gray42",
"{  c #6C6C6C",
"}  c #6D6D6D",
"|  c gray43",
" . c gray44",
".. c #717171",
"X. c #767676",
"o. c #777777",
"O. c gray49",
"+. c white",
"@. c None",
/* pixels */
"@.+                   X               @ @.",
"# % ^ O.O.O.O.O.O.O.O.O.O.O.O.O.O.O.^ % # ",
". E o.- - - - - - - - - - - - - - - ..E . ",
". ..- - - - - - - - - - , - , - - - - ... ",
"X ] 6 - 6 , 6 , 6 < 2 6 6 1 6 2 6 6 , ] X ",
"X ^ 6 6 q 6 q 0 6 6 6 q 6 8 6 6 w q 0 ^ X ",
"X E e e e e e i e e e e e e e e e e e E X ",
"+ F u y y y y y u u y y i i y u y y y F + ",
"+ F h h y k k k y k f k h k k k h h f V # ",
"# m k k x v k k x k z k k k m k z k k m # ",
"% m n m m m m m m m v m m m m m m m m m % ",
"& F F F m V V F Z C V V A m F V Z V A F * ",
"= ^ F K F F F F F F F F K F F F F F F ^ = ",
"= ] E E E +.+.+.+.+.+.+.E E E E E E E ] = ",
"= ] ~ ~ ^ +.+.+.+.+.+.+.^ ~ E E ^ ~ Q ] = ",
"= { ^ ^ ^ +.+.+.+.+.+.+.^ _ ^ ^ ^ ^ ^ } = ",
"= } ^ ` ` ` ^ ` ` _ _ _ _ _ _ _ _ _ ^ } = ",
"= } ` ^ ^ ` ^ ` ^ ^ _ _ _ _ _ ^ _ _ ] } = ",
"= } ..` ` ` ] ] ` ] [ ] ] ` ] _ [ ]  .} = ",
"A - o.o.o.o.o.o.o.o.o.o.o.o.o.X.o.o.o.k k ",
"@.m = = = = = = = = = = = = = = = = = k @."
};
