/* XPM */
static char *maximize_inactive[] = {
/* columns rows colors chars-per-pixel */
"21 21 33 1 ",
"  c #252525",
". c #272727",
"X c gray20",
"o c #343434",
"O c #353535",
"+ c gray21",
"@ c gray22",
"# c gray23",
"$ c #3C3C3C",
"% c gray24",
"& c #3E3E3E",
"* c gray26",
"= c #444444",
"- c gray27",
"; c gray28",
": c #494949",
"> c gray29",
", c #4B4B4B",
"< c #4C4C4C",
"1 c #4E4E4E",
"2 c gray31",
"3 c #505050",
"4 c #515151",
"5 c gray32",
"6 c gray33",
"7 c gray34",
"8 c #585858",
"9 c gray35",
"0 c #5A5A5A",
"q c #5B5B5B",
"w c gray36",
"e c white",
"r c None",
/* pixels */
"r.. ................r",
"..@@$@@@@@$@@@@@$@@..",
".@ooXXooooXXXXoooXo$.",
".$ooooooooooooooooo$ ",
".@o@ooooooooooooooo$ ",
".$oooeeeeeeeeeee@o@$ ",
".$o@@eeeeeeeeeee@oo$ ",
".*$$$eeeeeeeeeee$$$* ",
".,***e*********e***, ",
" 1===e=====*===e===1 ",
" 1,==e====,,===e=,,3 ",
".3=,,e,,,,,=,,,e=,,3 ",
".31,,e,,,,,,,,,e1,,6 ",
" 6111e111111111e1116 ",
".0111e311313311e1110 ",
" 0333eeeeeeeeeee3336 ",
" 033363333333333363w.",
".0336336636636336330.",
" 000600006060000006w.",
"o.0wwwwwwww0ww0wwww.o",
"ro  ...       .. ..@r"
};
