/* XPM */
static char *maximize_prelight[] = {
/* columns rows colors chars-per-pixel */
"21 21 94 2 ",
"   c #222222",
".  c #232323",
"X  c gray14",
"o  c #252525",
"O  c #282828",
"+  c gray17",
"@  c #2C2C2C",
"#  c #2D2D2D",
"$  c gray18",
"%  c gray20",
"&  c #373737",
"*  c gray22",
"=  c #434343",
"-  c #464646",
";  c #474646",
":  c #464746",
">  c #464647",
",  c #474647",
"<  c #494848",
"1  c #494948",
"2  c #484849",
"3  c #494849",
"4  c #484949",
"5  c #494949",
"6  c #4B4B4B",
"7  c #4C4B4B",
"8  c #4B4B4C",
"9  c #4B4C4C",
"0  c #4C4C4C",
"q  c #4E4E4E",
"w  c #505150",
"e  c #515051",
"r  c #515151",
"t  c #535353",
"y  c #535453",
"u  c #545453",
"i  c #535354",
"p  c #545354",
"a  c #535454",
"s  c gray33",
"d  c #565656",
"f  c gray34",
"g  c #585858",
"h  c #595858",
"j  c #595958",
"k  c #595859",
"l  c #585959",
"z  c gray35",
"x  c #5A5A5A",
"c  c #5B5B5B",
"v  c #5C5B5B",
"b  c #5B5C5B",
"n  c #5B5B5C",
"m  c #5C5B5C",
"M  c #5B5C5C",
"N  c gray36",
"B  c #5D5D5D",
"V  c #5E5E5D",
"C  c #5E5D5E",
"Z  c #5D5E5E",
"A  c gray37",
"S  c #606060",
"D  c #616060",
"F  c #606160",
"G  c #616160",
"H  c #606061",
"J  c #606161",
"K  c gray38",
"L  c #626262",
"P  c gray39",
"I  c #646363",
"U  c #646463",
"Y  c #636364",
"T  c #646364",
"R  c #646464",
"E  c #656565",
"W  c #666566",
"Q  c #656666",
"!  c gray40",
"~  c #676767",
"^  c #686868",
"/  c DimGray",
"(  c #6A6A6A",
")  c gray42",
"_  c #6C6C6C",
"`  c #6D6D6D",
"'  c gray43",
"]  c gray44",
"[  c #717171",
"{  c #767676",
"}  c #777777",
"|  c gray49",
" . c white",
".. c None",
/* pixels */
"..+                   . .             @ ..",
"# % E | | | | | | | | | | | | | | | E % # ",
". L } - - - - - - - - - - - - - - - [ L . ",
". [ - - - - - - - - - - , - , - - - , [ . ",
"X ( 6 , < < 6 , 6 , 2 6 6 2 6 - 6 < 6 ( X ",
"X E 6 6 8  . . . . . . . . . . .8 8 8 E X ",
"X L q q q  . . . . . . . . . . .q q q L X ",
"+ B w w w  . . . . . . . . . . .e w w B + ",
"@ j i i w  .a i w u i a p i w  .i i a j # ",
"# j d d f  .d f d d d f d d d  .d d d j # ",
"% n k j j  .j j j j j j j j j  .j j j j % ",
"& n B B j  .B j j B B j n M M  .n n n B * ",
"= E B B B  .B B B B B B B B B  .B B B E = ",
"= ( L L L  .L L L L L L L L L  .L S L ( = ",
"= ( Y Y Y  .Y I L E L L E L L  .E W L ( = ",
"= _ E W E  . . . . . . . . . . .E E E ` = ",
"= ` ~ ~ ~ ~ ~ ~ ~ ~ ~ ~ ~ ~ ~ ~ ~ ~ ~ ` = ",
"= ` ^ E ~ ~ ~ ~ ~ ~ ~ ~ ~ ~ ~ E ~ ~ ~ ` = ",
"= ` [ ^ ^ ^ ( ^ ~ ^ ) ) ( ~ ^ ^ ) ( ] ` = ",
"n - } } } } } } } } } } } } } } } } } d d ",
"..j = = = = = = = = = = = = = = = = = p .."
};
