/* XPM */
static char *maximize_pressed[] = {
/* columns rows colors chars-per-pixel */
"21 21 49 1 ",
"  c #222222",
". c #232323",
"X c gray14",
"o c #252525",
"O c #282828",
"+ c gray17",
"@ c #2C2C2C",
"# c #2D2D2D",
"$ c gray18",
"% c gray20",
"& c #373737",
"* c gray22",
"= c #3F3F3F",
"- c gray26",
"; c #434343",
": c #464646",
"> c gray29",
", c #4B4B4B",
"< c #4C4C4C",
"1 c gray31",
"2 c gray33",
"3 c gray34",
"4 c #5A5A5A",
"5 c #5B5B5B",
"6 c gray36",
"7 c #5D5D5D",
"8 c gray37",
"9 c #5F5F5F",
"0 c #606060",
"q c gray38",
"w c #626262",
"e c gray39",
"r c #656565",
"t c gray40",
"y c #676767",
"u c #686868",
"i c DimGray",
"p c #6A6A6A",
"a c gray42",
"s c #6C6C6C",
"d c #6D6D6D",
"f c gray43",
"g c gray44",
"h c #717171",
"j c #767676",
"k c #777777",
"l c gray49",
"z c white",
"x c None",
/* pixels */
"x+                 #x",
"#%rlllllllllllllllr%#",
" wkrrrrrrrrrrrrrrrhw ",
"Xh11111111111111111h ",
"Xp>>>>>>>>>>>>>>>>>pX",
"Xr:::zzzzzzzzzzz:::rX",
"Xw---zzzzzzzzzzz---wX",
"+7===zzzzzzzzzzz===7+",
"+4===z=========z===4+",
"#4===z=====-===z===4#",
"%4:::z:::::::::z:::4%",
"&7>>1z>1>1>>1>>z>1>7*",
"-r444z444444444z444r-",
"-p777z747747474z477p-",
":p777zw7777w77wz7w7p:",
"-dwwwzzzzzzzzzzzwwwd-",
"-dwrwwwrwwrwwwrwwrwd-",
"-drrrpprprrprprrprpd-",
":dhpppppprpppprpppdd:",
"4:kkkhkkkkkkkkkkkkk32",
"x4:-------:--:-----3x"
};
