/* XPM */
static char *maximize_active[] = {
/* columns rows colors chars-per-pixel */
"21 21 49 1 ",
"  c #222222",
". c #232323",
"X c gray14",
"o c #252525",
"O c #282828",
"+ c gray17",
"@ c #2C2C2C",
"# c #2D2D2D",
"$ c gray18",
"% c gray20",
"& c #373737",
"* c gray22",
"= c #3F3F3F",
"- c gray26",
"; c #434343",
": c #464646",
"> c gray29",
", c #4B4B4B",
"< c #4C4C4C",
"1 c gray31",
"2 c gray33",
"3 c gray34",
"4 c #5A5A5A",
"5 c #5B5B5B",
"6 c gray36",
"7 c #5D5D5D",
"8 c gray37",
"9 c #5F5F5F",
"0 c #606060",
"q c gray38",
"w c #626262",
"e c gray39",
"r c #656565",
"t c gray40",
"y c #676767",
"u c #686868",
"i c DimGray",
"p c #6A6A6A",
"a c gray42",
"s c #6C6C6C",
"d c #6D6D6D",
"f c gray43",
"g c gray44",
"h c #717171",
"j c #767676",
"k c #777777",
"l c gray49",
"z c white",
"x c None",
/* pixels */
"x5;;;;;;;;:;;;;;;;;3x",
"5:jjjjjjjjjkjjjjjjj32",
":dgiiiiiiiiiiiiiidgd;",
";dyyyyyyyyiyyyyyyyid;",
";dqyqqqqqqyqqqyqyqqd;",
":iqqqzzzzzzzzzzzqqqd;",
";i99qzzzzzzzzzzz999i;",
";y959zzzzzzzzzzz559i;",
";y555z555555555z555y;",
"&5,,,z,,,,<,,,,z,,,5&",
"%5:::z:::::::::z::;5%",
"+5===z=========z===5#",
"+5===z=========z===5+",
"o9===z=========z===5o",
"o9;;;z;;=;;;;=;z;;;qo",
"oy:;;zzzzzzzzzzz:::yo",
".i<,,,,:,,:,,:,,,,<io",
"og<<<22<2<<22<2<<<<go",
".qjyqyqyyyyyqyyyyydq.",
"#%ylllllllkkllkllly%#",
"x+......   ........#x"
};
