/* XPM */
static char *title_1_inactive[] = {
/* columns rows colors chars-per-pixel */
"9 30 10 1 ",
"  c #252525",
". c #282828",
"X c #2C2C2C",
"o c #343434",
"O c gray23",
"+ c gray26",
"@ c gray27",
"# c #484848",
"$ c #4C4C4C",
"% c #555555",
/* pixels */
"         ",
"%%%%%%%%%",
" . ..... ",
".. . ....",
".........",
".....X...",
"..X...X..",
"X..XX..XX",
"XX.XXXXXX",
"XXXXXXXXX",
"XXXXXXXXX",
"XXXoXXXXX",
"oXXoXoXXX",
"ooooooooo",
"OOoOOoOOO",
"OOOOOOOOO",
"OOO+OOO+O",
"+++O++O++",
"++++++@+@",
"@@@@@@@@@",
"#@#@@@@@@",
"#@######@",
"#########",
"###$#####",
"##$##$##$",
"$$$$$#$$$",
"$$$$$$$$$",
"$$$$$$$$$",
"$$$$$$$$$",
"OOoOOOOoO"
};
