/* XPM */
static char *title_1_active[] = {
/* columns rows colors chars-per-pixel */
"9 30 17 1 ",
"  c #1B1B1B",
". c gray14",
"X c gray16",
"o c gray18",
"O c #323232",
"+ c gray21",
"@ c #3A3A3A",
"# c #3C3C3C",
"$ c #484848",
"% c #565656",
"& c gray36",
"* c #646464",
"= c gray40",
"- c #6A6A6A",
"; c #6C6C6C",
": c #717171",
"> c #838383",
/* pixels */
".........",
">>>>>>>>>",
":::::::::",
";;;;;;--;",
"---------",
"---------",
"=========",
"=====*=*=",
"*****=*==",
"**&**&*=*",
"&&*&&&&&&",
"&&&&&&&&&",
"&%%&&%%&%",
"%%%%%%%%%",
"$$$$$$$$$",
"#@@@####@",
"#########",
"@@@@@@@@@",
"@+++++@++",
"+++++++++",
"+++++++++",
"OOO++OOOO",
"OOOOOOOOO",
"oOoOoOoOO",
"ooooooooo",
"ooooXoooo",
"XoXXXooXX",
"XXXXXXXXX",
"XXXXXXXXX",
"         "
};
