/* XPM */
static char *top_right_inactive[] = {
/* columns rows colors chars-per-pixel */
"7 30 29 1 ",
"  c #1B1B1B",
". c #252525",
"X c #272727",
"o c #282828",
"O c gray16",
"+ c #2A2A2A",
"@ c gray17",
"# c #2C2C2C",
"$ c #2D2D2D",
"% c gray18",
"& c #343434",
"* c #393939",
"= c gray23",
"- c #3E3E3E",
"; c gray25",
": c gray26",
"> c #444444",
", c gray27",
"< c #464646",
"1 c gray28",
"2 c #484848",
"3 c #494949",
"4 c gray29",
"5 c #4B4B4B",
"6 c #4C4C4C",
"7 c #4E4E4E",
"8 c gray33",
"9 c #555555",
"0 c None",
/* pixels */
"..00000",
"7>..000",
"oo9>.00",
"..oo>.0",
"oooo9.0",
"ooooo>.",
"oo$oo7.",
"$oo$$9.",
"o$o$$9.",
"$$$$o9.",
"$$$$$9.",
"$$$$$9.",
"$$&$$9.",
"&&&&&9.",
"*****9.",
"*-**-9.",
"-----9.",
";;;;;9.",
";>>>;9.",
">>>>>9.",
"2>>229.",
"222229.",
"222229.",
"222229.",
"222229.",
"777779.",
"272729.",
"772779.",
"727729.",
"****79 "
};
