/* XPM */
static char *top_left_active[] = {
/* columns rows colors chars-per-pixel */
"7 30 37 1 ",
"  c #1B1B1B",
". c #232323",
"X c gray14",
"o c #252525",
"O c gray16",
"+ c gray17",
"@ c #2D2D2D",
"# c gray18",
"$ c gray19",
"% c #323232",
"& c gray20",
"* c gray21",
"= c #373737",
"- c #3A3A3A",
"; c #3C3C3C",
": c #3E3E3E",
"> c gray26",
", c #484848",
"< c #565656",
"1 c #585858",
"2 c gray36",
"3 c #5F5F5F",
"4 c gray38",
"5 c #646464",
"6 c #656565",
"7 c gray40",
"8 c #6A6A6A",
"9 c #6C6C6C",
"0 c gray44",
"q c #717171",
"w c gray45",
"e c #777777",
"r c gray47",
"t c gray51",
"y c #838383",
"u c gray52",
"i c None",
/* pixels */
"iiiiiXX",
"iii.>tt",
"ii+wtww",
"i.wr988",
"i:u8888",
"Xwe8888",
"Xt77777",
"Xu77775",
"Xu55557",
"Xt55255",
"Xu52252",
"Xu22212",
"Xu11<11",
"Xu<1<<<",
"Xu,,,,,",
"Xu:::-:",
"Xu::-:-",
"Xu-----",
"Xu-*-**",
"Xu*****",
"Xu*****",
"Xu%%%%%",
"Xu%%%%%",
"Xu#%#%%",
"+u#####",
"Xu#####",
"Xu+++++",
"XuX+X++",
"Xu+++X+",
" u+    "
};
