/* XPM */
static char *bottom_active[] = {
/* columns rows colors chars-per-pixel */
"11 4 4 1 ",
"  c #01223D",
". c #014880",
"X c #145B93",
"o c #1D649C",
/* pixels */
"...........",
"XXXXXXXXXXX",
"ooooooooooo",
"           "
};
