/* XPM */
static char *close_active[] = {
/* columns rows colors chars-per-pixel */
"21 21 188 2 ",
"   c #012F54",
".  c #DF4818",
"X  c #D9491F",
"o  c #DB491F",
"O  c #DD481C",
"+  c #DD491C",
"@  c #E14715",
"#  c #CF4D2B",
"$  c #D44B23",
"%  c #D74A22",
"&  c #D54A25",
"*  c #D34C26",
"=  c #D14C29",
"-  c #D9552F",
";  c #C74F32",
":  c #C65035",
">  c #C55036",
",  c #C35138",
"<  c #CC593D",
"1  c #E65221",
"2  c #E25226",
"3  c #EA5E2E",
"4  c #E65F35",
"5  c #DF623D",
"6  c #D3664C",
"7  c #DD755B",
"8  c #DA755D",
"9  c #D9775E",
"0  c #EF6F45",
"q  c #EC6F49",
"w  c #E57251",
"e  c #E27456",
"r  c #E2775C",
"t  c #CF7B67",
"y  c #CF7F6C",
"u  c #DD7A60",
"i  c #D97B64",
"p  c #DE7C64",
"a  c #D87F69",
"s  c #E27C62",
"d  c #E27F67",
"f  c #EE845E",
"g  c #F0835D",
"h  c #F2825D",
"j  c #D7836E",
"k  c #DF8169",
"l  c #DF846E",
"z  c #CE8371",
"x  c #CC8876",
"c  c #CE8B7A",
"v  c #CE8E7E",
"b  c #D78775",
"n  c #DB8671",
"m  c #D98673",
"M  c #DB8672",
"N  c #DD8570",
"B  c #D98674",
"V  c #D28877",
"C  c #D48876",
"Z  c #DE8873",
"A  c #DB8975",
"S  c #D98A76",
"D  c #D08A78",
"F  c #D68B7A",
"G  c #D48C7A",
"H  c #D58C7A",
"J  c #D08D7D",
"K  c #D38C7C",
"L  c #D28D7C",
"P  c #D68F7E",
"I  c #D78F7E",
"U  c #D88A78",
"Y  c #DB8D7A",
"T  c #DD8C78",
"R  c #D98E7C",
"E  c #E78665",
"W  c #EF8262",
"Q  c #EB8560",
"!  c #E98662",
"~  c #E1836B",
"^  c #E48768",
"/  c #E0836C",
"(  c #E0846D",
")  c #E2876E",
"_  c #E4876C",
"`  c #E3886B",
"'  c #E1886F",
"]  c #E2886E",
"[  c #E2886F",
"{  c #E08771",
"}  c #E28770",
"|  c #E38770",
" . c #E18772",
".. c #E18870",
"X. c #E08871",
"o. c #E08872",
"O. c #E48A73",
"+. c #E78C71",
"@. c #E18B76",
"#. c #E58C75",
"$. c #EF9477",
"%. c #E99279",
"&. c #EA967B",
"*. c #ED9678",
"=. c #EF947A",
"-. c #EC967A",
";. c #E8927D",
":. c #E9967D",
">. c #E8967E",
",. c #F09476",
"<. c #F19477",
"1. c #124C93",
"2. c #28598C",
"3. c #2A5B8D",
"4. c #A298A9",
"5. c #A09AAA",
"6. c #BA9FAA",
"7. c #A09FB2",
"8. c #BBA0AA",
"9. c #CC8F80",
"0. c #CE9282",
"q. c #CA9486",
"w. c #C5968A",
"e. c #D19181",
"r. c #D49080",
"t. c #E79780",
"y. c #E79681",
"u. c #E79781",
"i. c #E69682",
"p. c #E69782",
"a. c #E59985",
"s. c #EB9A83",
"d. c #EA9A86",
"f. c #E29E8E",
"g. c #E49D8C",
"h. c #CFA196",
"j. c #DFA99C",
"k. c #E4A08E",
"l. c #EFA48C",
"z. c #EFA48D",
"x. c #EDA48E",
"c. c #ECA48F",
"v. c #EDA48F",
"b. c #F0A48D",
"n. c #E3A090",
"m. c #E2A293",
"M. c #E5A190",
"N. c #E5A393",
"B. c #E1A495",
"V. c #E6A595",
"C. c #E7A696",
"Z. c #EBA490",
"A. c #E9A592",
"S. c #E9A593",
"D. c #EAA492",
"F. c #EAA592",
"G. c #EAA593",
"H. c #ECA492",
"J. c #E9A594",
"K. c #ECA895",
"L. c #E1A698",
"P. c #E7AA9B",
"I. c #E3AB9E",
"U. c #E5AA9C",
"Y. c #E5AB9D",
"T. c #E6AA9C",
"R. c #E1AC9F",
"E. c #EBA998",
"W. c #EAA999",
"Q. c #E8A99A",
"!. c #E9A99A",
"~. c #EEAE9D",
"^. c #EEAE9E",
"/. c #C29CA4",
"(. c #C09EA7",
"). c #EFC3B7",
"_. c #EFC4B8",
"`. c #EEC4B9",
"'. c #EDC4BA",
"]. c #ECC5BB",
"[. c #F0C3B7",
"{. c #F1C3B7",
"}. c #F2C3B6",
"|. c #F0C8BE",
" X c #EBCFC8",
".X c #FBF4F2",
"XX c white",
"oX c None",
/* pixels */
"oX3.                                  3.oX",
"3.  8.R.R.Y.T.T.T.P.T.Q.Q.Q.Q.Q.E.Q./.  3.",
"  6.h.w.q.e.e.r.r.I I I R R Y Y #.O.a./.  ",
"  j.} } M 9.v J J K H H H S S A A } ..V.  ",
"  L./ ~ / c D V C b m m M M M ( ( ( ( V.  ",
"  B.k ~ j  XXXx x x x x x x XX Xj s ~ M.  ",
"  n.p s a XXXXXXz z z z z XXXXXXj s p M.  ",
"  n.u r i y XXXXXXy y y XXXXXXy i r u k.  ",
"  f.7 e 9 t t XXXXXXt XXXXXXt t 9 e 7 g.  ",
"  Z & o # , , , XXXXXXXXXX, , , = o & ..  ",
"  ..$ O * > > > > XXXXXX> > > > = o % '   ",
"  } X . * > : : XXXXXXXXXX> > > * @ X _   ",
"  } o @ $ ; ; XXXXXX; XXXX.X; ; $ @ o _   ",
"  #.2 1 - < XXXXXX< < < XXXXXX< - 1 2 +.  ",
"  ;.4 3 5 XXXXXX6 6 6 6 6 XXXXXX5 3 4 %.  ",
"  d.q 0 w |.XX8 8 8 8 8 8 8 XX|.w 0 q s.  ",
"  H.W h h M ....' ' ` ^ E ! ! f g h W c.  ",
"  ~.=.<.$.i.u.u.p.>.>.>.&.*.$.,.,.,.<.~.  ",
"  5.E.H.G.J.J.J.G.G.G.G.c.c.c.b.b.b.K.4.  ",
"1.  7.`.`.`.].`.`.`.).`.).[.[.[.[.[.7.  1.",
"oX1.                                  1.oX"
};
