/* XPM */
static char *close_prelight[] = {
/* columns rows colors chars-per-pixel */
"21 21 217 2 ",
"   c #012F54",
".  c #263049",
"X  c #DF3E16",
"o  c #DB3F1B",
"O  c #DE3F18",
"+  c #DD3F1A",
"@  c #DC3F1B",
"#  c #D8401D",
"$  c #DA401D",
"%  c #D9401F",
"&  c #D8411F",
"*  c #E2441C",
"=  c #E0441F",
"-  c #CF4427",
";  c #CF4528",
":  c #CF4429",
">  c #CE4629",
",  c #CE442A",
"<  c #CF452A",
"1  c #CD462B",
"2  c #CE462A",
"3  c #CD472C",
"4  c #D64121",
"5  c #D54222",
"6  c #D14326",
"7  c #D04327",
"8  c #DB4624",
"9  c #D04328",
"0  c #D24B2E",
"q  c #D24B2F",
"w  c #D4482C",
"e  c #DE4D2C",
"r  c #D14E32",
"t  c #D84F34",
"y  c #D65439",
"u  c #D6553A",
"i  c #DB573D",
"p  c #DD573C",
"a  c #DB583E",
"s  c #DD5A3F",
"d  c #E44B23",
"f  c #E24B27",
"g  c #E75430",
"h  c #E55432",
"j  c #E15637",
"k  c #E05739",
"l  c #E0583D",
"z  c #E75F3D",
"x  c #E85E3D",
"c  c #E5603F",
"v  c #E6603E",
"b  c #BD6A67",
"n  c #BC6C67",
"m  c #BC6E6B",
"M  c #D55B43",
"N  c #D55D45",
"B  c #D55E46",
"V  c #DB5B41",
"C  c #DE5B41",
"Z  c #DA5D44",
"A  c #DA5E45",
"S  c #DB5F45",
"D  c #DA5F46",
"F  c #DE5E44",
"G  c #DF5F45",
"H  c #D55F48",
"J  c #E05B40",
"K  c #E05D43",
"L  c #E75E40",
"P  c #DE6046",
"I  c #DF6046",
"U  c #DF6247",
"Y  c #D4614A",
"T  c #D4624A",
"R  c #D4624B",
"E  c #D7624B",
"W  c #D4634D",
"Q  c #D5634D",
"!  c #D6634C",
"~  c #D3654E",
"^  c #D4644D",
"/  c #D5654F",
"(  c #D7644E",
")  c #D6644F",
"_  c #DA6148",
"`  c #DB6148",
"'  c #DB6149",
"]  c #DA614A",
"[  c #DB614A",
"{  c #D8624B",
"}  c #DB634B",
"|  c #DC6148",
" . c #DC6149",
".. c #DF6148",
"X. c #DF6149",
"o. c #DD6249",
"O. c #DF6248",
"+. c #DE6249",
"@. c #DF6249",
"#. c #DC624A",
"$. c #DF634B",
"%. c #D9634D",
"&. c #DA634C",
"*. c #D8644D",
"=. c #D9644D",
"-. c #D8644E",
";. c #DB654E",
":. c #D9664F",
">. c #DA664F",
",. c #DD644C",
"<. c #DC644D",
"1. c #D46650",
"2. c #D56751",
"3. c #D66751",
"4. c #D86650",
"5. c #D36852",
"6. c #D36853",
"7. c #D06956",
"8. c #D26C56",
"9. c #D16F59",
"0. c #D56F5C",
"q. c #D0725D",
"w. c #DF715C",
"e. c #DF725D",
"r. c #DE745F",
"t. c #E36140",
"y. c #E26141",
"u. c #E16143",
"i. c #E16145",
"p. c #E06245",
"a. c #E06146",
"s. c #E06147",
"d. c #E06246",
"f. c #E06247",
"g. c #E16349",
"h. c #E26448",
"j. c #E1644A",
"k. c #E3674C",
"l. c #E3674F",
"z. c #E7684B",
"x. c #E3694F",
"c. c #E4694D",
"v. c #E5694D",
"b. c #E6694C",
"n. c #E7684D",
"m. c #E8684B",
"M. c #E26951",
"N. c #E26A50",
"B. c #E26A51",
"V. c #E16B53",
"C. c #E56C52",
"Z. c #E46C53",
"A. c #E16D57",
"S. c #E06E58",
"D. c #E16F58",
"F. c #E06F59",
"G. c #E16F59",
"H. c #E77157",
"J. c #E0705B",
"K. c #E1705B",
"L. c #E3725A",
"P. c #E3725B",
"I. c #E57158",
"U. c #E57159",
"Y. c #E67158",
"T. c #E4715A",
"R. c #E5715A",
"E. c #E4725A",
"W. c #E4725B",
"Q. c #E2725C",
"!. c #E5735C",
"~. c #E1745F",
"^. c #E3745E",
"/. c #E2745F",
"(. c #E5745D",
"). c #E4745E",
"_. c #CA6E67",
"`. c #CA6F67",
"'. c #CE6D64",
"]. c #CD6E65",
"[. c #DF7561",
"{. c #E17560",
"}. c #E07561",
"|. c #E67660",
" X c #E67661",
".X c #E7826E",
"XX c #E6826F",
"oX c #E7826F",
"OX c #E8826E",
"+X c #E58370",
"@X c #E68270",
"#X c #124C93",
"$X c #28598C",
"%X c #2A5B8D",
"&X c #EEBBAF",
"*X c #EFC2B8",
"=X c #EAC7BF",
"-X c #EACBC4",
";X c #FAE3DF",
":X c #FAE6E2",
">X c #F9EBE7",
",X c #FCEDEB",
"<X c #FCEFEC",
"1X c #FCF1EF",
"2X c #FDF3F2",
"3X c #FDF5F4",
"4X c #FDF6F5",
"5X c #FDF7F5",
"6X c #FDF8F7",
"7X c #FEF9F8",
"8X c #FEFAF9",
"9X c #FEFBFA",
"0X c #FEFBFB",
"qX c #FEFCFC",
"wX c #FEFEFE",
"eX c white",
"rX c None",
/* pixels */
"rX%X                                  %XrX",
"%X. `.[.[.{.~.~.~.~.).~.~.).~.).).).'.. $X",
"  `.0.7.6.3.3.4.4.>.>.>.<.>.,.| j.g.M.'.  ",
"  r.s.s.| 3.) -.-.-.-.-.-.>.| ,.| U g.P.  ",
"  e.s.G G Q R R ' ' ' | | | | G G G G ~.  ",
"  e.G K D =XeX9.W R R R R q.eX-X` K G S.  ",
"  S.C l D 5XeXeX6.H N R 7.eXeX5XD s C S.  ",
"  S.C s V Q 5XeX8XW N 5.eXeX1XR C l C S.  ",
"  S.p k a M T 8XeX2X~ 8XeX<XB M p k p A.  ",
"  g.4 O 5 , , , 3XeXeXeX:X, , , 5 @ 4 g.  ",
"  g.# O 5 7 - 7 3 eXeXeX, 9 - - 5 O # U   ",
"  | O $ # 7 6 , 3XeXeXeX6X, 7 7 4 O O s.  ",
"  g.O O # 6 - 6XeX6X, 3XeX>X- 7 # X O K   ",
"  g.d * 8 r eXeX6X0 w 0 5XeX5X0 8 * d s.  ",
"  l.f d e 8XeXqXy t t t y 6XeX,Xe d f n.  ",
"  l.h g j *X6X` i i i i s D ;X&Xj h h C.  ",
"  G.L x z | g.s.U U U y.y.c c v v z t.H.  ",
"   Xm.m.n.M.M.M.N.x.x.x.x.x.b.b.b.m.n.(.  ",
"  b ).R.P.R.P.P.P.P.R.R.H.H.H.H.H.H.R.b   ",
"#X. m @X@X@X@X@X@XoXoXoX.X.X.X.XOXOXm . #X",
"rX#X                                  #XrX"
};
