/* XPM */
static char *close_inactive[] = {
/* columns rows colors chars-per-pixel */
"21 21 36 1 ",
"  c #012F54",
". c #013158",
"X c #014174",
"o c #014276",
"O c #014378",
"+ c #01447A",
"@ c #00477F",
"# c #034A82",
"$ c #044B83",
"% c #054C84",
"& c #064D85",
"* c #0A5189",
"= c #0C538B",
"- c #0D548C",
"; c #0F568E",
": c #115890",
"> c #125991",
", c #135A92",
"< c #145B93",
"1 c #165D95",
"2 c #175E96",
"3 c #185F97",
"4 c #196098",
"5 c #1A6199",
"6 c #1C639B",
"7 c #1F669E",
"8 c #20679F",
"9 c #2168A0",
"0 c #2269A1",
"q c #236AA2",
"w c #246BA3",
"e c #99B4C9",
"r c #A3BFD5",
"t c #F0F5F8",
"y c white",
"u c None",
/* pixels */
"u.                 .u",
". ##$$##########$$# .",
" $XXXXXXXXXXXXXXXXX$ ",
" %XXXOXXXOXOOXOXXOX$ ",
" %OOOOOOOOOOOOOOOOO% ",
" %OOOeyOOOOOOOyeOOO% ",
" %+++yyy+++++yyy+++% ",
" -%$$$yyy$$$yyy#$$%- ",
" :*****yyy*yyy*****: ",
" <======yyyyy======1 ",
" 4-:-:-:-yyy:--:;;;2 ",
" 4::::::yyyyy::::::4 ",
" 6:<::<yyy:yyt:<:,,6 ",
" 82222yyy222yyy21228 ",
" 8222yyy22222yyy2229 ",
" 9333ry3323333yr4249 ",
" 944444444444444444w ",
" 9444446444644446449 ",
" w88889998999998988w ",
"# wwwwwwwwwwwwwwwww #",
"u+                 +u"
};
