/* XPM */
static char *close_pressed[] = {
/* columns rows colors chars-per-pixel */
"21 21 182 2 ",
"   c #002D51",
".  c #012F54",
"X  c #9F391F",
"o  c #AB360F",
"O  c #A53717",
"+  c #A63717",
"@  c #A93612",
"#  c #A83615",
"$  c #A83715",
"%  c #A33819",
"&  c #A1391A",
"*  c #A0391C",
"=  c #A2381C",
"-  c #AE3E19",
";  c #AB3E1C",
":  c #973C26",
">  c #9D3A20",
",  c #953C29",
"<  c #963C28",
"1  c #943D2A",
"2  c #9B432E",
"3  c #A54023",
"4  c #AE4828",
"5  c #A94A2E",
"6  c #B24722",
"7  c #A04D39",
"8  c #AE563D",
"9  c #B35437",
"0  c #B55434",
"q  c #9D5D4E",
"w  c #A55946",
"e  c #A55A47",
"r  c #AB5841",
"t  c #A85945",
"y  c #AB5A45",
"u  c #A55D4C",
"i  c #A85C49",
"p  c #AB5E4A",
"a  c #A85E4C",
"s  c #9D6052",
"d  c #9C6355",
"f  c #9B6759",
"g  c #9F675A",
"h  c #9E685B",
"j  c #9C695C",
"k  c #9F6B5E",
"l  c #9E6B5F",
"z  c #9C6C5F",
"x  c #A4604F",
"c  c #AB604E",
"v  c #A9624F",
"b  c #AF654C",
"n  c #AD664F",
"m  c #B66346",
"M  c #B56447",
"N  c #B86246",
"B  c #B5624A",
"V  c #B26549",
"C  c #B1654A",
"Z  c #A36353",
"A  c #A66555",
"S  c #A56557",
"D  c #A66556",
"F  c #AB6351",
"G  c #AA6352",
"H  c #A96453",
"J  c #AA6452",
"K  c #AB6653",
"L  c #AB6753",
"P  c #AC6751",
"I  c #AD6652",
"U  c #A86555",
"Y  c #AB6754",
"T  c #AA6655",
"R  c #AB6655",
"E  c #AA6755",
"W  c #AB6755",
"Q  c #A86757",
"!  c #AB6656",
"~  c #AA6756",
"^  c #AC6655",
"/  c #AF6A55",
"(  c #AD6857",
")  c #A16759",
"_  c #A36659",
"`  c #A56558",
"'  c #A56859",
"]  c #A66859",
"[  c #A4685B",
"{  c #A2695C",
"}  c #A16A5C",
"|  c #A26A5C",
" . c #A06A5E",
".. c #A66B5C",
"X. c #A26C5F",
"o. c #A36C5F",
"O. c #A56C5E",
"+. c #AB6959",
"@. c #A86A5B",
"#. c #AE6A59",
"$. c #B16F5C",
"%. c #B06F5F",
"&. c #B67059",
"*. c #B5705A",
"=. c #B7705A",
"-. c #B4725B",
";. c #B3725C",
":. c #B2725D",
">. c #B0725F",
",. c #B1725F",
"<. c #B5705C",
"1. c #9B6C61",
"2. c #9C6F62",
"3. c #9F6E62",
"4. c #997065",
"5. c #957268",
"6. c #9D7A72",
"7. c #93767C",
"8. c #92787F",
"9. c #A16D61",
"0. c #AF7261",
"q. c #AE7262",
"w. c #AF7262",
"e. c #AE7465",
"r. c #AD776A",
"t. c #AB786C",
"y. c #AB7B6F",
"u. c #AD796C",
"i. c #AC796D",
"p. c #AE7A6D",
"a. c #AE7C6F",
"s. c #B27563",
"d. c #B27565",
"f. c #B57C6A",
"g. c #B57C6B",
"h. c #B67C6B",
"j. c #B37C6C",
"k. c #B27C6D",
"l. c #B17D6F",
"z. c #B27C6F",
"x. c #B37C6F",
"c. c #B27D6F",
"v. c #B47C6C",
"b. c #AB7C71",
"n. c #AB7E73",
"m. c #AE7D71",
"M. c #AF7E72",
"N. c #B17D70",
"B. c #B37F71",
"V. c #A98076",
"C. c #AF8175",
"Z. c #AE8176",
"A. c #AE8277",
"S. c #AB8278",
"D. c #AC8278",
"F. c #B28073",
"G. c #B08075",
"H. c #B18075",
"J. c #B28074",
"K. c #B58477",
"L. c #B58478",
"P. c #124C93",
"I. c #28598C",
"U. c #2A5B8D",
"Y. c #7B7380",
"T. c #797581",
"R. c #797887",
"E. c #8D7881",
"W. c #8E7981",
"Q. c #B5948B",
"!. c #B5958B",
"~. c #B6948B",
"^. c #B7948B",
"/. c #B3958E",
"(. c #B5958C",
"). c #B4958D",
"_. c #B8948A",
"`. c #F0C8BE",
"'. c #EBCFC8",
"]. c #FBF4F2",
"[. c white",
"{. c None",
/* pixels */
"{.U.. . . . . . . . . . . . . . . . . U.{.",
"U.  W.S.D.D.C.C.C.C.C.C.C.C.H.H.B.B.W.  U.",
". W.6.5.4.2.9.9.9.o.o.O.O.O.o.@.@./ e.7.. ",
". V.R R Q 1.2.j 1. . .[ [ [ [ D ~ R R m.. ",
". n.J F F j h g ) ) D D D A A J v n J m.. ",
". b.F p Z '.[.f f f f f h f [.'.Z c v a.. ",
". b.a a x [.[.[.d d d d d [.[.[.x c c a.. ",
". t.i y u s [.[.[.s s s [.[.[.s u y e r.. ",
". t.w r w q q [.[.[.q [.[.[.q q e r e r.. ",
". R = O > 1 1 1 [.[.[.[.[.1 1 1 X + = L . ",
". ~ % @ X 1 1 , , [.[.[., , , , X + % ~ . ",
". R O @ X < : : [.[.[.[.[.< < , = @ + J . ",
". R $ @ % : : [.[.[.< [.[.].< : = o @ J . ",
". #.- - 3 2 [.[.[.2 2 2 [.[.[.2 3 - ; / . ",
"  0.4 6 5 [.[.[.7 7 7 7 7 [.[.[.5 6 4 ;.. ",
". d.9 0 8 `.[.w w w w w w w [.`.8 0 9 d.. ",
". N.B N N R R R J J P n b V M M M N B f.. ",
". L.$.=.=.s.q.q.s.q.s.>.>.;.=.$.&.=.=.K.. ",
". Y.H.N.l.l.l.l.N.l.l.l.f.v.v.v.f.f.F.Y.. ",
"P.  R.(.).).).).(.(.!.!.Q.Q.Q.Q._._.R.  P.",
"{.P.. . . . . . . . . . . . . . . . . P.{."
};
