/* XPM */
static char *hide_prelight[] = {
/* columns rows colors chars-per-pixel */
"21 21 34 1 ",
"  c #012F54",
". c #013158",
"X c #0B375B",
"o c #00477F",
"O c #1D5683",
"+ c #1D5785",
"@ c #1D5887",
"# c #1D5989",
"$ c #1F5E90",
"% c #205F91",
"& c #216091",
"* c #226192",
"= c #256496",
"- c #276698",
"; c #286799",
": c #2A699A",
"> c #2C6A9C",
", c #2C6B9D",
"< c #2D6C9E",
"1 c #2E6D9F",
"2 c #306FA1",
"3 c #3170A1",
"4 c #3271A2",
"5 c #3372A3",
"6 c #3472A4",
"7 c #3574A6",
"8 c #3877A9",
"9 c #3978A9",
"0 c #3A79AA",
"q c #3B7AAB",
"w c #3C7AAC",
"e c #3C7BAD",
"r c white",
"t c None",
/* pixels */
"t.  .     .        .t",
".X$$&#$$$$&#$$$$$$$X.",
" $OOOOO++OOOOO+OOOO$ ",
" %++++++++++++++@O@% ",
" &#+#+#++#+#+#+#@@@* ",
" &+#+#+##+#+#+#+@@@% ",
" &#################* ",
" ;&%%%%%%%%%%%%%%%%; ",
" <=================: ",
" <------;==;;;;=-;-2 ",
" 3:::::::::::::::::5 ",
".6>>>>>>>>>>>>>>>>:5 ",
" 7<<<<<<<<<<<<<<<<<7 ",
" 8222rrrrrrr22222228 ",
" 9333rrrrrrr33332338 ",
" q333rrrrrrr3533355q ",
" q55555555555555555q ",
" q66666666666666665e ",
" e99999999999999999e ",
"oXeeeeeeeeeeeeeeeeeXo",
"to                 ot"
};
