/* XPM */
static char *maximize_pressed[] = {
/* columns rows colors chars-per-pixel */
"21 21 39 1 ",
"  c #012F54",
". c #013158",
"X c #014174",
"o c #014276",
"O c #014378",
"+ c #01447A",
"@ c #00477F",
"# c #134F7E",
"$ c #034A82",
"% c #044B83",
"& c #0A5189",
"* c #0C538B",
"= c #0F568E",
"- c #135080",
"; c #135182",
": c #135183",
"> c #16588C",
", c #115890",
"< c #135A92",
"1 c #165D95",
"2 c #175E96",
"3 c #1C5D91",
"4 c #1E5F93",
"5 c #185F97",
"6 c #196098",
"7 c #1A6199",
"8 c #206296",
"9 c #226498",
"0 c #24669A",
"q c #20679F",
"w c #27699C",
"e c #28699D",
"r c #296A9E",
"t c #2A6B9F",
"y c #2B6CA0",
"u c #3072A6",
"i c #3476A9",
"p c white",
"a c None",
/* pixels */
"a.  .              .a",
". iiiiiiiiiiiiiiiii .",
" uqqqq7yqqqqqqqqqqqu ",
" y77777777777777777y ",
" t57575575755757575t ",
" t225ppppppppppp225t ",
" w222ppppppppppp222w ",
" w222ppppppppppp122w ",
" 0<<<p<<<<<<<<<p<<<0 ",
" 8<=<p==,,,,,,,p>=<9 ",
" 8===p=========p===7 ",
" 4***p*********p***4 ",
" 4*%*p**&*****&p**&3 ",
" >%%$p$$$$$$$$$p%%$> ",
" ;+++p++OO+++OOp+++: ",
" ;++OpppppppppppOOO- ",
" ;+OO++O+OOOOOOOOO+-.",
" ;XXXXXXXXXOOXOXOXX- ",
" #XXXXXXXXXXXXXXXXX# ",
"@ $$$$$%$$$$$$$$$$$ @",
"a@  .              @a"
};
