/* XPM */
static char *title_1_inactive[] = {
/* columns rows colors chars-per-pixel */
"9 30 19 1 ",
"  c #012F54",
". c #013158",
"X c #01345D",
"o c #013762",
"O c #013864",
"+ c #013A68",
"@ c #014276",
"# c #014880",
"$ c #034A82",
"% c #064D85",
"& c #084F87",
"* c #0A5189",
"= c #0D548C",
"- c #0E558D",
"; c #0F568E",
": c #10578F",
"> c #115890",
", c #145B93",
"< c #1D649C",
/* pixels */
"         ",
"<<<<<<<<<",
".........",
".........",
".X.X.X.X.",
"XXXXXXXXX",
"XXXXXXXXX",
"oXXooXXoo",
"oooooOOOo",
"OOOOOOOOO",
"O+O+O++OO",
"+O+O+OOOO",
"+++++++++",
"@@@@@@@@@",
"##$#@$$$$",
"$$$$$$$$$",
"%%%%%%%%%",
"&%&&&&&&*",
"*********",
"========:",
":=:====:=",
":=:==:=:=",
"::::::>>:",
">>>>>>>>:",
">>>>>>>>>",
",,,,,:,,,",
",,,,,,,,,",
",,,,,,,,,",
",,>,,,,,,",
"$$###$##$"
};
