/* XPM */
static char *title_1_active[] = {
/* columns rows colors chars-per-pixel */
"9 30 21 1 ",
"  c #012F54",
". c #013158",
"X c #01335B",
"o c #01345D",
"O c #01355F",
"+ c #013762",
"@ c #013864",
"# c #013966",
"$ c #013A68",
"% c #014276",
"& c #014880",
"* c #034A82",
"= c #064D85",
"- c #084F87",
"; c #0A5189",
": c #0D548C",
"> c #0F568E",
", c #10578F",
"< c #135A92",
"1 c #145B93",
"2 c #1D649C",
/* pixels */
"         ",
"222222222",
"111111111",
"1111111<1",
"11<<<1<<1",
"<<<<<<<<<",
"<<,<<<,<<",
",<,<,<,<,",
">>>>>>>>,",
">>>>>>>>>",
">>>:>>>>>",
":>:::>>,>",
";;;;;;;;;",
"==--=;;==",
"=========",
"***&***&&",
"*%*&&&&&&",
"%%%%%%%%%",
"$$$$$$$$$",
"$$$######",
"#########",
"@@@@##@@@",
"++++++++#",
"OOOOOOOO+",
"OXOXooooo",
"XOXOooooo",
"XXXXXXXXX",
" X X.....",
"X OX..XX.",
"*%&&*%&*%"
};
