/* XPM */
static char *top_left_inactive[] = {
/* columns rows colors chars-per-pixel */
"7 30 31 1 ",
"  c #01223D",
". c #012F54",
"X c #013158",
"o c #01335B",
"O c #01345D",
"+ c #01355F",
"@ c #013762",
"# c #013864",
"$ c #013966",
"% c #013A68",
"& c #013D6D",
"* c #014276",
"= c #014880",
"- c #024981",
"; c #034A82",
": c #044B83",
"> c #064D85",
", c #084F87",
"< c #0A5189",
"1 c #0D548C",
"2 c #0E558D",
"3 c #0F568E",
"4 c #10578F",
"5 c #115890",
"6 c #125991",
"7 c #135A92",
"8 c #145B93",
"9 c #165D95",
"0 c #1C639B",
"q c #1D649C",
"w c None",
/* pixels */
"wwwww..",
"www.*9q",
"wwO9q=%",
"w.9:oXX",
"w*qOooo",
".9;OOOo",
".0&OOoO",
".q@O@O@",
".q@@@@@",
".q#####",
".q$$$$$",
".q$$$$$",
".q%%%%%",
".q*****",
".q=====",
".q;;;;;",
".q>>>>>",
".q,>,,,",
".q<<<<<",
".q11122",
".q22222",
".q22222",
".q25555",
".q55555",
".q55666",
".q59888",
".q98888",
".q88888",
".q98888",
" q5;*;;"
};
