/* XPM */
static char *top_right_active[] = {
/* columns rows colors chars-per-pixel */
"7 30 30 1 ",
"  c #01223D",
". c #012F54",
"X c #013158",
"o c #01335B",
"O c #01345D",
"+ c #01355F",
"@ c #013762",
"# c #013864",
"$ c #013966",
"% c #013A68",
"& c #014276",
"* c #014880",
"= c #024981",
"- c #034A82",
"; c #044B83",
": c #064D85",
"> c #084F87",
", c #0A5189",
"< c #0D548C",
"1 c #0E558D",
"2 c #0F568E",
"3 c #10578F",
"4 c #115890",
"5 c #125991",
"6 c #135A92",
"7 c #145B93",
"8 c #165D95",
"9 c #1C639B",
"0 c #1D649C",
"q c None",
/* pixels */
"..qqqqq",
"98&.qqq",
"7*08Oqq",
"777;8.q",
"77770&q",
"7776*8.",
"666679.",
"666369.",
"363360.",
"<336<0.",
"336<30.",
"<<<<<0.",
"<<<<<0.",
",,,,,0.",
">>,>>0.",
":::::0.",
"*;;*;0.",
"*****0.",
"&&&&&0.",
"%%%%%0.",
"$$$$$0.",
"$$$$$0.",
"####$0.",
"@@@@@0.",
"O@OO@9.",
"OOOOo0.",
"OOOOo0.",
"oooOo9.",
"o.o.o9.",
"****o0 "
};
