/* XPM */
static char *bottom_active[] = {
/* columns rows colors chars-per-pixel */
"11 3 3 1 ",
"  c #020307",
". c #242D3D",
"X c #363C44",
/* pixels */
"...........",
"XXXXXXXXXXX",
"           "
};
