/* XPM */
static char *close_active[] = {
/* columns rows colors chars-per-pixel */
"21 21 119 2 ",
"   c #222222",
".  c #232323",
"X  c gray14",
"o  c #252525",
"O  c #282828",
"+  c gray17",
"@  c #2C2C2C",
"#  c #2D2D2D",
"$  c gray18",
"%  c gray20",
"&  c gray22",
"*  c #434343",
"=  c #565656",
"-  c gray34",
";  c #D6351A",
":  c #D93519",
">  c #DE3518",
",  c #DC3618",
"<  c #DB3918",
"1  c #DC3818",
"2  c #E03719",
"3  c #E63F1D",
"4  c #E6401C",
"5  c #E74B25",
"6  c #E74B27",
"7  c #E95B39",
"8  c #E95D38",
"9  c #9F695F",
"0  c #A3695E",
"q  c #A26A5F",
"w  c #9E6960",
"e  c #DE684E",
"r  c #DD6D52",
"t  c #DF7057",
"y  c #DF745B",
"u  c #EE6648",
"i  c #E46848",
"p  c #E46A4F",
"a  c #E36F4E",
"s  c #E76F4C",
"d  c #EB6E4D",
"f  c #EB6D4F",
"g  c #F56441",
"h  c #F26544",
"j  c #F06645",
"k  c #F96A46",
"l  c #EB704A",
"z  c #EB704B",
"x  c #EB704C",
"c  c #FA714F",
"v  c #E27152",
"b  c #E47155",
"n  c #E47459",
"m  c #E2765D",
"M  c #E2785F",
"N  c #F1795E",
"B  c #FB7B5B",
"V  c #DF7760",
"C  c #DE7963",
"Z  c #DB7A64",
"A  c #DB7B65",
"S  c #D87A66",
"D  c #D87A67",
"F  c #DF7C66",
"G  c #D77E6B",
"H  c #D57F6E",
"J  c #DB7D68",
"K  c #D87F69",
"L  c #E27860",
"P  c #E37B63",
"I  c #E77F65",
"U  c #E57E66",
"Y  c #EC7F61",
"T  c #ED7F61",
"R  c #E87F64",
"E  c #EE7F64",
"W  c #EE7E66",
"Q  c #E17F69",
"!  c #D3816D",
"~  c #D4826E",
"^  c #DD806B",
"/  c #DB826D",
"(  c #D9836F",
")  c #D58471",
"_  c #EA8163",
"`  c #ED8060",
"'  c #EE8163",
"]  c #EE8369",
"[  c #EE866F",
"{  c #F0846C",
"}  c #FB8768",
"|  c #EB8F76",
" . c #EC8F75",
".. c #EC8F76",
"X. c #EB8F78",
"o. c #E88F7A",
"O. c #F08871",
"+. c #F18972",
"@. c #F08F75",
"#. c #F28D77",
"$. c #F58C75",
"%. c #F68C74",
"&. c #F48D77",
"*. c #F98B70",
"=. c #F08F78",
"-. c #EF9074",
";. c #F09076",
":. c #FA9379",
">. c #F7AE9B",
",. c #F6AF9C",
"<. c #F4AF9F",
"1. c #F9AE9B",
"2. c #FBAE9A",
"3. c #F6B09D",
"4. c #F6BEAF",
"5. c #F4C7BD",
"6. c #FDF3F1",
"7. c white",
"8. c None",
/* pixels */
"8.= * * * * * * * * * * * * * * * * * = 8.",
"= = w %.%.&.=.&.=.=.=.=.=.#.=.%.%.%.w - = ",
"* 9 N U Q J ( ( ( ) ) ) ( ( ( J Q U N w * ",
"* O.P U F J K G H ~ ~ ~ H G K J F P P O.* ",
"* O.P m m V C Z Z S S S F Z F y m m P [ * ",
"* [ m n n 5.7.n n n n n n n 7.5.n n y [ * ",
"* { r b b 7.7.7.b b b b b 7.7.7.b b n { * ",
"* ] r p p p 7.7.7.p p p 7.7.7.p p p r ] * ",
"* W e i i i i 7.7.7.i 7.7.7.i i i i e W * ",
"& u ; 1 2 2 2 2 7.7.7.7.7.> 2 2 2 1 ; u & ",
"% j : > > > > > > 7.7.7.> > > > > > : j % ",
"$ j > 1 1 1 1 1 7.7.7.7.7.1 1 1 > < > j # ",
"@ g 2 , < < < 7.7.7.< 7.7.6.< < < < > g + ",
"O k 3 3 4 4 7.7.7.4 4 4 7.7.7.4 4 3 3 k o ",
"o c 5 5 5 7.7.7.5 5 5 5 5 7.7.7.5 5 6 c o ",
"o B 7 8 8 4.7.8 8 8 8 8 8 8 7.4.8 8 7 B o ",
"X } f f x x l l s a v a s l l l x f f } X ",
". :.' ' T T ` T _ U _ U _ N ` Y ` ` ' :.. ",
". 0 *.-.-.#. . .-.o.o. .| -.| -.-.;.*.0 . ",
"# % 0 1.1.1.>.,.>.<.<.>.3.3.,.>.1.1.0 % # ",
"8.+     . .     . .   . . . . . . . . # 8."
};
