/* XPM */
static char *close_inactive[] = {
/* columns rows colors chars-per-pixel */
"21 21 10 1 ",
"  c #020307",
". c #040A17",
"X c #040C1D",
"o c #2D394A",
"O c #2C3B4E",
"+ c #AEAEAE",
"@ c #B9B9B9",
"# c #F4F4F4",
"$ c white",
"% c None",
/* pixels */
"%X                 X%",
"X OOOOOOOOOOOOOOOOO X",
" Oo.X.X.X.X.X.X.X.OO ",
" OXX.X.X.X.X.X.X.X.O ",
" O..X.X.........X.XO ",
" OX..+$.XXXXX.$+.X.O ",
" O.XX$$$X....$$$..XO ",
" O.X.X$$$.X.$$$.XX.O ",
" OXX.X.$$$.$$$.X.X.O ",
" O..X.X.$$$$$X.XX.XO ",
" OXX.X.XX$$$X.X.X..O ",
" O..X.X.$$$$$X.X.XXO ",
" OXX.X.$$$X$$#X.X..O ",
" O..X.$$$.XX$$$X.XXO ",
" O.XX$$$X....$$$..XO ",
" OX..@$.XXXXX.$@.X.O ",
" O..X.X.........X.XO ",
" OXX.X.X.X.X.X.X.X.O ",
" Oo.X.X.X.X.X.X.X.OO ",
"X OOOOOOOOOOOOOOOOO X",
"%X                 X%"
};
