/* XPM */
static char *hide_active[] = {
/* columns rows colors chars-per-pixel */
"21 21 33 1 ",
"  c #1A2430",
". c #1F2739",
"X c #232A3D",
"o c #242D3D",
"O c #2B333B",
"+ c #272F42",
"@ c #293344",
"# c #2B3942",
"$ c #2D394A",
"% c #334151",
"& c #3B4353",
"* c #3D4856",
"= c #434C5A",
"- c #414E5E",
"; c #48505D",
": c #4B5767",
"> c #515862",
", c #515D6B",
"< c #525F6E",
"1 c #556271",
"2 c #576471",
"3 c #5A6673",
"4 c #5C6975",
"5 c #60666F",
"6 c #616B75",
"7 c #616E78",
"8 c #676E78",
"9 c #6A727A",
"0 c #70787F",
"q c #747C84",
"w c #798188",
"e c white",
"r c None",
/* pixels */
"r>&&&&&&&&&&&&&&&&&=r",
":*00000000000000000>=",
"&8966666667766667798&",
"&8464646464646464648&",
"&8333333333333333338&",
"&8222222222222222228&",
"&6111111111111111116&",
"&6,,,,,,,,,,,,,,,,,6&",
"&6,,,,,,,,,,,,,,,,,6&",
"#,=-----=----------,$",
"@,*****************,O",
"o,%%%%%%%%%%%%%%%%%,+",
"o,%%%%%%%%%%%%%%%%%,o",
".,%%%eeeeeee%%%%%%%<.",
" 2&&&eeeeeee&&&&&&&2 ",
".5***eeeeeee*******5.",
" 6=================6 ",
" 9;;;;;;;;;;;;;;;;;9 ",
" 5055555555555555595 ",
"+O5qwqqwqqwqqwqqwq5Oo",
"rX                 or"
};
