/* XPM */
static char *hide_prelight[] = {
/* columns rows colors chars-per-pixel */
"21 21 107 2 ",
"   c #1A2430",
".  c #1F2739",
"X  c #232A3D",
"o  c #242D3D",
"O  c #2B333B",
"+  c #272F42",
"@  c #293344",
"#  c #2B3942",
"$  c #2D394A",
"%  c #334151",
"&  c #334152",
"*  c #334252",
"=  c #344251",
"-  c #344252",
";  c #374453",
":  c #364454",
">  c #374454",
",  c #364554",
"<  c #374554",
"1  c #3B4353",
"2  c #394656",
"3  c #394756",
"4  c #3A4656",
"5  c #3A4756",
"6  c #3A4757",
"7  c #3D4856",
"8  c #3C4958",
"9  c #3D4958",
"0  c #3C4959",
"q  c #3D4959",
"w  c #3C4A58",
"e  c #3D4A59",
"r  c #3F4C5A",
"t  c #3F4C5B",
"y  c #3F4D5B",
"u  c #404C5A",
"i  c #404C5B",
"p  c #434C5A",
"a  c #424E5C",
"s  c #424F5C",
"d  c #434F5C",
"f  c #424E5D",
"g  c #424F5D",
"h  c #434F5D",
"j  c #44515F",
"k  c #45515F",
"l  c #44525F",
"z  c #45525F",
"x  c #455160",
"c  c #475461",
"v  c #485461",
"b  c #485462",
"n  c #4A5663",
"m  c #4B5663",
"M  c #4B5763",
"N  c #4A5664",
"B  c #4B5664",
"V  c #4B5764",
"C  c #4B5767",
"Z  c #4D5965",
"A  c #4E5965",
"S  c #4D5A65",
"D  c #4D5966",
"F  c #4E5966",
"G  c #4D5A66",
"H  c #4E5A66",
"J  c #515862",
"K  c #505B68",
"L  c #505C68",
"P  c #515C68",
"I  c #515D6B",
"U  c #535F6A",
"Y  c #535E6B",
"T  c #535F6B",
"R  c #545E6A",
"E  c #545F6A",
"W  c #545E6B",
"Q  c #525F6E",
"!  c #56616C",
"~  c #57616C",
"^  c #56616D",
"/  c #57616D",
"(  c #56626C",
")  c #57626D",
"_  c #59636D",
"`  c #59636F",
"'  c #59646E",
"]  c #59646F",
"[  c #5A646F",
"{  c #576471",
"}  c #5B6671",
"|  c #5C6670",
" . c #5C6671",
".. c #5C6771",
"X. c #5E6973",
"o. c #5F6973",
"O. c #5E6974",
"+. c #5F6974",
"@. c #60666F",
"#. c #616B75",
"$. c #676E78",
"%. c #6A727A",
"&. c #70787F",
"*. c #747C84",
"=. c #798188",
"-. c white",
";. c None",
/* pixels */
";.J 1 1 5 1 1 1 1 1 1 1 1 1 1 1 1 1 1 u ;.",
"C 7 &.&.%.*.&.&.&.&.%.*.*.%.&.*.&.&.&.J u ",
"1 $.| = * * * * = * * = * * = * ; * ' $.1 ",
"1 $.> > > > > > = 5 > > = 5 ; = ; > > $.1 ",
"1 $.6 6 6 5 5 5 > 5 5 5 5 6 6 6 6 6 6 $.1 ",
"1 $.0 0 0 0 w w 0 w w w 0 7 0 7 0 0 7 $.1 ",
"1 #.r r u u f 0 i t r r r y r y u u 0 #.1 ",
"1 #.f f j u f j f f j u j u f j u j f #.1 ",
"1 #.z z z x h z x x z z z z z z z z z #.1 ",
"# P v v v v v v b b b b b b v v b x b P $ ",
"@ I M M C b M M b M M b M b M M b A C I O ",
"o I A H H H H H H H H H H A H H H H H I @ ",
"o P K L L L L L L L L L K P P K L K L I o ",
"X K ! I R -.-.-.-.-.-.-.R R W R R ! R I X ",
"  } ^ ^ ^ -.-.-.-.-.-.-.! ^ ^ ^ ^ ^ ^ ^   ",
". [ } ' ' -.-.-.-.-.-.-.` ' ` } ' ' ' @.. ",
"  #.' | | } } | | | | | | | | o.} } [ #.  ",
"  %.o.#.+.+.+.+.o.o.+.+.+.+.+.+.+.+.#.%.  ",
"  [ [ #.#.#.#.#.#.#.#.#.#.#.#.#.#.#.` @.  ",
"+ O @.*.=.*.*.=.*.*.=.*.*.=.*.*.=.*.[ O o ",
";.X                                   o ;."
};
