/* XPM */
static char *maximize_prelight[] = {
/* columns rows colors chars-per-pixel */
"21 21 100 2 ",
"   c #1A2430",
".  c #1F2739",
"X  c #232A3D",
"o  c #242D3D",
"O  c #2B333B",
"+  c #272F42",
"@  c #293344",
"#  c #2B3942",
"$  c #2D394A",
"%  c #334151",
"&  c #334152",
"*  c #334252",
"=  c #344251",
"-  c #344252",
";  c #374453",
":  c #364454",
">  c #374454",
",  c #364554",
"<  c #374554",
"1  c #3B4353",
"2  c #394656",
"3  c #394756",
"4  c #3A4656",
"5  c #3A4756",
"6  c #3A4757",
"7  c #3D4856",
"8  c #3C4958",
"9  c #3C4959",
"0  c #3D4A59",
"q  c #3F4C5A",
"w  c #3F4C5B",
"e  c #3F4D5B",
"r  c #404C5A",
"t  c #404C5B",
"y  c #434C5A",
"u  c #424F5C",
"i  c #424E5D",
"p  c #424F5D",
"a  c #434F5D",
"s  c #44515F",
"d  c #45515F",
"f  c #44525F",
"g  c #45525F",
"h  c #455160",
"j  c #475461",
"k  c #485461",
"l  c #485462",
"z  c #4A5663",
"x  c #4B5663",
"c  c #4B5763",
"v  c #4A5664",
"b  c #4B5664",
"n  c #4B5764",
"m  c #4B5767",
"M  c #4D5965",
"N  c #4E5965",
"B  c #4D5A65",
"V  c #4D5966",
"C  c #4E5966",
"Z  c #4D5A66",
"A  c #515862",
"S  c #505B68",
"D  c #505C68",
"F  c #515C68",
"G  c #515D6B",
"H  c #535F6A",
"J  c #535E6B",
"K  c #535F6B",
"L  c #545E6A",
"P  c #545F6A",
"I  c #545E6B",
"U  c #525F6E",
"Y  c #56616C",
"T  c #57616C",
"R  c #56616D",
"E  c #57616D",
"W  c #56626C",
"Q  c #57626D",
"!  c #59636D",
"~  c #59636F",
"^  c #59646F",
"/  c #5A646F",
"(  c #576471",
")  c #5B6671",
"_  c #5C6670",
"`  c #5C6671",
"'  c #5C6771",
"]  c #5E6973",
"[  c #5F6973",
"{  c #5E6974",
"}  c #5F6974",
"|  c #60666F",
" . c #616B75",
".. c #676E78",
"X. c #6A727A",
"o. c #70787F",
"O. c #747C84",
"+. c #798188",
"@. c white",
"#. c None",
/* pixels */
"#.A 1 1 1 1 1 1 1 1 1 1 1 1 1 1 1 1 1 r #.",
"m 7 o.o.o.o.o.o.o.o.o.o.o.o.o.o.o.o.o.A y ",
"1 .._ = * * * * * * * * * * = * * * / ..1 ",
"1 ..> > > > > > > > > > ; > > > ; > > ..1 ",
"1 ..6 6 6 5 5 5 > 5 5 5 6 5 > 6 5 5 5 ..1 ",
"1 ..9 9 9 @.@.@.@.@.@.@.@.@.@.@.8 7 8 ..1 ",
"1  .q q r @.@.@.@.@.@.@.@.@.@.@.r q q  .1 ",
"1  .i i i @.@.@.@.@.@.@.@.@.@.@.s i r  .1 ",
"1  .s g s @.s s s s s s h s s @.s s s  .1 ",
"# H l l g @.l l l l j j l l l @.l l l H $ ",
"@ H c l M @.m l l N l N N l l @.m l m G O ",
"o G N N N @.N N N N N Z N N N @.N N N G @ ",
"o G H N D @.S S H S D S S H S @.S S D G o ",
". G Y G H @.P H H P P H H P H @.H H H G . ",
"  ) E E E @.E E E I E Y E E I @.E Y E (   ",
". / ) E ^ @.@.@.@.@.@.@.@.@.@.@./ / / | . ",
"   ./ _ _ ) ) _ _ [ ) ) ) ) _ _ _ _ _  .  ",
"  X.[  .} [ } } [ [ [ [ [ [ } [ } }  .X.  ",
"  / /  . . . . . . . . . . . . . . ./ |   ",
"+ O | O.+.O.O.+.O.O.+.O.O.+.O.O.+.O._ O o ",
"#.X                                   o #."
};
