/* XPM */
static char *maximize_inactive[] = {
/* columns rows colors chars-per-pixel */
"21 21 7 1 ",
"  c #020307",
". c #040A17",
"X c #040C1D",
"o c #2D394A",
"O c #2C3B4E",
"+ c white",
"@ c None",
/* pixels */
"@X                 X@",
"X OOOOOOOOOOOOOOOOO X",
" Oo.X.X.X.X.X.X.X.OO ",
" OXX.X.X.X.X.X.X.X.O ",
" O..X.X.........X.XO ",
" OX..+++++++++++.X.O ",
" O.XX+++++++++++..XO ",
" O.X.+++++++++++XX.O ",
" OXX.+.X.X.X.X.+.X.O ",
" O..X+X..X.X.X.+X.XO ",
" OXX.+.XX.X.X.X+X..O ",
" O..X+X.X.X..X.+.XXO ",
" OXX.+..X.X.X.X+X..O ",
" O..X+X.X.XX.X.+.XXO ",
" O.XX+X.X....X.+..XO ",
" OX..+++++++++++.X.O ",
" O..X.X.........X.XO ",
" OXX.X.X.X.X.X.X.X.O ",
" Oo.X.X.X.X.X.X.X.OO ",
"X OOOOOOOOOOOOOOOOO X",
"@X                 X@"
};
