/* XPM */
static char *title_1_active[] = {
/* columns rows colors chars-per-pixel */
"9 30 23 1 ",
"  c #161D2D",
". c #1F2739",
"X c #232A3D",
"o c #242D3D",
"O c #272F42",
"+ c #263142",
"@ c #293344",
"# c #2C3748",
"$ c #2D394A",
"% c #2F3C4D",
"& c #323E50",
"* c #334151",
"= c #4B5767",
"- c #4D5968",
"; c #525F6E",
": c #556271",
"> c #576471",
", c #5A6673",
"< c #5C6975",
"1 c #616E78",
"2 c #64717B",
"3 c #66737C",
"4 c #919195",
/* pixels */
".........",
"444444444",
"333333333",
"222222222",
"111111111",
"111111111",
"<<<<<<<<<",
"<<<<<<<<<",
",,,,,,,,,",
">>>>>>>>>",
":::::::::",
":::::::::",
";;;;;;;;;",
"---------",
"=========",
"*********",
"*********",
"&&&&&&&&&",
"%%%%%%%%%",
"$$$$$$$$$",
"$$$$$$$$$",
"#########",
"@@@@@@@@@",
"@@@@@@@@@",
"+++++++++",
"OOOOOOOOO",
"ooooooooo",
"XXXXXXXXX",
"XXXXXXXXX",
"         "
};
