/* XPM */
static char *title_1_inactive[] = {
/* columns rows colors chars-per-pixel */
"9 30 8 1 ",
"  c #020307",
". c #040A17",
"X c #0E1422",
"o c #101625",
"O c #101726",
"+ c #111929",
"@ c #2B333B",
"# c #363C44",
/* pixels */
"         ",
"#########",
"+++++++++",
"+++++++++",
"+++++++++",
"+++++++++",
"+++++++++",
"+++++++++",
"OOOOOOOOO",
"OOOOOOOOO",
"ooooooooO",
"ooooooooO",
"ooooOOOoO",
"XXXXXXXXX",
"XXXXXXXXX",
".........",
".........",
".........",
".........",
".........",
".........",
".........",
".........",
".........",
".........",
".........",
".........",
".........",
".........",
"@@@@@@@@@"
};
