/* XPM */
static char *top_right_active[] = {
/* columns rows colors chars-per-pixel */
"7 30 31 1 ",
"  c #161D2D",
". c #1A2430",
"X c #1F2739",
"o c #232A3D",
"O c #242D3D",
"+ c #272F42",
"@ c #263142",
"# c #293344",
"$ c #2C3748",
"% c #2D394A",
"& c #2F3C4D",
"* c #323E50",
"= c #334151",
"- c #3B4353",
"; c #3D4856",
": c #434C5A",
"> c #4B5767",
", c #4D5968",
"< c #525F6E",
"1 c #556271",
"2 c #576471",
"3 c #5A6673",
"4 c #5C6975",
"5 c #616E78",
"6 c #64717B",
"7 c #66737C",
"8 c #70787F",
"9 c #747C84",
"0 c #798188",
"q c #919195",
"w c None",
/* pixels */
"XXwwwww",
"qqXXwww",
"79q,Xww",
"666q,Xw",
"55550ow",
"55558, ",
"444449 ",
"444449 ",
"333339 ",
"222229 ",
"111119 ",
"111119 ",
"<<<<<9 ",
",,,,,9 ",
">>>>>9 ",
"=====9 ",
"=====9 ",
"*****9 ",
"&&&&*9 ",
"%%%%*9 ",
"%%%%*9 ",
"$$$$=9 ",
"####*0 ",
"###@-0 ",
"@+@@-0 ",
"++++-0 ",
"OOOO-0 ",
"oooO;0 ",
"oooo:0 ",
"   .:0 "
};
