/* XPM */
static char *top_left_inactive[] = {
/* columns rows colors chars-per-pixel */
"7 30 12 1 ",
"  c #020307",
". c #030914",
"X c #040A17",
"o c #0E1422",
"O c #101625",
"+ c #101726",
"@ c #111929",
"# c #161D2D",
"$ c #232629",
"% c #363C44",
"& c #3C3E42",
"* c None",
/* pixels */
"*****  ",
"***  $%",
"** $%%@",
"* $%@@@",
"* %@@@@",
"  %@@@@",
" %@@@@@",
" %@@@@@",
" %++++O",
" %+++++",
" %++++O",
" %++++O",
" %OOOOO",
" %ooooo",
" %ooooo",
" %XXXXX",
" %XXXXX",
" &XXXXX",
" %XXXX.",
" &XX.XX",
" %XXXXX",
" %XX.XX",
" %XXXXX",
" %X.XXX",
" %XXXXX",
" %X.X.X",
" %XXXXX",
" &XXX.X",
" &XXX.X",
" %X####"
};
