/* XPM */
static char * bottom_right_inactive_xpm[] = {
"5 5 6 1",
" 	c None",
".	c #7586DC",
"+	c #7587DD",
"@	c #7382D9",
"#	c #6D74CD",
"$	c #4F53BC",
".+@#$",
"++@#$",
"@@@#$",
"####$",
"$$$$$"};
