/* XPM */
static char * bottom_right_active_xpm[] = {
"5 5 14 1",
" 	c None",
".	c #0048F1",
"+	c #003DDC",
"@	c #002DBE",
"#	c #001DA0",
"$	c #00138C",
"%	c #0037D0",
"&	c #002CBC",
"*	c #001EA3",
"=	c #0028B3",
"-	c #001DA1",
";	c #001EA0",
">	c #001EA1",
",	c #001B9B",
".+@#$",
"+%&*$",
"@&=-$",
";*>,$",
"$$$$$"};
