/* XPM */
static char * bottom_active_xpm[] = {
"5 5 13 1",
" 	c None",
".	c #0048F1",
"+	c #003EDD",
"@	c #003DDC",
"#	c #003DDD",
"$	c #002EBF",
"%	c #002EBE",
"&	c #002DBF",
"*	c #002DBE",
"=	c #001EA1",
"-	c #001DA1",
";	c #001EA0",
">	c #00138C",
".....",
"+@##@",
"$%&$*",
"=--;-",
">>>>>"};
