/* XPM */
static char * bottom_left_active_xpm[] = {
"5 5 19 1",
" 	c None",
".	c #0019CF",
"+	c #0831D9",
"@	c #1252E5",
"#	c #166AEE",
"$	c #0855DD",
"%	c #0D47DA",
"&	c #1054DF",
"*	c #0A49D9",
"=	c #0017C1",
"-	c #0427BC",
";	c #0532C0",
">	c #0536C1",
",	c #0333C0",
"'	c #0016AE",
")	c #001EA0",
"!	c #001EA1",
"~	c #001499",
"{	c #00138C",
".+@#$",
".+%&*",
"=-;>,",
"'))!)",
"~{{{{"};
