/* XPM */
static char * bottom_left_inactive_xpm[] = {
"5 5 10 1",
" 	c None",
".	c #5B68CD",
"+	c #7480DC",
"@	c #7589DE",
"#	c #758CDD",
"$	c #758CDC",
"%	c #7587DD",
"&	c #7382D9",
"*	c #6D74CD",
"=	c #4F53BC",
".+@#$",
".+@%%",
".+&&&",
".****",
".===="};
