/* XPM */
static char * close_inactive_xpm[] = {
"21 21 356 2",
"  	c None",
". 	c #A0B7E9",
"+ 	c #B9C9EF",
"@ 	c #BDCCF0",
"# 	c #BDCBEF",
"$ 	c #BDCAEF",
"% 	c #BDCAEE",
"& 	c #BCC9EE",
"* 	c #BCC8EE",
"= 	c #BCC8ED",
"- 	c #BCC7ED",
"; 	c #9EAEE4",
"> 	c #9EB4E7",
", 	c #B9BBDC",
"' 	c #B28FA8",
") 	c #B1869E",
"! 	c #AF8198",
"~ 	c #AF7D94",
"{ 	c #AF7B91",
"] 	c #AE788E",
"^ 	c #AE798F",
"/ 	c #AE768C",
"( 	c #AD758B",
"_ 	c #AD758A",
": 	c #AD7186",
"< 	c #AC7086",
"[ 	c #AC6E84",
"} 	c #AB6A80",
"| 	c #A9657B",
"1 	c #A36B85",
"2 	c #B2AED4",
"3 	c #9BA7E2",
"4 	c #BBC8EE",
"5 	c #B28EA8",
"6 	c #B399B5",
"7 	c #B49BB7",
"8 	c #B294AF",
"9 	c #B18DA7",
"0 	c #B189A4",
"a 	c #B186A1",
"b 	c #B0849F",
"c 	c #B0829D",
"d 	c #AF819C",
"e 	c #AF819B",
"f 	c #AF7F99",
"g 	c #AF7D97",
"h 	c #AE7A94",
"i 	c #AE7790",
"j 	c #AD728B",
"k 	c #AB6B84",
"l 	c #A2637C",
"m 	c #956582",
"n 	c #B5BBE9",
"o 	c #BBC7ED",
"p 	c #B086A0",
"q 	c #B49BB9",
"r 	c #B49CBA",
"s 	c #B295B1",
"t 	c #B28FA9",
"u 	c #B18BA5",
"v 	c #B187A3",
"w 	c #B085A0",
"x 	c #AF839F",
"y 	c #B0819D",
"z 	c #B0809D",
"A 	c #AF7E9B",
"B 	c #AF7C99",
"C 	c #AE7995",
"D 	c #AE7691",
"E 	c #AD738D",
"F 	c #AB6D86",
"G 	c #A3647E",
"H 	c #8F5875",
"I 	c #B9BDEA",
"J 	c #B0809A",
"K 	c #B395B2",
"L 	c #B396B3",
"M 	c #B290AC",
"N 	c #B18AA5",
"O 	c #B187A1",
"P 	c #B0839F",
"Q 	c #B0809C",
"R 	c #AF7D99",
"S 	c #AF7B97",
"T 	c #AE7692",
"U 	c #AD738E",
"V 	c #AD718B",
"W 	c #AC6F89",
"X 	c #AB6B85",
"Y 	c #A46580",
"Z 	c #905A77",
"` 	c #BABEEA",
" .	c #BBC7EE",
"..	c #AF7E97",
"+.	c #B28FAA",
"@.	c #B28FAB",
"#.	c #D0B5C6",
"$.	c #EFE5EB",
"%.	c #AF7B96",
"&.	c #AE7894",
"*.	c #AD7590",
"=.	c #AD728D",
"-.	c #AD7089",
";.	c #AD6E88",
">.	c #EEE1E6",
",.	c #CDA6B5",
"'.	c #AC6C85",
").	c #AA6A84",
"!.	c #A46782",
"~.	c #915C7A",
"{.	c #BABEEB",
"].	c #BCC7EE",
"^.	c #AF7B95",
"/.	c #B28AA5",
"(.	c #B18BA6",
"_.	c #B187A2",
":.	c #EFE6EB",
"<.	c #EFE4EA",
"[.	c #AE738D",
"}.	c #AD708A",
"|.	c #AC6D87",
"1.	c #AC6A83",
"2.	c #AB6A83",
"3.	c #A56782",
"4.	c #915D7A",
"5.	c #BABFEB",
"6.	c #BCC6EE",
"7.	c #AF7991",
"8.	c #B186A2",
"9.	c #B084A0",
"0.	c #EFE5EA",
"a.	c #EFE4E9",
"b.	c #EEE3E9",
"c.	c #AE748F",
"d.	c #AE728C",
"e.	c #AD6F88",
"f.	c #EEE1E5",
"g.	c #AD6981",
"h.	c #AD6A82",
"i.	c #AB6A82",
"j.	c #A56781",
"k.	c #925D7A",
"l.	c #BBC0EC",
"m.	c #B0839E",
"n.	c #B0829E",
"o.	c #B07F9C",
"p.	c #B07C98",
"q.	c #EEE4E9",
"r.	c #EEE3E8",
"s.	c #AD718A",
"t.	c #EEE2E7",
"u.	c #AD687F",
"v.	c #AD677E",
"w.	c #AD6880",
"x.	c #AC6A81",
"y.	c #A66781",
"z.	c #935D7A",
"A.	c #AE758C",
"B.	c #B0809B",
"C.	c #B07E9B",
"D.	c #AF7C97",
"E.	c #AE7A95",
"F.	c #AE6B81",
"G.	c #AE697F",
"H.	c #AD687E",
"I.	c #AC697F",
"J.	c #A6667F",
"K.	c #935C79",
"L.	c #BCC7EF",
"M.	c #AE738A",
"N.	c #B07D97",
"O.	c #B07F9A",
"P.	c #B07F9B",
"Q.	c #B07E9A",
"R.	c #AF7A94",
"S.	c #AE7891",
"T.	c #EFE3E7",
"U.	c #EFE2E7",
"V.	c #AF6F84",
"W.	c #AF6D81",
"X.	c #AF6A7F",
"Y.	c #AF697D",
"Z.	c #AD697E",
"`.	c #A7667E",
" +	c #935C78",
".+	c #BBC0ED",
"++	c #BDC8EF",
"@+	c #AE7188",
"#+	c #AF7B94",
"$+	c #B07F99",
"%+	c #B07E99",
"&+	c #AF7C95",
"*+	c #EFE3E8",
"=+	c #EFE2E6",
"-+	c #B06E82",
";+	c #B06C7F",
">+	c #AF6A7C",
",+	c #AF697C",
"'+	c #AE687C",
")+	c #A7657C",
"!+	c #945B77",
"~+	c #BCC1EE",
"{+	c #BDC9F0",
"]+	c #AE7086",
"^+	c #AF7A92",
"/+	c #B07D96",
"(+	c #B17F98",
"_+	c #B17E99",
":+	c #B07E98",
"<+	c #EFE4E8",
"[+	c #B0788D",
"}+	c #B16E7F",
"|+	c #B16C7D",
"1+	c #B06B7B",
"2+	c #AF697B",
"3+	c #A8647A",
"4+	c #955B76",
"5+	c #BCC3EE",
"6+	c #BECAF1",
"7+	c #AE6F83",
"8+	c #AF798F",
"9+	c #B07C94",
"0+	c #B17E97",
"a+	c #EFE5E9",
"b+	c #B17B91",
"c+	c #B1798E",
"d+	c #B1768A",
"e+	c #EFE3E6",
"f+	c #EFE2E5",
"g+	c #B26D7C",
"h+	c #B16C7A",
"i+	c #AF6879",
"j+	c #A96477",
"k+	c #965B74",
"l+	c #BCC4EF",
"m+	c #BECBF1",
"n+	c #AE6D80",
"o+	c #AF778C",
"p+	c #B07B92",
"q+	c #B17D95",
"r+	c #B17C93",
"s+	c #B27C91",
"t+	c #B17A8E",
"u+	c #B2788B",
"v+	c #B37686",
"w+	c #EFE2E4",
"x+	c #B26B79",
"y+	c #B16877",
"z+	c #A96376",
"A+	c #965B73",
"B+	c #BDC6F0",
"C+	c #BECCF2",
"D+	c #AE6C7E",
"E+	c #AF7589",
"F+	c #B07A8E",
"G+	c #B17C92",
"H+	c #D6BBC7",
"I+	c #B27D93",
"J+	c #B17D92",
"K+	c #B17C90",
"L+	c #B27A8D",
"M+	c #B2798A",
"N+	c #B37786",
"O+	c #B37583",
"P+	c #D7B3BA",
"Q+	c #B36B78",
"R+	c #B16775",
"S+	c #AA6273",
"T+	c #965A72",
"U+	c #BEC6F0",
"V+	c #BFCEF2",
"W+	c #AE6B7C",
"X+	c #AF7385",
"Y+	c #AF778A",
"Z+	c #B17B8F",
"`+	c #B17B8E",
" @	c #B17A8D",
".@	c #B2798B",
"+@	c #B27888",
"@@	c #B37684",
"#@	c #B37481",
"$@	c #B3727E",
"%@	c #B36E7A",
"&@	c #B36B77",
"*@	c #B16774",
"=@	c #AA6272",
"-@	c #965B72",
";@	c #BEC7F1",
">@	c #BFCFF3",
",@	c #AC6A7A",
"'@	c #AD7080",
")@	c #AE7486",
"!@	c #AE778A",
"~@	c #AF788C",
"{@	c #AF798C",
"]@	c #AF788B",
"^@	c #AF7789",
"/@	c #B07687",
"(@	c #B17585",
"_@	c #B17482",
":@	c #B2717F",
"<@	c #B26F7C",
"[@	c #B26C79",
"}@	c #B16976",
"|@	c #AF6673",
"1@	c #A76172",
"2@	c #945B72",
"3@	c #BEC9F2",
"4@	c #BCCDF2",
"5@	c #A67487",
"6@	c #A66B7C",
"7@	c #A66E80",
"8@	c #A77183",
"9@	c #A77285",
"0@	c #A77286",
"a@	c #A77185",
"b@	c #A87184",
"c@	c #A87083",
"d@	c #A86F81",
"e@	c #AA6F80",
"f@	c #AA6E7D",
"g@	c #AA6C7C",
"h@	c #AA6A79",
"i@	c #AA6877",
"j@	c #AA6674",
"k@	c #A86373",
"l@	c #A06072",
"m@	c #956882",
"n@	c #BECAF2",
"o@	c #A4BCEE",
"p@	c #B7BBDB",
"q@	c #9A7287",
"r@	c #936579",
"s@	c #96687B",
"t@	c #95677C",
"u@	c #94687D",
"v@	c #94677C",
"w@	c #96677C",
"x@	c #97667B",
"y@	c #986579",
"z@	c #986477",
"A@	c #996376",
"B@	c #986275",
"C@	c #986074",
"D@	c #996073",
"E@	c #965E72",
"F@	c #956A82",
"G@	c #B4B5DA",
"H@	c #A2B2EC",
"I@	c #A3BBEE",
"J@	c #BFCEF3",
"K@	c #BFCDF3",
"L@	c #BFCDF2",
"M@	c #BFCCF2",
"N@	c #BBC8F1",
"O@	c #A2B4EC",
"  . + @ @ @ # # # # # $ % % & * = - - ;   ",
"> , ' ) ! ~ { ] ^ / / ( _ : < [ } | 1 2 3 ",
"4 5 6 7 8 9 0 a b c d e f g h i j k l m n ",
"o p q r s t u v w x y z A B C D E F G H I ",
"o J K L M N O P Q R S C T D U V W X Y Z ` ",
" ...+.@.N #.$.R %.&.*.=.-.;.>.,.'.).!.~.{.",
"].^./.(._.:.$.<.&.D [.}.|.>.>.>.1.2.3.4.5.",
"6.7.8.v 9.z 0.a.b.c.d.e.>.>.f.g.h.i.j.k.l.",
"6.7.m.b n.o.p.q.b.r.s.t.>.f.u.v.w.x.y.z.l.",
"].A.B.y z C.D.E.b.r.t.t.>.F.G.H.H.I.J.K.l.",
"L.M.N.O.P.Q.D.R.S.r.T.U.V.W.X.Y.Y.Z.`. +.+",
"++@+#+$+O.%+N.&+a.*+*+T.=+-+;+>+,+'+)+!+~+",
"{+]+^+/+(+_+:+0.a.<+[+T.=+=+}+|+1+2+3+4+5+",
"6+7+8+9+0+(+0.a+a.b+c+d+e+=+f+g+h+i+j+k+l+",
"m+n+o+p+q+0.0.a+r+s+t+u+v+e+f+w+x+y+z+A+B+",
"C+D+E+F+G+H+a+I+J+K+L+M+N+O+f+P+Q+R+S+T+U+",
"V+W+X+Y+F+K+K+Z+`+ @.@+@@@#@$@%@&@*@=@-@;@",
">@,@'@)@!@~@{@]@]@^@/@(@_@:@<@[@}@|@1@2@3@",
"4@5@6@7@8@9@0@a@b@c@d@e@f@g@h@i@j@k@l@m@n@",
"o@p@q@r@s@t@u@v@w@w@x@y@z@A@B@C@D@E@F@G@H@",
"  I@>@>@>@>@>@>@J@J@K@L@L@L@M@M@M@M@N@O@  "};
