/* XPM */
static char * close_prelight_xpm[] = {
"21 21 255 2",
"  	c None",
". 	c #B7C6F0",
"+ 	c #F5F7FD",
"@ 	c #FFFFFF",
"# 	c #FFE4E1",
"$ 	c #FF9285",
"% 	c #FF8C7F",
"& 	c #FF8375",
"* 	c #FF7B6C",
"= 	c #FF7868",
"- 	c #FF7362",
"; 	c #FF7363",
"> 	c #FF705F",
", 	c #FF6F5F",
"' 	c #FF6E5D",
") 	c #FF6B5A",
"! 	c #FF6655",
"~ 	c #FF6250",
"{ 	c #FF5D4A",
"] 	c #FA5643",
"^ 	c #EB6151",
"/ 	c #F5DAD7",
"( 	c #FF9386",
"_ 	c #FFAEA5",
": 	c #FFB2A9",
"< 	c #FFA99F",
"[ 	c #FF9E93",
"} 	c #FF998D",
"| 	c #FF9488",
"1 	c #FF9083",
"2 	c #FF8E80",
"3 	c #FF8B7D",
"4 	c #FF887A",
"5 	c #FF8475",
"6 	c #FF8172",
"7 	c #FF7C6D",
"8 	c #FF7666",
"9 	c #FC6352",
"0 	c #EE5544",
"a 	c #D3594B",
"b 	c #FF8D80",
"c 	c #FFB3AB",
"d 	c #FFB8B0",
"e 	c #FFB0A6",
"f 	c #FFA49A",
"g 	c #FF988D",
"h 	c #FF9184",
"i 	c #FF8E81",
"j 	c #FF8C7E",
"k 	c #FF8576",
"l 	c #FF7F70",
"m 	c #FF796A",
"n 	c #FF7161",
"o 	c #FC6857",
"p 	c #ED5948",
"q 	c #CB4233",
"r 	c #FF8577",
"s 	c #FFAAA0",
"t 	c #FFA89E",
"u 	c #FF8D7F",
"v 	c #FF8879",
"w 	c #FF8071",
"x 	c #FF7A6B",
"y 	c #FF7969",
"z 	c #FF7464",
"A 	c #FF7060",
"B 	c #FF6C5B",
"C 	c #FC6655",
"D 	c #EF5C4B",
"E 	c #CC4636",
"F 	c #FFA095",
"G 	c #FFA59B",
"H 	c #FF9F94",
"I 	c #FFCAC4",
"J 	c #FF8A7C",
"K 	c #FF7E6F",
"L 	c #FF6554",
"M 	c #FC6453",
"N 	c #EE5D4D",
"O 	c #CD4939",
"P 	c #FF998E",
"Q 	c #FF9D92",
"R 	c #FF6F5E",
"S 	c #FF6A58",
"T 	c #FF6451",
"U 	c #FD6451",
"V 	c #EE5E4D",
"W 	c #CE4A3A",
"X 	c #FF968A",
"Y 	c #FF9487",
"Z 	c #FF8F82",
"` 	c #FF7968",
" .	c #FF7463",
"..	c #FF6F5D",
"+.	c #FF6450",
"@.	c #FF6552",
"#.	c #FD6653",
"$.	c #F0604E",
"%.	c #CE4A3B",
"&.	c #FF7565",
"*.	c #FF8677",
"=.	c #FF7664",
"-.	c #FF6A53",
";.	c #FF6953",
">.	c #FF6B55",
",.	c #FD6B56",
"'.	c #F06350",
").	c #CF4C3B",
"!.	c #FF6D5D",
"~.	c #FF8B7C",
"{.	c #FF775D",
"].	c #FF745A",
"^.	c #FF7359",
"/.	c #FF735A",
"(.	c #FD715A",
"_.	c #F16752",
":.	c #D24E3C",
"<.	c #FF6A59",
"[.	c #FF8778",
"}.	c #FF8374",
"|.	c #FF8171",
"1.	c #FF8271",
"2.	c #FF8369",
"3.	c #FF8165",
"4.	c #FF7E61",
"5.	c #FF7D5F",
"6.	c #FF7B5F",
"7.	c #FD775D",
"8.	c #F36A53",
"9.	c #D34E3C",
"0.	c #FF6553",
"a.	c #FF8273",
"b.	c #FF8C6C",
"c.	c #FF8969",
"d.	c #FF8665",
"e.	c #FF8262",
"f.	c #FD7C5E",
"g.	c #F46D54",
"h.	c #D64F3B",
"i.	c #FF5F4D",
"j.	c #FF8070",
"k.	c #FF9279",
"l.	c #FF936F",
"m.	c #FF906C",
"n.	c #FF8967",
"o.	c #FE7F5F",
"p.	c #F56E52",
"q.	c #D84F39",
"r.	c #FF5C4A",
"s.	c #FF7D6E",
"t.	c #FF907A",
"u.	c #FF957C",
"v.	c #FF9A7E",
"w.	c #FF9670",
"x.	c #FF8E68",
"y.	c #FE815E",
"z.	c #F66C4F",
"A.	c #DA4D36",
"B.	c #FF5744",
"C.	c #FF6857",
"D.	c #FF8672",
"E.	c #FF8F78",
"F.	c #FF967C",
"G.	c #FF9C7E",
"H.	c #FFA07E",
"I.	c #FF8E66",
"J.	c #FE7F5A",
"K.	c #F76A4B",
"L.	c #DA4A33",
"M.	c #FF523F",
"N.	c #FF7160",
"O.	c #FFC6C0",
"P.	c #FF836F",
"Q.	c #FF8B74",
"R.	c #FF9379",
"S.	c #FF9A7C",
"T.	c #FF9E7C",
"U.	c #FFA07A",
"V.	c #FFD4C4",
"W.	c #FF8B62",
"X.	c #FE7C56",
"Y.	c #F76545",
"Z.	c #DB4931",
"`.	c #FF4F3A",
" +	c #FF5C49",
".+	c #FF6452",
"++	c #FF6E5E",
"@+	c #FF7462",
"#+	c #FF7C68",
"$+	c #FF846D",
"%+	c #FF8B71",
"&+	c #FF9174",
"*+	c #FF9674",
"=+	c #FF9571",
"-+	c #FF946D",
";+	c #FF8D66",
">+	c #FF855C",
",+	c #FE7650",
"'+	c #F66141",
")+	c #DA462F",
"!+	c #FA4935",
"~+	c #FB5441",
"{+	c #FC5C4A",
"]+	c #FB6150",
"^+	c #FC6554",
"/+	c #FC6756",
"(+	c #FC6A58",
"_+	c #FC715C",
":+	c #FC7761",
"<+	c #FD7E64",
"[+	c #FD8367",
"}+	c #FE8566",
"|+	c #FE8664",
"1+	c #FE8460",
"2+	c #FE7651",
"3+	c #FC6B47",
"4+	c #F2573A",
"5+	c #D4402A",
"6+	c #E85848",
"7+	c #ED4A37",
"8+	c #EC4F3D",
"9+	c #EE5443",
"0+	c #ED5746",
"a+	c #EE5A48",
"b+	c #EF5E4B",
"c+	c #F0644E",
"d+	c #F16750",
"e+	c #F46C52",
"f+	c #F66D51",
"g+	c #F66E51",
"h+	c #F66C4E",
"i+	c #F86A4A",
"j+	c #F76343",
"k+	c #F3583A",
"l+	c #E54930",
"m+	c #CD5140",
"n+	c #F6D9D6",
"o+	c #D25344",
"p+	c #C93C2B",
"q+	c #CA3F2F",
"r+	c #CA4131",
"s+	c #CA4333",
"t+	c #CC4332",
"u+	c #CF4434",
"v+	c #D24936",
"w+	c #D34936",
"x+	c #D84B37",
"y+	c #DA4C36",
"z+	c #DC4D36",
"A+	c #D94933",
"B+	c #DE4A32",
"C+	c #DD482F",
"D+	c #D6402A",
"E+	c #CF5140",
"F+	c #F1D8D5",
"  . + @ @ @ @ @ @ @ @ @ @ @ @ @ @ @ + .   ",
". # $ % & * = - ; > , ' ) ! ! ~ { ] ^ / . ",
"+ ( _ : < [ } | 1 2 3 4 5 6 7 8 ' 9 0 a + ",
"@ b c d e f [ g | h i j 4 k l m n o p q @ ",
"@ r s e t [ g $ u v & w x y z A B C D E @ ",
"@ l F G H I @ J 5 K = ; ' B @ : L M N O @ ",
"@ x P Q } @ @ @ w x z R S @ @ @ T U V W @ ",
"@ 8 $ X Y Z @ @ @ `  ...@ @ @ +.@.#.$.%.@ ",
"@ &.j 1 i 3 *.@ @ @ =.@ @ @ -.;.>.,.'.).@ ",
"@ !.r 3 ~.4 k 6 @ @ @ @ @ {.].^./.(._.:.@ ",
"@ <.l k [.*.}.|.1.@ @ @ 2.3.4.5.6.7.8.9.@ ",
"@ 0.m |.}.}.a.1.@ @ @ @ @ b.c.d.e.f.g.h.@ ",
"@ i.; * l 6 j.@ @ @ k.@ @ @ l.m.n.o.p.q.@ ",
"@ r.' 8 x s.@ @ @ t.u.v.@ @ @ w.x.y.z.A.@ ",
"@ B.C.n 8 @ @ @ D.E.F.G.H.@ @ @ I.J.K.L.@ ",
"@ M.~ ) N.O.@ ` P.Q.R.S.T.U.@ V.W.X.Y.Z.@ ",
"@ `. +.+<.++> @+#+$+%+&+*+=+-+;+>+,+'+)+@ ",
"@ !+~+{+]+^+/+(+_+:+<+[+}+|+1+J.2+3+4+5+@ ",
"+ 6+7+8+9+0+p a+b+c+d+e+f+g+h+i+j+k+l+m++ ",
". n+o+p+q+r+s+t+u+v+w+x+y+z+A+B+C+D+E+F+. ",
"  . + @ @ @ @ @ @ @ @ @ @ @ @ @ @ @ + .   "};
