/* XPM */
static char * close_active_xpm[] = {
"21 21 282 2",
"  	c None",
". 	c #B7C6F0",
"+ 	c #F5F7FD",
"@ 	c #FFFFFF",
"# 	c #FAE1DC",
"$ 	c #EB8B73",
"% 	c #E97B60",
"& 	c #E77155",
"* 	c #E66A4D",
"= 	c #E56648",
"- 	c #E46142",
"; 	c #E46344",
"> 	c #E45F3E",
", 	c #E35C3B",
"' 	c #E25633",
") 	c #E25330",
"! 	c #E04D28",
"~ 	c #DC451F",
"{ 	c #D05334",
"] 	c #EFD8D2",
"^ 	c #EC8D76",
"/ 	c #EFA390",
"( 	c #F0A694",
"_ 	c #EE9A85",
": 	c #EB8D75",
"< 	c #EA876E",
"[ 	c #EA8168",
"} 	c #E97F66",
"| 	c #E97C62",
"1 	c #E8795F",
"2 	c #E8795E",
"3 	c #E87559",
"4 	c #E77256",
"5 	c #E66E50",
"6 	c #E56849",
"7 	c #E4603F",
"8 	c #E05532",
"9 	c #D04623",
"0 	c #B64B30",
"a 	c #E97F65",
"b 	c #F0A997",
"c 	c #F1AC9A",
"d 	c #EE9D89",
"e 	c #EC917A",
"f 	c #EB8B72",
"g 	c #EA856D",
"h 	c #E98168",
"i 	c #E87E65",
"j 	c #E97B61",
"k 	c #E8775D",
"l 	c #E87459",
"m 	c #E66F52",
"n 	c #E56A4C",
"o 	c #E46343",
"p 	c #E15937",
"q 	c #D24A28",
"r 	c #AA3315",
"s 	c #E87458",
"t 	c #EFA18D",
"u 	c #ED957F",
"v 	c #EB8A71",
"w 	c #EA836A",
"x 	c #E97D64",
"y 	c #E8785E",
"z 	c #E77359",
"A 	c #E76F54",
"B 	c #E66D51",
"C 	c #E5684B",
"D 	c #E5684A",
"E 	c #E35C3A",
"F 	c #E05634",
"G 	c #D24C2A",
"H 	c #AC3618",
"I 	c #E76F52",
"J 	c #EC9179",
"K 	c #EC937C",
"L 	c #F4BFB2",
"M 	c #E77259",
"N 	c #E76D53",
"O 	c #E5684D",
"P 	c #E46446",
"Q 	c #E45F41",
"R 	c #E35B3A",
"S 	c #E35938",
"T 	c #F0A998",
"U 	c #E25531",
"V 	c #DF5330",
"W 	c #D34E2C",
"X 	c #AD3A1D",
"Y 	c #EB876E",
"Z 	c #EB8A70",
"` 	c #E46447",
" .	c #E45F40",
"..	c #E25634",
"+.	c #E2522D",
"@.	c #DF522E",
"#.	c #D34D2C",
"$.	c #E56546",
"%.	c #E97E65",
"&.	c #E8775E",
"*.	c #E46143",
"=.	c #E45D3D",
"-.	c #E35836",
";.	c #E24E27",
">.	c #E2502A",
",.	c #E0512C",
"'.	c #D34D2A",
").	c #AD391C",
"!.	c #E87A60",
"~.	c #E87C62",
"{.	c #E8745B",
"].	c #E76E54",
"^.	c #E24D24",
"/.	c #E24B22",
"(.	c #E24D25",
"_.	c #E05029",
":.	c #D44C29",
"<.	c #AE391B",
"[.	c #E35D3C",
"}.	c #E8765D",
"|.	c #E66F53",
"1.	c #E56B4E",
"2.	c #E45127",
"3.	c #E44F23",
"4.	c #E34C20",
"5.	c #E34D22",
"6.	c #E14F25",
"7.	c #D54A25",
"8.	c #AF3719",
"9.	c #E35937",
"0.	c #E76D51",
"a.	c #E87257",
"b.	c #E87359",
"c.	c #E77157",
"d.	c #E66E52",
"e.	c #E56747",
"f.	c #E5572C",
"g.	c #E55326",
"h.	c #E55022",
"i.	c #E54D1E",
"j.	c #E54D1F",
"k.	c #E24E21",
"l.	c #D64921",
"m.	c #AF3516",
"n.	c #E25432",
"o.	c #E5694B",
"p.	c #E77054",
"q.	c #E77156",
"r.	c #E87055",
"s.	c #E66C4D",
"t.	c #E75526",
"u.	c #E75221",
"v.	c #E64E1C",
"w.	c #E64D1C",
"x.	c #E34C1C",
"y.	c #D6461C",
"z.	c #B03312",
"A.	c #E14F2B",
"B.	c #E66B4E",
"C.	c #E76F53",
"D.	c #E66E51",
"E.	c #E7653D",
"F.	c #E85421",
"G.	c #E8501B",
"H.	c #E74D18",
"I.	c #E44A18",
"J.	c #D74216",
"K.	c #B2310F",
"L.	c #E04B25",
"M.	c #E35E3D",
"N.	c #E56748",
"O.	c #E66C4E",
"P.	c #E66D50",
"Q.	c #E76842",
"R.	c #E7653C",
"S.	c #E86236",
"T.	c #E95019",
"U.	c #E84C16",
"V.	c #E44713",
"W.	c #D83F10",
"X.	c #B12D0A",
"Y.	c #DF451E",
"Z.	c #E25836",
"`.	c #E46242",
" +	c #E56749",
".+	c #E66845",
"++	c #E76741",
"@+	c #E7643B",
"#+	c #E86235",
"$+	c #EA5E2D",
"%+	c #E94A11",
"&+	c #E6440D",
"*+	c #D73B0B",
"=+	c #B12B06",
"-+	c #DE4018",
";+	c #E1512E",
">+	c #F4C0B4",
",+	c #E66543",
"'+	c #E66541",
")+	c #E6643D",
"!+	c #E76238",
"~+	c #E86032",
"{+	c #E95C2A",
"]+	c #EA5924",
"^+	c #F6B7A0",
"/+	c #E9480E",
"(+	c #E54009",
"_+	c #D73605",
":+	c #B02702",
"<+	c #DD3C14",
"[+	c #E15431",
"}+	c #E35B39",
"|+	c #E45E3D",
"1+	c #E45F3D",
"2+	c #E45E3B",
"3+	c #E55E39",
"4+	c #E55E37",
"5+	c #E65D32",
"6+	c #E75B2C",
"7+	c #E85725",
"8+	c #E9541F",
"9+	c #E8440B",
"0+	c #E43D05",
"a+	c #D63302",
"b+	c #AF2601",
"c+	c #D8370E",
"d+	c #DB431C",
"e+	c #DD4C28",
"f+	c #DE522F",
"g+	c #DF5533",
"h+	c #E05734",
"i+	c #E05531",
"j+	c #E05631",
"k+	c #E1562E",
"l+	c #E2552A",
"m+	c #E45325",
"n+	c #E4501F",
"o+	c #E54C19",
"p+	c #E54813",
"q+	c #E5430D",
"r+	c #E43E07",
"s+	c #E03802",
"t+	c #D12F00",
"u+	c #AA2300",
"v+	c #CD4928",
"w+	c #CC3813",
"x+	c #CC3E1B",
"y+	c #CF4421",
"z+	c #CF4725",
"A+	c #CF4726",
"B+	c #CF4624",
"C+	c #D04723",
"D+	c #D14621",
"E+	c #D2451E",
"F+	c #D5451B",
"G+	c #D54216",
"H+	c #D64013",
"I+	c #D53D0E",
"J+	c #D63909",
"K+	c #D53504",
"L+	c #D13001",
"M+	c #C22A00",
"N+	c #AB3C1F",
"O+	c #EED6D0",
"P+	c #B54428",
"Q+	c #A62B0D",
"R+	c #AC3011",
"S+	c #AB3112",
"T+	c #A93214",
"U+	c #A93012",
"V+	c #AC3213",
"W+	c #AD3213",
"X+	c #AE3110",
"Y+	c #B1300D",
"Z+	c #B22E0A",
"`+	c #B42D08",
" @	c #B12A06",
".@	c #B12803",
"+@	c #B42701",
"@@	c #AE2400",
"#@	c #AC3C1F",
"$@	c #EAD4CF",
"  . + @ @ @ @ @ @ @ @ @ @ @ @ @ @ @ @ .   ",
". # $ % & * = - ; > > , , ' ' ) ! ~ { ] . ",
"@ ^ / ( _ : < [ } | 1 2 3 4 5 6 7 8 9 0 + ",
"@ a b c d e f g h i | j k l m n o p q r @ ",
"@ s d t u v w x y z A B C D ; 7 E F G H @ ",
"@ I J K v L @ M N O P Q R S @ T U V W X @ ",
"@ * Y Z w @ @ @ O `  .R ..@ @ @ +.@.#.X @ ",
"@ $.h w %.&.@ @ @ *.=.-.@ @ @ ;.>.,.'.).@ ",
"@ $.!.~.!.{.].@ @ @ E @ @ @ ^./.(._.:.<.@ ",
"@ [.l k }.M |.1.@ @ @ @ @ 2.3.4.5.6.7.8.@ ",
"@ 9.0.a.b.c.d.* e.@ @ @ f.g.h.i.j.k.l.m.@ ",
"@ n.o.p.q.r.I s.@ @ @ @ @ t.u.v.w.x.y.z.@ ",
"@ A.; B.I C.D.@ @ @ E.@ @ @ F.G.H.I.J.K.@ ",
"@ L.M.N.O.P.@ @ @ Q.R.S.@ @ @ T.U.V.W.X.@ ",
"@ Y.Z.`. +@ @ @ .+++@+#+$+@ @ @ %+&+*+=+@ ",
"@ -+;+E `.>+@ ,+'+)+!+~+{+]+@ ^+/+(+_+:+@ ",
"@ <+L.[+}+|+1+2+3+4+5+6+7+8+T.%+9+0+a+b+@ ",
"@ c+d+e+f+g+h+i+j+k+l+m+n+o+p+q+r+s+t+u+@ ",
"+ v+w+x+y+z+A+B+C+D+E+F+G+H+I+J+K+L+M+N+@ ",
". O+P+Q+R+S+T+U+V+W+X+Y+Z+`+ @.@+@@@#@$@. ",
"  . @ @ @ @ @ @ @ @ @ @ @ @ @ @ @ @ + .   "};
