/* XPM */
static char * close_pressed_xpm[] = {
"21 21 150 2",
"  	c None",
". 	c #B7C6F0",
"+ 	c #F5F7FD",
"@ 	c #FFFFFF",
"# 	c #DAD2D0",
"$ 	c #643529",
"% 	c #5A1D0D",
"& 	c #5D1E0D",
"* 	c #5F1E0E",
"= 	c #63200E",
"- 	c #68210F",
"; 	c #6F2310",
"> 	c #732511",
", 	c #752511",
"' 	c #7C2712",
") 	c #822912",
"! 	c #852A13",
"~ 	c #892B13",
"{ 	c #8A2B14",
"] 	c #8E2D14",
"^ 	c #8C2C14",
"/ 	c #9D4732",
"( 	c #EBD8D3",
"_ 	c #69220F",
": 	c #782611",
"< 	c #7E2812",
"[ 	c #932E15",
"} 	c #9A3016",
"| 	c #9C3116",
"1 	c #A03217",
"2 	c #A43418",
"3 	c #A73518",
"4 	c #AA3618",
"5 	c #AB3618",
"6 	c #AD3719",
"7 	c #AC3618",
"8 	c #B24E35",
"9 	c #591C0D",
"0 	c #792711",
"a 	c #8D2C14",
"b 	c #962E15",
"c 	c #9A2F16",
"d 	c #A13117",
"e 	c #A63317",
"f 	c #AA3418",
"g 	c #AF3619",
"h 	c #B23719",
"i 	c #B5391A",
"j 	c #B73A1B",
"k 	c #B93B1B",
"l 	c #BA3B1B",
"m 	c #BB3B1B",
"n 	c #802812",
"o 	c #962F15",
"p 	c #9E3016",
"q 	c #A43216",
"r 	c #AA3317",
"s 	c #AE3518",
"t 	c #B5381A",
"u 	c #B8391A",
"v 	c #BA3A1B",
"w 	c #BC3B1C",
"x 	c #BD3C1C",
"y 	c #BE3D1C",
"z 	c #BF3D1C",
"A 	c #5B1D0D",
"B 	c #9C3016",
"C 	c #A43217",
"D 	c #D4988A",
"E 	c #B33619",
"F 	c #B53719",
"G 	c #B8381A",
"H 	c #B9391B",
"I 	c #BA391B",
"J 	c #BC3B1B",
"K 	c #DE9D8D",
"L 	c #611F0E",
"M 	c #A23217",
"N 	c #B8371A",
"O 	c #BA391A",
"P 	c #BB3A1B",
"Q 	c #C03E1D",
"R 	c #65200E",
"S 	c #902D15",
"T 	c #A73418",
"U 	c #AF3518",
"V 	c #B43619",
"W 	c #BC3A1B",
"X 	c #BD3B1B",
"Y 	c #BE3C1C",
"Z 	c #C03F1D",
"` 	c #6A220F",
" .	c #952F15",
"..	c #AC3518",
"+.	c #B63719",
"@.	c #C2401D",
"#.	c #C2401E",
"$.	c #C13F1D",
"%.	c #702410",
"&.	c #9B3016",
"*.	c #B03619",
"=.	c #B9381A",
"-.	c #C4421E",
";.	c #C5431E",
">.	c #C5431F",
",.	c #9E3217",
"'.	c #B4381A",
").	c #C6441F",
"!.	c #C74520",
"~.	c #C7451F",
"{.	c #7B2711",
"].	c #A13217",
"^.	c #B7391A",
"/.	c #C94621",
"(.	c #CA4721",
"_.	c #CA4821",
":.	c #C94620",
"<.	c #C84620",
"[.	c #A53418",
"}.	c #B83A1B",
"|.	c #CC4A22",
"1.	c #CD4A22",
"2.	c #CB4922",
"3.	c #C3411E",
"4.	c #A93618",
"5.	c #CE4C23",
"6.	c #882B13",
"7.	c #CE4B23",
"8.	c #8B2C14",
"9.	c #AC3619",
"0.	c #E4B0A3",
"a.	c #ECB7A6",
"b.	c #CF4C23",
"c.	c #C94721",
"d.	c #BB3C1B",
"e.	c #BF3E1D",
"f.	c #CB4821",
"g.	c #CD4B23",
"h.	c #CC4922",
"i.	c #8D2D14",
"j.	c #BC3C1B",
"k.	c #C84520",
"l.	c #AE3719",
"m.	c #C94720",
"n.	c #C95839",
"o.	c #EAD7D3",
"p.	c #B34E35",
"q.	c #C03E1C",
"r.	c #C9583A",
"s.	c #F3DBD4",
"  . + @ @ @ @ @ @ @ @ @ @ @ @ @ @ @ + .   ",
". # $ % & * = - ; > , ' ) ! ~ { ] ^ / ( . ",
"+ $ _ : < ) { ] [ } | 1 2 3 4 5 6 7 6 8 + ",
"@ 9 0 a b c d e f g h i j k l l m m m l @ ",
"@ 9 n o p q r s h t u v w x y y y z z z @ ",
"@ A ! B C D @ E F G H I J x @ K y z z z @ ",
"@ L ^ M r @ @ @ N O P J x @ @ @ y Q z z @ ",
"@ R S T U V @ @ @ W X Y @ @ @ Z Q Q Q z @ ",
"@ `  ...h +.G @ @ @ Y @ @ @ @.#.#.@.$.Q @ ",
"@ %.&.*.t =.I W @ @ @ @ @ -.;.>.-.-.#.Q @ ",
"@ , ,.'.u I P X Y @ @ @ >.).!.!.~.).-.$.@ ",
"@ {.].^.v v J Y @ @ @ @ @ /.(._.:.<.>.@.@ ",
"@ n [.}.w J x @ @ @ >.@ @ @ |.1.2.(.~.3.@ ",
"@ ! 4.l x x @ @ @ -.)./.@ @ @ 5.1.2.<.3.@ ",
"@ 6.4 l y @ @ @ @.>.!.(.|.@ @ @ 7.|.:.-.@ ",
"@ 8.9.m y 0.@ Z #.>.!.(.|.7.@ a.b.1.c.-.@ ",
"@ 8.6 d.y y e.Q @.-.).:.f.1.g.b.5.h.:.-.@ ",
"@ i.6 j.z z Q Q @.-.>.k.(.2.h.1.h._.!.3.@ ",
"+ / l.j.z z z z Q @.-.>.!.k.m.(.c.!.>.n.+ ",
". o.p.l z z z z q.$.$.@.3.3.-.-.-.3.r.s.. ",
"  . + @ @ @ @ @ @ @ @ @ @ @ @ @ @ @ + .   "};
