/* XPM */
static char * hide_prelight_xpm[] = {
"21 21 292 2",
"  	c None",
". 	c #B7C6F0",
"+ 	c #F5F7FD",
"@ 	c #FFFFFF",
"# 	c #DCE7FF",
"$ 	c #72A1FF",
"% 	c #6A9CFF",
"& 	c #5F94FF",
"* 	c #558EFF",
"= 	c #518BFF",
"- 	c #4A86FF",
"; 	c #4B87FF",
"> 	c #4684FF",
", 	c #4482FF",
"' 	c #4080FF",
") 	c #3B7CFF",
"! 	c #3A7BFF",
"~ 	c #3678FF",
"{ 	c #2E73FF",
"] 	c #276CF9",
"^ 	c #3A73E7",
"/ 	c #D3DDF3",
"( 	c #73A1FF",
"_ 	c #97B9FF",
": 	c #9CBDFF",
"< 	c #90B5FF",
"[ 	c #82ACFF",
"} 	c #7BA7FF",
"| 	c #75A3FF",
"1 	c #6F9FFF",
"2 	c #6C9DFF",
"3 	c #689BFF",
"4 	c #6599FF",
"5 	c #6095FF",
"6 	c #5D93FF",
"7 	c #568EFF",
"8 	c #4F8AFF",
"9 	c #3878FB",
"0 	c #2969EB",
"a 	c #3566CB",
"b 	c #9EBEFF",
"c 	c #A4C2FF",
"d 	c #99BAFF",
"e 	c #8AB0FF",
"f 	c #82ABFF",
"g 	c #79A6FF",
"h 	c #74A3FF",
"i 	c #71A0FF",
"j 	c #6D9EFF",
"k 	c #699BFF",
"l 	c #5A91FF",
"m 	c #538CFF",
"n 	c #4986FF",
"o 	c #3D7CFC",
"p 	c #2E6CEA",
"q 	c #1B52C2",
"r 	c #6296FF",
"s 	c #91B5FF",
"t 	c #8FB4FF",
"u 	c #7AA6FF",
"v 	c #6B9DFF",
"w 	c #6598FF",
"x 	c #5F95FF",
"y 	c #5B92FF",
"z 	c #548DFF",
"A 	c #528CFF",
"B 	c #4C88FF",
"C 	c #4785FF",
"D 	c #4280FF",
"E 	c #3B7AFB",
"F 	c #316FEC",
"G 	c #1F55C3",
"H 	c #5990FF",
"I 	c #85ADFF",
"J 	c #8BB1FF",
"K 	c #84ACFF",
"L 	c #78A5FF",
"M 	c #70A0FF",
"N 	c #679AFF",
"O 	c #4180FF",
"P 	c #3D7EFF",
"Q 	c #3B7BFF",
"R 	c #397AFF",
"S 	c #3979FC",
"T 	c #3370EC",
"U 	c #2357C3",
"V 	c #81AAFF",
"W 	c #7AA7FF",
"X 	c #6B9CFF",
"Y 	c #6297FF",
"Z 	c #5C93FF",
"` 	c #548EFF",
" .	c #4483FF",
"..	c #3D7FFF",
"+.	c #387BFF",
"@.	c #3679FF",
"#.	c #3579FF",
"$.	c #3879FC",
"%.	c #2358C5",
"&.	c #4E89FF",
"*.	c #71A1FF",
"=.	c #77A5FF",
"-.	c #74A2FF",
";.	c #669AFF",
">.	c #5890FF",
",.	c #508DFF",
"'.	c #4989FF",
").	c #4183FF",
"!.	c #3A7FFF",
"~.	c #357BFF",
"{.	c #317AFF",
"].	c #337AFF",
"^.	c #367BFC",
"/.	c #3372ED",
"(.	c #2359C5",
"_.	c #4D88FF",
":.	c #699CFF",
"<.	c #6398FF",
"[.	c #548FFF",
"}.	c #4D8CFF",
"|.	c #468AFF",
"1.	c #3F86FF",
"2.	c #3983FF",
"3.	c #3380FF",
"4.	c #2F7FFF",
"5.	c #3280FF",
"6.	c #3580FC",
"7.	c #3276ED",
"8.	c #235AC6",
"9.	c #6196FF",
"0.	c #689AFF",
"a.	c #5B93FF",
"b.	c #5491FF",
"c.	c #4F90FF",
"d.	c #4890FF",
"e.	c #428EFF",
"f.	c #3B8DFF",
"g.	c #348AFF",
"h.	c #3189FF",
"i.	c #2F88FF",
"j.	c #3188FF",
"k.	c #3385FC",
"l.	c #3079ED",
"m.	c #215CC8",
"n.	c #3F7FFF",
"o.	c #6397FF",
"p.	c #5993FF",
"q.	c #5492FF",
"r.	c #5093FF",
"s.	c #4A95FF",
"t.	c #4496FF",
"u.	c #3D96FF",
"v.	c #3694FF",
"w.	c #3193FF",
"x.	c #2F92FF",
"y.	c #3090FF",
"z.	c #328CFC",
"A.	c #2E7DEF",
"B.	c #1E5DC9",
"C.	c #5C92FF",
"D.	c #5792FF",
"E.	c #5594FF",
"F.	c #5298FF",
"G.	c #4D9CFF",
"H.	c #479EFF",
"I.	c #409FFF",
"J.	c #379FFF",
"K.	c #339DFF",
"L.	c #2F9BFF",
"M.	c #2E97FF",
"N.	c #2E91FC",
"O.	c #2A80F0",
"P.	c #1B5DCB",
"Q.	c #3275FF",
"R.	c #5991FF",
"S.	c #5596FF",
"T.	c #529CFF",
"U.	c #4FA1FF",
"V.	c #4AA6FF",
"W.	c #42A9FF",
"X.	c #3AA9FF",
"Y.	c #34A7FF",
"Z.	c #30A5FF",
"`.	c #2CA0FF",
" +	c #2A96FD",
".+	c #2581F1",
"++	c #185DCC",
"@+	c #2D72FF",
"#+	c #44AFFF",
"$+	c #3EB1FF",
"%+	c #37AFFF",
"&+	c #2FABFF",
"*+	c #29A4FF",
"=+	c #2599FD",
"-+	c #1E80F2",
";+	c #145BCD",
">+	c #276EFF",
",+	c #3D7DFF",
"'+	c #4985FF",
")+	c #43B1FF",
"!+	c #3EB4FF",
"~+	c #35B2FF",
"{+	c #2CAEFF",
"]+	c #24A5FF",
"^+	c #1F97FD",
"/+	c #1980F3",
"(+	c #105ACE",
"_+	c #216AFF",
":+	c #3578FF",
"<+	c #4885FF",
"[+	c #41AFFF",
"}+	c #3BB2FF",
"|+	c #33B1FF",
"1+	c #2AADFF",
"2+	c #21A3FF",
"3+	c #1A95FD",
"4+	c #137CF2",
"5+	c #0C59CF",
"6+	c #1C66FF",
"7+	c #3879FF",
"8+	c #3F7EFF",
"9+	c #4584FF",
"0+	c #4587FF",
"a+	c #468EFF",
"b+	c #4696FF",
"c+	c #439CFF",
"d+	c #3FA3FF",
"e+	c #3BA8FF",
"f+	c #33AAFF",
"g+	c #2DA9FF",
"h+	c #24A6FF",
"i+	c #1D9EFF",
"j+	c #1690FD",
"k+	c #1078F1",
"l+	c #0B57CE",
"m+	c #1761F9",
"n+	c #246BFA",
"o+	c #2F72FB",
"p+	c #3676FB",
"q+	c #3A7AFB",
"r+	c #3B7BFC",
"s+	c #3B7EFC",
"t+	c #3C84FC",
"u+	c #3B8AFC",
"v+	c #3990FC",
"w+	c #3695FC",
"x+	c #3299FC",
"y+	c #2C9CFD",
"z+	c #259BFD",
"A+	c #1E97FD",
"B+	c #1790FC",
"C+	c #1184FA",
"D+	c #0C6DED",
"E+	c #0850C8",
"F+	c #2F6AE4",
"G+	c #1B5FE9",
"H+	c #2163E8",
"I+	c #2868EB",
"J+	c #2C6AEA",
"K+	c #2E6DEA",
"L+	c #2D6DEB",
"M+	c #2C71EC",
"N+	c #2C76EC",
"O+	c #2A79ED",
"P+	c #287EEF",
"Q+	c #2481F1",
"R+	c #2182F1",
"S+	c #1C80F1",
"T+	c #1880F3",
"U+	c #117AF2",
"V+	c #0C6EED",
"W+	c #0A5DDD",
"X+	c #265DC1",
"Y+	c #D1DDF4",
"Z+	c #2E61CA",
"`+	c #134BBF",
" @	c #164FC2",
".@	c #1950C1",
"+@	c #1B52C1",
"@@	c #1A52C3",
"#@	c #1954C6",
"$@	c #1B58C9",
"%@	c #1858C8",
"&@	c #165BCD",
"*@	c #145CD0",
"=@	c #135CD0",
"-@	c #0F58CC",
";@	c #0D5AD2",
">@	c #0B58D1",
",@	c #0951CB",
"'@	c #265EC3",
")@	c #D0DAEE",
"  . + @ @ @ @ @ @ @ @ @ @ @ @ @ @ @ + .   ",
". # $ % & * = - ; > > , ' ) ! ~ { ] ^ / . ",
"+ ( _ : < [ } | 1 2 3 4 5 6 7 8 , 9 0 a + ",
"@ 2 b c d e f g h i j k 4 5 l m n o p q @ ",
"@ r s d t [ u $ v w x y z A B C D E F G @ ",
"@ H I J K L M N 5 H = ; , O P Q R S T U @ ",
"@ z } V W $ X Y Z ` B  ...+.@.#.@.$.T %.@ ",
"@ &.*.=.-.j ;.x >.,.'.).!.~.{.{.].^./.(.@ ",
"@ _.:.1 j 3 <.Z [.}.|.1.2.3.4.4.5.6.7.8.@ ",
"@ , 9.3 0.4 9.a.b.c.d.e.f.g.h.i.j.k.l.m.@ ",
"@ n.l 9.o.Y x p.q.r.s.t.u.v.w.x.y.z.A.B.@ ",
"@ R m C.& & Z D.E.F.G.H.I.J.K.L.M.N.O.P.@ ",
"@ Q.; * l C.R.D.S.T.U.V.W.X.Y.Z.`. +.+++@ ",
"@ @+, 8 z @ @ @ @ @ @ @ #+$+%+&+*+=+-+;+@ ",
"@ >+,+'+8 @ @ @ @ @ @ @ )+!+~+{+]+^+/+(+@ ",
"@ _+:+' <+@ @ @ @ @ @ @ [+}+|+1+2+3+4+5+@ ",
"@ 6+@+7+8+ .9+0+a+b+c+d+e+f+g+h+i+j+k+l+@ ",
"@ m+n+o+p+q+r+s+t+u+v+w+x+y+z+A+B+C+D+E+@ ",
"+ F+G+H+I+J+K+L+M+N+O+P+Q+R+S+T+U+V+W+X++ ",
". Y+Z+`+ @.@+@@@#@$@%@&@*@=@-@;@>@,@'@)@. ",
"  . + @ @ @ @ @ @ @ @ @ @ @ @ @ @ @ + .   "};
