/* XPM */
static char * hide_active_xpm[] = {
"21 21 311 2",
"  	c None",
". 	c #B7C6F0",
"+ 	c #F5F7FD",
"@ 	c #FFFFFF",
"# 	c #DCE5FD",
"$ 	c #739AF8",
"% 	c #608CF7",
"& 	c #5584F6",
"* 	c #4D7EF6",
"= 	c #487AF5",
"- 	c #4276F5",
"; 	c #4478F5",
"> 	c #3E73F5",
", 	c #3B71F5",
"' 	c #336CF4",
") 	c #306AF4",
"! 	c #2864F4",
"~ 	c #1F5DEF",
"{ 	c #3467E0",
"] 	c #D2DBF2",
"^ 	c #769CF8",
"/ 	c #90AFF9",
"( 	c #94B2F9",
"_ 	c #85A7F8",
": 	c #759CF8",
"< 	c #6E97F8",
"[ 	c #6892F7",
"} 	c #6690F7",
"| 	c #628EF7",
"1 	c #5F8CF7",
"2 	c #5E8BF7",
"3 	c #5988F6",
"4 	c #5685F6",
"5 	c #5082F6",
"6 	c #497CF5",
"7 	c #3F75F5",
"8 	c #326BF2",
"9 	c #235CE3",
"0 	c #305CC5",
"a 	c #6590F7",
"b 	c #97B4F9",
"c 	c #9AB7FA",
"d 	c #89AAF9",
"e 	c #7AA0F8",
"f 	c #729AF8",
"g 	c #6D95F8",
"h 	c #6892F8",
"i 	c #658FF7",
"j 	c #618DF7",
"k 	c #5D8AF7",
"l 	c #5987F6",
"m 	c #5283F6",
"n 	c #4C7EF6",
"o 	c #4377F5",
"p 	c #376EF2",
"q 	c #285FE3",
"r 	c #1546B9",
"s 	c #5886F6",
"t 	c #8DADF9",
"u 	c #7FA3F8",
"v 	c #7199F8",
"w 	c #6A93F8",
"x 	c #648EF7",
"y 	c #5E8AF7",
"z 	c #5986F7",
"A 	c #5482F6",
"B 	c #5180F6",
"C 	c #4B7CF5",
"D 	c #4A7CF5",
"E 	c #3A72F4",
"F 	c #346CF2",
"G 	c #2A61E3",
"H 	c #1848BB",
"I 	c #5282F6",
"J 	c #799FF8",
"K 	c #7CA1F8",
"L 	c #6791F8",
"M 	c #608BF7",
"N 	c #5985F7",
"O 	c #5381F6",
"P 	c #4D7BF6",
"Q 	c #4677F5",
"R 	c #4173F5",
"S 	c #3A6FF4",
"T 	c #386EF4",
"U 	c #346CF4",
"V 	c #326CF4",
"W 	c #316BF4",
"X 	c #3069F1",
"Y 	c #2C62E4",
"Z 	c #1D4CBC",
"` 	c #7099F8",
" .	c #628CF8",
"..	c #5B86F7",
"+.	c #5480F7",
"@.	c #4777F6",
"#.	c #4072F5",
"$.	c #3A6FF5",
"%.	c #346DF4",
"&.	c #306BF4",
"*.	c #2D69F4",
"=.	c #2C69F5",
"-.	c #2D69F5",
";.	c #2E69F2",
">.	c #2C63E5",
",.	c #4679F5",
"'.	c #658FF8",
").	c #5E89F7",
"!.	c #5783F7",
"~.	c #507EF6",
"{.	c #4A79F6",
"].	c #4375F5",
"^.	c #3D71F5",
"/.	c #366EF4",
"(.	c #2F6BF5",
"_.	c #2B69F5",
":.	c #2867F5",
"<.	c #2766F5",
"[.	c #2A68F5",
"}.	c #2C69F2",
"|.	c #2A62E4",
"1.	c #1C4CBD",
"2.	c #628DF8",
"3.	c #5B87F7",
"4.	c #5482F7",
"5.	c #4E7CF6",
"6.	c #4778F6",
"7.	c #4174F5",
"8.	c #3A71F5",
"9.	c #346EF4",
"0.	c #2D6BF5",
"a.	c #2869F5",
"b.	c #2467F5",
"c.	c #2266F5",
"d.	c #2567F5",
"e.	c #2968F2",
"f.	c #2963E4",
"g.	c #1B4BBD",
"h.	c #3C72F4",
"i.	c #5D89F7",
"j.	c #4E7EF6",
"k.	c #477AF5",
"l.	c #4178F5",
"m.	c #3A74F5",
"n.	c #3472F5",
"o.	c #2C6FF5",
"p.	c #276CF5",
"q.	c #236AF6",
"r.	c #2069F6",
"s.	c #2268F5",
"t.	c #2569F2",
"u.	c #2562E6",
"v.	c #194BBE",
"w.	c #376EF4",
"x.	c #5181F6",
"y.	c #5785F7",
"z.	c #5281F6",
"A.	c #477BF6",
"B.	c #4179F6",
"C.	c #3B77F5",
"D.	c #3474F5",
"E.	c #2C72F6",
"F.	c #266FF6",
"G.	c #226DF6",
"H.	c #1E6BF6",
"I.	c #1F6AF6",
"J.	c #216AF3",
"K.	c #2162E6",
"L.	c #1649BE",
"M.	c #326BF4",
"N.	c #4B7DF5",
"O.	c #5483F6",
"P.	c #5684F7",
"Q.	c #5583F7",
"R.	c #4D80F6",
"S.	c #487DF6",
"T.	c #427CF6",
"U.	c #3C7AF6",
"V.	c #3478F6",
"W.	c #2D76F6",
"X.	c #2673F7",
"Y.	c #2171F7",
"Z.	c #1C6FF6",
"`.	c #1C6DF6",
" +	c #1C6AF4",
".+	c #1C61E6",
"++	c #1248BF",
"@+	c #2B66F4",
"#+	c #4E7FF6",
"$+	c #5383F6",
"%+	c #5182F6",
"&+	c #4D81F7",
"*+	c #487FF6",
"=+	c #437FF6",
"-+	c #3D7EF6",
";+	c #357CF6",
">+	c #2D7AF7",
",+	c #2677F7",
"'+	c #2174F7",
")+	c #1B71F7",
"!+	c #186EF7",
"~+	c #186AF4",
"{+	c #165FE7",
"]+	c #0F47C0",
"^+	c #2562F3",
"/+	c #3D73F4",
"(+	c #487BF5",
"_+	c #4E80F6",
":+	c #2D7CF7",
"<+	c #2679F8",
"[+	c #2077F7",
"}+	c #1973F7",
"|+	c #166FF7",
"1+	c #1369F4",
"2+	c #105DE8",
"3+	c #0A44BF",
"4+	c #1E5DF3",
"5+	c #497BF5",
"6+	c #2D7DF7",
"7+	c #257AF8",
"8+	c #1E77F8",
"9+	c #1773F8",
"0+	c #116DF7",
"a+	c #0D66F4",
"b+	c #0B59E7",
"c+	c #0641C0",
"d+	c #1859F3",
"e+	c #2E68F4",
"f+	c #3A71F4",
"g+	c #4277F5",
"h+	c #2A7CF8",
"i+	c #247AF8",
"j+	c #1D77F8",
"k+	c #1573F8",
"l+	c #0E6CF8",
"m+	c #0963F4",
"n+	c #0556E7",
"o+	c #023FBF",
"p+	c #1456F3",
"q+	c #2562F4",
"r+	c #3971F4",
"s+	c #3D74F5",
"t+	c #3D74F6",
"u+	c #3B75F5",
"v+	c #3976F5",
"w+	c #3777F5",
"x+	c #3278F6",
"y+	c #2C78F7",
"z+	c #2577F7",
"A+	c #1F76F7",
"B+	c #1972F7",
"C+	c #116EF8",
"D+	c #0B68F7",
"E+	c #0560F4",
"F+	c #0253E6",
"G+	c #013DBE",
"H+	c #0E50ED",
"I+	c #1C5BEF",
"J+	c #2863F0",
"K+	c #2F68F0",
"L+	c #336BF1",
"M+	c #346CF1",
"N+	c #316CF2",
"O+	c #316DF2",
"P+	c #2E6FF2",
"Q+	c #2A70F2",
"R+	c #2570F3",
"S+	c #1F6FF3",
"T+	c #196DF4",
"U+	c #136AF4",
"V+	c #0760F3",
"W+	c #025AF0",
"X+	c #004DE2",
"Y+	c #003AB9",
"Z+	c #285EDF",
"`+	c #134FDF",
" @	c #1B55DF",
".@	c #215AE2",
"+@	c #255CE1",
"@@	c #265DE0",
"#@	c #245CE1",
"$@	c #235EE2",
"%@	c #215EE2",
"&@	c #1E5EE2",
"*@	c #1B5FE5",
"=@	c #165EE5",
"-@	c #135DE6",
";@	c #0E5BE5",
">@	c #0958E6",
",@	c #0454E6",
"'@	c #014EE2",
")@	c #0045D3",
"!@	c #1F4EB8",
"~@	c #D0DAF1",
"{@	c #2856C3",
"]@	c #0D3FB6",
"^@	c #1144BD",
"/@	c #1245BB",
"(@	c #1445B9",
"_@	c #1244B9",
":@	c #1345BC",
"<@	c #1346BD",
"[@	c #1045BE",
"}@	c #0D45C0",
"|@	c #0A45C1",
"1@	c #0844C3",
"2@	c #033FC0",
"3@	c #013FC3",
"4@	c #003BBE",
"5@	c #1F4EB9",
"6@	c #CFD8ED",
"  . + @ @ @ @ @ @ @ @ @ @ @ @ @ @ @ @ .   ",
". # $ % & * = - ; > > , , ' ' ) ! ~ { ] . ",
"@ ^ / ( _ : < [ } | 1 2 3 4 5 6 7 8 9 0 + ",
"@ a b c d e f g h i | j k l m n o p q r @ ",
"@ s d t u v w x y z A B C D ; 7 E F G H @ ",
"@ I J K v L M N O P Q R S T U V W X Y Z @ ",
"@ * < ` w  ...+.P @.#.$.%.&.*.=.-.;.>.Z @ ",
"@ ,.h w '.).!.~.{.].^./.(._.:.<.[.}.|.1.@ ",
"@ ,.% 2.M 3.4.5.6.7.8.9.0.a.b.c.d.e.f.g.@ ",
"@ h.l k i.z O j.k.l.m.n.o.p.q.r.s.t.u.v.@ ",
"@ w.x.y.z y.z.* A.B.C.D.E.F.G.H.I.J.K.L.@ ",
"@ M.N.O.P.Q.I R.S.T.U.V.W.X.Y.Z.`. +.+++@ ",
"@ @+; #+I $+%+&+*+=+-+;+>+,+'+)+!+~+{+]+@ ",
"@ ^+/+(+_+@ @ @ @ @ @ @ :+<+[+}+|+1+2+3+@ ",
"@ 4+/.- 5+@ @ @ @ @ @ @ 6+7+8+9+0+a+b+c+@ ",
"@ d+e+f+g+@ @ @ @ @ @ @ h+i+j+k+l+m+n+o+@ ",
"@ p+q+W r+s+t+u+v+w+x+y+z+A+B+C+D+E+F+G+@ ",
"@ H+I+J+K+L+M+N+O+P+Q+R+S+T+U+a+V+W+X+Y+@ ",
"+ Z+`+ @.@+@@@#@$@%@&@*@=@-@;@>@,@'@)@!@@ ",
". ~@{@]@^@/@(@_@:@<@[@}@|@1@c+2@3@4@5@6@. ",
"  . @ @ @ @ @ @ @ @ @ @ @ @ @ @ @ @ + .   "};
