/* XPM */
static char * left_active_xpm[] = {
"5 5 12 1",
" 	c None",
".	c #0019CF",
"+	c #0734DA",
"@	c #0E4FE5",
"#	c #166AEE",
"$	c #0855DD",
"%	c #0934DA",
"&	c #1254E7",
"*	c #0831D9",
"=	c #0731D8",
"-	c #1354E7",
";	c #1255E7",
".+@#$",
".%&#$",
".*&#$",
".=-#$",
".=;#$"};
