/* XPM */
static char * maximize_active_xpm[] = {
"21 21 280 2",
"  	c None",
". 	c #B7C6F0",
"+ 	c #F5F7FD",
"@ 	c #FFFFFF",
"# 	c #DCE5FD",
"$ 	c #739AF8",
"% 	c #608CF7",
"& 	c #5584F6",
"* 	c #4D7EF6",
"= 	c #487AF5",
"- 	c #4276F5",
"; 	c #4478F5",
"> 	c #3E73F5",
", 	c #3B71F5",
"' 	c #336CF4",
") 	c #306AF4",
"! 	c #2864F4",
"~ 	c #1F5DEF",
"{ 	c #3467E0",
"] 	c #D2DBF2",
"^ 	c #769CF8",
"/ 	c #90AFF9",
"( 	c #94B2F9",
"_ 	c #85A7F8",
": 	c #759CF8",
"< 	c #6E97F8",
"[ 	c #6892F7",
"} 	c #6690F7",
"| 	c #628EF7",
"1 	c #5F8CF7",
"2 	c #5E8BF7",
"3 	c #5988F6",
"4 	c #5685F6",
"5 	c #5082F6",
"6 	c #497CF5",
"7 	c #3F75F5",
"8 	c #326BF2",
"9 	c #235CE3",
"0 	c #305CC5",
"a 	c #6590F7",
"b 	c #97B4F9",
"c 	c #9AB7FA",
"d 	c #89AAF9",
"e 	c #7AA0F8",
"f 	c #729AF8",
"g 	c #6D95F8",
"h 	c #6892F8",
"i 	c #658FF7",
"j 	c #618DF7",
"k 	c #5D8AF7",
"l 	c #5987F6",
"m 	c #5283F6",
"n 	c #4C7EF6",
"o 	c #4377F5",
"p 	c #376EF2",
"q 	c #285FE3",
"r 	c #1546B9",
"s 	c #5886F6",
"t 	c #8DADF9",
"u 	c #7FA3F8",
"v 	c #7199F8",
"w 	c #6A93F8",
"x 	c #648EF7",
"y 	c #5E8AF7",
"z 	c #5986F7",
"A 	c #5482F6",
"B 	c #5180F6",
"C 	c #4B7CF5",
"D 	c #4A7CF5",
"E 	c #3A72F4",
"F 	c #346CF2",
"G 	c #2A61E3",
"H 	c #1848BB",
"I 	c #5282F6",
"J 	c #799FF8",
"K 	c #7CA1F8",
"L 	c #316BF4",
"M 	c #3069F1",
"N 	c #2C62E4",
"O 	c #1D4CBC",
"P 	c #7099F8",
"Q 	c #2D69F5",
"R 	c #2E69F2",
"S 	c #2C63E5",
"T 	c #4679F5",
"U 	c #658FF8",
"V 	c #2A68F5",
"W 	c #2C69F2",
"X 	c #2A62E4",
"Y 	c #1C4CBD",
"Z 	c #628DF8",
"` 	c #608BF7",
" .	c #5482F7",
"..	c #4E7CF6",
"+.	c #4778F6",
"@.	c #4174F5",
"#.	c #3A71F5",
"$.	c #346EF4",
"%.	c #2D6BF5",
"&.	c #2869F5",
"*.	c #2467F5",
"=.	c #2567F5",
"-.	c #2968F2",
";.	c #2963E4",
">.	c #1B4BBD",
",.	c #3C72F4",
"'.	c #5D89F7",
").	c #5381F6",
"!.	c #4E7EF6",
"~.	c #477AF5",
"{.	c #4178F5",
"].	c #3A74F5",
"^.	c #3472F5",
"/.	c #2C6FF5",
"(.	c #276CF5",
"_.	c #236AF6",
":.	c #2268F5",
"<.	c #2569F2",
"[.	c #2562E6",
"}.	c #194BBE",
"|.	c #376EF4",
"1.	c #5181F6",
"2.	c #5785F7",
"3.	c #5281F6",
"4.	c #477BF6",
"5.	c #4179F6",
"6.	c #3B77F5",
"7.	c #3474F5",
"8.	c #2C72F6",
"9.	c #266FF6",
"0.	c #226DF6",
"a.	c #1F6AF6",
"b.	c #216AF3",
"c.	c #2162E6",
"d.	c #1649BE",
"e.	c #326BF4",
"f.	c #4B7DF5",
"g.	c #5483F6",
"h.	c #5684F7",
"i.	c #4D80F6",
"j.	c #487DF6",
"k.	c #427CF6",
"l.	c #3C7AF6",
"m.	c #3478F6",
"n.	c #2D76F6",
"o.	c #2673F7",
"p.	c #2171F7",
"q.	c #1C6DF6",
"r.	c #1C6AF4",
"s.	c #1C61E6",
"t.	c #1248BF",
"u.	c #2B66F4",
"v.	c #4E7FF6",
"w.	c #5182F6",
"x.	c #4D81F7",
"y.	c #487FF6",
"z.	c #437FF6",
"A.	c #3D7EF6",
"B.	c #357CF6",
"C.	c #2D7AF7",
"D.	c #2677F7",
"E.	c #2174F7",
"F.	c #186EF7",
"G.	c #186AF4",
"H.	c #165FE7",
"I.	c #0F47C0",
"J.	c #2562F3",
"K.	c #3D73F4",
"L.	c #487BF5",
"M.	c #4E80F6",
"N.	c #4E81F6",
"O.	c #4B80F6",
"P.	c #477FF6",
"Q.	c #427FF6",
"R.	c #3C7FF6",
"S.	c #367FF7",
"T.	c #2D7CF7",
"U.	c #2679F8",
"V.	c #2077F7",
"W.	c #166FF7",
"X.	c #1369F4",
"Y.	c #105DE8",
"Z.	c #0A44BF",
"`.	c #1E5DF3",
" +	c #366EF4",
".+	c #497BF5",
"++	c #4A7EF7",
"@+	c #487EF6",
"#+	c #457FF6",
"$+	c #4180F6",
"%+	c #3B7FF6",
"&+	c #357FF7",
"*+	c #2D7DF7",
"=+	c #257AF8",
"-+	c #1E77F8",
";+	c #116DF7",
">+	c #0D66F4",
",+	c #0B59E7",
"'+	c #0641C0",
")+	c #1859F3",
"!+	c #2E68F4",
"~+	c #3A71F4",
"{+	c #4277F5",
"]+	c #0E6CF8",
"^+	c #0963F4",
"/+	c #0556E7",
"(+	c #023FBF",
"_+	c #1456F3",
":+	c #2562F4",
"<+	c #3971F4",
"[+	c #3D74F5",
"}+	c #3D74F6",
"|+	c #3B75F5",
"1+	c #3976F5",
"2+	c #3777F5",
"3+	c #3278F6",
"4+	c #2C78F7",
"5+	c #2577F7",
"6+	c #1F76F7",
"7+	c #1972F7",
"8+	c #116EF8",
"9+	c #0B68F7",
"0+	c #0560F4",
"a+	c #0253E6",
"b+	c #013DBE",
"c+	c #0E50ED",
"d+	c #1C5BEF",
"e+	c #2863F0",
"f+	c #2F68F0",
"g+	c #336BF1",
"h+	c #346CF1",
"i+	c #316CF2",
"j+	c #316DF2",
"k+	c #2E6FF2",
"l+	c #2A70F2",
"m+	c #2570F3",
"n+	c #1F6FF3",
"o+	c #196DF4",
"p+	c #136AF4",
"q+	c #0760F3",
"r+	c #025AF0",
"s+	c #004DE2",
"t+	c #003AB9",
"u+	c #285EDF",
"v+	c #134FDF",
"w+	c #1B55DF",
"x+	c #215AE2",
"y+	c #255CE1",
"z+	c #265DE0",
"A+	c #245CE1",
"B+	c #235EE2",
"C+	c #215EE2",
"D+	c #1E5EE2",
"E+	c #1B5FE5",
"F+	c #165EE5",
"G+	c #135DE6",
"H+	c #0E5BE5",
"I+	c #0958E6",
"J+	c #0454E6",
"K+	c #014EE2",
"L+	c #0045D3",
"M+	c #1F4EB8",
"N+	c #D0DAF1",
"O+	c #2856C3",
"P+	c #0D3FB6",
"Q+	c #1144BD",
"R+	c #1245BB",
"S+	c #1445B9",
"T+	c #1244B9",
"U+	c #1345BC",
"V+	c #1346BD",
"W+	c #1045BE",
"X+	c #0D45C0",
"Y+	c #0A45C1",
"Z+	c #0844C3",
"`+	c #033FC0",
" @	c #013FC3",
".@	c #003BBE",
"+@	c #1F4EB9",
"@@	c #CFD8ED",
"  . + @ @ @ @ @ @ @ @ @ @ @ @ @ @ @ @ .   ",
". # $ % & * = - ; > > , , ' ' ) ! ~ { ] . ",
"@ ^ / ( _ : < [ } | 1 2 3 4 5 6 7 8 9 0 + ",
"@ a b c d e f g h i | j k l m n o p q r @ ",
"@ s d t u v w x y z A B C D ; 7 E F G H @ ",
"@ I J K v @ @ @ @ @ @ @ @ @ @ @ L M N O @ ",
"@ * < P w @ @ @ @ @ @ @ @ @ @ @ Q R S O @ ",
"@ T h w U @ @ @ @ @ @ @ @ @ @ @ V W X Y @ ",
"@ T % Z ` @  ...+.@.#.$.%.&.*.@ =.-.;.>.@ ",
"@ ,.l k '.@ ).!.~.{.].^./.(._.@ :.<.[.}.@ ",
"@ |.1.2.z @ 3.* 4.5.6.7.8.9.0.@ a.b.c.d.@ ",
"@ e.f.g.h.@ I i.j.k.l.m.n.o.p.@ q.r.s.t.@ ",
"@ u.; v.I @ w.x.y.z.A.B.C.D.E.@ F.G.H.I.@ ",
"@ J.K.L.M.@ N.O.P.Q.R.S.T.U.V.@ W.X.Y.Z.@ ",
"@ `. +- .+@ ++@+#+$+%+&+*+=+-+@ ;+>+,+'+@ ",
"@ )+!+~+{+@ @ @ @ @ @ @ @ @ @ @ ]+^+/+(+@ ",
"@ _+:+L <+[+}+|+1+2+3+4+5+6+7+8+9+0+a+b+@ ",
"@ c+d+e+f+g+h+i+j+k+l+m+n+o+p+>+q+r+s+t+@ ",
"+ u+v+w+x+y+z+A+B+C+D+E+F+G+H+I+J+K+L+M+@ ",
". N+O+P+Q+R+S+T+U+V+W+X+Y+Z+'+`+ @.@+@@@. ",
"  . @ @ @ @ @ @ @ @ @ @ @ @ @ @ @ @ + .   "};
