/* XPM */
static char * maximize_pressed_xpm[] = {
"21 21 134 2",
"  	c None",
". 	c #B7C6F0",
"+ 	c #F5F7FD",
"@ 	c #FFFFFF",
"# 	c #CFD3DA",
"$ 	c #1F3B5F",
"% 	c #002453",
"& 	c #002557",
"* 	c #002658",
"= 	c #00285C",
"- 	c #002A61",
"; 	c #002D67",
"> 	c #002F6B",
", 	c #002F6C",
"' 	c #003273",
") 	c #003478",
"! 	c #00357B",
"~ 	c #00377F",
"{ 	c #003780",
"] 	c #003984",
"^ 	c #003882",
"/ 	c #1F5295",
"( 	c #CFDAE9",
"_ 	c #002A62",
": 	c #003070",
"< 	c #003275",
"[ 	c #003883",
"} 	c #003A88",
"| 	c #003D8F",
"1 	c #003E90",
"2 	c #004094",
"3 	c #004299",
"4 	c #00439B",
"5 	c #00449E",
"6 	c #00459F",
"7 	c #0045A1",
"8 	c #0045A0",
"9 	c #1F5AA8",
"0 	c #002452",
"a 	c #003170",
"b 	c #003B8B",
"c 	c #003C8F",
"d 	c #003E94",
"e 	c #004099",
"f 	c #00429D",
"g 	c #0044A2",
"h 	c #0046A5",
"i 	c #0048A8",
"j 	c #0049AB",
"k 	c #004AAC",
"l 	c #004AAD",
"m 	c #004BAE",
"n 	c #004BAF",
"o 	c #004BAD",
"p 	c #003377",
"q 	c #003D92",
"r 	c #003F97",
"s 	c #00419D",
"t 	c #0043A1",
"u 	c #0045A4",
"v 	c #0047A8",
"w 	c #0048AB",
"x 	c #0049AD",
"y 	c #004AAE",
"z 	c #004CB0",
"A 	c #004DB1",
"B 	c #004DB2",
"C 	c #002555",
"D 	c #003D90",
"E 	c #00275A",
"F 	c #003781",
"G 	c #003F95",
"H 	c #004EB3",
"I 	c #00295F",
"J 	c #003985",
"K 	c #00419B",
"L 	c #0043A2",
"M 	c #004FB4",
"N 	c #002B63",
"O 	c #003B8A",
"P 	c #00439F",
"Q 	c #0045A5",
"R 	c #0047AB",
"S 	c #0049AE",
"T 	c #004AAF",
"U 	c #004CB1",
"V 	c #0050B5",
"W 	c #002D68",
"X 	c #0045A3",
"Y 	c #0048AD",
"Z 	c #004BB0",
"` 	c #0052B7",
" .	c #0053B8",
"..	c #0054B9",
"+.	c #0051B6",
"@.	c #003F93",
"#.	c #0047A7",
"$.	c #0055BA",
"%.	c #0056BB",
"&.	c #0057BC",
"*.	c #003172",
"=.	c #004095",
"-.	c #0048AA",
";.	c #0049AC",
">.	c #0058BD",
",.	c #0059BE",
"'.	c #005ABF",
").	c #0055B9",
"!.	c #005CC1",
"~.	c #005DC2",
"{.	c #00449D",
"].	c #004EB2",
"^.	c #005EC3",
"/.	c #005FC4",
"(.	c #00367E",
"_.	c #004FB3",
":.	c #0060C5",
"<.	c #0059BD",
"[.	c #005ABE",
"}.	c #0054B8",
"|.	c #003881",
"1.	c #0046A1",
"2.	c #005CC0",
"3.	c #005FC3",
"4.	c #0060C4",
"5.	c #0058BC",
"6.	c #005BC0",
"7.	c #1F5294",
"8.	c #0046A2",
"9.	c #1F66BE",
"0.	c #CFDAE8",
"a.	c #1F5BA9",
"b.	c #1F66BF",
"c.	c #CFDEF1",
"  . + @ @ @ @ @ @ @ @ @ @ @ @ @ @ @ + .   ",
". # $ % & * = - ; > , ' ) ! ~ { ] ^ / ( . ",
"+ $ _ : < ) ~ [ } | 1 2 3 4 5 6 7 8 7 9 + ",
"@ 0 a ^ b c d e f g h i j k l m m n m o @ ",
"@ % p b q r s t u v w x y z A A A B B B @ ",
"@ C ! D r @ @ @ @ @ @ @ @ @ @ @ A B B B @ ",
"@ E F G s @ @ @ @ @ @ @ @ @ @ @ A H B B @ ",
"@ I J K L @ @ @ @ @ @ @ @ @ @ @ M M H B @ ",
"@ N O P Q @ R S S T U B M V V @ V V M H @ ",
"@ W | X v @ Y T Z U H V `  ...@  . .+.M @ ",
"@ , @.#.w @ S n U H V ` $.%.&.@ %.$. .V @ ",
"@ *.=.-.;.@ y z B V ` $.>.,.'.@ ,.>.$.+.@ ",
"@ p 3 ;.y @ Z A M ` ).&.'.!.~.@ !.'.%.+.@ ",
"@ ! {.o z @ A ].V  .%.,.!.^./.@ ^.!.>.` @ ",
"@ (.5 m A @ A _.+...&.'.~./.:.@ /.~.<. .@ ",
"@ F 8 m A @ @ @ @ @ @ @ @ @ @ @ :.^.[.}.@ ",
"@ |.1.m A A ].H V  .%.,.2.^.3.:.4.~.,. .@ ",
"@ [ 7 n B B H H V  .$.5.'.!.~.^.~.6.&.+.@ ",
"+ 7.8.n B B B B M +. .$.&.>.,.'.,.&...9.+ ",
". 0.a.o B B B B H M V +.` `  ... .` b.c.. ",
"  . + @ @ @ @ @ @ @ @ @ @ @ @ @ @ @ + .   "};
