/* XPM */
static char * maximize_prelight_xpm[] = {
"21 21 274 2",
"  	c None",
". 	c #B7C6F0",
"+ 	c #F5F7FD",
"@ 	c #FFFFFF",
"# 	c #DCE7FF",
"$ 	c #72A1FF",
"% 	c #6A9CFF",
"& 	c #5F94FF",
"* 	c #558EFF",
"= 	c #518BFF",
"- 	c #4A86FF",
"; 	c #4B87FF",
"> 	c #4684FF",
", 	c #4482FF",
"' 	c #4080FF",
") 	c #3B7CFF",
"! 	c #3A7BFF",
"~ 	c #3678FF",
"{ 	c #2E73FF",
"] 	c #276CF9",
"^ 	c #3A73E7",
"/ 	c #D3DDF3",
"( 	c #73A1FF",
"_ 	c #97B9FF",
": 	c #9CBDFF",
"< 	c #90B5FF",
"[ 	c #82ACFF",
"} 	c #7BA7FF",
"| 	c #75A3FF",
"1 	c #6F9FFF",
"2 	c #6C9DFF",
"3 	c #689BFF",
"4 	c #6599FF",
"5 	c #6095FF",
"6 	c #5D93FF",
"7 	c #568EFF",
"8 	c #4F8AFF",
"9 	c #3878FB",
"0 	c #2969EB",
"a 	c #3566CB",
"b 	c #9EBEFF",
"c 	c #A4C2FF",
"d 	c #99BAFF",
"e 	c #8AB0FF",
"f 	c #82ABFF",
"g 	c #79A6FF",
"h 	c #74A3FF",
"i 	c #71A0FF",
"j 	c #6D9EFF",
"k 	c #699BFF",
"l 	c #5A91FF",
"m 	c #538CFF",
"n 	c #4986FF",
"o 	c #3D7CFC",
"p 	c #2E6CEA",
"q 	c #1B52C2",
"r 	c #6296FF",
"s 	c #91B5FF",
"t 	c #8FB4FF",
"u 	c #7AA6FF",
"v 	c #6B9DFF",
"w 	c #6598FF",
"x 	c #5F95FF",
"y 	c #5B92FF",
"z 	c #548DFF",
"A 	c #528CFF",
"B 	c #4C88FF",
"C 	c #4785FF",
"D 	c #4280FF",
"E 	c #3B7AFB",
"F 	c #316FEC",
"G 	c #1F55C3",
"H 	c #5990FF",
"I 	c #85ADFF",
"J 	c #8BB1FF",
"K 	c #84ACFF",
"L 	c #397AFF",
"M 	c #3979FC",
"N 	c #3370EC",
"O 	c #2357C3",
"P 	c #81AAFF",
"Q 	c #7AA7FF",
"R 	c #3679FF",
"S 	c #3879FC",
"T 	c #2358C5",
"U 	c #4E89FF",
"V 	c #71A1FF",
"W 	c #77A5FF",
"X 	c #74A2FF",
"Y 	c #337AFF",
"Z 	c #367BFC",
"` 	c #3372ED",
" .	c #2359C5",
"..	c #4D88FF",
"+.	c #699CFF",
"@.	c #6398FF",
"#.	c #5C93FF",
"$.	c #548FFF",
"%.	c #4D8CFF",
"&.	c #468AFF",
"*.	c #3F86FF",
"=.	c #3983FF",
"-.	c #3380FF",
";.	c #2F7FFF",
">.	c #3280FF",
",.	c #3580FC",
"'.	c #3276ED",
").	c #235AC6",
"!.	c #6196FF",
"~.	c #689AFF",
"{.	c #5B93FF",
"].	c #5491FF",
"^.	c #4F90FF",
"/.	c #4890FF",
"(.	c #428EFF",
"_.	c #3B8DFF",
":.	c #348AFF",
"<.	c #3189FF",
"[.	c #3188FF",
"}.	c #3385FC",
"|.	c #3079ED",
"1.	c #215CC8",
"2.	c #3F7FFF",
"3.	c #6397FF",
"4.	c #5993FF",
"5.	c #5492FF",
"6.	c #5093FF",
"7.	c #4A95FF",
"8.	c #4496FF",
"9.	c #3D96FF",
"0.	c #3694FF",
"a.	c #3193FF",
"b.	c #3090FF",
"c.	c #328CFC",
"d.	c #2E7DEF",
"e.	c #1E5DC9",
"f.	c #5C92FF",
"g.	c #5792FF",
"h.	c #5594FF",
"i.	c #5298FF",
"j.	c #4D9CFF",
"k.	c #479EFF",
"l.	c #409FFF",
"m.	c #379FFF",
"n.	c #339DFF",
"o.	c #2E97FF",
"p.	c #2E91FC",
"q.	c #2A80F0",
"r.	c #1B5DCB",
"s.	c #3275FF",
"t.	c #5991FF",
"u.	c #5596FF",
"v.	c #529CFF",
"w.	c #4FA1FF",
"x.	c #4AA6FF",
"y.	c #42A9FF",
"z.	c #3AA9FF",
"A.	c #34A7FF",
"B.	c #2CA0FF",
"C.	c #2A96FD",
"D.	c #2581F1",
"E.	c #185DCC",
"F.	c #2D72FF",
"G.	c #5790FF",
"H.	c #5490FF",
"I.	c #5597FF",
"J.	c #539FFF",
"K.	c #4FA4FF",
"L.	c #4AAAFF",
"M.	c #44AFFF",
"N.	c #3EB1FF",
"O.	c #37AFFF",
"P.	c #29A4FF",
"Q.	c #2599FD",
"R.	c #1E80F2",
"S.	c #145BCD",
"T.	c #276EFF",
"U.	c #3D7DFF",
"V.	c #4985FF",
"W.	c #528DFF",
"X.	c #518FFF",
"Y.	c #5196FF",
"Z.	c #509FFF",
"`.	c #4EA6FF",
" +	c #49ACFF",
".+	c #43B1FF",
"++	c #3EB4FF",
"@+	c #35B2FF",
"#+	c #24A5FF",
"$+	c #1F97FD",
"%+	c #1980F3",
"&+	c #105ACE",
"*+	c #216AFF",
"=+	c #3578FF",
"-+	c #4885FF",
";+	c #21A3FF",
">+	c #1A95FD",
",+	c #137CF2",
"'+	c #0C59CF",
")+	c #1C66FF",
"!+	c #3879FF",
"~+	c #3F7EFF",
"{+	c #4483FF",
"]+	c #4584FF",
"^+	c #4587FF",
"/+	c #468EFF",
"(+	c #4696FF",
"_+	c #439CFF",
":+	c #3FA3FF",
"<+	c #3BA8FF",
"[+	c #33AAFF",
"}+	c #2DA9FF",
"|+	c #24A6FF",
"1+	c #1D9EFF",
"2+	c #1690FD",
"3+	c #1078F1",
"4+	c #0B57CE",
"5+	c #1761F9",
"6+	c #246BFA",
"7+	c #2F72FB",
"8+	c #3676FB",
"9+	c #3A7AFB",
"0+	c #3B7BFC",
"a+	c #3B7EFC",
"b+	c #3C84FC",
"c+	c #3B8AFC",
"d+	c #3990FC",
"e+	c #3695FC",
"f+	c #3299FC",
"g+	c #2C9CFD",
"h+	c #259BFD",
"i+	c #1E97FD",
"j+	c #1790FC",
"k+	c #1184FA",
"l+	c #0C6DED",
"m+	c #0850C8",
"n+	c #2F6AE4",
"o+	c #1B5FE9",
"p+	c #2163E8",
"q+	c #2868EB",
"r+	c #2C6AEA",
"s+	c #2E6DEA",
"t+	c #2D6DEB",
"u+	c #2C71EC",
"v+	c #2C76EC",
"w+	c #2A79ED",
"x+	c #287EEF",
"y+	c #2481F1",
"z+	c #2182F1",
"A+	c #1C80F1",
"B+	c #1880F3",
"C+	c #117AF2",
"D+	c #0C6EED",
"E+	c #0A5DDD",
"F+	c #265DC1",
"G+	c #D1DDF4",
"H+	c #2E61CA",
"I+	c #134BBF",
"J+	c #164FC2",
"K+	c #1950C1",
"L+	c #1B52C1",
"M+	c #1A52C3",
"N+	c #1954C6",
"O+	c #1B58C9",
"P+	c #1858C8",
"Q+	c #165BCD",
"R+	c #145CD0",
"S+	c #135CD0",
"T+	c #0F58CC",
"U+	c #0D5AD2",
"V+	c #0B58D1",
"W+	c #0951CB",
"X+	c #265EC3",
"Y+	c #D0DAEE",
"  . + @ @ @ @ @ @ @ @ @ @ @ @ @ @ @ + .   ",
". # $ % & * = - ; > > , ' ) ! ~ { ] ^ / . ",
"+ ( _ : < [ } | 1 2 3 4 5 6 7 8 , 9 0 a + ",
"@ 2 b c d e f g h i j k 4 5 l m n o p q @ ",
"@ r s d t [ u $ v w x y z A B C D E F G @ ",
"@ H I J K @ @ @ @ @ @ @ @ @ @ @ L M N O @ ",
"@ z } P Q @ @ @ @ @ @ @ @ @ @ @ R S N T @ ",
"@ U V W X @ @ @ @ @ @ @ @ @ @ @ Y Z `  .@ ",
"@ ..+.1 j @ @.#.$.%.&.*.=.-.;.@ >.,.'.).@ ",
"@ , !.3 ~.@ !.{.].^./.(._.:.<.@ [.}.|.1.@ ",
"@ 2.l !.3.@ x 4.5.6.7.8.9.0.a.@ b.c.d.e.@ ",
"@ L m f.& @ #.g.h.i.j.k.l.m.n.@ o.p.q.r.@ ",
"@ s.; * l @ t.g.u.v.w.x.y.z.A.@ B.C.D.E.@ ",
"@ F., 8 z @ G.H.I.J.K.L.M.N.O.@ P.Q.R.S.@ ",
"@ T.U.V.8 @ W.X.Y.Z.`. +.+++@+@ #+$+%+&+@ ",
"@ *+=+' -+@ @ @ @ @ @ @ @ @ @ @ ;+>+,+'+@ ",
"@ )+F.!+~+{+]+^+/+(+_+:+<+[+}+|+1+2+3+4+@ ",
"@ 5+6+7+8+9+0+a+b+c+d+e+f+g+h+i+j+k+l+m+@ ",
"+ n+o+p+q+r+s+t+u+v+w+x+y+z+A+B+C+D+E+F++ ",
". G+H+I+J+K+L+M+N+O+P+Q+R+S+T+U+V+W+X+Y+. ",
"  . + @ @ @ @ @ @ @ @ @ @ @ @ @ @ @ + .   "};
