/* XPM */
static char * maximize_inactive_xpm[] = {
"21 21 361 2",
"  	c None",
". 	c #A0B7E9",
"+ 	c #B9C9EF",
"@ 	c #BDCCF0",
"# 	c #BDCBEF",
"$ 	c #BDCAEF",
"% 	c #BDCAEE",
"& 	c #BCC9EE",
"* 	c #BCC8EE",
"= 	c #BCC8ED",
"- 	c #BCC7ED",
"; 	c #9EAEE4",
"> 	c #9EB4E7",
", 	c #AABDED",
"' 	c #7597EB",
") 	c #6C8FEA",
"! 	c #668BE9",
"~ 	c #6287E9",
"{ 	c #6085E8",
"] 	c #5D82E8",
"^ 	c #5D83E8",
"/ 	c #5A80E8",
"( 	c #597FE8",
"_ 	c #557CE7",
": 	c #547BE7",
"< 	c #537AE7",
"[ 	c #4E76E6",
"} 	c #4A71E3",
"| 	c #5475DC",
"1 	c #A4B0E4",
"2 	c #9BA7E2",
"3 	c #BBC8EE",
"4 	c #7696EA",
"5 	c #849FEA",
"6 	c #86A1EA",
"7 	c #7E9BE9",
"8 	c #7695E9",
"9 	c #7292E9",
"0 	c #6F8FE9",
"a 	c #6E8DE8",
"b 	c #6C8CE8",
"c 	c #6A8BE8",
"d 	c #6A8AE8",
"e 	c #6788E8",
"f 	c #6686E8",
"g 	c #6384E7",
"h 	c #5F81E6",
"i 	c #5A7CE6",
"j 	c #5376E4",
"k 	c #4B6EDC",
"l 	c #526DCD",
"m 	c #B5BBE9",
"n 	c #BBC7ED",
"o 	c #6E8FE9",
"p 	c #87A1EA",
"q 	c #88A2EA",
"r 	c #809BEA",
"s 	c #7996E9",
"t 	c #7493E9",
"u 	c #7290E9",
"v 	c #6F8EE9",
"w 	c #6D8CE8",
"x 	c #6C8BE8",
"y 	c #6B8AE8",
"z 	c #6988E8",
"A 	c #6786E8",
"B 	c #6483E7",
"C 	c #6180E7",
"D 	c #5C7DE6",
"E 	c #5677E4",
"F 	c #4E6FDC",
"G 	c #4461C7",
"H 	c #B9BDEA",
"I 	c #6789E9",
"J 	c #829CEA",
"K 	c #7B97E9",
"L 	c #7492E9",
"M 	c #708FE9",
"N 	c #6D8CE9",
"O 	c #6A8AE9",
"P 	c #6887E9",
"Q 	c #6584E8",
"R 	c #6382E8",
"S 	c #6080E7",
"T 	c #5D7DE7",
"U 	c #5A7BE7",
"V 	c #577AE6",
"W 	c #5476E5",
"X 	c #4F70DD",
"Y 	c #4663C8",
"Z 	c #BABEEA",
"` 	c #BBC7EE",
" .	c #6487E9",
"..	c #7896EA",
"+.	c #7A96EA",
"@.	c #E2E8FA",
"#.	c #E1E7FA",
"$.	c #E0E7FA",
"%.	c #E0E6FA",
"&.	c #DFE5FA",
"*.	c #DEE5FA",
"=.	c #DEE4FA",
"-.	c #DDE4FA",
";.	c #DCE3FA",
">.	c #5377E7",
",.	c #5275E5",
"'.	c #5071DE",
").	c #4965C9",
"!.	c #BABEEB",
"~.	c #BCC7EE",
"{.	c #6285EA",
"].	c #7392EB",
"^.	c #7393EA",
"/.	c #708FEA",
"(.	c #DFE6FA",
"_.	c #5176E8",
":.	c #5275E6",
"<.	c #5172DF",
"[.	c #4966CA",
"}.	c #BABFEB",
"|.	c #BCC6EE",
"1.	c #5F83E9",
"2.	c #708FEB",
"3.	c #7190EA",
"4.	c #6E8DEA",
"5.	c #DCE4FA",
"6.	c #DBE3FA",
"7.	c #5076E8",
"8.	c #5176E6",
"9.	c #5072DF",
"0.	c #4966CB",
"a.	c #BBC0EC",
"b.	c #6C8CEA",
"c.	c #6D8DEB",
"d.	c #6C8BEA",
"e.	c #6686EA",
"f.	c #6282E9",
"g.	c #5F80E9",
"h.	c #5C7DE9",
"i.	c #587BE8",
"j.	c #557AE8",
"k.	c #5278E8",
"l.	c #4F76E8",
"m.	c #4D75E8",
"n.	c #4E75E8",
"o.	c #5076E6",
"p.	c #5073DF",
"q.	c #5A7FE9",
"r.	c #6889EA",
"s.	c #6A8BEA",
"t.	c #6A8AEA",
"u.	c #6585E9",
"v.	c #6283E9",
"w.	c #5C7FE9",
"x.	c #587DE9",
"y.	c #557CE9",
"z.	c #517AE9",
"A.	c #4F78E9",
"B.	c #4D77E9",
"C.	c #4C76E8",
"D.	c #4E72E0",
"E.	c #4866CC",
"F.	c #BCC7EF",
"G.	c #577DE9",
"H.	c #6487EA",
"I.	c #6789EA",
"J.	c #6586E9",
"K.	c #6284E9",
"L.	c #5F82E9",
"M.	c #5C81E9",
"N.	c #5980E9",
"O.	c #567EE9",
"P.	c #527DEA",
"Q.	c #4F7BEA",
"R.	c #4D79E9",
"S.	c #DBE4FA",
"T.	c #4B77E9",
"U.	c #4C77E8",
"V.	c #4C73E1",
"W.	c #4666CC",
"X.	c #BBC0ED",
"Y.	c #BDC8EF",
"Z.	c #557DEA",
"`.	c #6688EA",
" +	c #6788EB",
".+	c #6587EA",
"++	c #6286EA",
"@+	c #6084EA",
"#+	c #5D83EA",
"$+	c #5A82EA",
"%+	c #5680EA",
"&+	c #537FEA",
"*+	c #4F7DEB",
"=+	c #4C7CEA",
"-+	c #DAE4FA",
";+	c #4A79EA",
">+	c #4A77E9",
",+	c #4A73E2",
"'+	c #4566CE",
")+	c #BCC1EE",
"!+	c #BDC9F0",
"~+	c #527CEB",
"{+	c #5F84EB",
"]+	c #6487EB",
"^+	c #6688EB",
"/+	c #E0E7FB",
"(+	c #6588EB",
"_+	c #6387EB",
":+	c #6086EA",
"<+	c #5E85EA",
"[+	c #5B84EA",
"}+	c #5783EA",
"|+	c #5381EB",
"1+	c #4F80EB",
"2+	c #4D7EEB",
"3+	c #DAE4FB",
"4+	c #487BEB",
"5+	c #4879E9",
"6+	c #4773E3",
"7+	c #4366CF",
"8+	c #BCC3EE",
"9+	c #BECAF1",
"0+	c #507BEB",
"a+	c #5C83EB",
"b+	c #6186EB",
"c+	c #6488EC",
"d+	c #6489EB",
"e+	c #6388EB",
"f+	c #6187EB",
"g+	c #5E86EB",
"h+	c #5B86EB",
"i+	c #5785EB",
"j+	c #5383EB",
"k+	c #5081EC",
"l+	c #4D80EB",
"m+	c #DAE5FB",
"n+	c #487DEB",
"o+	c #4679EA",
"p+	c #4573E4",
"q+	c #4266CF",
"r+	c #BCC4EF",
"s+	c #BECBF1",
"t+	c #4D79EB",
"u+	c #5982EC",
"v+	c #5F85EC",
"w+	c #6287EC",
"x+	c #6389ED",
"y+	c #6288EC",
"z+	c #6088EC",
"A+	c #5E88EC",
"B+	c #5B87EC",
"C+	c #5887EC",
"D+	c #5485EC",
"E+	c #5084ED",
"F+	c #4C82ED",
"G+	c #467DEC",
"H+	c #4479EB",
"I+	c #4372E4",
"J+	c #4066D0",
"K+	c #BDC6F0",
"L+	c #BECCF2",
"M+	c #4A79EC",
"N+	c #5580EC",
"O+	c #5B84EC",
"P+	c #5F87EC",
"Q+	c #DFE7FB",
"R+	c #DEE7FB",
"S+	c #DDE7FB",
"T+	c #DCE7FB",
"U+	c #DCE6FB",
"V+	c #DBE6FB",
"W+	c #457DED",
"X+	c #4279EB",
"Y+	c #4072E5",
"Z+	c #3F66D0",
"`+	c #BEC6F0",
" @	c #BFCEF2",
".@	c #4978EC",
"+@	c #517EED",
"@@	c #5783EC",
"#@	c #5B85EC",
"$@	c #5D87ED",
"%@	c #5D86ED",
"&@	c #5C87ED",
"*@	c #5B87ED",
"=@	c #5A87ED",
"-@	c #5787ED",
";@	c #5487EE",
">@	c #5186EE",
",@	c #4E85EE",
"'@	c #4B83EE",
")@	c #4780EE",
"!@	c #447DED",
"~@	c #4178EC",
"{@	c #3F72E5",
"]@	c #BEC7F1",
"^@	c #BFCFF3",
"/@	c #4676EA",
"(@	c #4D7CEA",
"_@	c #5380EB",
":@	c #5682EB",
"<@	c #5883EB",
"[@	c #5983EB",
"}@	c #5584EC",
"|@	c #5484EC",
"1@	c #5184EC",
"2@	c #4E83EC",
"3@	c #4B82ED",
"4@	c #4880ED",
"5@	c #427AEC",
"6@	c #3F77EB",
"7@	c #3E70E3",
"8@	c #3F66CF",
"9@	c #BEC9F2",
"0@	c #BCCDF2",
"a@	c #537EE3",
"b@	c #4977E2",
"c@	c #4D7AE2",
"d@	c #507CE4",
"e@	c #527DE3",
"f@	c #517CE3",
"g@	c #517DE3",
"h@	c #4F7CE3",
"i@	c #4E7CE3",
"j@	c #4C7CE5",
"k@	c #4A7CE5",
"l@	c #487BE6",
"m@	c #4679E5",
"n@	c #4378E6",
"o@	c #4176E6",
"p@	c #3F72E3",
"q@	c #3F6DDC",
"r@	c #4E71CE",
"s@	c #BECAF2",
"t@	c #A4BCEE",
"u@	c #A8BDEC",
"v@	c #537BD5",
"w@	c #466FCE",
"x@	c #4872D1",
"y@	c #4871D0",
"z@	c #4971CF",
"A@	c #4871CF",
"B@	c #4971D1",
"C@	c #4770D2",
"D@	c #4570D2",
"E@	c #4470D3",
"F@	c #436FD4",
"G@	c #426DD2",
"H@	c #406CD2",
"I@	c #3F6CD4",
"J@	c #3F69D1",
"K@	c #4E73CF",
"L@	c #A7B7E9",
"M@	c #A2B2EC",
"N@	c #A3BBEE",
"O@	c #BFCEF3",
"P@	c #BFCDF3",
"Q@	c #BFCDF2",
"R@	c #BFCCF2",
"S@	c #BBC8F1",
"T@	c #A2B4EC",
"  . + @ @ @ # # # # # $ % % & * = - - ;   ",
"> , ' ) ! ~ { ] ^ / / ( ( _ : < [ } | 1 2 ",
"3 4 5 6 7 8 9 0 a b c d e f g h i j k l m ",
"n o p q r s t u v w x y z A B C D E F G H ",
"n I r J K L M N O P Q R S S T U V W X Y Z ",
"`  ...+.L @.#.$.%.&.*.=.-.-.-.;.>.,.'.).!.",
"~.{.].^./.#.#.%.(.&.=.-.-.;.;.;._.:.<.[.}.",
"|.1.2.3.4.#.%.(.&.*.=.-.5.;.6.6.7.8.9.0.a.",
"|.1.b.c.d.#.e.f.g.h.i.j.k.l.m.6.n.o.p.0.a.",
"~.q.r.s.t.$.u.v.g.w.x.y.z.A.B.6.C.[ D.E.a.",
"F.G.H.I.r.$.J.K.L.M.N.O.P.Q.R.S.T.U.V.W.X.",
"Y.Z.{.`. +$..+++@+#+$+%+&+*+=+-+;+>+,+'+)+",
"!+~+{+]+^+/+(+_+:+<+[+}+|+1+2+3+4+5+6+7+8+",
"9+0+a+b+c+/+d+e+f+g+h+i+j+k+l+m+n+o+p+q+r+",
"s+t+u+v+w+/+x+y+z+A+B+C+D+E+F+m+G+H+I+J+K+",
"L+M+N+O+P+Q+Q+Q+R+R+R+S+T+U+V+m+W+X+Y+Z+`+",
" @.@+@@@#@$@%@&@*@=@-@;@>@,@'@)@!@~@{@Z+]@",
"^@/@(@_@:@<@[@@@@@}@|@1@2@3@4@W+5@6@7@8@9@",
"0@a@b@c@d@e@e@f@g@h@i@j@k@l@m@n@o@p@q@r@s@",
"t@u@v@w@x@y@z@A@B@B@C@D@E@F@G@H@I@J@K@L@M@",
"  N@^@^@^@^@^@^@O@O@P@Q@Q@Q@R@R@R@R@S@T@  "};
