/* XPM */
static char * menu_inactive_xpm[] = {
"21 21 380 2",
"  	c None",
". 	c #A0B7E9",
"+ 	c #B9C9EF",
"@ 	c #BDCCF0",
"# 	c #BDCBEF",
"$ 	c #BDCAEF",
"% 	c #BDCAEE",
"& 	c #BCC9EE",
"* 	c #BCC8EE",
"= 	c #BCC8ED",
"- 	c #BCC7ED",
"; 	c #9EAEE4",
"> 	c #9EB4E7",
", 	c #AABDED",
"' 	c #7597EB",
") 	c #6C8FEA",
"! 	c #668BE9",
"~ 	c #6287E9",
"{ 	c #6085E8",
"] 	c #5D82E8",
"^ 	c #5D83E8",
"/ 	c #5A80E8",
"( 	c #597FE8",
"_ 	c #557CE7",
": 	c #547BE7",
"< 	c #537AE7",
"[ 	c #4E76E6",
"} 	c #4A71E3",
"| 	c #5475DC",
"1 	c #A4B0E4",
"2 	c #9BA7E2",
"3 	c #BBC8EE",
"4 	c #7696EA",
"5 	c #849FEA",
"6 	c #86A1EA",
"7 	c #7E9BE9",
"8 	c #7695E9",
"9 	c #7292E9",
"0 	c #6F8FE9",
"a 	c #6E8DE8",
"b 	c #6C8CE8",
"c 	c #6A8BE8",
"d 	c #6A8AE8",
"e 	c #6788E8",
"f 	c #6686E8",
"g 	c #6384E7",
"h 	c #5F81E6",
"i 	c #5A7CE6",
"j 	c #5376E4",
"k 	c #4B6EDC",
"l 	c #526DCD",
"m 	c #B5BBE9",
"n 	c #BBC7ED",
"o 	c #6E8FE9",
"p 	c #87A1EA",
"q 	c #88A2EA",
"r 	c #809BEA",
"s 	c #7996E9",
"t 	c #7493E9",
"u 	c #7290E9",
"v 	c #6F8EE9",
"w 	c #6D8CE8",
"x 	c #6C8BE8",
"y 	c #6B8AE8",
"z 	c #6988E8",
"A 	c #6786E8",
"B 	c #6483E7",
"C 	c #6180E7",
"D 	c #5C7DE6",
"E 	c #5677E4",
"F 	c #4E6FDC",
"G 	c #4461C7",
"H 	c #B9BDEA",
"I 	c #6789E9",
"J 	c #829CEA",
"K 	c #7B97E9",
"L 	c #7492E9",
"M 	c #708FE9",
"N 	c #6D8CE9",
"O 	c #6A8AE9",
"P 	c #6887E9",
"Q 	c #6584E8",
"R 	c #6382E8",
"S 	c #6080E7",
"T 	c #5D7DE7",
"U 	c #5A7BE7",
"V 	c #577AE6",
"W 	c #5476E5",
"X 	c #4F70DD",
"Y 	c #4663C8",
"Z 	c #BABEEA",
"` 	c #BBC7EE",
" .	c #6487E9",
"..	c #7896EA",
"+.	c #7A96EA",
"@.	c #6B8BE9",
"#.	c #6585E8",
"$.	c #6281E9",
"%.	c #5E7FE8",
"&.	c #5B7CE8",
"*.	c #587AE7",
"=.	c #5779E7",
"-.	c #5578E7",
";.	c #5477E7",
">.	c #5377E7",
",.	c #5275E5",
"'.	c #5071DE",
").	c #4965C9",
"!.	c #BABEEB",
"~.	c #BCC7EE",
"{.	c #6285EA",
"].	c #7392EB",
"^.	c #7393EA",
"/.	c #708FEA",
"(.	c #6C8BEA",
"_.	c #6988E9",
":.	c #6584E9",
"<.	c #6282E9",
"[.	c #5F7FE9",
"}.	c #587AE8",
"|.	c #5579E7",
"1.	c #5176E7",
"2.	c #5176E8",
"3.	c #5275E6",
"4.	c #5172DF",
"5.	c #4966CA",
"6.	c #BABFEB",
"7.	c #BCC6EE",
"8.	c #5F83E9",
"9.	c #708FEB",
"0.	c #7190EA",
"a.	c #6E8DEA",
"b.	c #6A89EA",
"c.	c #6786EA",
"d.	c #6383E9",
"e.	c #DFE5FA",
"f.	c #5D7EE8",
"g.	c #5A7CE8",
"h.	c #567AE8",
"i.	c #DCE4FA",
"j.	c #4F75E8",
"k.	c #5076E8",
"l.	c #5176E6",
"m.	c #5072DF",
"n.	c #4966CB",
"o.	c #BBC0EC",
"p.	c #6C8CEA",
"q.	c #6D8DEB",
"r.	c #6988EA",
"s.	c #6686EA",
"t.	c #DEE5FA",
"u.	c #587BE8",
"v.	c #DDE4FA",
"w.	c #4F76E8",
"x.	c #4D75E8",
"y.	c #4C75E8",
"z.	c #4E75E8",
"A.	c #5076E6",
"B.	c #5073DF",
"C.	c #5A7FE9",
"D.	c #6889EA",
"E.	c #6A8BEA",
"F.	c #6A8AEA",
"G.	c #6888EA",
"H.	c #6585E9",
"I.	c #6283E9",
"J.	c #5F80E9",
"K.	c #DDE5FA",
"L.	c #517AE9",
"M.	c #4F78E9",
"N.	c #4D77E9",
"O.	c #4B76E9",
"P.	c #4C76E8",
"Q.	c #4E72E0",
"R.	c #4866CC",
"S.	c #BCC7EF",
"T.	c #577DE9",
"U.	c #6487EA",
"V.	c #6789EA",
"W.	c #6788EA",
"X.	c #6586E9",
"Y.	c #6284E9",
"Z.	c #5F82E9",
"`.	c #5C81E9",
" +	c #567EE9",
".+	c #527DEA",
"++	c #4F7BEA",
"@+	c #4D79E9",
"#+	c #4B78EA",
"$+	c #4B77E9",
"%+	c #4C77E8",
"&+	c #4C73E1",
"*+	c #4666CC",
"=+	c #BBC0ED",
"-+	c #BDC8EF",
";+	c #557DEA",
">+	c #6688EA",
",+	c #6788EB",
"'+	c #6687EA",
")+	c #6587EA",
"!+	c #6286EA",
"~+	c #DFE6FA",
"{+	c #5D83EA",
"]+	c #5A82EA",
"^+	c #5680EA",
"/+	c #DCE5FA",
"(+	c #4F7DEB",
"_+	c #4C7CEA",
":+	c #4A7AEA",
"<+	c #4A79EA",
"[+	c #4A77E9",
"}+	c #4A73E2",
"|+	c #4566CE",
"1+	c #BCC1EE",
"2+	c #BDC9F0",
"3+	c #527CEB",
"4+	c #5F84EB",
"5+	c #6487EB",
"6+	c #6688EB",
"7+	c #6588EB",
"8+	c #6387EB",
"9+	c #DEE6FA",
"0+	c #5B84EA",
"a+	c #DDE6FA",
"b+	c #DCE5FB",
"c+	c #4F80EB",
"d+	c #4D7EEB",
"e+	c #4A7CEB",
"f+	c #487BEB",
"g+	c #4879E9",
"h+	c #4773E3",
"i+	c #4366CF",
"j+	c #BCC3EE",
"k+	c #BECAF1",
"l+	c #507BEB",
"m+	c #5C83EB",
"n+	c #6186EB",
"o+	c #6488EC",
"p+	c #6589EB",
"q+	c #6489EB",
"r+	c #6388EB",
"s+	c #6187EB",
"t+	c #DEE6FB",
"u+	c #DDE6FB",
"v+	c #5383EB",
"w+	c #5081EC",
"x+	c #4D80EB",
"y+	c #497FEC",
"z+	c #487DEB",
"A+	c #4679EA",
"B+	c #4573E4",
"C+	c #4266CF",
"D+	c #BCC4EF",
"E+	c #BECBF1",
"F+	c #4D79EB",
"G+	c #5982EC",
"H+	c #5F85EC",
"I+	c #6287EC",
"J+	c #6489EC",
"K+	c #6389ED",
"L+	c #6288EC",
"M+	c #6088EC",
"N+	c #5E88EC",
"O+	c #DEE7FB",
"P+	c #5887EC",
"Q+	c #5485EC",
"R+	c #5084ED",
"S+	c #4C82ED",
"T+	c #4980ED",
"U+	c #467DEC",
"V+	c #4479EB",
"W+	c #4372E4",
"X+	c #4066D0",
"Y+	c #BDC6F0",
"Z+	c #BECCF2",
"`+	c #4A79EC",
" @	c #5580EC",
".@	c #5B84EC",
"+@	c #5F87EC",
"@@	c #6188EC",
"#@	c #6188ED",
"$@	c #6088ED",
"%@	c #5E88ED",
"&@	c #5C88ED",
"*@	c #5A88ED",
"=@	c #5788ED",
"-@	c #5387ED",
";@	c #5086ED",
">@	c #4C84ED",
",@	c #4881ED",
"'@	c #457DED",
")@	c #4279EB",
"!@	c #4072E5",
"~@	c #3F66D0",
"{@	c #BEC6F0",
"]@	c #BFCEF2",
"^@	c #4978EC",
"/@	c #517EED",
"(@	c #5783EC",
"_@	c #5B85EC",
":@	c #5D87ED",
"<@	c #5D86ED",
"[@	c #5C87ED",
"}@	c #5B87ED",
"|@	c #5A87ED",
"1@	c #5787ED",
"2@	c #5487EE",
"3@	c #5186EE",
"4@	c #4E85EE",
"5@	c #4B83EE",
"6@	c #4780EE",
"7@	c #447DED",
"8@	c #4178EC",
"9@	c #3F72E5",
"0@	c #BEC7F1",
"a@	c #BFCFF3",
"b@	c #4676EA",
"c@	c #4D7CEA",
"d@	c #5380EB",
"e@	c #5682EB",
"f@	c #5883EB",
"g@	c #5983EB",
"h@	c #5584EC",
"i@	c #5484EC",
"j@	c #5184EC",
"k@	c #4E83EC",
"l@	c #4B82ED",
"m@	c #4880ED",
"n@	c #427AEC",
"o@	c #3F77EB",
"p@	c #3E70E3",
"q@	c #3F66CF",
"r@	c #BEC9F2",
"s@	c #BCCDF2",
"t@	c #537EE3",
"u@	c #4977E2",
"v@	c #4D7AE2",
"w@	c #507CE4",
"x@	c #527DE3",
"y@	c #517CE3",
"z@	c #517DE3",
"A@	c #4F7CE3",
"B@	c #4E7CE3",
"C@	c #4C7CE5",
"D@	c #4A7CE5",
"E@	c #487BE6",
"F@	c #4679E5",
"G@	c #4378E6",
"H@	c #4176E6",
"I@	c #3F72E3",
"J@	c #3F6DDC",
"K@	c #4E71CE",
"L@	c #BECAF2",
"M@	c #A4BCEE",
"N@	c #A8BDEC",
"O@	c #537BD5",
"P@	c #466FCE",
"Q@	c #4872D1",
"R@	c #4871D0",
"S@	c #4971CF",
"T@	c #4871CF",
"U@	c #4971D1",
"V@	c #4770D2",
"W@	c #4570D2",
"X@	c #4470D3",
"Y@	c #436FD4",
"Z@	c #426DD2",
"`@	c #406CD2",
" #	c #3F6CD4",
".#	c #3F69D1",
"+#	c #4E73CF",
"@#	c #A7B7E9",
"##	c #A2B2EC",
"$#	c #A3BBEE",
"%#	c #BFCEF3",
"&#	c #BFCDF3",
"*#	c #BFCDF2",
"=#	c #BFCCF2",
"-#	c #BBC8F1",
";#	c #A2B4EC",
"  . + @ @ @ # # # # # $ % % & * = - - ;   ",
"> , ' ) ! ~ { ] ^ / / ( ( _ : < [ } | 1 2 ",
"3 4 5 6 7 8 9 0 a b c d e f g h i j k l m ",
"n o p q r s t u v w x y z A B C D E F G H ",
"n I r J K L M N O P Q R S S T U V W X Y Z ",
"`  ...+.L v @.P #.$.%.&.*.=.-.;.>.,.'.).!.",
"~.{.].^./.(._.:.<.[.&.}.|.>.1.2.2.3.4.5.6.",
"7.8.9.0.a.b.c.d.e.f.g.h.i.2.j.j.k.l.m.n.o.",
"7.8.p.q.(.r.s.<.e.t.u.v.i.w.x.y.z.A.B.n.o.",
"~.C.D.E.F.G.H.I.J.t.K.v.L.M.N.O.P.[ Q.R.o.",
"S.T.U.V.D.W.X.Y.Z.`.K. +.+++@+#+$+%+&+*+=+",
"-+;+{.>+,+'+)+!+~+{+]+^+/+(+_+:+<+[+}+|+1+",
"2+3+4+5+6+6+7+8+~+9+0+a+b+c+d+e+f+g+h+i+j+",
"k+l+m+n+o+p+q+r+s+t+t+u+v+w+x+y+z+A+B+C+D+",
"E+F+G+H+I+J+K+L+M+N+O+P+Q+R+S+T+U+V+W+X+Y+",
"Z+`+ @.@+@@@#@$@%@&@*@=@-@;@>@,@'@)@!@~@{@",
"]@^@/@(@_@:@<@[@}@|@1@2@3@4@5@6@7@8@9@~@0@",
"a@b@c@d@e@f@g@(@(@h@i@j@k@l@m@'@n@o@p@q@r@",
"s@t@u@v@w@x@x@y@z@A@B@C@D@E@F@G@H@I@J@K@L@",
"M@N@O@P@Q@R@S@T@U@U@V@W@X@Y@Z@`@ #.#+#@###",
"  $#a@a@a@a@a@a@%#%#&#*#*#*#=#=#=#=#-#;#  "};
