/* XPM */
static char * right_active_xpm[] = {
"5 5 13 1",
" 	c None",
".	c #0048F1",
"+	c #003EDD",
"@	c #002EBE",
"#	c #001EA1",
"$	c #00138C",
"%	c #002EBF",
"&	c #001DA0",
"*	c #003DDC",
"=	c #002DBE",
"-	c #001EA0",
";	c #003EDC",
">	c #001DA1",
".+@#$",
".+%&$",
".*=#$",
".*=-$",
".;%>$"};
