/* XPM */
static char * shade_toggled_inactive_xpm[] = {
"21 21 378 2",
"  	c None",
". 	c #A0B7E9",
"+ 	c #B9C9EF",
"@ 	c #BDCCF0",
"# 	c #BDCBEF",
"$ 	c #BDCAEF",
"% 	c #BDCAEE",
"& 	c #BCC9EE",
"* 	c #BCC8EE",
"= 	c #BCC8ED",
"- 	c #BCC7ED",
"; 	c #9EAEE4",
"> 	c #9EB4E7",
", 	c #AABDED",
"' 	c #7597EB",
") 	c #6C8FEA",
"! 	c #668BE9",
"~ 	c #6287E9",
"{ 	c #6085E8",
"] 	c #5D82E8",
"^ 	c #5D83E8",
"/ 	c #5A80E8",
"( 	c #597FE8",
"_ 	c #557CE7",
": 	c #547BE7",
"< 	c #537AE7",
"[ 	c #4E76E6",
"} 	c #4A71E3",
"| 	c #5475DC",
"1 	c #A4B0E4",
"2 	c #9BA7E2",
"3 	c #BBC8EE",
"4 	c #7696EA",
"5 	c #849FEA",
"6 	c #86A1EA",
"7 	c #7E9BE9",
"8 	c #7695E9",
"9 	c #7292E9",
"0 	c #6F8FE9",
"a 	c #6E8DE8",
"b 	c #6C8CE8",
"c 	c #6A8BE8",
"d 	c #6A8AE8",
"e 	c #6788E8",
"f 	c #6686E8",
"g 	c #6384E7",
"h 	c #5F81E6",
"i 	c #5A7CE6",
"j 	c #5376E4",
"k 	c #4B6EDC",
"l 	c #526DCD",
"m 	c #B5BBE9",
"n 	c #BBC7ED",
"o 	c #6E8FE9",
"p 	c #87A1EA",
"q 	c #88A2EA",
"r 	c #809BEA",
"s 	c #7996E9",
"t 	c #7493E9",
"u 	c #7290E9",
"v 	c #6F8EE9",
"w 	c #6D8CE8",
"x 	c #6C8BE8",
"y 	c #6B8AE8",
"z 	c #6988E8",
"A 	c #6786E8",
"B 	c #6483E7",
"C 	c #6180E7",
"D 	c #5C7DE6",
"E 	c #5677E4",
"F 	c #4E6FDC",
"G 	c #4461C7",
"H 	c #B9BDEA",
"I 	c #6789E9",
"J 	c #829CEA",
"K 	c #7B97E9",
"L 	c #7492E9",
"M 	c #708FE9",
"N 	c #6D8CE9",
"O 	c #6A8AE9",
"P 	c #6887E9",
"Q 	c #6584E8",
"R 	c #6382E8",
"S 	c #6080E7",
"T 	c #5D7DE7",
"U 	c #5A7BE7",
"V 	c #577AE6",
"W 	c #5476E5",
"X 	c #4F70DD",
"Y 	c #4663C8",
"Z 	c #BABEEA",
"` 	c #BBC7EE",
" .	c #6487E9",
"..	c #7896EA",
"+.	c #7A96EA",
"@.	c #6B8BE9",
"#.	c #6585E8",
"$.	c #6281E9",
"%.	c #5E7FE8",
"&.	c #5B7CE8",
"*.	c #587AE7",
"=.	c #5779E7",
"-.	c #5578E7",
";.	c #5477E7",
">.	c #5377E7",
",.	c #5275E5",
"'.	c #5071DE",
").	c #4965C9",
"!.	c #BABEEB",
"~.	c #BCC7EE",
"{.	c #6285EA",
"].	c #7392EB",
"^.	c #7393EA",
"/.	c #708FEA",
"(.	c #6C8BEA",
"_.	c #6988E9",
":.	c #6584E9",
"<.	c #6282E9",
"[.	c #5F7FE9",
"}.	c #587AE8",
"|.	c #5579E7",
"1.	c #5176E7",
"2.	c #5176E8",
"3.	c #5275E6",
"4.	c #5172DF",
"5.	c #4966CA",
"6.	c #BABFEB",
"7.	c #BCC6EE",
"8.	c #5F83E9",
"9.	c #708FEB",
"0.	c #7190EA",
"a.	c #6E8DEA",
"b.	c #6A89EA",
"c.	c #6786EA",
"d.	c #DFE6FA",
"e.	c #6080E9",
"f.	c #5D7EE8",
"g.	c #5A7CE8",
"h.	c #567AE8",
"i.	c #5378E8",
"j.	c #DCE3FA",
"k.	c #4F75E8",
"l.	c #5076E8",
"m.	c #5176E6",
"n.	c #5072DF",
"o.	c #4966CB",
"p.	c #BBC0EC",
"q.	c #6C8CEA",
"r.	c #6D8DEB",
"s.	c #6988EA",
"t.	c #E0E6FA",
"u.	c #DFE5FA",
"v.	c #5C7DE9",
"w.	c #587BE8",
"x.	c #557AE8",
"y.	c #DCE4FA",
"z.	c #DBE3FA",
"A.	c #4C75E8",
"B.	c #4E75E8",
"C.	c #5076E6",
"D.	c #5073DF",
"E.	c #5A7FE9",
"F.	c #6889EA",
"G.	c #6A8BEA",
"H.	c #6A8AEA",
"I.	c #6888EA",
"J.	c #6585E9",
"K.	c #DEE5FA",
"L.	c #587DE9",
"M.	c #DDE4FA",
"N.	c #DBE4FA",
"O.	c #4D77E9",
"P.	c #4B76E9",
"Q.	c #4C76E8",
"R.	c #4E72E0",
"S.	c #4866CC",
"T.	c #BCC7EF",
"U.	c #577DE9",
"V.	c #6487EA",
"W.	c #6789EA",
"X.	c #6788EA",
"Y.	c #6586E9",
"Z.	c #6284E9",
"`.	c #DDE5FA",
" +	c #DCE5FA",
".+	c #4F7BEA",
"++	c #4D79E9",
"@+	c #4B78EA",
"#+	c #4B77E9",
"$+	c #4C77E8",
"%+	c #4C73E1",
"&+	c #4666CC",
"*+	c #BBC0ED",
"=+	c #BDC8EF",
"-+	c #557DEA",
";+	c #6688EA",
">+	c #6788EB",
",+	c #6687EA",
"'+	c #6587EA",
")+	c #6286EA",
"!+	c #6084EA",
"~+	c #DEE6FA",
"{+	c #537FEA",
"]+	c #4F7DEB",
"^+	c #4C7CEA",
"/+	c #4A7AEA",
"(+	c #4A79EA",
"_+	c #4A77E9",
":+	c #4A73E2",
"<+	c #4566CE",
"[+	c #BCC1EE",
"}+	c #BDC9F0",
"|+	c #527CEB",
"1+	c #5F84EB",
"2+	c #6487EB",
"3+	c #6688EB",
"4+	c #6588EB",
"5+	c #6387EB",
"6+	c #6086EA",
"7+	c #5E85EA",
"8+	c #5783EA",
"9+	c #5381EB",
"0+	c #4F80EB",
"a+	c #4D7EEB",
"b+	c #4A7CEB",
"c+	c #487BEB",
"d+	c #4879E9",
"e+	c #4773E3",
"f+	c #4366CF",
"g+	c #BCC3EE",
"h+	c #BECAF1",
"i+	c #507BEB",
"j+	c #5C83EB",
"k+	c #6186EB",
"l+	c #6488EC",
"m+	c #6589EB",
"n+	c #6489EB",
"o+	c #6388EB",
"p+	c #6187EB",
"q+	c #5E86EB",
"r+	c #5B86EB",
"s+	c #5785EB",
"t+	c #5383EB",
"u+	c #5081EC",
"v+	c #4D80EB",
"w+	c #497FEC",
"x+	c #487DEB",
"y+	c #4679EA",
"z+	c #4573E4",
"A+	c #4266CF",
"B+	c #BCC4EF",
"C+	c #BECBF1",
"D+	c #4D79EB",
"E+	c #5982EC",
"F+	c #5F85EC",
"G+	c #6287EC",
"H+	c #6489EC",
"I+	c #6389ED",
"J+	c #6288EC",
"K+	c #6088EC",
"L+	c #5E88EC",
"M+	c #5B87EC",
"N+	c #5887EC",
"O+	c #5485EC",
"P+	c #5084ED",
"Q+	c #4C82ED",
"R+	c #4980ED",
"S+	c #467DEC",
"T+	c #4479EB",
"U+	c #4372E4",
"V+	c #4066D0",
"W+	c #BDC6F0",
"X+	c #BECCF2",
"Y+	c #4A79EC",
"Z+	c #5580EC",
"`+	c #5B84EC",
" @	c #5F87EC",
".@	c #6188EC",
"+@	c #6188ED",
"@@	c #6088ED",
"#@	c #5E88ED",
"$@	c #5C88ED",
"%@	c #5A88ED",
"&@	c #5788ED",
"*@	c #5387ED",
"=@	c #5086ED",
"-@	c #4C84ED",
";@	c #4881ED",
">@	c #457DED",
",@	c #4279EB",
"'@	c #4072E5",
")@	c #3F66D0",
"!@	c #BEC6F0",
"~@	c #BFCEF2",
"{@	c #4978EC",
"]@	c #517EED",
"^@	c #5783EC",
"/@	c #5B85EC",
"(@	c #5D87ED",
"_@	c #5D86ED",
":@	c #5C87ED",
"<@	c #5B87ED",
"[@	c #5A87ED",
"}@	c #5787ED",
"|@	c #5487EE",
"1@	c #5186EE",
"2@	c #4E85EE",
"3@	c #4B83EE",
"4@	c #4780EE",
"5@	c #447DED",
"6@	c #4178EC",
"7@	c #3F72E5",
"8@	c #BEC7F1",
"9@	c #BFCFF3",
"0@	c #4676EA",
"a@	c #4D7CEA",
"b@	c #5380EB",
"c@	c #5682EB",
"d@	c #5883EB",
"e@	c #5983EB",
"f@	c #5584EC",
"g@	c #5484EC",
"h@	c #5184EC",
"i@	c #4E83EC",
"j@	c #4B82ED",
"k@	c #4880ED",
"l@	c #427AEC",
"m@	c #3F77EB",
"n@	c #3E70E3",
"o@	c #3F66CF",
"p@	c #BEC9F2",
"q@	c #BCCDF2",
"r@	c #537EE3",
"s@	c #4977E2",
"t@	c #4D7AE2",
"u@	c #507CE4",
"v@	c #527DE3",
"w@	c #517CE3",
"x@	c #517DE3",
"y@	c #4F7CE3",
"z@	c #4E7CE3",
"A@	c #4C7CE5",
"B@	c #4A7CE5",
"C@	c #487BE6",
"D@	c #4679E5",
"E@	c #4378E6",
"F@	c #4176E6",
"G@	c #3F72E3",
"H@	c #3F6DDC",
"I@	c #4E71CE",
"J@	c #BECAF2",
"K@	c #A4BCEE",
"L@	c #A8BDEC",
"M@	c #537BD5",
"N@	c #466FCE",
"O@	c #4872D1",
"P@	c #4871D0",
"Q@	c #4971CF",
"R@	c #4871CF",
"S@	c #4971D1",
"T@	c #4770D2",
"U@	c #4570D2",
"V@	c #4470D3",
"W@	c #436FD4",
"X@	c #426DD2",
"Y@	c #406CD2",
"Z@	c #3F6CD4",
"`@	c #3F69D1",
" #	c #4E73CF",
".#	c #A7B7E9",
"+#	c #A2B2EC",
"@#	c #A3BBEE",
"##	c #BFCEF3",
"$#	c #BFCDF3",
"%#	c #BFCDF2",
"&#	c #BFCCF2",
"*#	c #BBC8F1",
"=#	c #A2B4EC",
"  . + @ @ @ # # # # # $ % % & * = - - ;   ",
"> , ' ) ! ~ { ] ^ / / ( ( _ : < [ } | 1 2 ",
"3 4 5 6 7 8 9 0 a b c d e f g h i j k l m ",
"n o p q r s t u v w x y z A B C D E F G H ",
"n I r J K L M N O P Q R S S T U V W X Y Z ",
"`  ...+.L v @.P #.$.%.&.*.=.-.;.>.,.'.).!.",
"~.{.].^./.(._.:.<.[.&.}.|.>.1.2.2.3.4.5.6.",
"7.8.9.0.a.b.c.d.e.f.g.h.i.j.k.k.l.m.n.o.p.",
"7.8.q.r.(.s.t.d.u.v.w.x.y.z.z.A.B.C.D.o.p.",
"~.E.F.G.H.I.J.d.u.K.L.M.y.N.O.P.Q.[ R.S.p.",
"T.U.V.W.F.X.Y.Z.d.K.`.`. +.+++@+#+$+%+&+*+",
"=+-+{.;+>+,+'+)+!+~+~+`.{+]+^+/+(+_+:+<+[+",
"}+|+1+2+3+3+4+5+6+7+~+8+9+0+a+b+c+d+e+f+g+",
"h+i+j+k+l+m+n+o+p+q+r+s+t+u+v+w+x+y+z+A+B+",
"C+D+E+F+G+H+I+J+K+L+M+N+O+P+Q+R+S+T+U+V+W+",
"X+Y+Z+`+ @.@+@@@#@$@%@&@*@=@-@;@>@,@'@)@!@",
"~@{@]@^@/@(@_@:@<@[@}@|@1@2@3@4@5@6@7@)@8@",
"9@0@a@b@c@d@e@^@^@f@g@h@i@j@k@>@l@m@n@o@p@",
"q@r@s@t@u@v@v@w@x@y@z@A@B@C@D@E@F@G@H@I@J@",
"K@L@M@N@O@P@Q@R@S@S@T@U@V@W@X@Y@Z@`@ #.#+#",
"  @#9@9@9@9@9@9@####$#%#%#%#&#&#&#&#*#=#  "};
