/* XPM */
static char * shade_toggled_prelight_xpm[] = {
"21 21 290 2",
"  	c None",
". 	c #B7C6F0",
"+ 	c #F5F7FD",
"@ 	c #FFFFFF",
"# 	c #DCE7FF",
"$ 	c #72A1FF",
"% 	c #6A9CFF",
"& 	c #5F94FF",
"* 	c #558EFF",
"= 	c #518BFF",
"- 	c #4A86FF",
"; 	c #4B87FF",
"> 	c #4684FF",
", 	c #4482FF",
"' 	c #4080FF",
") 	c #3B7CFF",
"! 	c #3A7BFF",
"~ 	c #3678FF",
"{ 	c #2E73FF",
"] 	c #276CF9",
"^ 	c #3A73E7",
"/ 	c #D3DDF3",
"( 	c #73A1FF",
"_ 	c #97B9FF",
": 	c #9CBDFF",
"< 	c #90B5FF",
"[ 	c #82ACFF",
"} 	c #7BA7FF",
"| 	c #75A3FF",
"1 	c #6F9FFF",
"2 	c #6C9DFF",
"3 	c #689BFF",
"4 	c #6599FF",
"5 	c #6095FF",
"6 	c #5D93FF",
"7 	c #568EFF",
"8 	c #4F8AFF",
"9 	c #3878FB",
"0 	c #2969EB",
"a 	c #3566CB",
"b 	c #9EBEFF",
"c 	c #A4C2FF",
"d 	c #99BAFF",
"e 	c #8AB0FF",
"f 	c #82ABFF",
"g 	c #79A6FF",
"h 	c #74A3FF",
"i 	c #71A0FF",
"j 	c #6D9EFF",
"k 	c #699BFF",
"l 	c #5A91FF",
"m 	c #538CFF",
"n 	c #4986FF",
"o 	c #3D7CFC",
"p 	c #2E6CEA",
"q 	c #1B52C2",
"r 	c #6296FF",
"s 	c #91B5FF",
"t 	c #8FB4FF",
"u 	c #7AA6FF",
"v 	c #6B9DFF",
"w 	c #6598FF",
"x 	c #5F95FF",
"y 	c #5B92FF",
"z 	c #548DFF",
"A 	c #528CFF",
"B 	c #4C88FF",
"C 	c #4785FF",
"D 	c #4280FF",
"E 	c #3B7AFB",
"F 	c #316FEC",
"G 	c #1F55C3",
"H 	c #5990FF",
"I 	c #85ADFF",
"J 	c #8BB1FF",
"K 	c #84ACFF",
"L 	c #78A5FF",
"M 	c #70A0FF",
"N 	c #679AFF",
"O 	c #4180FF",
"P 	c #3D7EFF",
"Q 	c #3B7BFF",
"R 	c #397AFF",
"S 	c #3979FC",
"T 	c #3370EC",
"U 	c #2357C3",
"V 	c #81AAFF",
"W 	c #7AA7FF",
"X 	c #6B9CFF",
"Y 	c #6297FF",
"Z 	c #5C93FF",
"` 	c #548EFF",
" .	c #4483FF",
"..	c #3D7FFF",
"+.	c #387BFF",
"@.	c #3679FF",
"#.	c #3579FF",
"$.	c #3879FC",
"%.	c #2358C5",
"&.	c #4E89FF",
"*.	c #71A1FF",
"=.	c #77A5FF",
"-.	c #74A2FF",
";.	c #669AFF",
">.	c #5890FF",
",.	c #508DFF",
"'.	c #4989FF",
").	c #4183FF",
"!.	c #3A7FFF",
"~.	c #317AFF",
"{.	c #337AFF",
"].	c #367BFC",
"^.	c #3372ED",
"/.	c #2359C5",
"(.	c #4D88FF",
"_.	c #699CFF",
":.	c #4D8CFF",
"<.	c #468AFF",
"[.	c #3F86FF",
"}.	c #2F7FFF",
"|.	c #3280FF",
"1.	c #3580FC",
"2.	c #3276ED",
"3.	c #235AC6",
"4.	c #6196FF",
"5.	c #689AFF",
"6.	c #4890FF",
"7.	c #3189FF",
"8.	c #2F88FF",
"9.	c #3188FF",
"0.	c #3385FC",
"a.	c #3079ED",
"b.	c #215CC8",
"c.	c #3F7FFF",
"d.	c #6397FF",
"e.	c #5993FF",
"f.	c #3694FF",
"g.	c #3193FF",
"h.	c #2F92FF",
"i.	c #3090FF",
"j.	c #328CFC",
"k.	c #2E7DEF",
"l.	c #1E5DC9",
"m.	c #5C92FF",
"n.	c #5792FF",
"o.	c #5594FF",
"p.	c #409FFF",
"q.	c #379FFF",
"r.	c #339DFF",
"s.	c #2F9BFF",
"t.	c #2E97FF",
"u.	c #2E91FC",
"v.	c #2A80F0",
"w.	c #1B5DCB",
"x.	c #3275FF",
"y.	c #5991FF",
"z.	c #5596FF",
"A.	c #529CFF",
"B.	c #4AA6FF",
"C.	c #42A9FF",
"D.	c #3AA9FF",
"E.	c #34A7FF",
"F.	c #30A5FF",
"G.	c #2CA0FF",
"H.	c #2A96FD",
"I.	c #2581F1",
"J.	c #185DCC",
"K.	c #2D72FF",
"L.	c #5790FF",
"M.	c #5490FF",
"N.	c #5597FF",
"O.	c #539FFF",
"P.	c #4FA4FF",
"Q.	c #4AAAFF",
"R.	c #44AFFF",
"S.	c #3EB1FF",
"T.	c #37AFFF",
"U.	c #2FABFF",
"V.	c #29A4FF",
"W.	c #2599FD",
"X.	c #1E80F2",
"Y.	c #145BCD",
"Z.	c #276EFF",
"`.	c #3D7DFF",
" +	c #4985FF",
".+	c #528DFF",
"++	c #518FFF",
"@+	c #5196FF",
"#+	c #509FFF",
"$+	c #4EA6FF",
"%+	c #49ACFF",
"&+	c #43B1FF",
"*+	c #3EB4FF",
"=+	c #35B2FF",
"-+	c #2CAEFF",
";+	c #24A5FF",
">+	c #1F97FD",
",+	c #1980F3",
"'+	c #105ACE",
")+	c #216AFF",
"!+	c #3578FF",
"~+	c #4885FF",
"{+	c #4D89FF",
"]+	c #4C8CFF",
"^+	c #4D94FF",
"/+	c #4C9CFF",
"(+	c #4BA3FF",
"_+	c #47AAFF",
":+	c #41AFFF",
"<+	c #3BB2FF",
"[+	c #33B1FF",
"}+	c #2AADFF",
"|+	c #21A3FF",
"1+	c #1A95FD",
"2+	c #137CF2",
"3+	c #0C59CF",
"4+	c #1C66FF",
"5+	c #3879FF",
"6+	c #3F7EFF",
"7+	c #4584FF",
"8+	c #4587FF",
"9+	c #468EFF",
"0+	c #4696FF",
"a+	c #439CFF",
"b+	c #3FA3FF",
"c+	c #3BA8FF",
"d+	c #33AAFF",
"e+	c #2DA9FF",
"f+	c #24A6FF",
"g+	c #1D9EFF",
"h+	c #1690FD",
"i+	c #1078F1",
"j+	c #0B57CE",
"k+	c #1761F9",
"l+	c #246BFA",
"m+	c #2F72FB",
"n+	c #3676FB",
"o+	c #3A7AFB",
"p+	c #3B7BFC",
"q+	c #3B7EFC",
"r+	c #3C84FC",
"s+	c #3B8AFC",
"t+	c #3990FC",
"u+	c #3695FC",
"v+	c #3299FC",
"w+	c #2C9CFD",
"x+	c #259BFD",
"y+	c #1E97FD",
"z+	c #1790FC",
"A+	c #1184FA",
"B+	c #0C6DED",
"C+	c #0850C8",
"D+	c #2F6AE4",
"E+	c #1B5FE9",
"F+	c #2163E8",
"G+	c #2868EB",
"H+	c #2C6AEA",
"I+	c #2E6DEA",
"J+	c #2D6DEB",
"K+	c #2C71EC",
"L+	c #2C76EC",
"M+	c #2A79ED",
"N+	c #287EEF",
"O+	c #2481F1",
"P+	c #2182F1",
"Q+	c #1C80F1",
"R+	c #1880F3",
"S+	c #117AF2",
"T+	c #0C6EED",
"U+	c #0A5DDD",
"V+	c #265DC1",
"W+	c #D1DDF4",
"X+	c #2E61CA",
"Y+	c #134BBF",
"Z+	c #164FC2",
"`+	c #1950C1",
" @	c #1B52C1",
".@	c #1A52C3",
"+@	c #1954C6",
"@@	c #1B58C9",
"#@	c #1858C8",
"$@	c #165BCD",
"%@	c #145CD0",
"&@	c #135CD0",
"*@	c #0F58CC",
"=@	c #0D5AD2",
"-@	c #0B58D1",
";@	c #0951CB",
">@	c #265EC3",
",@	c #D0DAEE",
"  . + @ @ @ @ @ @ @ @ @ @ @ @ @ @ @ + .   ",
". # $ % & * = - ; > > , ' ) ! ~ { ] ^ / . ",
"+ ( _ : < [ } | 1 2 3 4 5 6 7 8 , 9 0 a + ",
"@ 2 b c d e f g h i j k 4 5 l m n o p q @ ",
"@ r s d t [ u $ v w x y z A B C D E F G @ ",
"@ H I J K L M N 5 H = ; , O P Q R S T U @ ",
"@ z } V W $ X Y Z ` B  ...+.@.#.@.$.T %.@ ",
"@ &.*.=.-.j ;.@ >.,.'.).!.@ ~.~.{.].^./.@ ",
"@ (._.1 j 3 @ @ @ :.<.[.@ @ @ }.|.1.2.3.@ ",
"@ , 4.3 5.4 4.@ @ @ 6.@ @ @ 7.8.9.0.a.b.@ ",
"@ c.l 4.d.Y x e.@ @ @ @ @ f.g.h.i.j.k.l.@ ",
"@ R m m.& & Z n.o.@ @ @ p.q.r.s.t.u.v.w.@ ",
"@ x.; * l m.y.n.z.A.@ B.C.D.E.F.G.H.I.J.@ ",
"@ K., 8 z L.L.M.N.O.P.Q.R.S.T.U.V.W.X.Y.@ ",
"@ Z.`. +8 A .+++@+#+$+%+&+*+=+-+;+>+,+'+@ ",
"@ )+!+' ~+B {+]+^+/+(+_+:+<+[+}+|+1+2+3+@ ",
"@ 4+K.5+6+ .7+8+9+0+a+b+c+d+e+f+g+h+i+j+@ ",
"@ k+l+m+n+o+p+q+r+s+t+u+v+w+x+y+z+A+B+C+@ ",
"+ D+E+F+G+H+I+J+K+L+M+N+O+P+Q+R+S+T+U+V++ ",
". W+X+Y+Z+`+ @.@+@@@#@$@%@&@*@=@-@;@>@,@. ",
"  . + @ @ @ @ @ @ @ @ @ @ @ @ @ @ @ + .   "};
