/* XPM */
static char * shade_toggled_pressed_xpm[] = {
"21 21 144 2",
"  	c None",
". 	c #B7C6F0",
"+ 	c #F5F7FD",
"@ 	c #FFFFFF",
"# 	c #CFD3DA",
"$ 	c #1F3B5F",
"% 	c #002453",
"& 	c #002557",
"* 	c #002658",
"= 	c #00285C",
"- 	c #002A61",
"; 	c #002D67",
"> 	c #002F6B",
", 	c #002F6C",
"' 	c #003273",
") 	c #003478",
"! 	c #00357B",
"~ 	c #00377F",
"{ 	c #003780",
"] 	c #003984",
"^ 	c #003882",
"/ 	c #1F5295",
"( 	c #CFDAE9",
"_ 	c #002A62",
": 	c #003070",
"< 	c #003275",
"[ 	c #003883",
"} 	c #003A88",
"| 	c #003D8F",
"1 	c #003E90",
"2 	c #004094",
"3 	c #004299",
"4 	c #00439B",
"5 	c #00449E",
"6 	c #00459F",
"7 	c #0045A1",
"8 	c #0045A0",
"9 	c #1F5AA8",
"0 	c #002452",
"a 	c #003170",
"b 	c #003B8B",
"c 	c #003C8F",
"d 	c #003E94",
"e 	c #004099",
"f 	c #00429D",
"g 	c #0044A2",
"h 	c #0046A5",
"i 	c #0048A8",
"j 	c #0049AB",
"k 	c #004AAC",
"l 	c #004AAD",
"m 	c #004BAE",
"n 	c #004BAF",
"o 	c #004BAD",
"p 	c #003377",
"q 	c #003D92",
"r 	c #003F97",
"s 	c #00419D",
"t 	c #0043A1",
"u 	c #0045A4",
"v 	c #0047A8",
"w 	c #0048AB",
"x 	c #0049AD",
"y 	c #004AAE",
"z 	c #004CB0",
"A 	c #004DB1",
"B 	c #004DB2",
"C 	c #002555",
"D 	c #003D90",
"E 	c #00409C",
"F 	c #0042A1",
"G 	c #0044A5",
"H 	c #0046A8",
"I 	c #0047AA",
"J 	c #0049AC",
"K 	c #00275A",
"L 	c #003781",
"M 	c #003F95",
"N 	c #0045A9",
"O 	c #0046AA",
"P 	c #0047AC",
"Q 	c #004BB0",
"R 	c #004EB3",
"S 	c #00295F",
"T 	c #003985",
"U 	c #00419B",
"V 	c #0043A2",
"W 	c #0044A6",
"X 	c #0048AD",
"Y 	c #0049AE",
"Z 	c #004AAF",
"` 	c #004CB1",
" .	c #004FB3",
"..	c #004FB4",
"+.	c #002B63",
"@.	c #003B8A",
"#.	c #00439F",
"$.	c #0045A5",
"%.	c #0051B6",
"&.	c #0050B5",
"*.	c #002D68",
"=.	c #0045A3",
"-.	c #0047AB",
";.	c #0054B9",
">.	c #0053B8",
",.	c #003F93",
"'.	c #0047A7",
").	c #0056BB",
"!.	c #0057BC",
"~.	c #0055BA",
"{.	c #003172",
"].	c #004095",
"^.	c #0048AA",
"/.	c #0058BD",
"(.	c #0059BE",
"_.	c #005ABF",
":.	c #0052B7",
"<.	c #005CC1",
"[.	c #005DC2",
"}.	c #005EC3",
"|.	c #00449D",
"1.	c #004EB2",
"2.	c #005FC4",
"3.	c #0060C5",
"4.	c #00367E",
"5.	c #0061C6",
"6.	c #0059BD",
"7.	c #0062C6",
"8.	c #005ABE",
"9.	c #0054B8",
"0.	c #003881",
"a.	c #0046A1",
"b.	c #005CC0",
"c.	c #005FC3",
"d.	c #0060C4",
"e.	c #0058BC",
"f.	c #005BC0",
"g.	c #1F5294",
"h.	c #0046A2",
"i.	c #1F66BE",
"j.	c #CFDAE8",
"k.	c #1F5BA9",
"l.	c #1F66BF",
"m.	c #CFDEF1",
"  . + @ @ @ @ @ @ @ @ @ @ @ @ @ @ @ + .   ",
". # $ % & * = - ; > , ' ) ! ~ { ] ^ / ( . ",
"+ $ _ : < ) ~ [ } | 1 2 3 4 5 6 7 8 7 9 + ",
"@ 0 a ^ b c d e f g h i j k l m m n m o @ ",
"@ % p b q r s t u v w x y z A A A B B B @ ",
"@ C ! D r E F G H I j J y n z A A B B B @ ",
"@ K L M s F G N O P x y Q A A A A R B B @ ",
"@ S T U V W O @ X Y Z ` B @  .......R B @ ",
"@ +.@.#.$.H @ @ @ Z ` B @ @ @ %.&.&...R @ ",
"@ *.| =.v -.X @ @ @ R @ @ @ ;.;.>.>.%...@ ",
"@ , ,.'.w J Y n @ @ @ @ @ ).!.!.).~.>.&.@ ",
"@ {.].^.J x y z B @ @ @ /.(._._.(./.~.%.@ ",
"@ p 3 J y y Q A ..:.@ !._.<.[.}.<._.).%.@ ",
"@ ! |.o z Q A 1.&.>.).(.<.}.2.3.}.<./.:.@ ",
"@ 4.5 m A A A  .%.;.!._.[.2.3.5.2.[.6.>.@ ",
"@ L 8 m A A 1...%.;.!._.[.2.5.7.3.}.8.9.@ ",
"@ 0.a.m A A 1.R &.>.).(.b.}.c.3.d.[.(.>.@ ",
"@ [ 7 n B B R R &.>.~.e._.<.[.}.[.f.!.%.@ ",
"+ g.h.n B B B B ..%.>.~.!./.(._.(.!.;.i.+ ",
". j.k.o B B B B R ..&.%.:.:.>.;.>.:.l.m.. ",
"  . + @ @ @ @ @ @ @ @ @ @ @ @ @ @ @ + .   "};
