/* XPM */
static char * shade_toggled_active_xpm[] = {
"21 21 308 2",
"  	c None",
". 	c #B7C6F0",
"+ 	c #F5F7FD",
"@ 	c #FFFFFF",
"# 	c #DCE5FD",
"$ 	c #739AF8",
"% 	c #608CF7",
"& 	c #5584F6",
"* 	c #4D7EF6",
"= 	c #487AF5",
"- 	c #4276F5",
"; 	c #4478F5",
"> 	c #3E73F5",
", 	c #3B71F5",
"' 	c #336CF4",
") 	c #306AF4",
"! 	c #2864F4",
"~ 	c #1F5DEF",
"{ 	c #3467E0",
"] 	c #D2DBF2",
"^ 	c #769CF8",
"/ 	c #90AFF9",
"( 	c #94B2F9",
"_ 	c #85A7F8",
": 	c #759CF8",
"< 	c #6E97F8",
"[ 	c #6892F7",
"} 	c #6690F7",
"| 	c #628EF7",
"1 	c #5F8CF7",
"2 	c #5E8BF7",
"3 	c #5988F6",
"4 	c #5685F6",
"5 	c #5082F6",
"6 	c #497CF5",
"7 	c #3F75F5",
"8 	c #326BF2",
"9 	c #235CE3",
"0 	c #305CC5",
"a 	c #6590F7",
"b 	c #97B4F9",
"c 	c #9AB7FA",
"d 	c #89AAF9",
"e 	c #7AA0F8",
"f 	c #729AF8",
"g 	c #6D95F8",
"h 	c #6892F8",
"i 	c #658FF7",
"j 	c #618DF7",
"k 	c #5D8AF7",
"l 	c #5987F6",
"m 	c #5283F6",
"n 	c #4C7EF6",
"o 	c #4377F5",
"p 	c #376EF2",
"q 	c #285FE3",
"r 	c #1546B9",
"s 	c #5886F6",
"t 	c #8DADF9",
"u 	c #7FA3F8",
"v 	c #7199F8",
"w 	c #6A93F8",
"x 	c #648EF7",
"y 	c #5E8AF7",
"z 	c #5986F7",
"A 	c #5482F6",
"B 	c #5180F6",
"C 	c #4B7CF5",
"D 	c #4A7CF5",
"E 	c #3A72F4",
"F 	c #346CF2",
"G 	c #2A61E3",
"H 	c #1848BB",
"I 	c #5282F6",
"J 	c #799FF8",
"K 	c #7CA1F8",
"L 	c #6791F8",
"M 	c #608BF7",
"N 	c #5985F7",
"O 	c #5381F6",
"P 	c #4D7BF6",
"Q 	c #4677F5",
"R 	c #4173F5",
"S 	c #3A6FF4",
"T 	c #386EF4",
"U 	c #346CF4",
"V 	c #326CF4",
"W 	c #316BF4",
"X 	c #3069F1",
"Y 	c #2C62E4",
"Z 	c #1D4CBC",
"` 	c #7099F8",
" .	c #628CF8",
"..	c #5B86F7",
"+.	c #5480F7",
"@.	c #4777F6",
"#.	c #4072F5",
"$.	c #3A6FF5",
"%.	c #346DF4",
"&.	c #306BF4",
"*.	c #2D69F4",
"=.	c #2C69F5",
"-.	c #2D69F5",
";.	c #2E69F2",
">.	c #2C63E5",
",.	c #4679F5",
"'.	c #658FF8",
").	c #5E89F7",
"!.	c #5783F7",
"~.	c #4A79F6",
"{.	c #4375F5",
"].	c #3D71F5",
"^.	c #366EF4",
"/.	c #2F6BF5",
"(.	c #2867F5",
"_.	c #2766F5",
":.	c #2A68F5",
"<.	c #2C69F2",
"[.	c #2A62E4",
"}.	c #1C4CBD",
"|.	c #628DF8",
"1.	c #5B87F7",
"2.	c #4174F5",
"3.	c #3A71F5",
"4.	c #346EF4",
"5.	c #2266F5",
"6.	c #2567F5",
"7.	c #2968F2",
"8.	c #2963E4",
"9.	c #1B4BBD",
"0.	c #3C72F4",
"a.	c #5D89F7",
"b.	c #3A74F5",
"c.	c #236AF6",
"d.	c #2069F6",
"e.	c #2268F5",
"f.	c #2569F2",
"g.	c #2562E6",
"h.	c #194BBE",
"i.	c #376EF4",
"j.	c #5181F6",
"k.	c #5785F7",
"l.	c #5281F6",
"m.	c #266FF6",
"n.	c #226DF6",
"o.	c #1E6BF6",
"p.	c #1F6AF6",
"q.	c #216AF3",
"r.	c #2162E6",
"s.	c #1649BE",
"t.	c #326BF4",
"u.	c #4B7DF5",
"v.	c #5483F6",
"w.	c #5684F7",
"x.	c #5583F7",
"y.	c #4D80F6",
"z.	c #487DF6",
"A.	c #2D76F6",
"B.	c #2673F7",
"C.	c #2171F7",
"D.	c #1C6FF6",
"E.	c #1C6DF6",
"F.	c #1C6AF4",
"G.	c #1C61E6",
"H.	c #1248BF",
"I.	c #2B66F4",
"J.	c #4E7FF6",
"K.	c #5383F6",
"L.	c #5182F6",
"M.	c #4D81F7",
"N.	c #487FF6",
"O.	c #437FF6",
"P.	c #357CF6",
"Q.	c #2D7AF7",
"R.	c #2677F7",
"S.	c #2174F7",
"T.	c #1B71F7",
"U.	c #186EF7",
"V.	c #186AF4",
"W.	c #165FE7",
"X.	c #0F47C0",
"Y.	c #2562F3",
"Z.	c #3D73F4",
"`.	c #487BF5",
" +	c #4E80F6",
".+	c #5081F6",
"++	c #4E81F6",
"@+	c #4B80F6",
"#+	c #477FF6",
"$+	c #427FF6",
"%+	c #3C7FF6",
"&+	c #367FF7",
"*+	c #2D7CF7",
"=+	c #2679F8",
"-+	c #2077F7",
";+	c #1973F7",
">+	c #166FF7",
",+	c #1369F4",
"'+	c #105DE8",
")+	c #0A44BF",
"!+	c #1E5DF3",
"~+	c #497BF5",
"{+	c #4A7EF7",
"]+	c #487EF6",
"^+	c #457FF6",
"/+	c #4180F6",
"(+	c #3B7FF6",
"_+	c #357FF7",
":+	c #2D7DF7",
"<+	c #257AF8",
"[+	c #1E77F8",
"}+	c #1773F8",
"|+	c #116DF7",
"1+	c #0D66F4",
"2+	c #0B59E7",
"3+	c #0641C0",
"4+	c #1859F3",
"5+	c #2E68F4",
"6+	c #3A71F4",
"7+	c #4277F5",
"8+	c #467AF5",
"9+	c #457AF6",
"0+	c #437BF6",
"a+	c #417CF6",
"b+	c #3D7DF6",
"c+	c #387DF6",
"d+	c #327DF7",
"e+	c #2A7CF8",
"f+	c #247AF8",
"g+	c #1D77F8",
"h+	c #1573F8",
"i+	c #0E6CF8",
"j+	c #0963F4",
"k+	c #0556E7",
"l+	c #023FBF",
"m+	c #1456F3",
"n+	c #2562F4",
"o+	c #3971F4",
"p+	c #3D74F5",
"q+	c #3D74F6",
"r+	c #3B75F5",
"s+	c #3976F5",
"t+	c #3777F5",
"u+	c #3278F6",
"v+	c #2C78F7",
"w+	c #2577F7",
"x+	c #1F76F7",
"y+	c #1972F7",
"z+	c #116EF8",
"A+	c #0B68F7",
"B+	c #0560F4",
"C+	c #0253E6",
"D+	c #013DBE",
"E+	c #0E50ED",
"F+	c #1C5BEF",
"G+	c #2863F0",
"H+	c #2F68F0",
"I+	c #336BF1",
"J+	c #346CF1",
"K+	c #316CF2",
"L+	c #316DF2",
"M+	c #2E6FF2",
"N+	c #2A70F2",
"O+	c #2570F3",
"P+	c #1F6FF3",
"Q+	c #196DF4",
"R+	c #136AF4",
"S+	c #0760F3",
"T+	c #025AF0",
"U+	c #004DE2",
"V+	c #003AB9",
"W+	c #285EDF",
"X+	c #134FDF",
"Y+	c #1B55DF",
"Z+	c #215AE2",
"`+	c #255CE1",
" @	c #265DE0",
".@	c #245CE1",
"+@	c #235EE2",
"@@	c #215EE2",
"#@	c #1E5EE2",
"$@	c #1B5FE5",
"%@	c #165EE5",
"&@	c #135DE6",
"*@	c #0E5BE5",
"=@	c #0958E6",
"-@	c #0454E6",
";@	c #014EE2",
">@	c #0045D3",
",@	c #1F4EB8",
"'@	c #D0DAF1",
")@	c #2856C3",
"!@	c #0D3FB6",
"~@	c #1144BD",
"{@	c #1245BB",
"]@	c #1445B9",
"^@	c #1244B9",
"/@	c #1345BC",
"(@	c #1346BD",
"_@	c #1045BE",
":@	c #0D45C0",
"<@	c #0A45C1",
"[@	c #0844C3",
"}@	c #033FC0",
"|@	c #013FC3",
"1@	c #003BBE",
"2@	c #1F4EB9",
"3@	c #CFD8ED",
"  . + @ @ @ @ @ @ @ @ @ @ @ @ @ @ @ @ .   ",
". # $ % & * = - ; > > , , ' ' ) ! ~ { ] . ",
"@ ^ / ( _ : < [ } | 1 2 3 4 5 6 7 8 9 0 + ",
"@ a b c d e f g h i | j k l m n o p q r @ ",
"@ s d t u v w x y z A B C D ; 7 E F G H @ ",
"@ I J K v L M N O P Q R S T U V W X Y Z @ ",
"@ * < ` w  ...+.P @.#.$.%.&.*.=.-.;.>.Z @ ",
"@ ,.h w '.).!.@ ~.{.].^./.@ (._.:.<.[.}.@ ",
"@ ,.% |.M 1.@ @ @ 2.3.4.@ @ @ 5.6.7.8.9.@ ",
"@ 0.l k a.z O @ @ @ b.@ @ @ c.d.e.f.g.h.@ ",
"@ i.j.k.z k.l.* @ @ @ @ @ m.n.o.p.q.r.s.@ ",
"@ t.u.v.w.x.I y.z.@ @ @ A.B.C.D.E.F.G.H.@ ",
"@ I.; J.I K.L.M.N.O.@ P.Q.R.S.T.U.V.W.X.@ ",
"@ Y.Z.`. +.+++@+#+$+%+&+*+=+-+;+>+,+'+)+@ ",
"@ !+^.- ~+n {+]+^+/+(+_+:+<+[+}+|+1+2+3+@ ",
"@ 4+5+6+7+8+9+0+a+b+c+d+e+f+g+h+i+j+k+l+@ ",
"@ m+n+W o+p+q+r+s+t+u+v+w+x+y+z+A+B+C+D+@ ",
"@ E+F+G+H+I+J+K+L+M+N+O+P+Q+R+1+S+T+U+V+@ ",
"+ W+X+Y+Z+`+ @.@+@@@#@$@%@&@*@=@-@;@>@,@@ ",
". '@)@!@~@{@]@^@/@(@_@:@<@[@3+}@|@1@2@3@. ",
"  . @ @ @ @ @ @ @ @ @ @ @ @ @ @ @ @ + .   "};
