/* XPM */
static char * shade_prelight_xpm[] = {
"21 21 289 2",
"  	c None",
". 	c #B7C6F0",
"+ 	c #F5F7FD",
"@ 	c #FFFFFF",
"# 	c #DCE7FF",
"$ 	c #72A1FF",
"% 	c #6A9CFF",
"& 	c #5F94FF",
"* 	c #558EFF",
"= 	c #518BFF",
"- 	c #4A86FF",
"; 	c #4B87FF",
"> 	c #4684FF",
", 	c #4482FF",
"' 	c #4080FF",
") 	c #3B7CFF",
"! 	c #3A7BFF",
"~ 	c #3678FF",
"{ 	c #2E73FF",
"] 	c #276CF9",
"^ 	c #3A73E7",
"/ 	c #D3DDF3",
"( 	c #73A1FF",
"_ 	c #97B9FF",
": 	c #9CBDFF",
"< 	c #90B5FF",
"[ 	c #82ACFF",
"} 	c #7BA7FF",
"| 	c #75A3FF",
"1 	c #6F9FFF",
"2 	c #6C9DFF",
"3 	c #689BFF",
"4 	c #6599FF",
"5 	c #6095FF",
"6 	c #5D93FF",
"7 	c #568EFF",
"8 	c #4F8AFF",
"9 	c #3878FB",
"0 	c #2969EB",
"a 	c #3566CB",
"b 	c #9EBEFF",
"c 	c #A4C2FF",
"d 	c #99BAFF",
"e 	c #8AB0FF",
"f 	c #82ABFF",
"g 	c #79A6FF",
"h 	c #74A3FF",
"i 	c #71A0FF",
"j 	c #6D9EFF",
"k 	c #699BFF",
"l 	c #5A91FF",
"m 	c #538CFF",
"n 	c #4986FF",
"o 	c #3D7CFC",
"p 	c #2E6CEA",
"q 	c #1B52C2",
"r 	c #6296FF",
"s 	c #91B5FF",
"t 	c #8FB4FF",
"u 	c #7AA6FF",
"v 	c #6B9DFF",
"w 	c #6598FF",
"x 	c #5F95FF",
"y 	c #5B92FF",
"z 	c #548DFF",
"A 	c #528CFF",
"B 	c #4C88FF",
"C 	c #4785FF",
"D 	c #4280FF",
"E 	c #3B7AFB",
"F 	c #316FEC",
"G 	c #1F55C3",
"H 	c #5990FF",
"I 	c #85ADFF",
"J 	c #8BB1FF",
"K 	c #84ACFF",
"L 	c #78A5FF",
"M 	c #70A0FF",
"N 	c #679AFF",
"O 	c #4180FF",
"P 	c #3D7EFF",
"Q 	c #3B7BFF",
"R 	c #397AFF",
"S 	c #3979FC",
"T 	c #3370EC",
"U 	c #2357C3",
"V 	c #81AAFF",
"W 	c #7AA7FF",
"X 	c #6B9CFF",
"Y 	c #6297FF",
"Z 	c #5C93FF",
"` 	c #548EFF",
" .	c #4483FF",
"..	c #3D7FFF",
"+.	c #387BFF",
"@.	c #3679FF",
"#.	c #3579FF",
"$.	c #3879FC",
"%.	c #2358C5",
"&.	c #4E89FF",
"*.	c #71A1FF",
"=.	c #77A5FF",
"-.	c #74A2FF",
";.	c #669AFF",
">.	c #5890FF",
",.	c #508DFF",
"'.	c #4183FF",
").	c #3A7FFF",
"!.	c #357BFF",
"~.	c #317AFF",
"{.	c #337AFF",
"].	c #367BFC",
"^.	c #3372ED",
"/.	c #2359C5",
"(.	c #4D88FF",
"_.	c #699CFF",
":.	c #6398FF",
"<.	c #548FFF",
"[.	c #3983FF",
"}.	c #3380FF",
"|.	c #2F7FFF",
"1.	c #3280FF",
"2.	c #3580FC",
"3.	c #3276ED",
"4.	c #235AC6",
"5.	c #6196FF",
"6.	c #689AFF",
"7.	c #5B93FF",
"8.	c #348AFF",
"9.	c #3189FF",
"0.	c #2F88FF",
"a.	c #3188FF",
"b.	c #3385FC",
"c.	c #3079ED",
"d.	c #215CC8",
"e.	c #3F7FFF",
"f.	c #6397FF",
"g.	c #4A95FF",
"h.	c #3193FF",
"i.	c #2F92FF",
"j.	c #3090FF",
"k.	c #328CFC",
"l.	c #2E7DEF",
"m.	c #1E5DC9",
"n.	c #5C92FF",
"o.	c #5298FF",
"p.	c #4D9CFF",
"q.	c #479EFF",
"r.	c #2F9BFF",
"s.	c #2E97FF",
"t.	c #2E91FC",
"u.	c #2A80F0",
"v.	c #1B5DCB",
"w.	c #3275FF",
"x.	c #5991FF",
"y.	c #5596FF",
"z.	c #529CFF",
"A.	c #4FA1FF",
"B.	c #4AA6FF",
"C.	c #42A9FF",
"D.	c #34A7FF",
"E.	c #30A5FF",
"F.	c #2CA0FF",
"G.	c #2A96FD",
"H.	c #2581F1",
"I.	c #185DCC",
"J.	c #2D72FF",
"K.	c #5790FF",
"L.	c #5490FF",
"M.	c #5597FF",
"N.	c #539FFF",
"O.	c #4FA4FF",
"P.	c #4AAAFF",
"Q.	c #44AFFF",
"R.	c #3EB1FF",
"S.	c #37AFFF",
"T.	c #2FABFF",
"U.	c #29A4FF",
"V.	c #2599FD",
"W.	c #1E80F2",
"X.	c #145BCD",
"Y.	c #276EFF",
"Z.	c #3D7DFF",
"`.	c #4985FF",
" +	c #528DFF",
".+	c #518FFF",
"++	c #5196FF",
"@+	c #509FFF",
"#+	c #4EA6FF",
"$+	c #49ACFF",
"%+	c #43B1FF",
"&+	c #3EB4FF",
"*+	c #35B2FF",
"=+	c #2CAEFF",
"-+	c #24A5FF",
";+	c #1F97FD",
">+	c #1980F3",
",+	c #105ACE",
"'+	c #216AFF",
")+	c #3578FF",
"!+	c #4885FF",
"~+	c #4D89FF",
"{+	c #4C8CFF",
"]+	c #4D94FF",
"^+	c #4C9CFF",
"/+	c #4BA3FF",
"(+	c #47AAFF",
"_+	c #41AFFF",
":+	c #3BB2FF",
"<+	c #33B1FF",
"[+	c #2AADFF",
"}+	c #21A3FF",
"|+	c #1A95FD",
"1+	c #137CF2",
"2+	c #0C59CF",
"3+	c #1C66FF",
"4+	c #3879FF",
"5+	c #3F7EFF",
"6+	c #4584FF",
"7+	c #4587FF",
"8+	c #468EFF",
"9+	c #4696FF",
"0+	c #439CFF",
"a+	c #3FA3FF",
"b+	c #3BA8FF",
"c+	c #33AAFF",
"d+	c #2DA9FF",
"e+	c #24A6FF",
"f+	c #1D9EFF",
"g+	c #1690FD",
"h+	c #1078F1",
"i+	c #0B57CE",
"j+	c #1761F9",
"k+	c #246BFA",
"l+	c #2F72FB",
"m+	c #3676FB",
"n+	c #3A7AFB",
"o+	c #3B7BFC",
"p+	c #3B7EFC",
"q+	c #3C84FC",
"r+	c #3B8AFC",
"s+	c #3990FC",
"t+	c #3695FC",
"u+	c #3299FC",
"v+	c #2C9CFD",
"w+	c #259BFD",
"x+	c #1E97FD",
"y+	c #1790FC",
"z+	c #1184FA",
"A+	c #0C6DED",
"B+	c #0850C8",
"C+	c #2F6AE4",
"D+	c #1B5FE9",
"E+	c #2163E8",
"F+	c #2868EB",
"G+	c #2C6AEA",
"H+	c #2E6DEA",
"I+	c #2D6DEB",
"J+	c #2C71EC",
"K+	c #2C76EC",
"L+	c #2A79ED",
"M+	c #287EEF",
"N+	c #2481F1",
"O+	c #2182F1",
"P+	c #1C80F1",
"Q+	c #1880F3",
"R+	c #117AF2",
"S+	c #0C6EED",
"T+	c #0A5DDD",
"U+	c #265DC1",
"V+	c #D1DDF4",
"W+	c #2E61CA",
"X+	c #134BBF",
"Y+	c #164FC2",
"Z+	c #1950C1",
"`+	c #1B52C1",
" @	c #1A52C3",
".@	c #1954C6",
"+@	c #1B58C9",
"@@	c #1858C8",
"#@	c #165BCD",
"$@	c #145CD0",
"%@	c #135CD0",
"&@	c #0F58CC",
"*@	c #0D5AD2",
"=@	c #0B58D1",
"-@	c #0951CB",
";@	c #265EC3",
">@	c #D0DAEE",
"  . + @ @ @ @ @ @ @ @ @ @ @ @ @ @ @ + .   ",
". # $ % & * = - ; > > , ' ) ! ~ { ] ^ / . ",
"+ ( _ : < [ } | 1 2 3 4 5 6 7 8 , 9 0 a + ",
"@ 2 b c d e f g h i j k 4 5 l m n o p q @ ",
"@ r s d t [ u $ v w x y z A B C D E F G @ ",
"@ H I J K L M N 5 H = ; , O P Q R S T U @ ",
"@ z } V W $ X Y Z ` B  ...+.@.#.@.$.T %.@ ",
"@ &.*.=.-.j ;.x >.,.@ '.).!.~.~.{.].^./.@ ",
"@ (._.1 j 3 :.Z <.@ @ @ [.}.|.|.1.2.3.4.@ ",
"@ , 5.3 6.4 5.7.@ @ @ @ @ 8.9.0.a.b.c.d.@ ",
"@ e.l 5.f.Y x @ @ @ g.@ @ @ h.i.j.k.l.m.@ ",
"@ R m n.& & @ @ @ o.p.q.@ @ @ r.s.t.u.v.@ ",
"@ w.; * l n.x.@ y.z.A.B.C.@ D.E.F.G.H.I.@ ",
"@ J., 8 z K.K.L.M.N.O.P.Q.R.S.T.U.V.W.X.@ ",
"@ Y.Z.`.8 A  +.+++@+#+$+%+&+*+=+-+;+>+,+@ ",
"@ '+)+' !+B ~+{+]+^+/+(+_+:+<+[+}+|+1+2+@ ",
"@ 3+J.4+5+ .6+7+8+9+0+a+b+c+d+e+f+g+h+i+@ ",
"@ j+k+l+m+n+o+p+q+r+s+t+u+v+w+x+y+z+A+B+@ ",
"+ C+D+E+F+G+H+I+J+K+L+M+N+O+P+Q+R+S+T+U++ ",
". V+W+X+Y+Z+`+ @.@+@@@#@$@%@&@*@=@-@;@>@. ",
"  . + @ @ @ @ @ @ @ @ @ @ @ @ @ @ @ + .   "};
