/* XPM */
static char * shade_inactive_xpm[] = {
"21 21 376 2",
"  	c None",
". 	c #A0B7E9",
"+ 	c #B9C9EF",
"@ 	c #BDCCF0",
"# 	c #BDCBEF",
"$ 	c #BDCAEF",
"% 	c #BDCAEE",
"& 	c #BCC9EE",
"* 	c #BCC8EE",
"= 	c #BCC8ED",
"- 	c #BCC7ED",
"; 	c #9EAEE4",
"> 	c #9EB4E7",
", 	c #AABDED",
"' 	c #7597EB",
") 	c #6C8FEA",
"! 	c #668BE9",
"~ 	c #6287E9",
"{ 	c #6085E8",
"] 	c #5D82E8",
"^ 	c #5D83E8",
"/ 	c #5A80E8",
"( 	c #597FE8",
"_ 	c #557CE7",
": 	c #547BE7",
"< 	c #537AE7",
"[ 	c #4E76E6",
"} 	c #4A71E3",
"| 	c #5475DC",
"1 	c #A4B0E4",
"2 	c #9BA7E2",
"3 	c #BBC8EE",
"4 	c #7696EA",
"5 	c #849FEA",
"6 	c #86A1EA",
"7 	c #7E9BE9",
"8 	c #7695E9",
"9 	c #7292E9",
"0 	c #6F8FE9",
"a 	c #6E8DE8",
"b 	c #6C8CE8",
"c 	c #6A8BE8",
"d 	c #6A8AE8",
"e 	c #6788E8",
"f 	c #6686E8",
"g 	c #6384E7",
"h 	c #5F81E6",
"i 	c #5A7CE6",
"j 	c #5376E4",
"k 	c #4B6EDC",
"l 	c #526DCD",
"m 	c #B5BBE9",
"n 	c #BBC7ED",
"o 	c #6E8FE9",
"p 	c #87A1EA",
"q 	c #88A2EA",
"r 	c #809BEA",
"s 	c #7996E9",
"t 	c #7493E9",
"u 	c #7290E9",
"v 	c #6F8EE9",
"w 	c #6D8CE8",
"x 	c #6C8BE8",
"y 	c #6B8AE8",
"z 	c #6988E8",
"A 	c #6786E8",
"B 	c #6483E7",
"C 	c #6180E7",
"D 	c #5C7DE6",
"E 	c #5677E4",
"F 	c #4E6FDC",
"G 	c #4461C7",
"H 	c #B9BDEA",
"I 	c #6789E9",
"J 	c #829CEA",
"K 	c #7B97E9",
"L 	c #7492E9",
"M 	c #708FE9",
"N 	c #6D8CE9",
"O 	c #6A8AE9",
"P 	c #6887E9",
"Q 	c #6584E8",
"R 	c #6382E8",
"S 	c #6080E7",
"T 	c #5D7DE7",
"U 	c #5A7BE7",
"V 	c #577AE6",
"W 	c #5476E5",
"X 	c #4F70DD",
"Y 	c #4663C8",
"Z 	c #BABEEA",
"` 	c #BBC7EE",
" .	c #6487E9",
"..	c #7896EA",
"+.	c #7A96EA",
"@.	c #6B8BE9",
"#.	c #6585E8",
"$.	c #6281E9",
"%.	c #5E7FE8",
"&.	c #5B7CE8",
"*.	c #587AE7",
"=.	c #5779E7",
"-.	c #5578E7",
";.	c #5477E7",
">.	c #5377E7",
",.	c #5275E5",
"'.	c #5071DE",
").	c #4965C9",
"!.	c #BABEEB",
"~.	c #BCC7EE",
"{.	c #6285EA",
"].	c #7392EB",
"^.	c #7393EA",
"/.	c #708FEA",
"(.	c #6C8BEA",
"_.	c #6988E9",
":.	c #6584E9",
"<.	c #6282E9",
"[.	c #5F7FE9",
"}.	c #587AE8",
"|.	c #5579E7",
"1.	c #5176E7",
"2.	c #5176E8",
"3.	c #5275E6",
"4.	c #5172DF",
"5.	c #4966CA",
"6.	c #BABFEB",
"7.	c #BCC6EE",
"8.	c #5F83E9",
"9.	c #708FEB",
"0.	c #7190EA",
"a.	c #6E8DEA",
"b.	c #6A89EA",
"c.	c #6786EA",
"d.	c #6383E9",
"e.	c #6080E9",
"f.	c #5D7EE8",
"g.	c #DEE4FA",
"h.	c #567AE8",
"i.	c #5378E8",
"j.	c #4F75E8",
"k.	c #5076E8",
"l.	c #5176E6",
"m.	c #5072DF",
"n.	c #4966CB",
"o.	c #BBC0EC",
"p.	c #6C8CEA",
"q.	c #6D8DEB",
"r.	c #6988EA",
"s.	c #6686EA",
"t.	c #5F80E9",
"u.	c #DEE5FA",
"v.	c #DDE4FA",
"w.	c #5278E8",
"x.	c #4F76E8",
"y.	c #4D75E8",
"z.	c #4C75E8",
"A.	c #4E75E8",
"B.	c #5076E6",
"C.	c #5073DF",
"D.	c #5A7FE9",
"E.	c #6889EA",
"F.	c #6A8BEA",
"G.	c #6A8AEA",
"H.	c #6888EA",
"I.	c #6585E9",
"J.	c #6283E9",
"K.	c #DFE5FA",
"L.	c #DDE5FA",
"M.	c #DCE4FA",
"N.	c #4F78E9",
"O.	c #4D77E9",
"P.	c #4B76E9",
"Q.	c #4C76E8",
"R.	c #4E72E0",
"S.	c #4866CC",
"T.	c #BCC7EF",
"U.	c #577DE9",
"V.	c #6487EA",
"W.	c #6789EA",
"X.	c #6788EA",
"Y.	c #6586E9",
"Z.	c #DFE6FA",
"`.	c #5980E9",
" +	c #DCE5FA",
".+	c #DBE4FA",
"++	c #4D79E9",
"@+	c #4B78EA",
"#+	c #4B77E9",
"$+	c #4C77E8",
"%+	c #4C73E1",
"&+	c #4666CC",
"*+	c #BBC0ED",
"=+	c #BDC8EF",
"-+	c #557DEA",
";+	c #6688EA",
">+	c #6788EB",
",+	c #6687EA",
"'+	c #E0E7FA",
")+	c #5D83EA",
"!+	c #5A82EA",
"~+	c #5680EA",
"{+	c #DBE5FB",
"]+	c #4A7AEA",
"^+	c #4A79EA",
"/+	c #4A77E9",
"(+	c #4A73E2",
"_+	c #4566CE",
":+	c #BCC1EE",
"<+	c #BDC9F0",
"[+	c #527CEB",
"}+	c #5F84EB",
"|+	c #6487EB",
"1+	c #6688EB",
"2+	c #6588EB",
"3+	c #DFE7FB",
"4+	c #6086EA",
"5+	c #5E85EA",
"6+	c #5B84EA",
"7+	c #5783EA",
"8+	c #5381EB",
"9+	c #4D7EEB",
"0+	c #4A7CEB",
"a+	c #487BEB",
"b+	c #4879E9",
"c+	c #4773E3",
"d+	c #4366CF",
"e+	c #BCC3EE",
"f+	c #BECAF1",
"g+	c #507BEB",
"h+	c #5C83EB",
"i+	c #6186EB",
"j+	c #6488EC",
"k+	c #6589EB",
"l+	c #6489EB",
"m+	c #6388EB",
"n+	c #6187EB",
"o+	c #5E86EB",
"p+	c #5B86EB",
"q+	c #5785EB",
"r+	c #5383EB",
"s+	c #5081EC",
"t+	c #4D80EB",
"u+	c #497FEC",
"v+	c #487DEB",
"w+	c #4679EA",
"x+	c #4573E4",
"y+	c #4266CF",
"z+	c #BCC4EF",
"A+	c #BECBF1",
"B+	c #4D79EB",
"C+	c #5982EC",
"D+	c #5F85EC",
"E+	c #6287EC",
"F+	c #6489EC",
"G+	c #6389ED",
"H+	c #6288EC",
"I+	c #6088EC",
"J+	c #5E88EC",
"K+	c #5B87EC",
"L+	c #5887EC",
"M+	c #5485EC",
"N+	c #5084ED",
"O+	c #4C82ED",
"P+	c #4980ED",
"Q+	c #467DEC",
"R+	c #4479EB",
"S+	c #4372E4",
"T+	c #4066D0",
"U+	c #BDC6F0",
"V+	c #BECCF2",
"W+	c #4A79EC",
"X+	c #5580EC",
"Y+	c #5B84EC",
"Z+	c #5F87EC",
"`+	c #6188EC",
" @	c #6188ED",
".@	c #6088ED",
"+@	c #5E88ED",
"@@	c #5C88ED",
"#@	c #5A88ED",
"$@	c #5788ED",
"%@	c #5387ED",
"&@	c #5086ED",
"*@	c #4C84ED",
"=@	c #4881ED",
"-@	c #457DED",
";@	c #4279EB",
">@	c #4072E5",
",@	c #3F66D0",
"'@	c #BEC6F0",
")@	c #BFCEF2",
"!@	c #4978EC",
"~@	c #517EED",
"{@	c #5783EC",
"]@	c #5B85EC",
"^@	c #5D87ED",
"/@	c #5D86ED",
"(@	c #5C87ED",
"_@	c #5B87ED",
":@	c #5A87ED",
"<@	c #5787ED",
"[@	c #5487EE",
"}@	c #5186EE",
"|@	c #4E85EE",
"1@	c #4B83EE",
"2@	c #4780EE",
"3@	c #447DED",
"4@	c #4178EC",
"5@	c #3F72E5",
"6@	c #BEC7F1",
"7@	c #BFCFF3",
"8@	c #4676EA",
"9@	c #4D7CEA",
"0@	c #5380EB",
"a@	c #5682EB",
"b@	c #5883EB",
"c@	c #5983EB",
"d@	c #5584EC",
"e@	c #5484EC",
"f@	c #5184EC",
"g@	c #4E83EC",
"h@	c #4B82ED",
"i@	c #4880ED",
"j@	c #427AEC",
"k@	c #3F77EB",
"l@	c #3E70E3",
"m@	c #3F66CF",
"n@	c #BEC9F2",
"o@	c #BCCDF2",
"p@	c #537EE3",
"q@	c #4977E2",
"r@	c #4D7AE2",
"s@	c #507CE4",
"t@	c #527DE3",
"u@	c #517CE3",
"v@	c #517DE3",
"w@	c #4F7CE3",
"x@	c #4E7CE3",
"y@	c #4C7CE5",
"z@	c #4A7CE5",
"A@	c #487BE6",
"B@	c #4679E5",
"C@	c #4378E6",
"D@	c #4176E6",
"E@	c #3F72E3",
"F@	c #3F6DDC",
"G@	c #4E71CE",
"H@	c #BECAF2",
"I@	c #A4BCEE",
"J@	c #A8BDEC",
"K@	c #537BD5",
"L@	c #466FCE",
"M@	c #4872D1",
"N@	c #4871D0",
"O@	c #4971CF",
"P@	c #4871CF",
"Q@	c #4971D1",
"R@	c #4770D2",
"S@	c #4570D2",
"T@	c #4470D3",
"U@	c #436FD4",
"V@	c #426DD2",
"W@	c #406CD2",
"X@	c #3F6CD4",
"Y@	c #3F69D1",
"Z@	c #4E73CF",
"`@	c #A7B7E9",
" #	c #A2B2EC",
".#	c #A3BBEE",
"+#	c #BFCEF3",
"@#	c #BFCDF3",
"##	c #BFCDF2",
"$#	c #BFCCF2",
"%#	c #BBC8F1",
"&#	c #A2B4EC",
"  . + @ @ @ # # # # # $ % % & * = - - ;   ",
"> , ' ) ! ~ { ] ^ / / ( ( _ : < [ } | 1 2 ",
"3 4 5 6 7 8 9 0 a b c d e f g h i j k l m ",
"n o p q r s t u v w x y z A B C D E F G H ",
"n I r J K L M N O P Q R S S T U V W X Y Z ",
"`  ...+.L v @.P #.$.%.&.*.=.-.;.>.,.'.).!.",
"~.{.].^./.(._.:.<.[.&.}.|.>.1.2.2.3.4.5.6.",
"7.8.9.0.a.b.c.d.e.f.g.h.i.2.j.j.k.l.m.n.o.",
"7.8.p.q.(.r.s.<.t.u.v.v.w.x.y.z.A.B.C.n.o.",
"~.D.E.F.G.H.I.J.K.u.L.v.M.N.O.P.Q.[ R.S.o.",
"T.U.V.W.E.X.Y.Z.Z.u.`.L. +.+++@+#+$+%+&+*+",
"=+-+{.;+>+,+'+Z.Z.)+!+~+ +{+.+]+^+/+(+_+:+",
"<+[+}+|+1+1+2+3+4+5+6+7+8+{+9+0+a+b+c+d+e+",
"f+g+h+i+j+k+l+m+n+o+p+q+r+s+t+u+v+w+x+y+z+",
"A+B+C+D+E+F+G+H+I+J+K+L+M+N+O+P+Q+R+S+T+U+",
"V+W+X+Y+Z+`+ @.@+@@@#@$@%@&@*@=@-@;@>@,@'@",
")@!@~@{@]@^@/@(@_@:@<@[@}@|@1@2@3@4@5@,@6@",
"7@8@9@0@a@b@c@{@{@d@e@f@g@h@i@-@j@k@l@m@n@",
"o@p@q@r@s@t@t@u@v@w@x@y@z@A@B@C@D@E@F@G@H@",
"I@J@K@L@M@N@O@P@Q@Q@R@S@T@U@V@W@X@Y@Z@`@ #",
"  .#7@7@7@7@7@7@+#+#@#######$#$#$#$#%#&#  "};
