/* XPM */
static char * stick_toggled_active_xpm[] = {
"21 21 292 2",
"  	c None",
". 	c #B7C6F0",
"+ 	c #F5F7FD",
"@ 	c #FFFFFF",
"# 	c #DCE5FD",
"$ 	c #739AF8",
"% 	c #608CF7",
"& 	c #5584F6",
"* 	c #4D7EF6",
"= 	c #487AF5",
"- 	c #4276F5",
"; 	c #4478F5",
"> 	c #3E73F5",
", 	c #3B71F5",
"' 	c #336CF4",
") 	c #306AF4",
"! 	c #2864F4",
"~ 	c #1F5DEF",
"{ 	c #3467E0",
"] 	c #D2DBF2",
"^ 	c #769CF8",
"/ 	c #90AFF9",
"( 	c #94B2F9",
"_ 	c #85A7F8",
": 	c #759CF8",
"< 	c #6E97F8",
"[ 	c #6892F7",
"} 	c #6690F7",
"| 	c #628EF7",
"1 	c #5F8CF7",
"2 	c #5E8BF7",
"3 	c #5988F6",
"4 	c #5685F6",
"5 	c #5082F6",
"6 	c #497CF5",
"7 	c #3F75F5",
"8 	c #326BF2",
"9 	c #235CE3",
"0 	c #305CC5",
"a 	c #6590F7",
"b 	c #97B4F9",
"c 	c #9AB7FA",
"d 	c #89AAF9",
"e 	c #7AA0F8",
"f 	c #729AF8",
"g 	c #6D95F8",
"h 	c #6892F8",
"i 	c #658FF7",
"j 	c #618DF7",
"k 	c #5D8AF7",
"l 	c #5987F6",
"m 	c #5283F6",
"n 	c #4C7EF6",
"o 	c #4377F5",
"p 	c #376EF2",
"q 	c #285FE3",
"r 	c #1546B9",
"s 	c #5886F6",
"t 	c #8DADF9",
"u 	c #7FA3F8",
"v 	c #7199F8",
"w 	c #6A93F8",
"x 	c #648EF7",
"y 	c #5E8AF7",
"z 	c #5986F7",
"A 	c #5482F6",
"B 	c #5180F6",
"C 	c #4B7CF5",
"D 	c #4A7CF5",
"E 	c #3A72F4",
"F 	c #346CF2",
"G 	c #2A61E3",
"H 	c #1848BB",
"I 	c #5282F6",
"J 	c #799FF8",
"K 	c #7CA1F8",
"L 	c #6791F8",
"M 	c #608BF7",
"N 	c #5985F7",
"O 	c #5381F6",
"P 	c #ABBAC5",
"Q 	c #DFE1DF",
"R 	c #AEBEC8",
"S 	c #3A6FF4",
"T 	c #386EF4",
"U 	c #346CF4",
"V 	c #326CF4",
"W 	c #316BF4",
"X 	c #3069F1",
"Y 	c #2C62E4",
"Z 	c #1D4CBC",
"` 	c #7099F8",
" .	c #628CF8",
"..	c #5B86F7",
"+.	c #A9B9C3",
"@.	c #E5E5E1",
"#.	c #E7E7E3",
"$.	c #EAEAE6",
"%.	c #ECECE9",
"&.	c #EFEFEC",
"*.	c #B3C3CF",
"=.	c #2D69F4",
"-.	c #2C69F5",
";.	c #2D69F5",
">.	c #2E69F2",
",.	c #2C63E5",
"'.	c #4679F5",
").	c #658FF8",
"!.	c #5E89F7",
"~.	c #F1F1EF",
"{.	c #F3F3F1",
"].	c #B6C5D2",
"^.	c #2766F5",
"/.	c #2A68F5",
"(.	c #2C69F2",
"_.	c #2A62E4",
":.	c #1C4CBD",
"<.	c #628DF8",
"[.	c #5B87F7",
"}.	c #E2E8DE",
"|.	c #A9DCA6",
"1.	c #4DBF4A",
"2.	c #A0D29E",
"3.	c #E8EEE6",
"4.	c #F5F5F3",
"5.	c #F7F7F6",
"6.	c #2266F5",
"7.	c #2567F5",
"8.	c #2968F2",
"9.	c #2963E4",
"0.	c #1B4BBD",
"a.	c #3C72F4",
"b.	c #5D89F7",
"c.	c #55D551",
"d.	c #43C33F",
"e.	c #29A826",
"f.	c #9ACC98",
"g.	c #F9F9F8",
"h.	c #BAC9D6",
"i.	c #2268F5",
"j.	c #2569F2",
"k.	c #2562E6",
"l.	c #194BBE",
"m.	c #376EF4",
"n.	c #5181F6",
"o.	c #5785F7",
"p.	c #42C33F",
"q.	c #38B935",
"r.	c #21A121",
"s.	c #269623",
"t.	c #FAFAF9",
"u.	c #F3F5F6",
"v.	c #1F6AF6",
"w.	c #216AF3",
"x.	c #2162E6",
"y.	c #1649BE",
"z.	c #326BF4",
"A.	c #4B7DF5",
"B.	c #5483F6",
"C.	c #5684F7",
"D.	c #2AA827",
"E.	c #22A220",
"F.	c #139210",
"G.	c #98C897",
"H.	c #FCFCFB",
"I.	c #BCCBD9",
"J.	c #1C6DF6",
"K.	c #1C6AF4",
"L.	c #1C61E6",
"M.	c #1248BF",
"N.	c #2B66F4",
"O.	c #4E7FF6",
"P.	c #5383F6",
"Q.	c #249624",
"R.	c #98C997",
"S.	c #EEF3ED",
"T.	c #FDFDFD",
"U.	c #1B71F7",
"V.	c #186EF7",
"W.	c #186AF4",
"X.	c #165FE7",
"Y.	c #0F47C0",
"Z.	c #2562F3",
"`.	c #3D73F4",
" +	c #487BF5",
".+	c #4E80F6",
"++	c #5081F6",
"@+	c #BCCCD9",
"#+	c #1973F7",
"$+	c #166FF7",
"%+	c #1369F4",
"&+	c #105DE8",
"*+	c #0A44BF",
"=+	c #1E5DF3",
"-+	c #366EF4",
";+	c #497BF5",
">+	c #4A7EF7",
",+	c #1E77F8",
"'+	c #1773F8",
")+	c #116DF7",
"!+	c #0D66F4",
"~+	c #0B59E7",
"{+	c #0641C0",
"]+	c #1859F3",
"^+	c #2E68F4",
"/+	c #3A71F4",
"(+	c #4277F5",
"_+	c #467AF5",
":+	c #457AF6",
"<+	c #437BF6",
"[+	c #417CF6",
"}+	c #2A7CF8",
"|+	c #247AF8",
"1+	c #1D77F8",
"2+	c #1573F8",
"3+	c #0E6CF8",
"4+	c #0963F4",
"5+	c #0556E7",
"6+	c #023FBF",
"7+	c #1456F3",
"8+	c #2562F4",
"9+	c #3971F4",
"0+	c #3D74F5",
"a+	c #3D74F6",
"b+	c #3B75F5",
"c+	c #3976F5",
"d+	c #3777F5",
"e+	c #3278F6",
"f+	c #2C78F7",
"g+	c #2577F7",
"h+	c #1F76F7",
"i+	c #1972F7",
"j+	c #116EF8",
"k+	c #0B68F7",
"l+	c #0560F4",
"m+	c #0253E6",
"n+	c #013DBE",
"o+	c #0E50ED",
"p+	c #1C5BEF",
"q+	c #2863F0",
"r+	c #2F68F0",
"s+	c #336BF1",
"t+	c #346CF1",
"u+	c #316CF2",
"v+	c #316DF2",
"w+	c #2E6FF2",
"x+	c #2A70F2",
"y+	c #2570F3",
"z+	c #1F6FF3",
"A+	c #196DF4",
"B+	c #136AF4",
"C+	c #0760F3",
"D+	c #025AF0",
"E+	c #004DE2",
"F+	c #003AB9",
"G+	c #285EDF",
"H+	c #134FDF",
"I+	c #1B55DF",
"J+	c #215AE2",
"K+	c #255CE1",
"L+	c #265DE0",
"M+	c #245CE1",
"N+	c #235EE2",
"O+	c #215EE2",
"P+	c #1E5EE2",
"Q+	c #1B5FE5",
"R+	c #165EE5",
"S+	c #135DE6",
"T+	c #0E5BE5",
"U+	c #0958E6",
"V+	c #0454E6",
"W+	c #014EE2",
"X+	c #0045D3",
"Y+	c #1F4EB8",
"Z+	c #D0DAF1",
"`+	c #2856C3",
" @	c #0D3FB6",
".@	c #1144BD",
"+@	c #1245BB",
"@@	c #1445B9",
"#@	c #1244B9",
"$@	c #1345BC",
"%@	c #1346BD",
"&@	c #1045BE",
"*@	c #0D45C0",
"=@	c #0A45C1",
"-@	c #0844C3",
";@	c #033FC0",
">@	c #013FC3",
",@	c #003BBE",
"'@	c #1F4EB9",
")@	c #CFD8ED",
"  . + @ @ @ @ @ @ @ @ @ @ @ @ @ @ @ @ .   ",
". # $ % & * = - ; > > , , ' ' ) ! ~ { ] . ",
"@ ^ / ( _ : < [ } | 1 2 3 4 5 6 7 8 9 0 + ",
"@ a b c d e f g h i | j k l m n o p q r @ ",
"@ s d t u v w x y z A B C D ; 7 E F G H @ ",
"@ I J K v L M N O P Q R S T U V W X Y Z @ ",
"@ * < ` w  ...+.@.#.$.%.&.*.=.-.;.>.,.Z @ ",
"@ '.h w ).!.+.@.#.$.%.&.~.{.].^./.(._.:.@ ",
"@ '.% <.M [.@.#.}.|.1.2.3.4.5.6.7.8.9.0.@ ",
"@ a.l k b.P #.$.|.c.d.e.f.5.g.h.i.j.k.l.@ ",
"@ m.n.o.z Q $.%.1.p.q.r.s.g.t.u.v.w.x.y.@ ",
"@ z.A.B.C.R %.&.2.D.E.F.G.t.H.I.J.K.L.M.@ ",
"@ N.; O.I P.&.~.3.f.Q.R.S.H.T.U.V.W.X.Y.@ ",
"@ Z.`. +.+++*.{.4.5.g.t.H.T.@+#+$+%+&+*+@ ",
"@ =+-+- ;+n >+].5.g.t.H.T.@+,+'+)+!+~+{+@ ",
"@ ]+^+/+(+_+:+<+[+h.u.I.}+|+1+2+3+4+5+6+@ ",
"@ 7+8+W 9+0+a+b+c+d+e+f+g+h+i+j+k+l+m+n+@ ",
"@ o+p+q+r+s+t+u+v+w+x+y+z+A+B+!+C+D+E+F+@ ",
"+ G+H+I+J+K+L+M+N+O+P+Q+R+S+T+U+V+W+X+Y+@ ",
". Z+`+ @.@+@@@#@$@%@&@*@=@-@{+;@>@,@'@)@. ",
"  . @ @ @ @ @ @ @ @ @ @ @ @ @ @ @ @ + .   "};
