/* XPM */
static char * stick_prelight_xpm[] = {
"21 21 273 2",
"  	c None",
". 	c #B7C6F0",
"+ 	c #F5F7FD",
"@ 	c #FFFFFF",
"# 	c #DCE7FF",
"$ 	c #72A1FF",
"% 	c #6A9CFF",
"& 	c #5F94FF",
"* 	c #558EFF",
"= 	c #518BFF",
"- 	c #4A86FF",
"; 	c #4B87FF",
"> 	c #4684FF",
", 	c #4482FF",
"' 	c #4080FF",
") 	c #3B7CFF",
"! 	c #3A7BFF",
"~ 	c #3678FF",
"{ 	c #2E73FF",
"] 	c #276CF9",
"^ 	c #3A73E7",
"/ 	c #D3DDF3",
"( 	c #73A1FF",
"_ 	c #97B9FF",
": 	c #9CBDFF",
"< 	c #90B5FF",
"[ 	c #82ACFF",
"} 	c #7BA7FF",
"| 	c #75A3FF",
"1 	c #6F9FFF",
"2 	c #6C9DFF",
"3 	c #689BFF",
"4 	c #6599FF",
"5 	c #6095FF",
"6 	c #5D93FF",
"7 	c #568EFF",
"8 	c #4F8AFF",
"9 	c #3878FB",
"0 	c #2969EB",
"a 	c #3566CB",
"b 	c #9EBEFF",
"c 	c #A4C2FF",
"d 	c #99BAFF",
"e 	c #8AB0FF",
"f 	c #82ABFF",
"g 	c #79A6FF",
"h 	c #74A3FF",
"i 	c #71A0FF",
"j 	c #6D9EFF",
"k 	c #699BFF",
"l 	c #5A91FF",
"m 	c #538CFF",
"n 	c #4986FF",
"o 	c #3D7CFC",
"p 	c #2E6CEA",
"q 	c #1B52C2",
"r 	c #6296FF",
"s 	c #91B5FF",
"t 	c #8FB4FF",
"u 	c #7AA6FF",
"v 	c #6B9DFF",
"w 	c #6598FF",
"x 	c #5F95FF",
"y 	c #5B92FF",
"z 	c #548DFF",
"A 	c #528CFF",
"B 	c #4C88FF",
"C 	c #4785FF",
"D 	c #4280FF",
"E 	c #3B7AFB",
"F 	c #316FEC",
"G 	c #1F55C3",
"H 	c #5990FF",
"I 	c #85ADFF",
"J 	c #8BB1FF",
"K 	c #84ACFF",
"L 	c #78A5FF",
"M 	c #70A0FF",
"N 	c #679AFF",
"O 	c #BCB694",
"P 	c #F4D48C",
"Q 	c #BCAF83",
"R 	c #4180FF",
"S 	c #3D7EFF",
"T 	c #3B7BFF",
"U 	c #397AFF",
"V 	c #3979FC",
"W 	c #3370EC",
"X 	c #2357C3",
"Y 	c #81AAFF",
"Z 	c #7AA7FF",
"` 	c #6B9CFF",
" .	c #BCB99F",
"..	c #FEDF9C",
"+.	c #FDD98C",
"@.	c #FDD684",
"#.	c #FCD37C",
"$.	c #FCD074",
"%.	c #BAA871",
"&.	c #3679FF",
"*.	c #3579FF",
"=.	c #3879FC",
"-.	c #2358C5",
";.	c #4E89FF",
">.	c #71A1FF",
",.	c #77A5FF",
"'.	c #74A2FF",
").	c #FBDC98",
"!.	c #F7E3B3",
"~.	c #F2EDD7",
"{.	c #F6E0AC",
"].	c #FAD17B",
"^.	c #FBC863",
"/.	c #BAA365",
"(.	c #317AFF",
"_.	c #337AFF",
":.	c #367BFC",
"<.	c #3372ED",
"[.	c #2359C5",
"}.	c #4D88FF",
"|.	c #699CFF",
"1.	c #F2EEDA",
"2.	c #F1EFDF",
"3.	c #F2EDD8",
"4.	c #F9CB6D",
"5.	c #FAC254",
"6.	c #2F7FFF",
"7.	c #3280FF",
"8.	c #3580FC",
"9.	c #3276ED",
"0.	c #235AC6",
"a.	c #6196FF",
"b.	c #689AFF",
"c.	c #F5D99C",
"d.	c #FAC04E",
"e.	c #B99E58",
"f.	c #3188FF",
"g.	c #3385FC",
"h.	c #3079ED",
"i.	c #215CC8",
"j.	c #3F7FFF",
"k.	c #6397FF",
"l.	c #F2EBD4",
"m.	c #F9BD48",
"n.	c #F0B745",
"o.	c #3090FF",
"p.	c #328CFC",
"q.	c #2E7DEF",
"r.	c #1E5DC9",
"s.	c #5C92FF",
"t.	c #F5D797",
"u.	c #F9BB43",
"v.	c #B99B51",
"w.	c #2E97FF",
"x.	c #2E91FC",
"y.	c #2A80F0",
"z.	c #1B5DCB",
"A.	c #3275FF",
"B.	c #F1ECD7",
"C.	c #F8C259",
"D.	c #F9B93E",
"E.	c #30A5FF",
"F.	c #2CA0FF",
"G.	c #2A96FD",
"H.	c #2581F1",
"I.	c #185DCC",
"J.	c #2D72FF",
"K.	c #5790FF",
"L.	c #B9994E",
"M.	c #2FABFF",
"N.	c #29A4FF",
"O.	c #2599FD",
"P.	c #1E80F2",
"Q.	c #145BCD",
"R.	c #276EFF",
"S.	c #3D7DFF",
"T.	c #4985FF",
"U.	c #528DFF",
"V.	c #35B2FF",
"W.	c #2CAEFF",
"X.	c #24A5FF",
"Y.	c #1F97FD",
"Z.	c #1980F3",
"`.	c #105ACE",
" +	c #216AFF",
".+	c #3578FF",
"++	c #4885FF",
"@+	c #4D89FF",
"#+	c #4C8CFF",
"$+	c #4D94FF",
"%+	c #41AFFF",
"&+	c #3BB2FF",
"*+	c #33B1FF",
"=+	c #2AADFF",
"-+	c #21A3FF",
";+	c #1A95FD",
">+	c #137CF2",
",+	c #0C59CF",
"'+	c #1C66FF",
")+	c #3879FF",
"!+	c #3F7EFF",
"~+	c #4483FF",
"{+	c #4584FF",
"]+	c #4587FF",
"^+	c #468EFF",
"/+	c #4696FF",
"(+	c #439CFF",
"_+	c #3FA3FF",
":+	c #3BA8FF",
"<+	c #33AAFF",
"[+	c #2DA9FF",
"}+	c #24A6FF",
"|+	c #1D9EFF",
"1+	c #1690FD",
"2+	c #1078F1",
"3+	c #0B57CE",
"4+	c #1761F9",
"5+	c #246BFA",
"6+	c #2F72FB",
"7+	c #3676FB",
"8+	c #3A7AFB",
"9+	c #3B7BFC",
"0+	c #3B7EFC",
"a+	c #3C84FC",
"b+	c #3B8AFC",
"c+	c #3990FC",
"d+	c #3695FC",
"e+	c #3299FC",
"f+	c #2C9CFD",
"g+	c #259BFD",
"h+	c #1E97FD",
"i+	c #1790FC",
"j+	c #1184FA",
"k+	c #0C6DED",
"l+	c #0850C8",
"m+	c #2F6AE4",
"n+	c #1B5FE9",
"o+	c #2163E8",
"p+	c #2868EB",
"q+	c #2C6AEA",
"r+	c #2E6DEA",
"s+	c #2D6DEB",
"t+	c #2C71EC",
"u+	c #2C76EC",
"v+	c #2A79ED",
"w+	c #287EEF",
"x+	c #2481F1",
"y+	c #2182F1",
"z+	c #1C80F1",
"A+	c #1880F3",
"B+	c #117AF2",
"C+	c #0C6EED",
"D+	c #0A5DDD",
"E+	c #265DC1",
"F+	c #D1DDF4",
"G+	c #2E61CA",
"H+	c #134BBF",
"I+	c #164FC2",
"J+	c #1950C1",
"K+	c #1B52C1",
"L+	c #1A52C3",
"M+	c #1954C6",
"N+	c #1B58C9",
"O+	c #1858C8",
"P+	c #165BCD",
"Q+	c #145CD0",
"R+	c #135CD0",
"S+	c #0F58CC",
"T+	c #0D5AD2",
"U+	c #0B58D1",
"V+	c #0951CB",
"W+	c #265EC3",
"X+	c #D0DAEE",
"  . + @ @ @ @ @ @ @ @ @ @ @ @ @ @ @ + .   ",
". # $ % & * = - ; > > , ' ) ! ~ { ] ^ / . ",
"+ ( _ : < [ } | 1 2 3 4 5 6 7 8 , 9 0 a + ",
"@ 2 b c d e f g h i j k 4 5 l m n o p q @ ",
"@ r s d t [ u $ v w x y z A B C D E F G @ ",
"@ H I J K L M N 5 O P Q , R S T U V W X @ ",
"@ z } Y Z $ `  ...+.@.#.$.%.&.*.&.=.W -.@ ",
"@ ;.>.,.'.j  ...).!.~.{.].^./.(._.:.<.[.@ ",
"@ }.|.1 j 3 ..).1.2.2.2.3.4.5.6.7.8.9.0.@ ",
"@ , a.3 b.O +.!.2.2.2.2.2.c.d.e.f.g.h.i.@ ",
"@ j.l a.k.P @.~.2.2.2.2.2.l.m.n.o.p.q.r.@ ",
"@ U m s.& Q #.{.2.2.2.2.2.t.u.v.w.x.y.z.@ ",
"@ A.; * l s.$.].3.2.2.2.B.C.D.E.F.G.H.I.@ ",
"@ J., 8 z K.%.^.4.c.l.t.C.D.L.M.N.O.P.Q.@ ",
"@ R.S.T.8 A U./.5.d.m.u.D.L.V.W.X.Y.Z.`.@ ",
"@  +.+' ++B @+#+$+e.n.v.%+&+*+=+-+;+>+,+@ ",
"@ '+J.)+!+~+{+]+^+/+(+_+:+<+[+}+|+1+2+3+@ ",
"@ 4+5+6+7+8+9+0+a+b+c+d+e+f+g+h+i+j+k+l+@ ",
"+ m+n+o+p+q+r+s+t+u+v+w+x+y+z+A+B+C+D+E++ ",
". F+G+H+I+J+K+L+M+N+O+P+Q+R+S+T+U+V+W+X+. ",
"  . + @ @ @ @ @ @ @ @ @ @ @ @ @ @ @ + .   "};
