/* XPM */
static char * stick_active_xpm[] = {
"21 21 272 2",
"  	c None",
". 	c #B7C6F0",
"+ 	c #F5F7FD",
"@ 	c #FFFFFF",
"# 	c #DCE5FD",
"$ 	c #739AF8",
"% 	c #608CF7",
"& 	c #5584F6",
"* 	c #4D7EF6",
"= 	c #487AF5",
"- 	c #4276F5",
"; 	c #4478F5",
"> 	c #3E73F5",
", 	c #3B71F5",
"' 	c #336CF4",
") 	c #306AF4",
"! 	c #2864F4",
"~ 	c #1F5DEF",
"{ 	c #3467E0",
"] 	c #D2DBF2",
"^ 	c #769CF8",
"/ 	c #90AFF9",
"( 	c #94B2F9",
"_ 	c #85A7F8",
": 	c #759CF8",
"< 	c #6E97F8",
"[ 	c #6892F7",
"} 	c #6690F7",
"| 	c #628EF7",
"1 	c #5F8CF7",
"2 	c #5E8BF7",
"3 	c #5988F6",
"4 	c #5685F6",
"5 	c #5082F6",
"6 	c #497CF5",
"7 	c #3F75F5",
"8 	c #326BF2",
"9 	c #235CE3",
"0 	c #305CC5",
"a 	c #6590F7",
"b 	c #97B4F9",
"c 	c #9AB7FA",
"d 	c #89AAF9",
"e 	c #7AA0F8",
"f 	c #729AF8",
"g 	c #6D95F8",
"h 	c #6892F8",
"i 	c #658FF7",
"j 	c #618DF7",
"k 	c #5D8AF7",
"l 	c #5987F6",
"m 	c #5283F6",
"n 	c #4C7EF6",
"o 	c #4377F5",
"p 	c #376EF2",
"q 	c #285FE3",
"r 	c #1546B9",
"s 	c #5886F6",
"t 	c #8DADF9",
"u 	c #7FA3F8",
"v 	c #7199F8",
"w 	c #6A93F8",
"x 	c #648EF7",
"y 	c #5E8AF7",
"z 	c #5986F7",
"A 	c #5482F6",
"B 	c #5180F6",
"C 	c #4B7CF5",
"D 	c #4A7CF5",
"E 	c #3A72F4",
"F 	c #346CF2",
"G 	c #2A61E3",
"H 	c #1848BB",
"I 	c #5282F6",
"J 	c #799FF8",
"K 	c #7CA1F8",
"L 	c #6791F8",
"M 	c #608BF7",
"N 	c #5985F7",
"O 	c #5381F6",
"P 	c #A7B7C1",
"Q 	c #DADCDA",
"R 	c #ABBAC6",
"S 	c #3A6FF4",
"T 	c #386EF4",
"U 	c #346CF4",
"V 	c #326CF4",
"W 	c #316BF4",
"X 	c #3069F1",
"Y 	c #2C62E4",
"Z 	c #1D4CBC",
"` 	c #7099F8",
" .	c #628CF8",
"..	c #5B86F7",
"+.	c #A6B5BF",
"@.	c #E0E0DB",
"#.	c #E2E2DE",
"$.	c #E5E5E2",
"%.	c #E8E8E5",
"&.	c #ECECE9",
"*.	c #B2C1CD",
"=.	c #2D69F4",
"-.	c #2C69F5",
";.	c #2D69F5",
">.	c #2E69F2",
",.	c #2C63E5",
"'.	c #4679F5",
").	c #658FF8",
"!.	c #5E89F7",
"~.	c #EFEFEC",
"{.	c #F1F1EF",
"].	c #B5C4D0",
"^.	c #2766F5",
"/.	c #2A68F5",
"(.	c #2C69F2",
"_.	c #2A62E4",
":.	c #1C4CBD",
"<.	c #628DF8",
"[.	c #5B87F7",
"}.	c #F3F3F1",
"|.	c #F5F5F4",
"1.	c #2266F5",
"2.	c #2567F5",
"3.	c #2968F2",
"4.	c #2963E4",
"5.	c #1B4BBD",
"6.	c #3C72F4",
"7.	c #5D89F7",
"8.	c #F7F7F6",
"9.	c #B9C8D5",
"0.	c #2268F5",
"a.	c #2569F2",
"b.	c #2562E6",
"c.	c #194BBE",
"d.	c #376EF4",
"e.	c #5181F6",
"f.	c #5785F7",
"g.	c #F9F9F8",
"h.	c #F2F4F5",
"i.	c #1F6AF6",
"j.	c #216AF3",
"k.	c #2162E6",
"l.	c #1649BE",
"m.	c #326BF4",
"n.	c #4B7DF5",
"o.	c #5483F6",
"p.	c #5684F7",
"q.	c #FBFBFA",
"r.	c #BCCBD8",
"s.	c #1C6DF6",
"t.	c #1C6AF4",
"u.	c #1C61E6",
"v.	c #1248BF",
"w.	c #2B66F4",
"x.	c #4E7FF6",
"y.	c #5383F6",
"z.	c #FDFDFC",
"A.	c #1B71F7",
"B.	c #186EF7",
"C.	c #186AF4",
"D.	c #165FE7",
"E.	c #0F47C0",
"F.	c #2562F3",
"G.	c #3D73F4",
"H.	c #487BF5",
"I.	c #4E80F6",
"J.	c #5081F6",
"K.	c #BCCCD9",
"L.	c #1973F7",
"M.	c #166FF7",
"N.	c #1369F4",
"O.	c #105DE8",
"P.	c #0A44BF",
"Q.	c #1E5DF3",
"R.	c #366EF4",
"S.	c #497BF5",
"T.	c #4A7EF7",
"U.	c #1E77F8",
"V.	c #1773F8",
"W.	c #116DF7",
"X.	c #0D66F4",
"Y.	c #0B59E7",
"Z.	c #0641C0",
"`.	c #1859F3",
" +	c #2E68F4",
".+	c #3A71F4",
"++	c #4277F5",
"@+	c #467AF5",
"#+	c #457AF6",
"$+	c #437BF6",
"%+	c #417CF6",
"&+	c #2A7CF8",
"*+	c #247AF8",
"=+	c #1D77F8",
"-+	c #1573F8",
";+	c #0E6CF8",
">+	c #0963F4",
",+	c #0556E7",
"'+	c #023FBF",
")+	c #1456F3",
"!+	c #2562F4",
"~+	c #3971F4",
"{+	c #3D74F5",
"]+	c #3D74F6",
"^+	c #3B75F5",
"/+	c #3976F5",
"(+	c #3777F5",
"_+	c #3278F6",
":+	c #2C78F7",
"<+	c #2577F7",
"[+	c #1F76F7",
"}+	c #1972F7",
"|+	c #116EF8",
"1+	c #0B68F7",
"2+	c #0560F4",
"3+	c #0253E6",
"4+	c #013DBE",
"5+	c #0E50ED",
"6+	c #1C5BEF",
"7+	c #2863F0",
"8+	c #2F68F0",
"9+	c #336BF1",
"0+	c #346CF1",
"a+	c #316CF2",
"b+	c #316DF2",
"c+	c #2E6FF2",
"d+	c #2A70F2",
"e+	c #2570F3",
"f+	c #1F6FF3",
"g+	c #196DF4",
"h+	c #136AF4",
"i+	c #0760F3",
"j+	c #025AF0",
"k+	c #004DE2",
"l+	c #003AB9",
"m+	c #285EDF",
"n+	c #134FDF",
"o+	c #1B55DF",
"p+	c #215AE2",
"q+	c #255CE1",
"r+	c #265DE0",
"s+	c #245CE1",
"t+	c #235EE2",
"u+	c #215EE2",
"v+	c #1E5EE2",
"w+	c #1B5FE5",
"x+	c #165EE5",
"y+	c #135DE6",
"z+	c #0E5BE5",
"A+	c #0958E6",
"B+	c #0454E6",
"C+	c #014EE2",
"D+	c #0045D3",
"E+	c #1F4EB8",
"F+	c #D0DAF1",
"G+	c #2856C3",
"H+	c #0D3FB6",
"I+	c #1144BD",
"J+	c #1245BB",
"K+	c #1445B9",
"L+	c #1244B9",
"M+	c #1345BC",
"N+	c #1346BD",
"O+	c #1045BE",
"P+	c #0D45C0",
"Q+	c #0A45C1",
"R+	c #0844C3",
"S+	c #033FC0",
"T+	c #013FC3",
"U+	c #003BBE",
"V+	c #1F4EB9",
"W+	c #CFD8ED",
"  . + @ @ @ @ @ @ @ @ @ @ @ @ @ @ @ @ .   ",
". # $ % & * = - ; > > , , ' ' ) ! ~ { ] . ",
"@ ^ / ( _ : < [ } | 1 2 3 4 5 6 7 8 9 0 + ",
"@ a b c d e f g h i | j k l m n o p q r @ ",
"@ s d t u v w x y z A B C D ; 7 E F G H @ ",
"@ I J K v L M N O P Q R S T U V W X Y Z @ ",
"@ * < ` w  ...+.@.#.$.%.&.*.=.-.;.>.,.Z @ ",
"@ '.h w ).!.+.@.#.$.%.&.~.{.].^./.(._.:.@ ",
"@ '.% <.M [.@.#.$.%.&.~.{.}.|.1.2.3.4.5.@ ",
"@ 6.l k 7.P #.$.%.&.~.{.}.|.8.9.0.a.b.c.@ ",
"@ d.e.f.z Q $.%.&.~.{.}.|.8.g.h.i.j.k.l.@ ",
"@ m.n.o.p.R %.&.~.{.}.|.8.g.q.r.s.t.u.v.@ ",
"@ w.; x.I y.&.~.{.}.|.8.g.q.z.A.B.C.D.E.@ ",
"@ F.G.H.I.J.*.{.}.|.8.g.q.z.K.L.M.N.O.P.@ ",
"@ Q.R.- S.n T.].|.8.g.q.z.K.U.V.W.X.Y.Z.@ ",
"@ `. +.+++@+#+$+%+9.h.r.&+*+=+-+;+>+,+'+@ ",
"@ )+!+W ~+{+]+^+/+(+_+:+<+[+}+|+1+2+3+4+@ ",
"@ 5+6+7+8+9+0+a+b+c+d+e+f+g+h+X.i+j+k+l+@ ",
"+ m+n+o+p+q+r+s+t+u+v+w+x+y+z+A+B+C+D+E+@ ",
". F+G+H+I+J+K+L+M+N+O+P+Q+R+Z.S+T+U+V+W+. ",
"  . @ @ @ @ @ @ @ @ @ @ @ @ @ @ @ @ + .   "};
