/* XPM */
static char * stick_inactive_xpm[] = {
"21 21 326 2",
"  	c None",
". 	c #A0B7E9",
"+ 	c #B9C9EF",
"@ 	c #BDCCF0",
"# 	c #BDCBEF",
"$ 	c #BDCAEF",
"% 	c #BDCAEE",
"& 	c #BCC9EE",
"* 	c #BCC8EE",
"= 	c #BCC8ED",
"- 	c #BCC7ED",
"; 	c #9EAEE4",
"> 	c #9EB4E7",
", 	c #AABDED",
"' 	c #7597EB",
") 	c #6C8FEA",
"! 	c #668BE9",
"~ 	c #6287E9",
"{ 	c #6085E8",
"] 	c #5D82E8",
"^ 	c #5D83E8",
"/ 	c #5A80E8",
"( 	c #597FE8",
"_ 	c #557CE7",
": 	c #547BE7",
"< 	c #537AE7",
"[ 	c #4E76E6",
"} 	c #4A71E3",
"| 	c #5475DC",
"1 	c #A4B0E4",
"2 	c #9BA7E2",
"3 	c #BBC8EE",
"4 	c #7696EA",
"5 	c #849FEA",
"6 	c #86A1EA",
"7 	c #7E9BE9",
"8 	c #7695E9",
"9 	c #7292E9",
"0 	c #6F8FE9",
"a 	c #6E8DE8",
"b 	c #6C8CE8",
"c 	c #6A8BE8",
"d 	c #6A8AE8",
"e 	c #6788E8",
"f 	c #6686E8",
"g 	c #6384E7",
"h 	c #5F81E6",
"i 	c #5A7CE6",
"j 	c #5376E4",
"k 	c #4B6EDC",
"l 	c #526DCD",
"m 	c #B5BBE9",
"n 	c #BBC7ED",
"o 	c #6E8FE9",
"p 	c #87A1EA",
"q 	c #88A2EA",
"r 	c #809BEA",
"s 	c #7996E9",
"t 	c #7493E9",
"u 	c #7290E9",
"v 	c #6F8EE9",
"w 	c #6D8CE8",
"x 	c #6C8BE8",
"y 	c #6B8AE8",
"z 	c #6988E8",
"A 	c #6786E8",
"B 	c #6483E7",
"C 	c #6180E7",
"D 	c #5C7DE6",
"E 	c #5677E4",
"F 	c #4E6FDC",
"G 	c #4461C7",
"H 	c #B9BDEA",
"I 	c #6789E9",
"J 	c #829CEA",
"K 	c #7B97E9",
"L 	c #7492E9",
"M 	c #708FE9",
"N 	c #6D8CE9",
"O 	c #6A8AE9",
"P 	c #6887E9",
"Q 	c #6584E8",
"R 	c #6382E8",
"S 	c #6080E7",
"T 	c #5D7DE7",
"U 	c #5A7BE7",
"V 	c #577AE6",
"W 	c #5476E5",
"X 	c #4F70DD",
"Y 	c #4663C8",
"Z 	c #BABEEA",
"` 	c #BBC7EE",
" .	c #6487E9",
"..	c #7896EA",
"+.	c #7A96EA",
"@.	c #6B8BE9",
"#.	c #6585E8",
"$.	c #A7B7C1",
"%.	c #DADCDA",
"&.	c #ABBAC6",
"*.	c #587AE7",
"=.	c #5779E7",
"-.	c #5578E7",
";.	c #5477E7",
">.	c #5377E7",
",.	c #5275E5",
"'.	c #5071DE",
").	c #4965C9",
"!.	c #BABEEB",
"~.	c #BCC7EE",
"{.	c #6285EA",
"].	c #7392EB",
"^.	c #7393EA",
"/.	c #708FEA",
"(.	c #6C8BEA",
"_.	c #6988E9",
":.	c #A6B5BF",
"<.	c #E0E0DB",
"[.	c #E2E2DE",
"}.	c #E5E5E2",
"|.	c #E8E8E5",
"1.	c #ECECE9",
"2.	c #B2C1CD",
"3.	c #5176E7",
"4.	c #5176E8",
"5.	c #5275E6",
"6.	c #5172DF",
"7.	c #4966CA",
"8.	c #BABFEB",
"9.	c #BCC6EE",
"0.	c #5F83E9",
"a.	c #708FEB",
"b.	c #7190EA",
"c.	c #6E8DEA",
"d.	c #6A89EA",
"e.	c #EFEFEC",
"f.	c #F1F1EF",
"g.	c #B5C4D0",
"h.	c #4F75E8",
"i.	c #5076E8",
"j.	c #5176E6",
"k.	c #5072DF",
"l.	c #4966CB",
"m.	c #BBC0EC",
"n.	c #6C8CEA",
"o.	c #6D8DEB",
"p.	c #6988EA",
"q.	c #F3F3F1",
"r.	c #F5F5F4",
"s.	c #4C75E8",
"t.	c #4E75E8",
"u.	c #5076E6",
"v.	c #5073DF",
"w.	c #5A7FE9",
"x.	c #6889EA",
"y.	c #6A8BEA",
"z.	c #6A8AEA",
"A.	c #F7F7F6",
"B.	c #B9C8D5",
"C.	c #4C76E8",
"D.	c #4E72E0",
"E.	c #4866CC",
"F.	c #BCC7EF",
"G.	c #577DE9",
"H.	c #6487EA",
"I.	c #6789EA",
"J.	c #F9F9F8",
"K.	c #F2F4F5",
"L.	c #4B77E9",
"M.	c #4C77E8",
"N.	c #4C73E1",
"O.	c #4666CC",
"P.	c #BBC0ED",
"Q.	c #BDC8EF",
"R.	c #557DEA",
"S.	c #6688EA",
"T.	c #6788EB",
"U.	c #FBFBFA",
"V.	c #BCCBD8",
"W.	c #4A79EA",
"X.	c #4A77E9",
"Y.	c #4A73E2",
"Z.	c #4566CE",
"`.	c #BCC1EE",
" +	c #BDC9F0",
".+	c #527CEB",
"++	c #5F84EB",
"@+	c #6487EB",
"#+	c #6688EB",
"$+	c #FDFDFC",
"%+	c #4A7CEB",
"&+	c #487BEB",
"*+	c #4879E9",
"=+	c #4773E3",
"-+	c #4366CF",
";+	c #BCC3EE",
">+	c #BECAF1",
",+	c #507BEB",
"'+	c #5C83EB",
")+	c #6186EB",
"!+	c #6488EC",
"~+	c #6589EB",
"{+	c #BCCCD9",
"]+	c #497FEC",
"^+	c #487DEB",
"/+	c #4679EA",
"(+	c #4573E4",
"_+	c #4266CF",
":+	c #BCC4EF",
"<+	c #BECBF1",
"[+	c #4D79EB",
"}+	c #5982EC",
"|+	c #5F85EC",
"1+	c #6287EC",
"2+	c #6489EC",
"3+	c #6389ED",
"4+	c #4C82ED",
"5+	c #4980ED",
"6+	c #467DEC",
"7+	c #4479EB",
"8+	c #4372E4",
"9+	c #4066D0",
"0+	c #BDC6F0",
"a+	c #BECCF2",
"b+	c #4A79EC",
"c+	c #5580EC",
"d+	c #5B84EC",
"e+	c #5F87EC",
"f+	c #6188EC",
"g+	c #6188ED",
"h+	c #6088ED",
"i+	c #5E88ED",
"j+	c #5387ED",
"k+	c #5086ED",
"l+	c #4C84ED",
"m+	c #4881ED",
"n+	c #457DED",
"o+	c #4279EB",
"p+	c #4072E5",
"q+	c #3F66D0",
"r+	c #BEC6F0",
"s+	c #BFCEF2",
"t+	c #4978EC",
"u+	c #517EED",
"v+	c #5783EC",
"w+	c #5B85EC",
"x+	c #5D87ED",
"y+	c #5D86ED",
"z+	c #5C87ED",
"A+	c #5B87ED",
"B+	c #5A87ED",
"C+	c #5787ED",
"D+	c #5487EE",
"E+	c #5186EE",
"F+	c #4E85EE",
"G+	c #4B83EE",
"H+	c #4780EE",
"I+	c #447DED",
"J+	c #4178EC",
"K+	c #3F72E5",
"L+	c #BEC7F1",
"M+	c #BFCFF3",
"N+	c #4676EA",
"O+	c #4D7CEA",
"P+	c #5380EB",
"Q+	c #5682EB",
"R+	c #5883EB",
"S+	c #5983EB",
"T+	c #5584EC",
"U+	c #5484EC",
"V+	c #5184EC",
"W+	c #4E83EC",
"X+	c #4B82ED",
"Y+	c #4880ED",
"Z+	c #427AEC",
"`+	c #3F77EB",
" @	c #3E70E3",
".@	c #3F66CF",
"+@	c #BEC9F2",
"@@	c #BCCDF2",
"#@	c #537EE3",
"$@	c #4977E2",
"%@	c #4D7AE2",
"&@	c #507CE4",
"*@	c #527DE3",
"=@	c #517CE3",
"-@	c #517DE3",
";@	c #4F7CE3",
">@	c #4E7CE3",
",@	c #4C7CE5",
"'@	c #4A7CE5",
")@	c #487BE6",
"!@	c #4679E5",
"~@	c #4378E6",
"{@	c #4176E6",
"]@	c #3F72E3",
"^@	c #3F6DDC",
"/@	c #4E71CE",
"(@	c #BECAF2",
"_@	c #A4BCEE",
":@	c #A8BDEC",
"<@	c #537BD5",
"[@	c #466FCE",
"}@	c #4872D1",
"|@	c #4871D0",
"1@	c #4971CF",
"2@	c #4871CF",
"3@	c #4971D1",
"4@	c #4770D2",
"5@	c #4570D2",
"6@	c #4470D3",
"7@	c #436FD4",
"8@	c #426DD2",
"9@	c #406CD2",
"0@	c #3F6CD4",
"a@	c #3F69D1",
"b@	c #4E73CF",
"c@	c #A7B7E9",
"d@	c #A2B2EC",
"e@	c #A3BBEE",
"f@	c #BFCEF3",
"g@	c #BFCDF3",
"h@	c #BFCDF2",
"i@	c #BFCCF2",
"j@	c #BBC8F1",
"k@	c #A2B4EC",
"  . + @ @ @ # # # # # $ % % & * = - - ;   ",
"> , ' ) ! ~ { ] ^ / / ( ( _ : < [ } | 1 2 ",
"3 4 5 6 7 8 9 0 a b c d e f g h i j k l m ",
"n o p q r s t u v w x y z A B C D E F G H ",
"n I r J K L M N O P Q R S S T U V W X Y Z ",
"`  ...+.L v @.P #.$.%.&.*.=.-.;.>.,.'.).!.",
"~.{.].^./.(._.:.<.[.}.|.1.2.3.4.4.5.6.7.8.",
"9.0.a.b.c.d.:.<.[.}.|.1.e.f.g.h.i.j.k.l.m.",
"9.0.n.o.(.p.<.[.}.|.1.e.f.q.r.s.t.u.v.l.m.",
"~.w.x.y.z.$.[.}.|.1.e.f.q.r.A.B.C.[ D.E.m.",
"F.G.H.I.x.%.}.|.1.e.f.q.r.A.J.K.L.M.N.O.P.",
"Q.R.{.S.T.&.|.1.e.f.q.r.A.J.U.V.W.X.Y.Z.`.",
" +.+++@+#+#+1.e.f.q.r.A.J.U.$+%+&+*+=+-+;+",
">+,+'+)+!+~+2.f.q.r.A.J.U.$+{+]+^+/+(+_+:+",
"<+[+}+|+1+2+3+g.r.A.J.U.$+{+4+5+6+7+8+9+0+",
"a+b+c+d+e+f+g+h+i+B.K.V.j+k+l+m+n+o+p+q+r+",
"s+t+u+v+w+x+y+z+A+B+C+D+E+F+G+H+I+J+K+q+L+",
"M+N+O+P+Q+R+S+v+v+T+U+V+W+X+Y+n+Z+`+ @.@+@",
"@@#@$@%@&@*@*@=@-@;@>@,@'@)@!@~@{@]@^@/@(@",
"_@:@<@[@}@|@1@2@3@3@4@5@6@7@8@9@0@a@b@c@d@",
"  e@M+M+M+M+M+M+f@f@g@h@h@h@i@i@i@i@j@k@  "};
