/* XPM */
static char * stick_toggled_inactive_xpm[] = {
"21 21 346 2",
"  	c None",
". 	c #A0B7E9",
"+ 	c #B9C9EF",
"@ 	c #BDCCF0",
"# 	c #BDCBEF",
"$ 	c #BDCAEF",
"% 	c #BDCAEE",
"& 	c #BCC9EE",
"* 	c #BCC8EE",
"= 	c #BCC8ED",
"- 	c #BCC7ED",
"; 	c #9EAEE4",
"> 	c #9EB4E7",
", 	c #AABDED",
"' 	c #7597EB",
") 	c #6C8FEA",
"! 	c #668BE9",
"~ 	c #6287E9",
"{ 	c #6085E8",
"] 	c #5D82E8",
"^ 	c #5D83E8",
"/ 	c #5A80E8",
"( 	c #597FE8",
"_ 	c #557CE7",
": 	c #547BE7",
"< 	c #537AE7",
"[ 	c #4E76E6",
"} 	c #4A71E3",
"| 	c #5475DC",
"1 	c #A4B0E4",
"2 	c #9BA7E2",
"3 	c #BBC8EE",
"4 	c #7696EA",
"5 	c #849FEA",
"6 	c #86A1EA",
"7 	c #7E9BE9",
"8 	c #7695E9",
"9 	c #7292E9",
"0 	c #6F8FE9",
"a 	c #6E8DE8",
"b 	c #6C8CE8",
"c 	c #6A8BE8",
"d 	c #6A8AE8",
"e 	c #6788E8",
"f 	c #6686E8",
"g 	c #6384E7",
"h 	c #5F81E6",
"i 	c #5A7CE6",
"j 	c #5376E4",
"k 	c #4B6EDC",
"l 	c #526DCD",
"m 	c #B5BBE9",
"n 	c #BBC7ED",
"o 	c #6E8FE9",
"p 	c #87A1EA",
"q 	c #88A2EA",
"r 	c #809BEA",
"s 	c #7996E9",
"t 	c #7493E9",
"u 	c #7290E9",
"v 	c #6F8EE9",
"w 	c #6D8CE8",
"x 	c #6C8BE8",
"y 	c #6B8AE8",
"z 	c #6988E8",
"A 	c #6786E8",
"B 	c #6483E7",
"C 	c #6180E7",
"D 	c #5C7DE6",
"E 	c #5677E4",
"F 	c #4E6FDC",
"G 	c #4461C7",
"H 	c #B9BDEA",
"I 	c #6789E9",
"J 	c #829CEA",
"K 	c #7B97E9",
"L 	c #7492E9",
"M 	c #708FE9",
"N 	c #6D8CE9",
"O 	c #6A8AE9",
"P 	c #6887E9",
"Q 	c #6584E8",
"R 	c #6382E8",
"S 	c #6080E7",
"T 	c #5D7DE7",
"U 	c #5A7BE7",
"V 	c #577AE6",
"W 	c #5476E5",
"X 	c #4F70DD",
"Y 	c #4663C8",
"Z 	c #BABEEA",
"` 	c #BBC7EE",
" .	c #6487E9",
"..	c #7896EA",
"+.	c #7A96EA",
"@.	c #6B8BE9",
"#.	c #6585E8",
"$.	c #ABBAC5",
"%.	c #DFE1DF",
"&.	c #AEBEC8",
"*.	c #587AE7",
"=.	c #5779E7",
"-.	c #5578E7",
";.	c #5477E7",
">.	c #5377E7",
",.	c #5275E5",
"'.	c #5071DE",
").	c #4965C9",
"!.	c #BABEEB",
"~.	c #BCC7EE",
"{.	c #6285EA",
"].	c #7392EB",
"^.	c #7393EA",
"/.	c #708FEA",
"(.	c #6C8BEA",
"_.	c #6988E9",
":.	c #A9B9C3",
"<.	c #E5E5E1",
"[.	c #E7E7E3",
"}.	c #EAEAE6",
"|.	c #ECECE9",
"1.	c #EFEFEC",
"2.	c #B3C3CF",
"3.	c #5176E7",
"4.	c #5176E8",
"5.	c #5275E6",
"6.	c #5172DF",
"7.	c #4966CA",
"8.	c #BABFEB",
"9.	c #BCC6EE",
"0.	c #5F83E9",
"a.	c #708FEB",
"b.	c #7190EA",
"c.	c #6E8DEA",
"d.	c #6A89EA",
"e.	c #F1F1EF",
"f.	c #F3F3F1",
"g.	c #B6C5D2",
"h.	c #4F75E8",
"i.	c #5076E8",
"j.	c #5176E6",
"k.	c #5072DF",
"l.	c #4966CB",
"m.	c #BBC0EC",
"n.	c #6C8CEA",
"o.	c #6D8DEB",
"p.	c #6988EA",
"q.	c #E2E8DE",
"r.	c #A9DCA6",
"s.	c #4DBF4A",
"t.	c #A0D29E",
"u.	c #E8EEE6",
"v.	c #F5F5F3",
"w.	c #F7F7F6",
"x.	c #4C75E8",
"y.	c #4E75E8",
"z.	c #5076E6",
"A.	c #5073DF",
"B.	c #5A7FE9",
"C.	c #6889EA",
"D.	c #6A8BEA",
"E.	c #6A8AEA",
"F.	c #55D551",
"G.	c #43C33F",
"H.	c #29A826",
"I.	c #9ACC98",
"J.	c #F9F9F8",
"K.	c #BAC9D6",
"L.	c #4C76E8",
"M.	c #4E72E0",
"N.	c #4866CC",
"O.	c #BCC7EF",
"P.	c #577DE9",
"Q.	c #6487EA",
"R.	c #6789EA",
"S.	c #42C33F",
"T.	c #38B935",
"U.	c #21A121",
"V.	c #269623",
"W.	c #FAFAF9",
"X.	c #F3F5F6",
"Y.	c #4B77E9",
"Z.	c #4C77E8",
"`.	c #4C73E1",
" +	c #4666CC",
".+	c #BBC0ED",
"++	c #BDC8EF",
"@+	c #557DEA",
"#+	c #6688EA",
"$+	c #6788EB",
"%+	c #2AA827",
"&+	c #22A220",
"*+	c #139210",
"=+	c #98C897",
"-+	c #FCFCFB",
";+	c #BCCBD9",
">+	c #4A79EA",
",+	c #4A77E9",
"'+	c #4A73E2",
")+	c #4566CE",
"!+	c #BCC1EE",
"~+	c #BDC9F0",
"{+	c #527CEB",
"]+	c #5F84EB",
"^+	c #6487EB",
"/+	c #6688EB",
"(+	c #249624",
"_+	c #98C997",
":+	c #EEF3ED",
"<+	c #FDFDFD",
"[+	c #4A7CEB",
"}+	c #487BEB",
"|+	c #4879E9",
"1+	c #4773E3",
"2+	c #4366CF",
"3+	c #BCC3EE",
"4+	c #BECAF1",
"5+	c #507BEB",
"6+	c #5C83EB",
"7+	c #6186EB",
"8+	c #6488EC",
"9+	c #6589EB",
"0+	c #BCCCD9",
"a+	c #497FEC",
"b+	c #487DEB",
"c+	c #4679EA",
"d+	c #4573E4",
"e+	c #4266CF",
"f+	c #BCC4EF",
"g+	c #BECBF1",
"h+	c #4D79EB",
"i+	c #5982EC",
"j+	c #5F85EC",
"k+	c #6287EC",
"l+	c #6489EC",
"m+	c #6389ED",
"n+	c #4C82ED",
"o+	c #4980ED",
"p+	c #467DEC",
"q+	c #4479EB",
"r+	c #4372E4",
"s+	c #4066D0",
"t+	c #BDC6F0",
"u+	c #BECCF2",
"v+	c #4A79EC",
"w+	c #5580EC",
"x+	c #5B84EC",
"y+	c #5F87EC",
"z+	c #6188EC",
"A+	c #6188ED",
"B+	c #6088ED",
"C+	c #5E88ED",
"D+	c #5387ED",
"E+	c #5086ED",
"F+	c #4C84ED",
"G+	c #4881ED",
"H+	c #457DED",
"I+	c #4279EB",
"J+	c #4072E5",
"K+	c #3F66D0",
"L+	c #BEC6F0",
"M+	c #BFCEF2",
"N+	c #4978EC",
"O+	c #517EED",
"P+	c #5783EC",
"Q+	c #5B85EC",
"R+	c #5D87ED",
"S+	c #5D86ED",
"T+	c #5C87ED",
"U+	c #5B87ED",
"V+	c #5A87ED",
"W+	c #5787ED",
"X+	c #5487EE",
"Y+	c #5186EE",
"Z+	c #4E85EE",
"`+	c #4B83EE",
" @	c #4780EE",
".@	c #447DED",
"+@	c #4178EC",
"@@	c #3F72E5",
"#@	c #BEC7F1",
"$@	c #BFCFF3",
"%@	c #4676EA",
"&@	c #4D7CEA",
"*@	c #5380EB",
"=@	c #5682EB",
"-@	c #5883EB",
";@	c #5983EB",
">@	c #5584EC",
",@	c #5484EC",
"'@	c #5184EC",
")@	c #4E83EC",
"!@	c #4B82ED",
"~@	c #4880ED",
"{@	c #427AEC",
"]@	c #3F77EB",
"^@	c #3E70E3",
"/@	c #3F66CF",
"(@	c #BEC9F2",
"_@	c #BCCDF2",
":@	c #537EE3",
"<@	c #4977E2",
"[@	c #4D7AE2",
"}@	c #507CE4",
"|@	c #527DE3",
"1@	c #517CE3",
"2@	c #517DE3",
"3@	c #4F7CE3",
"4@	c #4E7CE3",
"5@	c #4C7CE5",
"6@	c #4A7CE5",
"7@	c #487BE6",
"8@	c #4679E5",
"9@	c #4378E6",
"0@	c #4176E6",
"a@	c #3F72E3",
"b@	c #3F6DDC",
"c@	c #4E71CE",
"d@	c #BECAF2",
"e@	c #A4BCEE",
"f@	c #A8BDEC",
"g@	c #537BD5",
"h@	c #466FCE",
"i@	c #4872D1",
"j@	c #4871D0",
"k@	c #4971CF",
"l@	c #4871CF",
"m@	c #4971D1",
"n@	c #4770D2",
"o@	c #4570D2",
"p@	c #4470D3",
"q@	c #436FD4",
"r@	c #426DD2",
"s@	c #406CD2",
"t@	c #3F6CD4",
"u@	c #3F69D1",
"v@	c #4E73CF",
"w@	c #A7B7E9",
"x@	c #A2B2EC",
"y@	c #A3BBEE",
"z@	c #BFCEF3",
"A@	c #BFCDF3",
"B@	c #BFCDF2",
"C@	c #BFCCF2",
"D@	c #BBC8F1",
"E@	c #A2B4EC",
"  . + @ @ @ # # # # # $ % % & * = - - ;   ",
"> , ' ) ! ~ { ] ^ / / ( ( _ : < [ } | 1 2 ",
"3 4 5 6 7 8 9 0 a b c d e f g h i j k l m ",
"n o p q r s t u v w x y z A B C D E F G H ",
"n I r J K L M N O P Q R S S T U V W X Y Z ",
"`  ...+.L v @.P #.$.%.&.*.=.-.;.>.,.'.).!.",
"~.{.].^./.(._.:.<.[.}.|.1.2.3.4.4.5.6.7.8.",
"9.0.a.b.c.d.:.<.[.}.|.1.e.f.g.h.i.j.k.l.m.",
"9.0.n.o.(.p.<.[.q.r.s.t.u.v.w.x.y.z.A.l.m.",
"~.B.C.D.E.$.[.}.r.F.G.H.I.w.J.K.L.[ M.N.m.",
"O.P.Q.R.C.%.}.|.s.S.T.U.V.J.W.X.Y.Z.`. +.+",
"++@+{.#+$+&.|.1.t.%+&+*+=+W.-+;+>+,+'+)+!+",
"~+{+]+^+/+/+1.e.u.I.(+_+:+-+<+[+}+|+1+2+3+",
"4+5+6+7+8+9+2.f.v.w.J.W.-+<+0+a+b+c+d+e+f+",
"g+h+i+j+k+l+m+g.w.J.W.-+<+0+n+o+p+q+r+s+t+",
"u+v+w+x+y+z+A+B+C+K.X.;+D+E+F+G+H+I+J+K+L+",
"M+N+O+P+Q+R+S+T+U+V+W+X+Y+Z+`+ @.@+@@@K+#@",
"$@%@&@*@=@-@;@P+P+>@,@'@)@!@~@H+{@]@^@/@(@",
"_@:@<@[@}@|@|@1@2@3@4@5@6@7@8@9@0@a@b@c@d@",
"e@f@g@h@i@j@k@l@m@m@n@o@p@q@r@s@t@u@v@w@x@",
"  y@$@$@$@$@$@$@z@z@A@B@B@B@C@C@C@C@D@E@  "};
