/* XPM */
static char * stick_toggled_pressed_xpm[] = {
"21 21 178 2",
"  	c None",
". 	c #B7C6F0",
"+ 	c #F5F7FD",
"@ 	c #FFFFFF",
"# 	c #CFD3DA",
"$ 	c #1F3B5F",
"% 	c #002453",
"& 	c #002557",
"* 	c #002658",
"= 	c #00285C",
"- 	c #002A61",
"; 	c #002D67",
"> 	c #002F6B",
", 	c #002F6C",
"' 	c #003273",
") 	c #003478",
"! 	c #00357B",
"~ 	c #00377F",
"{ 	c #003780",
"] 	c #003984",
"^ 	c #003882",
"/ 	c #1F5295",
"( 	c #CFDAE9",
"_ 	c #002A62",
": 	c #003070",
"< 	c #003275",
"[ 	c #003883",
"} 	c #003A88",
"| 	c #003D8F",
"1 	c #003E90",
"2 	c #004094",
"3 	c #004299",
"4 	c #00439B",
"5 	c #00449E",
"6 	c #00459F",
"7 	c #0045A1",
"8 	c #0045A0",
"9 	c #1F5AA8",
"0 	c #002452",
"a 	c #003170",
"b 	c #003B8B",
"c 	c #003C8F",
"d 	c #003E94",
"e 	c #004099",
"f 	c #00429D",
"g 	c #0044A2",
"h 	c #0046A5",
"i 	c #0048A8",
"j 	c #0049AB",
"k 	c #004AAC",
"l 	c #004AAD",
"m 	c #004BAE",
"n 	c #004BAF",
"o 	c #004BAD",
"p 	c #003377",
"q 	c #003D92",
"r 	c #003F97",
"s 	c #00419D",
"t 	c #0043A1",
"u 	c #0045A4",
"v 	c #0047A8",
"w 	c #0048AB",
"x 	c #0049AD",
"y 	c #004AAE",
"z 	c #004CB0",
"A 	c #004DB1",
"B 	c #004DB2",
"C 	c #002555",
"D 	c #003D90",
"E 	c #00409C",
"F 	c #0042A1",
"G 	c #0044A5",
"H 	c #0046A8",
"I 	c #8A99A0",
"J 	c #B6B7AF",
"K 	c #91A0A6",
"L 	c #00275A",
"M 	c #003781",
"N 	c #003F95",
"O 	c #87979E",
"P 	c #B7B7AD",
"Q 	c #BCBBB1",
"R 	c #C1C1B6",
"S 	c #C7C6BB",
"T 	c #CDCCC0",
"U 	c #9DACB1",
"V 	c #004EB3",
"W 	c #00295F",
"X 	c #003985",
"Y 	c #00419B",
"Z 	c #0043A2",
"` 	c #0044A6",
" .	c #D2D1C5",
"..	c #D7D5C8",
"+.	c #A4B2B6",
"@.	c #004FB4",
"#.	c #002B63",
"$.	c #003B8A",
"%.	c #00439F",
"&.	c #0045A5",
"*.	c #BBC1B0",
"=.	c #93C58A",
"-.	c #49BB45",
";.	c #8DBF84",
">.	c #CDD1BF",
",.	c #DBDACC",
"'.	c #DFDDCF",
").	c #0051B6",
"!.	c #0050B5",
"~.	c #002D68",
"{.	c #0045A3",
"].	c #55D551",
"^.	c #43C33F",
"/.	c #29A826",
"(.	c #8BBB80",
"_.	c #E3E1D3",
":.	c #ABBABD",
"<.	c #0053B8",
"[.	c #003F93",
"}.	c #0047A7",
"|.	c #42C33F",
"1.	c #38B935",
"2.	c #21A121",
"3.	c #23931F",
"4.	c #E6E5D6",
"5.	c #E2E2D6",
"6.	c #0056BB",
"7.	c #0055BA",
"8.	c #003172",
"9.	c #004095",
"0.	c #0048AA",
"a.	c #0049AC",
"b.	c #8DBF85",
"c.	c #2AA827",
"d.	c #22A220",
"e.	c #139210",
"f.	c #8ABA80",
"g.	c #EAE8D9",
"h.	c #B0BEC1",
"i.	c #0059BE",
"j.	c #0058BD",
"k.	c #8BBC80",
"l.	c #219320",
"m.	c #DBDFCC",
"n.	c #EDEBDB",
"o.	c #005EC3",
"p.	c #005CC1",
"q.	c #005ABF",
"r.	c #00449D",
"s.	c #004BB0",
"t.	c #B2C0C2",
"u.	c #0060C5",
"v.	c #0052B7",
"w.	c #00367E",
"x.	c #0061C6",
"y.	c #005FC4",
"z.	c #005DC2",
"A.	c #0059BD",
"B.	c #004EB2",
"C.	c #0062C6",
"D.	c #005ABE",
"E.	c #0054B8",
"F.	c #003881",
"G.	c #0046A1",
"H.	c #005CC0",
"I.	c #005FC3",
"J.	c #0060C4",
"K.	c #0058BC",
"L.	c #005BC0",
"M.	c #0057BC",
"N.	c #1F5294",
"O.	c #0046A2",
"P.	c #0054B9",
"Q.	c #1F66BE",
"R.	c #CFDAE8",
"S.	c #1F5BA9",
"T.	c #1F66BF",
"U.	c #CFDEF1",
"  . + @ @ @ @ @ @ @ @ @ @ @ @ @ @ @ + .   ",
". # $ % & * = - ; > , ' ) ! ~ { ] ^ / ( . ",
"+ $ _ : < ) ~ [ } | 1 2 3 4 5 6 7 8 7 9 + ",
"@ 0 a ^ b c d e f g h i j k l m m n m o @ ",
"@ % p b q r s t u v w x y z A A A B B B @ ",
"@ C ! D r E F G H I J K y n z A A B B B @ ",
"@ L M N s F G O P Q R S T U A A A V B B @ ",
"@ W X Y Z ` O P Q R S T  ...+.@.@.@.V B @ ",
"@ #.$.%.&.H P Q *.=.-.;.>.,.'.).!.!.@.V @ ",
"@ ~.| {.v I Q R =.].^./.(.'._.:.<.<.).@.@ ",
"@ , [.}.w J R S -.|.1.2.3._.4.5.6.7.<.!.@ ",
"@ 8.9.0.a.K S T b.c.d.e.f.4.g.h.i.j.7.).@ ",
"@ p 3 a.y y T  .>.k.l.f.m.g.n.o.p.q.6.).@ ",
"@ ! r.o z s.U ..,.'._.4.g.n.t.u.o.p.j.v.@ ",
"@ w.5 m A A A +.'._.4.g.n.t.u.x.y.z.A.<.@ ",
"@ M 8 m A A B.@.).:.5.h.z.y.x.C.u.o.D.E.@ ",
"@ F.G.m A A B.V !.<.6.i.H.o.I.u.J.z.i.<.@ ",
"@ [ 7 n B B V V !.<.7.K.q.p.z.o.z.L.M.).@ ",
"+ N.O.n B B B B @.).<.7.M.j.i.q.i.M.P.Q.+ ",
". R.S.o B B B B V @.!.).v.v.<.P.<.v.T.U.. ",
"  . + @ @ @ @ @ @ @ @ @ @ @ @ @ @ @ + .   "};
