/* XPM */
static char * stick_pressed_xpm[] = {
"21 21 157 2",
"  	c None",
". 	c #B7C6F0",
"+ 	c #F5F7FD",
"@ 	c #FFFFFF",
"# 	c #CFD3DA",
"$ 	c #1F3B5F",
"% 	c #002453",
"& 	c #002557",
"* 	c #002658",
"= 	c #00285C",
"- 	c #002A61",
"; 	c #002D67",
"> 	c #002F6B",
", 	c #002F6C",
"' 	c #003273",
") 	c #003478",
"! 	c #00357B",
"~ 	c #00377F",
"{ 	c #003780",
"] 	c #003984",
"^ 	c #003882",
"/ 	c #1F5295",
"( 	c #CFDAE9",
"_ 	c #002A62",
": 	c #003070",
"< 	c #003275",
"[ 	c #003883",
"} 	c #003A88",
"| 	c #003D8F",
"1 	c #003E90",
"2 	c #004094",
"3 	c #004299",
"4 	c #00439B",
"5 	c #00449E",
"6 	c #00459F",
"7 	c #0045A1",
"8 	c #0045A0",
"9 	c #1F5AA8",
"0 	c #002452",
"a 	c #003170",
"b 	c #003B8B",
"c 	c #003C8F",
"d 	c #003E94",
"e 	c #004099",
"f 	c #00429D",
"g 	c #0044A2",
"h 	c #0046A5",
"i 	c #0048A8",
"j 	c #0049AB",
"k 	c #004AAC",
"l 	c #004AAD",
"m 	c #004BAE",
"n 	c #004BAF",
"o 	c #004BAD",
"p 	c #003377",
"q 	c #003D92",
"r 	c #003F97",
"s 	c #00419D",
"t 	c #0043A1",
"u 	c #0045A4",
"v 	c #0047A8",
"w 	c #0048AB",
"x 	c #0049AD",
"y 	c #004AAE",
"z 	c #004CB0",
"A 	c #004DB1",
"B 	c #004DB2",
"C 	c #002555",
"D 	c #003D90",
"E 	c #00409C",
"F 	c #0042A1",
"G 	c #0044A5",
"H 	c #0046A8",
"I 	c #8A99A0",
"J 	c #B6B7AF",
"K 	c #91A0A6",
"L 	c #00275A",
"M 	c #003781",
"N 	c #003F95",
"O 	c #87979E",
"P 	c #B7B7AD",
"Q 	c #BCBBB1",
"R 	c #C1C1B6",
"S 	c #C7C6BB",
"T 	c #CDCCC0",
"U 	c #9DACB1",
"V 	c #004EB3",
"W 	c #00295F",
"X 	c #003985",
"Y 	c #00419B",
"Z 	c #0043A2",
"` 	c #0044A6",
" .	c #D2D1C5",
"..	c #D7D5C8",
"+.	c #A4B2B6",
"@.	c #004FB4",
"#.	c #002B63",
"$.	c #003B8A",
"%.	c #00439F",
"&.	c #0045A5",
"*.	c #DBDACC",
"=.	c #DFDDCF",
"-.	c #0051B6",
";.	c #0050B5",
">.	c #002D68",
",.	c #0045A3",
"'.	c #E3E1D3",
").	c #ABBABD",
"!.	c #0053B8",
"~.	c #003F93",
"{.	c #0047A7",
"].	c #E6E5D6",
"^.	c #E2E2D6",
"/.	c #0056BB",
"(.	c #0055BA",
"_.	c #003172",
":.	c #004095",
"<.	c #0048AA",
"[.	c #0049AC",
"}.	c #EAE8D9",
"|.	c #B0BEC1",
"1.	c #0059BE",
"2.	c #0058BD",
"3.	c #EDEBDB",
"4.	c #005EC3",
"5.	c #005CC1",
"6.	c #005ABF",
"7.	c #00449D",
"8.	c #004BB0",
"9.	c #B2C0C2",
"0.	c #0060C5",
"a.	c #0052B7",
"b.	c #00367E",
"c.	c #0061C6",
"d.	c #005FC4",
"e.	c #005DC2",
"f.	c #0059BD",
"g.	c #004EB2",
"h.	c #0062C6",
"i.	c #005ABE",
"j.	c #0054B8",
"k.	c #003881",
"l.	c #0046A1",
"m.	c #005CC0",
"n.	c #005FC3",
"o.	c #0060C4",
"p.	c #0058BC",
"q.	c #005BC0",
"r.	c #0057BC",
"s.	c #1F5294",
"t.	c #0046A2",
"u.	c #0054B9",
"v.	c #1F66BE",
"w.	c #CFDAE8",
"x.	c #1F5BA9",
"y.	c #1F66BF",
"z.	c #CFDEF1",
"  . + @ @ @ @ @ @ @ @ @ @ @ @ @ @ @ + .   ",
". # $ % & * = - ; > , ' ) ! ~ { ] ^ / ( . ",
"+ $ _ : < ) ~ [ } | 1 2 3 4 5 6 7 8 7 9 + ",
"@ 0 a ^ b c d e f g h i j k l m m n m o @ ",
"@ % p b q r s t u v w x y z A A A B B B @ ",
"@ C ! D r E F G H I J K y n z A A B B B @ ",
"@ L M N s F G O P Q R S T U A A A V B B @ ",
"@ W X Y Z ` O P Q R S T  ...+.@.@.@.V B @ ",
"@ #.$.%.&.H P Q R S T  ...*.=.-.;.;.@.V @ ",
"@ >.| ,.v I Q R S T  ...*.=.'.).!.!.-.@.@ ",
"@ , ~.{.w J R S T  ...*.=.'.].^./.(.!.;.@ ",
"@ _.:.<.[.K S T  ...*.=.'.].}.|.1.2.(.-.@ ",
"@ p 3 [.y y T  ...*.=.'.].}.3.4.5.6./.-.@ ",
"@ ! 7.o z 8.U ..*.=.'.].}.3.9.0.4.5.2.a.@ ",
"@ b.5 m A A A +.=.'.].}.3.9.0.c.d.e.f.!.@ ",
"@ M 8 m A A g.@.-.).^.|.e.d.c.h.0.4.i.j.@ ",
"@ k.l.m A A g.V ;.!./.1.m.4.n.0.o.e.1.!.@ ",
"@ [ 7 n B B V V ;.!.(.p.6.5.e.4.e.q.r.-.@ ",
"+ s.t.n B B B B @.-.!.(.r.2.1.6.1.r.u.v.+ ",
". w.x.o B B B B V @.;.-.a.a.!.u.!.a.y.z.. ",
"  . + @ @ @ @ @ @ @ @ @ @ @ @ @ @ @ + .   "};
