/* XPM */
static char * stick_toggled_prelight_xpm[] = {
"21 21 290 2",
"  	c None",
". 	c #B7C6F0",
"+ 	c #F5F7FD",
"@ 	c #FFFFFF",
"# 	c #DCE7FF",
"$ 	c #72A1FF",
"% 	c #6A9CFF",
"& 	c #5F94FF",
"* 	c #558EFF",
"= 	c #518BFF",
"- 	c #4A86FF",
"; 	c #4B87FF",
"> 	c #4684FF",
", 	c #4482FF",
"' 	c #4080FF",
") 	c #3B7CFF",
"! 	c #3A7BFF",
"~ 	c #3678FF",
"{ 	c #2E73FF",
"] 	c #276CF9",
"^ 	c #3A73E7",
"/ 	c #D3DDF3",
"( 	c #73A1FF",
"_ 	c #97B9FF",
": 	c #9CBDFF",
"< 	c #90B5FF",
"[ 	c #82ACFF",
"} 	c #7BA7FF",
"| 	c #75A3FF",
"1 	c #6F9FFF",
"2 	c #6C9DFF",
"3 	c #689BFF",
"4 	c #6599FF",
"5 	c #6095FF",
"6 	c #5D93FF",
"7 	c #568EFF",
"8 	c #4F8AFF",
"9 	c #3878FB",
"0 	c #2969EB",
"a 	c #3566CB",
"b 	c #9EBEFF",
"c 	c #A4C2FF",
"d 	c #99BAFF",
"e 	c #8AB0FF",
"f 	c #82ABFF",
"g 	c #79A6FF",
"h 	c #74A3FF",
"i 	c #71A0FF",
"j 	c #6D9EFF",
"k 	c #699BFF",
"l 	c #5A91FF",
"m 	c #538CFF",
"n 	c #4986FF",
"o 	c #3D7CFC",
"p 	c #2E6CEA",
"q 	c #1B52C2",
"r 	c #6296FF",
"s 	c #91B5FF",
"t 	c #8FB4FF",
"u 	c #7AA6FF",
"v 	c #6B9DFF",
"w 	c #6598FF",
"x 	c #5F95FF",
"y 	c #5B92FF",
"z 	c #548DFF",
"A 	c #528CFF",
"B 	c #4C88FF",
"C 	c #4785FF",
"D 	c #4280FF",
"E 	c #3B7AFB",
"F 	c #316FEC",
"G 	c #1F55C3",
"H 	c #5990FF",
"I 	c #85ADFF",
"J 	c #8BB1FF",
"K 	c #84ACFF",
"L 	c #78A5FF",
"M 	c #70A0FF",
"N 	c #679AFF",
"O 	c #BCB694",
"P 	c #F4D48C",
"Q 	c #BCAF83",
"R 	c #4180FF",
"S 	c #3D7EFF",
"T 	c #3B7BFF",
"U 	c #397AFF",
"V 	c #3979FC",
"W 	c #3370EC",
"X 	c #2357C3",
"Y 	c #81AAFF",
"Z 	c #7AA7FF",
"` 	c #6B9CFF",
" .	c #BCB99F",
"..	c #FEDF9C",
"+.	c #FDD98C",
"@.	c #FDD684",
"#.	c #FCD37C",
"$.	c #FCD074",
"%.	c #BAA871",
"&.	c #3679FF",
"*.	c #3579FF",
"=.	c #3879FC",
"-.	c #2358C5",
";.	c #4E89FF",
">.	c #71A1FF",
",.	c #77A5FF",
"'.	c #74A2FF",
").	c #FBDC98",
"!.	c #F7E3B3",
"~.	c #F2EDD7",
"{.	c #F6E0AC",
"].	c #FAD17B",
"^.	c #FBC863",
"/.	c #BAA365",
"(.	c #317AFF",
"_.	c #337AFF",
":.	c #367BFC",
"<.	c #3372ED",
"[.	c #2359C5",
"}.	c #4D88FF",
"|.	c #699CFF",
"1.	c #E9ECD2",
"2.	c #ACDEA0",
"3.	c #4DBF48",
"4.	c #A0D194",
"5.	c #E7E8CE",
"6.	c #F9CB6D",
"7.	c #FAC254",
"8.	c #2F7FFF",
"9.	c #3280FF",
"0.	c #3580FC",
"a.	c #3276ED",
"b.	c #235AC6",
"c.	c #6196FF",
"d.	c #689AFF",
"e.	c #55D551",
"f.	c #43C33F",
"g.	c #29A826",
"h.	c #98C88C",
"i.	c #F5D99C",
"j.	c #FAC04E",
"k.	c #B99E58",
"l.	c #3188FF",
"m.	c #3385FC",
"n.	c #3079ED",
"o.	c #215CC8",
"p.	c #3F7FFF",
"q.	c #6397FF",
"r.	c #42C33F",
"s.	c #38B935",
"t.	c #21A121",
"u.	c #259520",
"v.	c #F2EBD4",
"w.	c #F9BD48",
"x.	c #F0B745",
"y.	c #3090FF",
"z.	c #328CFC",
"A.	c #2E7DEF",
"B.	c #1E5DC9",
"C.	c #5C92FF",
"D.	c #2AA827",
"E.	c #22A220",
"F.	c #139210",
"G.	c #93C288",
"H.	c #F5D797",
"I.	c #F9BB43",
"J.	c #B99B51",
"K.	c #2E97FF",
"L.	c #2E91FC",
"M.	c #2A80F0",
"N.	c #1B5DCB",
"O.	c #3275FF",
"P.	c #98C98C",
"Q.	c #239521",
"R.	c #93C388",
"S.	c #E6E6CD",
"T.	c #F8C259",
"U.	c #F9B93E",
"V.	c #30A5FF",
"W.	c #2CA0FF",
"X.	c #2A96FD",
"Y.	c #2581F1",
"Z.	c #185DCC",
"`.	c #2D72FF",
" +	c #5790FF",
".+	c #B9994E",
"++	c #2FABFF",
"@+	c #29A4FF",
"#+	c #2599FD",
"$+	c #1E80F2",
"%+	c #145BCD",
"&+	c #276EFF",
"*+	c #3D7DFF",
"=+	c #4985FF",
"-+	c #528DFF",
";+	c #35B2FF",
">+	c #2CAEFF",
",+	c #24A5FF",
"'+	c #1F97FD",
")+	c #1980F3",
"!+	c #105ACE",
"~+	c #216AFF",
"{+	c #3578FF",
"]+	c #4885FF",
"^+	c #4D89FF",
"/+	c #4C8CFF",
"(+	c #4D94FF",
"_+	c #41AFFF",
":+	c #3BB2FF",
"<+	c #33B1FF",
"[+	c #2AADFF",
"}+	c #21A3FF",
"|+	c #1A95FD",
"1+	c #137CF2",
"2+	c #0C59CF",
"3+	c #1C66FF",
"4+	c #3879FF",
"5+	c #3F7EFF",
"6+	c #4483FF",
"7+	c #4584FF",
"8+	c #4587FF",
"9+	c #468EFF",
"0+	c #4696FF",
"a+	c #439CFF",
"b+	c #3FA3FF",
"c+	c #3BA8FF",
"d+	c #33AAFF",
"e+	c #2DA9FF",
"f+	c #24A6FF",
"g+	c #1D9EFF",
"h+	c #1690FD",
"i+	c #1078F1",
"j+	c #0B57CE",
"k+	c #1761F9",
"l+	c #246BFA",
"m+	c #2F72FB",
"n+	c #3676FB",
"o+	c #3A7AFB",
"p+	c #3B7BFC",
"q+	c #3B7EFC",
"r+	c #3C84FC",
"s+	c #3B8AFC",
"t+	c #3990FC",
"u+	c #3695FC",
"v+	c #3299FC",
"w+	c #2C9CFD",
"x+	c #259BFD",
"y+	c #1E97FD",
"z+	c #1790FC",
"A+	c #1184FA",
"B+	c #0C6DED",
"C+	c #0850C8",
"D+	c #2F6AE4",
"E+	c #1B5FE9",
"F+	c #2163E8",
"G+	c #2868EB",
"H+	c #2C6AEA",
"I+	c #2E6DEA",
"J+	c #2D6DEB",
"K+	c #2C71EC",
"L+	c #2C76EC",
"M+	c #2A79ED",
"N+	c #287EEF",
"O+	c #2481F1",
"P+	c #2182F1",
"Q+	c #1C80F1",
"R+	c #1880F3",
"S+	c #117AF2",
"T+	c #0C6EED",
"U+	c #0A5DDD",
"V+	c #265DC1",
"W+	c #D1DDF4",
"X+	c #2E61CA",
"Y+	c #134BBF",
"Z+	c #164FC2",
"`+	c #1950C1",
" @	c #1B52C1",
".@	c #1A52C3",
"+@	c #1954C6",
"@@	c #1B58C9",
"#@	c #1858C8",
"$@	c #165BCD",
"%@	c #145CD0",
"&@	c #135CD0",
"*@	c #0F58CC",
"=@	c #0D5AD2",
"-@	c #0B58D1",
";@	c #0951CB",
">@	c #265EC3",
",@	c #D0DAEE",
"  . + @ @ @ @ @ @ @ @ @ @ @ @ @ @ @ + .   ",
". # $ % & * = - ; > > , ' ) ! ~ { ] ^ / . ",
"+ ( _ : < [ } | 1 2 3 4 5 6 7 8 , 9 0 a + ",
"@ 2 b c d e f g h i j k 4 5 l m n o p q @ ",
"@ r s d t [ u $ v w x y z A B C D E F G @ ",
"@ H I J K L M N 5 O P Q , R S T U V W X @ ",
"@ z } Y Z $ `  ...+.@.#.$.%.&.*.&.=.W -.@ ",
"@ ;.>.,.'.j  ...).!.~.{.].^./.(._.:.<.[.@ ",
"@ }.|.1 j 3 ..).1.2.3.4.5.6.7.8.9.0.a.b.@ ",
"@ , c.3 d.O +.!.2.e.f.g.h.i.j.k.l.m.n.o.@ ",
"@ p.l c.q.P @.~.3.r.s.t.u.v.w.x.y.z.A.B.@ ",
"@ U m C.& Q #.{.4.D.E.F.G.H.I.J.K.L.M.N.@ ",
"@ O.; * l C.$.].5.P.Q.R.S.T.U.V.W.X.Y.Z.@ ",
"@ `., 8 z  +%.^.6.i.v.H.T.U..+++@+#+$+%+@ ",
"@ &+*+=+8 A -+/.7.j.w.I.U..+;+>+,+'+)+!+@ ",
"@ ~+{+' ]+B ^+/+(+k.x.J._+:+<+[+}+|+1+2+@ ",
"@ 3+`.4+5+6+7+8+9+0+a+b+c+d+e+f+g+h+i+j+@ ",
"@ k+l+m+n+o+p+q+r+s+t+u+v+w+x+y+z+A+B+C+@ ",
"+ D+E+F+G+H+I+J+K+L+M+N+O+P+Q+R+S+T+U+V++ ",
". W+X+Y+Z+`+ @.@+@@@#@$@%@&@*@=@-@;@>@,@. ",
"  . + @ @ @ @ @ @ @ @ @ @ @ @ @ @ @ + .   "};
