/* XPM */
static char * title_5_inactive_xpm[] = {
"19 29 82 1",
" 	c None",
".	c #688DE0",
"+	c #688DE1",
"@	c #98B2E8",
"#	c #98B3E9",
"$	c #98B2E9",
"%	c #9DB9EB",
"&	c #9CB8EB",
"*	c #9CB8EA",
"=	c #9BB7EA",
"-	c #9BB8EB",
";	c #9BB7EB",
">	c #8AACE7",
",	c #8AADE8",
"'	c #8AACE8",
")	c #7EA2E4",
"!	c #7EA3E5",
"~	c #7EA2E5",
"{	c #7B9CE1",
"]	c #7B9DE2",
"^	c #7B9CE2",
"/	c #7B9BE1",
"(	c #7B9BE2",
"_	c #7B9AE1",
":	c #7A9AE1",
"<	c #7A99E0",
"[	c #7A9AE0",
"}	c #7A99DF",
"|	c #7999DF",
"1	c #7999DE",
"2	c #799ADF",
"3	c #7998DF",
"4	c #7998DE",
"5	c #7997DE",
"6	c #7996DE",
"7	c #7997DF",
"8	c #7996DF",
"9	c #7895DE",
"0	c #7895DD",
"a	c #7995DF",
"b	c #7995DE",
"c	c #7994DE",
"d	c #7A96DF",
"e	c #7A97E0",
"f	c #7A96E0",
"g	c #7A95E0",
"h	c #7A95DF",
"i	c #7A94DF",
"j	c #7A96E1",
"k	c #7B97E0",
"l	c #7B98E1",
"m	c #7B97E1",
"n	c #7B99E1",
"o	c #7B98E0",
"p	c #7B99E2",
"q	c #7D9BE3",
"r	c #7D9CE4",
"s	c #7D9BE4",
"t	c #7F9FE6",
"u	c #7F9EE6",
"v	c #7E9EE5",
"w	c #7E9DE5",
"x	c #7E9EE6",
"y	c #7E9DE6",
"z	c #7FA2E6",
"A	c #7FA3E7",
"B	c #7FA2E7",
"C	c #7FA1E7",
"D	c #80A5E7",
"E	c #80A6E8",
"F	c #81A5E7",
"G	c #81A4E7",
"H	c #81A3E7",
"I	c #81A7E8",
"J	c #81A8E9",
"K	c #81A7E9",
"L	c #82A9E9",
"M	c #82AAEA",
"N	c #82A9EA",
"O	c #80A5E8",
"P	c #7A93DF",
"Q	c #7A93E0",
".+.......+.+.++++..",
"@#@$@@@@@$@$@#$##@@",
"%%&&**===-=;=&&&&&&",
">,>>>>>>>'>'>,',,>>",
")!)))))))~)~)~~!!))",
"{]{^/////(________:",
"<[<<}||1|2111|13345",
"6768666668666666669",
"6666600099000999900",
"676666666768688aabc",
"dedddddddedfdffgghi",
"dedddddddedfdffgghi",
"fjfffffffjfjfjjjjff",
"klkkkkkkkmkmkmmmmkf",
"nnlllookllkkkmmmmkk",
"npnnnnnnnpnpnppppnn",
"qrqqqqqqqsqsqssssqq",
"qrqqqqqqqsqsqssssqq",
"ttuuuvvwxxwwwyyyyww",
"zAzzzzzzzAzBzBBBBCC",
"DEDEDDDDDEDDDFFGGGH",
"IJIKIIIIIKIKIKKJJII",
"LMLNLLLLLNLNLNNMMLL",
"LMLNLLLLLNLNLNNMMLL",
"IJIKIIIIIKIKIKKJJII",
"DEDDDDDDDODODOOEEDD",
"wxwwwwwwwywywyyxyww",
"PQPPPPPPPQPQPQQQQPP",
"PQPPPPPPPQPQPQQQQPP"};
