/* XPM */
static char * title_2_active_xpm[] = {
"19 29 78 1",
" 	c None",
".	c #0058EC",
"+	c #0058ED",
"@	c #0058EE",
"#	c #0058EB",
"$	c #0059EB",
"%	c #0059EA",
"&	c #0059E9",
"*	c #0059E8",
"=	c #3D95FF",
"-	c #3E96FF",
";	c #3F97FF",
">	c #2A8FFF",
",	c #2B90FF",
"'	c #0472FE",
")	c #0472FF",
"!	c #0372FF",
"~	c #0272FF",
"{	c #0271FE",
"]	c #0366F2",
"^	c #0365F1",
"/	c #005CEA",
"(	c #005CE9",
"_	c #0057E6",
":	c #0058E6",
"<	c #0055E4",
"[	c #0054E4",
"}	c #0053E4",
"|	c #0053E3",
"1	c #0054E3",
"2	c #0053E2",
"3	c #0052E2",
"4	c #0052E1",
"5	c #0051E1",
"6	c #0054E5",
"7	c #0055E5",
"8	c #0053E5",
"9	c #0054E6",
"0	c #0055E7",
"a	c #0055E6",
"b	c #0056EA",
"c	c #0055E9",
"d	c #0055EA",
"e	c #0056EB",
"f	c #005AF2",
"g	c #005BF2",
"h	c #005BF3",
"i	c #005AF3",
"j	c #015CF5",
"k	c #015DF5",
"l	c #005DF5",
"m	c #005CF5",
"n	c #005EF9",
"o	c #005FF9",
"p	c #0060F9",
"q	c #0162F9",
"r	c #0163F9",
"s	c #0063FA",
"t	c #0062FA",
"u	c #0269FE",
"v	c #0268FE",
"w	c #0267FD",
"x	c #0167FD",
"y	c #026AFE",
"z	c #036CFF",
"A	c #026BFE",
"B	c #0265FA",
"C	c #0165FB",
"D	c #0065FC",
"E	c #005FF8",
"F	c #0060FA",
"G	c #004DE3",
"H	c #004CE2",
"I	c #004BE1",
"J	c #004AE0",
"K	c #0144D0",
"L	c #0043CF",
"M	c #0143CF",
"...++@@@@@+.#$%&***",
"=----;;;;;;;---====",
">>>,,,,,,,,,,,,,,,,",
"'')!!!!!!!!!~{{{{{{",
"]]]^^^^^^^^^^^^^^^^",
"/////////////((((((",
"___::::::::::::::::",
"<<<<[[[[[[[[[}|||||",
"1111111111111122222",
"|||3333333334555555",
"6677777777777766666",
"8886666666666688888",
"9996666666666688888",
"00000000000000aaaaa",
"bbbccccccccccdddddd",
"eeedddddddddddddddd",
"@@@@@@@@@@@@@@@@@@@",
"ffggggggggggghiiiii",
"jjklllllllllllmmmmm",
"nnnoooooooooppppppp",
"qqrrrrrrrrrrrsttttt",
"uuuuvvvvvvvvvwxxxxx",
"yyyyyyyyyyyyyyyyyyy",
"zzzzAAAAAAAAAyyyyyy",
"uuuyyyyyyyyyyyyyyyy",
"BBBBCCCCCCCCCDDDDDD",
"EooppFFFFFFFFFpoooo",
"GGGGHHHHHHHIIIIJJJJ",
"KKKLLLLLLLLLLLMMMMM"};
