/* XPM */
static char * top_left_active_xpm[] = {
"6 29 93 2",
"  	c None",
". 	c #0352D5",
"+ 	c #014CD0",
"@ 	c #034FD3",
"# 	c #1673F6",
"$ 	c #025DE9",
"% 	c #0F6FF6",
"& 	c #2285FA",
"* 	c #0041CA",
"= 	c #0050E2",
"- 	c #0054DB",
"; 	c #066CF0",
"> 	c #0F77F9",
", 	c #004BCD",
"' 	c #005BE0",
") 	c #0160E8",
"! 	c #0267F1",
"~ 	c #0032C1",
"{ 	c #004ADC",
"] 	c #0058E1",
"^ 	c #005CE8",
"/ 	c #004CD1",
"( 	c #0055DE",
"_ 	c #0056E4",
": 	c #0024A6",
"< 	c #004CD0",
"[ 	c #0053DC",
"} 	c #0055E1",
"| 	c #0018AB",
"1 	c #003DCC",
"2 	c #0145D0",
"3 	c #0053DB",
"4 	c #0053DD",
"5 	c #0047D7",
"6 	c #0053DA",
"7 	c #0058DF",
"8 	c #0031C6",
"9 	c #003FD2",
"0 	c #004AD8",
"a 	c #0050E0",
"b 	c #0054E3",
"c 	c #001ABC",
"d 	c #0037CB",
"e 	c #003BD2",
"f 	c #0053E1",
"g 	c #0054E5",
"h 	c #0036D2",
"i 	c #0040DC",
"j 	c #0051E5",
"k 	c #0055E5",
"l 	c #0058E6",
"m 	c #0058E8",
"n 	c #0020C8",
"o 	c #0038D8",
"p 	c #0046E4",
"q 	c #0055EA",
"r 	c #0057EB",
"s 	c #0058EB",
"t 	c #005BEC",
"u 	c #001FD2",
"v 	c #003DDC",
"w 	c #003BE0",
"x 	c #005CEC",
"y 	c #005EF2",
"z 	c #0023D6",
"A 	c #0046EA",
"B 	c #0051EB",
"C 	c #005EF3",
"D 	c #004BE7",
"E 	c #005FF2",
"F 	c #0160F6",
"G 	c #003BE2",
"H 	c #004BEB",
"I 	c #0058EE",
"J 	c #0061F4",
"K 	c #0165FA",
"L 	c #001ACF",
"M 	c #0162F7",
"N 	c #0267FB",
"O 	c #0059EF",
"P 	c #0163F7",
"Q 	c #0268FC",
"R 	c #0060F6",
"S 	c #0166FB",
"T 	c #005FF5",
"U 	c #004EE4",
"V 	c #0057EA",
"W 	c #005DF3",
"X 	c #004BE0",
"Y 	c #003FD0",
"Z 	c #0048D9",
"` 	c #004ADF",
" .	c #0043CF",
"          . ",
"      + @ # ",
"    + $ % & ",
"  * = - ; > ",
"  * , ' ) ! ",
"~ { , - ] ^ ",
"~ ~ * / ( _ ",
": ~ * < [ } ",
"| ~ 1 2 3 4 ",
"| ~ 1 5 6 7 ",
"| 8 9 0 a b ",
"c d e { f g ",
"c h i { b g ",
"c h i { j k ",
"c h i = l m ",
"n o p j q r ",
"n o p j s t ",
"u v p k s t ",
"u w p q x y ",
"z w A B y C ",
"z w D s E F ",
"u G H I J K ",
"L G H I M N ",
"L G H O P Q ",
"L G H O R S ",
"L w H O T M ",
"L w H U V W ",
"L w w X Y Z ",
"L w w `  . ."};
