/* XPM */
static char * top_left_inactive_xpm[] = {
"6 29 70 1",
" 	c None",
".	c #506FD3",
"+	c #485ECA",
"@	c #6180D8",
"#	c #829DDF",
"$	c #5063CC",
"%	c #6585DC",
"&	c #7C9DE0",
"*	c #8DAFE7",
"=	c #7793DB",
"-	c #7B9EDF",
";	c #83A6E4",
">	c #5B6FCF",
",	c #7084D7",
"'	c #7896DD",
")	c #7A9AE0",
"!	c #5B68CD",
"~	c #6B78D0",
"{	c #7689D9",
"]	c #768ED8",
"^	c #7895DD",
"/	c #727AD2",
"(	c #7584D8",
"_	c #7791DA",
":	c #7791DB",
"<	c #7276D1",
"[	c #747CD5",
"}	c #7686D9",
"|	c #7792DA",
"1	c #7791DC",
"2	c #768EDB",
"3	c #7793DC",
"4	c #767FD8",
"5	c #778EDB",
"6	c #7993DE",
"7	c #7683D9",
"8	c #7789DB",
"9	c #7992DE",
"0	c #7783DA",
"a	c #778BDB",
"b	c #7990DE",
"c	c #7994DE",
"d	c #7784DB",
"e	c #788DDD",
"f	c #7A96DF",
"g	c #7786DC",
"h	c #7A93DF",
"i	c #7A96E0",
"j	c #788ADD",
"k	c #7A90DF",
"l	c #7A97E0",
"m	c #7B99E1",
"n	c #7A8BDE",
"o	c #7B98E1",
"p	c #7C9AE2",
"q	c #798DDE",
"r	c #7C9BE2",
"s	c #7E9EE4",
"t	c #7987DE",
"u	c #7B97E0",
"v	c #7D9CE3",
"w	c #7D9FE4",
"x	c #7D99E3",
"y	c #7FA2E5",
"z	c #7C91E1",
"A	c #7D9BE3",
"B	c #7F9FE6",
"C	c #80A5E6",
"D	c #81A6E6",
"E	c #80A6E7",
"     .",
"   +@#",
"  $%&*",
" +%=-;",
" >,=')",
"!~{]]^",
"!/({]_",
"!/,{]:",
"!<[}]|",
"!<[}]1",
"!<[}23",
"!/4}56",
"![7859",
"![0abc",
"!4de6f",
"!4gbhi",
"!0jklm",
"!dnhop",
"!dqirs",
"!tquvw",
"!tkxwy",
"!tzABC",
"!tzAyC",
"!tzAyD",
"!tzAyE",
"!tzAwy",
"!tkumm",
"!4j225",
"!4j225"};
