/* XPM */
static char * top_right_active_xpm[] = {
"6 29 114 2",
"  	c None",
". 	c #0044D6",
"+ 	c #2282FC",
"@ 	c #0954E0",
"# 	c #0135C9",
"$ 	c #2388FE",
"% 	c #1077FD",
"& 	c #035FF6",
"* 	c #003CD4",
"= 	c #046EFA",
"- 	c #0162F1",
"; 	c #0057E6",
"> 	c #0044D4",
", 	c #003DDC",
"' 	c #0160EC",
") 	c #0051E0",
"! 	c #0046D6",
"~ 	c #0038CB",
"{ 	c #0018AB",
"] 	c #0057E4",
"^ 	c #0048D6",
"/ 	c #0039CC",
"( 	c #0032C1",
"_ 	c #0015A0",
": 	c #0052E2",
"< 	c #0043D5",
"[ 	c #0036C5",
"} 	c #002BB8",
"| 	c #0026AC",
"1 	c #0050E0",
"2 	c #0045D7",
"3 	c #0037C7",
"4 	c #0024BA",
"5 	c #0024A6",
"6 	c #000E7D",
"7 	c #0051E1",
"8 	c #0048D9",
"9 	c #0035CD",
"0 	c #0024BB",
"a 	c #004EDF",
"b 	c #0046D7",
"c 	c #0034CC",
"d 	c #0021C8",
"e 	c #004DE1",
"f 	c #0041DA",
"g 	c #002FCB",
"h 	c #0020C8",
"i 	c #004CE0",
"j 	c #003ED7",
"k 	c #004EE3",
"l 	c #003FDA",
"m 	c #002ED1",
"n 	c #004FE2",
"o 	c #0040DB",
"p 	c #002DD3",
"q 	c #0050E5",
"r 	c #0040DE",
"s 	c #0035D3",
"t 	c #0029D0",
"u 	c #002AB7",
"v 	c #004FE7",
"w 	c #0043DE",
"x 	c #0037D9",
"y 	c #00138B",
"z 	c #0053EB",
"A 	c #0047E6",
"B 	c #0039DB",
"C 	c #0024D6",
"D 	c #0055F0",
"E 	c #004EEA",
"F 	c #0041E3",
"G 	c #0030DD",
"H 	c #001592",
"I 	c #0058F2",
"J 	c #0050EF",
"K 	c #0044E7",
"L 	c #0031DE",
"M 	c #002AB8",
"N 	c #0059F5",
"O 	c #0052F0",
"P 	c #0047EB",
"Q 	c #003DE3",
"R 	c #005DF7",
"S 	c #0052F3",
"T 	c #0046EC",
"U 	c #0039EA",
"V 	c #002CC8",
"W 	c #0060FA",
"X 	c #0053F4",
"Y 	c #0047EC",
"Z 	c #0031C6",
"` 	c #0161FB",
" .	c #0056F7",
"..	c #004AF0",
"+.	c #0163FA",
"@.	c #0058F6",
"#.	c #004BF1",
"$.	c #003AEB",
"%.	c #0165FB",
"&.	c #005AF7",
"*.	c #004CF2",
"=.	c #0032C2",
"-.	c #0061FB",
";.	c #0057F6",
">.	c #004AEE",
",.	c #005BF8",
"'.	c #004AEF",
").	c #0045DE",
"!.	c #003AD9",
"~.	c #003BDE",
"{.	c #0038EA",
"].	c #0043CF",
"^.	c #003CDF",
"/.	c #002EDC",
".           ",
"+ @ #       ",
"$ % & *     ",
"= - ; > ,   ",
"' ) ! ~ {   ",
"] ^ / ( ( _ ",
": < [ } | _ ",
"1 2 3 4 5 6 ",
"7 8 9 0 5 6 ",
"a b c d 5 6 ",
"e f g h | 6 ",
"i j g h 5 6 ",
"k l m h | 6 ",
"n o p h | 6 ",
"q r s t u 6 ",
"v w x t | y ",
"z A B C u y ",
"D E F G u H ",
"I J K L M H ",
"N O P Q ( H ",
"R S T U V H ",
"W X Y U Z H ",
"`  ...U ( H ",
"+.@.#.$.( y ",
"%.&.*.$.=.y ",
"-.;.>.U ( y ",
",.S '.U ( y ",
").!.~.{.( y ",
"].].^./.( H "};
