/* XPM */
static char * top_right_inactive_xpm[] = {
"6 29 106 2",
"  	c None",
". 	c #5474D4",
"+ 	c #7E9AE1",
"@ 	c #6D7FDC",
"# 	c #535ECE",
"$ 	c #92AEE8",
"% 	c #819EE3",
"& 	c #6F86D8",
"* 	c #5063CC",
"= 	c #8DADE8",
"- 	c #82A1E3",
"; 	c #778FDD",
"> 	c #6B78D0",
", 	c #4756C8",
"' 	c #80A1E2",
") 	c #7B96DF",
"! 	c #768BD9",
"~ 	c #707AD2",
"{ 	c #5B68CD",
"] 	c #7895DE",
"^ 	c #7681D8",
"/ 	c #727AD2",
"( 	c #6F71CD",
"_ 	c #5B5EC5",
": 	c #768FDB",
"< 	c #7486D8",
"[ 	c #727DD3",
"} 	c #7276D1",
"| 	c #778FDC",
"1 	c #7686D8",
"2 	c #737DD3",
"3 	c #6F72CE",
"4 	c #6E6DC5",
"5 	c #778EDA",
"6 	c #7587D8",
"7 	c #737BD3",
"8 	c #778EDB",
"9 	c #7485D8",
"0 	c #727DD4",
"a 	c #6F73CD",
"b 	c #798FDD",
"c 	c #7787DA",
"d 	c #757FD6",
"e 	c #7277D1",
"f 	c #798FDE",
"g 	c #7788DB",
"h 	c #7790DD",
"i 	c #7789DB",
"j 	c #7480D7",
"k 	c #7991DF",
"l 	c #788BDC",
"m 	c #7682D9",
"n 	c #7277D2",
"o 	c #7A93DF",
"p 	c #788DDC",
"q 	c #7783DA",
"r 	c #7278D2",
"s 	c #7A95E0",
"t 	c #788EDD",
"u 	c #7785DA",
"v 	c #747DD5",
"w 	c #7C97E2",
"x 	c #7990DF",
"y 	c #7886DB",
"z 	c #747DD6",
"A 	c #7C97E0",
"B 	c #7991DE",
"C 	c #7789DC",
"D 	c #7680D8",
"E 	c #7D99E3",
"F 	c #7B93E1",
"G 	c #7A8CDF",
"H 	c #7681D9",
"I 	c #7E9DE5",
"J 	c #7C97E3",
"K 	c #7B8FE0",
"L 	c #80A0E5",
"M 	c #7D9AE2",
"N 	c #7B91E1",
"O 	c #7785DC",
"P 	c #80A4E7",
"Q 	c #7E9FE5",
"R 	c #7C93E2",
"S 	c #7787DC",
"T 	c #81A6E8",
"U 	c #7FA1E6",
"V 	c #7D96E2",
"W 	c #7989DE",
"X 	c #81A8E8",
"Y 	c #80A3E7",
"Z 	c #7E9AE3",
"` 	c #798ADF",
" .	c #80A5E7",
"..	c #7C99E3",
"+.	c #778CDD",
"@.	c #7FA2E6",
"#.	c #7C95E2",
"$.	c #778BDC",
"%.	c #7D99E4",
"&.	c #7B92E2",
"*.	c #7B8EE1",
"=.	c #788FDD",
"-.	c #7788DC",
";.	c #7786DC",
">.	c #7584D8",
",.	c #4F53BC",
".           ",
"+ @ #       ",
"$ % & *     ",
"= - ; > ,   ",
"' ) ! ~ {   ",
"] ! ^ / ( _ ",
": < [ } ( _ ",
"| 1 2 3 4 _ ",
"5 6 7 3 4 _ ",
"8 9 0 a 4 _ ",
"b c d e 4 _ ",
"f g d e 4 _ ",
"h i j e 4 _ ",
"k l m n 4 _ ",
"o p q r 4 _ ",
"s t u v ( _ ",
"w x y z ( _ ",
"A B C D ( _ ",
"E F G H } _ ",
"I J K u } _ ",
"L M N O } _ ",
"P Q R S } _ ",
"T U V W / _ ",
"X Y Z ` } _ ",
" .U ..+.} _ ",
"@.I #.$.} _ ",
"%.&.*.C } _ ",
"=.-.;.>.( _ ",
"p ;.;.>.( ,."};
