/* XPM */
static char * bottom_right_active_xpm[] = {
"5 5 7 1",
" 	c None",
".	c #CBD798",
"+	c #BAC891",
"@	c #899B6D",
"#	c #5E764F",
"$	c #BDC891",
"%	c #A3AE7E",
"..+@#",
"+$+@#",
"%%%@#",
"@@@@#",
"#####"};
