/* XPM */
static char * bottom_right_inactive_xpm[] = {
"5 5 11 1",
" 	c None",
".	c #DEE3C5",
"+	c #D6DCC2",
"@	c #CBCFB9",
"#	c #BFC3B0",
"$	c #B6BDAB",
"%	c #D2D7BE",
"&	c #C9CEB8",
"*	c #C0C5B1",
"=	c #C6CBB5",
"-	c #BBC1AE",
".+@#$",
"+%&*$",
"@&=#$",
"#*#-$",
"$$$$$"};
