/* XPM */
static char * bottom_left_active_xpm[] = {
"5 5 11 1",
" 	c None",
".	c #758D5E",
"+	c #8BA169",
"@	c #ABBD85",
"#	c #C3C993",
"$	c #BAC891",
"%	c #A4B183",
"&	c #A9B484",
"*	c #A7B183",
"=	c #899B6D",
"-	c #5E764F",
".+@##",
".+@$$",
".+%&*",
".+===",
"-----"};
