/* XPM */
static char * bottom_left_inactive_xpm[] = {
"5 5 18 1",
" 	c None",
".	c #CED6BD",
"+	c #D5DCC2",
"@	c #E0E4CB",
"#	c #E7E8CE",
"$	c #DBDDC3",
"%	c #D9DDC5",
"&	c #DEE1C8",
"*	c #D9DDC4",
"=	c #C8D1B9",
"-	c #CAD1BA",
";	c #CCD1BB",
">	c #CED2BB",
",	c #CDD1BB",
"'	c #C3C9B3",
")	c #BFC3B0",
"!	c #BBC1AE",
"~	c #B6BDAB",
".+@#$",
".+%&*",
"=-;>,",
"'))))",
"!~~~~"};
