/* XPM */
static char * close_active_xpm[] = {
"21 21 264 2",
"  	c None",
". 	c #FFFFFF",
"+ 	c #F5F7FD",
"@ 	c #F6E3DE",
"# 	c #DF967D",
"$ 	c #DC886D",
"% 	c #D97F62",
"& 	c #D8795B",
"* 	c #D67455",
"= 	c #D47050",
"- 	c #D57252",
"; 	c #D56F4D",
"> 	c #D36C4A",
", 	c #D16743",
"' 	c #D1623F",
") 	c #CE5D38",
"! 	c #CA5730",
"~ 	c #C16142",
"{ 	c #ECDAD4",
"] 	c #E19881",
"^ 	c #E6AB98",
"/ 	c #E7AE9C",
"( 	c #E4A48E",
"_ 	c #E09880",
": 	c #DE9279",
"< 	c #DE8E74",
"[ 	c #DD8C72",
"} 	c #DC896E",
"| 	c #DB876C",
"1 	c #DB866A",
"2 	c #DA8265",
"3 	c #D98063",
"4 	c #D87C5D",
"5 	c #D67657",
"6 	c #D46F4E",
"7 	c #D06642",
"8 	c #C05733",
"9 	c #A9583C",
"0 	c #DD8B71",
"a 	c #E7B29F",
"b 	c #E8B4A1",
"c 	c #E4A591",
"d 	c #E19B84",
"e 	c #DF957C",
"f 	c #DE9078",
"g 	c #DD8D73",
"h 	c #DC8B71",
"i 	c #DB8469",
"j 	c #DA8165",
"k 	c #D87C5F",
"l 	c #D7795A",
"m 	c #D47251",
"n 	c #D16846",
"o 	c #C25937",
"p 	c #9C4022",
"q 	c #E6AA96",
"r 	c #E39F89",
"s 	c #DF947B",
"t 	c #DE8F75",
"u 	c #DD8A70",
"v 	c #DB856A",
"w 	c #D98165",
"x 	c #DA7D61",
"y 	c #D87C5E",
"z 	c #D67759",
"A 	c #D67658",
"B 	c #D36B49",
"C 	c #D06644",
"D 	c #C25C39",
"E 	c #9E4425",
"F 	c #D97D5F",
"G 	c #E19B83",
"H 	c #E29D86",
"I 	c #EEC5B8",
"J 	c #D97F65",
"K 	c #D97B60",
"L 	c #D7775B",
"M 	c #D57354",
"N 	c #D46E4F",
"O 	c #D36847",
"P 	c #D16440",
"Q 	c #CE6440",
"R 	c #C45E3B",
"S 	c #9F472A",
"T 	c #DF9279",
"U 	c #DF957B",
"V 	c #D46E4E",
"W 	c #D26744",
"X 	c #D1633D",
"Y 	c #CE613D",
"Z 	c #C45D3B",
"` 	c #D67454",
" .	c #DD8A71",
"..	c #DB846A",
"+.	c #D47051",
"@.	c #D56D4C",
"#.	c #D36946",
"$.	c #D16038",
"%.	c #D0603A",
"&.	c #CF613C",
"*.	c #C35D39",
"=.	c #9F4629",
"-.	c #DB886E",
";.	c #DA8167",
">.	c #DA7C61",
",.	c #D05E35",
"'.	c #D05C34",
").	c #D05E36",
"!.	c #CE6039",
"~.	c #C45C38",
"{.	c #A14728",
"].	c #D46D4B",
"^.	c #DB8369",
"/.	c #D97D60",
"(.	c #D77A5C",
"_.	c #D26238",
":.	c #D26135",
"<.	c #D15D31",
"[.	c #D15F34",
"}.	c #D06036",
"|.	c #C45A34",
"1.	c #A14526",
"2.	c #D36947",
"3.	c #D97C5E",
"4.	c #DA8064",
"5.	c #DA8065",
"6.	c #D97F64",
"7.	c #D87B5F",
"8.	c #D67655",
"9.	c #D4673C",
"0.	c #D36437",
"a.	c #D36133",
"b.	c #D25E30",
"c.	c #D05F33",
"d.	c #C55931",
"e.	c #A14324",
"f.	c #D16441",
"g.	c #D67859",
"h.	c #DA7E61",
"i.	c #D97F63",
"j.	c #DB7E62",
"k.	c #D87A5B",
"l.	c #D56638",
"m.	c #D46232",
"n.	c #D35E2E",
"o.	c #D05D2E",
"p.	c #C5572D",
"q.	c #A14120",
"r.	c #CF603B",
"s.	c #D87A5C",
"t.	c #D97C60",
"u.	c #D7744C",
"v.	c #D56433",
"w.	c #D5602D",
"x.	c #D45E2B",
"y.	c #D15C2A",
"z.	c #C55428",
"A.	c #A2401D",
"B.	c #CF5D36",
"C.	c #D46E4C",
"D.	c #D67555",
"E.	c #D87B5C",
"F.	c #D87B5D",
"G.	c #D77751",
"H.	c #D7734B",
"I.	c #D77045",
"J.	c #D6602C",
"K.	c #D45E29",
"L.	c #D15926",
"M.	c #C55022",
"N.	c #A23C19",
"O.	c #CD5730",
"P.	c #D26846",
"Q.	c #D67557",
"R.	c #D67553",
"S.	c #D87550",
"T.	c #D86D3E",
"U.	c #D55B24",
"V.	c #D15620",
"W.	c #C44D1D",
"X.	c #A13A15",
"Y.	c #CB5229",
"Z.	c #D0613E",
"`.	c #EEC6B9",
" +	c #D67451",
".+	c #D67450",
"++	c #D6734C",
"@+	c #D67048",
"#+	c #D66F42",
"$+	c #D76B3B",
"%+	c #D76835",
"&+	c #EEBEA8",
"*+	c #D45A21",
"=+	c #D0531D",
"-+	c #C34818",
";+	c #A03712",
">+	c #CA5026",
",+	c #D06540",
"'+	c #D36A48",
")+	c #D56E4C",
"!+	c #D56F4C",
"~+	c #D46E4A",
"{+	c #D56E49",
"]+	c #D56D47",
"^+	c #D56C42",
"/+	c #D66A3D",
"(+	c #D66736",
"_+	c #D66531",
":+	c #D3571F",
"<+	c #D04F19",
"[+	c #C24615",
"}+	c #9F3611",
"|+	c #C54A20",
"1+	c #C9542D",
"2+	c #CC5D38",
"3+	c #CD633F",
"4+	c #CF6543",
"5+	c #D06844",
"6+	c #CF6541",
"7+	c #CF6641",
"8+	c #D0663E",
"9+	c #D0653A",
"0+	c #D26336",
"a+	c #D16030",
"b+	c #D25D2B",
"c+	c #D15520",
"d+	c #CF501B",
"e+	c #CB4B16",
"f+	c #BE4213",
"g+	c #9A320F",
"h+	c #BD5837",
"i+	c #BB4823",
"j+	c #BB4D2A",
"k+	c #BF5531",
"l+	c #BF5634",
"m+	c #BF5735",
"n+	c #BF5533",
"o+	c #C05630",
"p+	c #C1552E",
"q+	c #C4562C",
"r+	c #C35327",
"s+	c #C45024",
"t+	c #C24E20",
"u+	c #C34B1B",
"v+	c #C24717",
"w+	c #BE4314",
"x+	c #B03C12",
"y+	c #9E492B",
"z+	c #EAD8D2",
"A+	c #A75134",
"B+	c #983A1B",
"C+	c #9D3E1F",
"D+	c #9D3F20",
"E+	c #9B3F21",
"F+	c #9B3F20",
"G+	c #9E4021",
"H+	c #9F3F1E",
"I+	c #A13E1B",
"J+	c #A23D19",
"K+	c #A43D18",
"L+	c #A13813",
"M+	c #A33711",
"N+	c #9E3510",
"O+	c #E7D7D1",
"  . + . . . . . . . . . . . . . . . . .   ",
". @ # $ % & * = - ; ; > > , , ' ) ! ~ { . ",
". ] ^ / ( _ : < [ } | 1 2 3 4 5 6 7 8 9 + ",
". 0 a b c d e f g h } $ i j k l m n o p . ",
". 2 c q r s t u v w x y z A - 6 B C D E . ",
". F G H s I . J K L M N B O . a P Q R S . ",
". & T U t . . . L M V B W . . . X Y Z S . ",
". ` g t  .... . . +.@.#.. . . $.%.&.*.=.. ",
". ` | -.| ;.>.. . . B . . . ,.'.).!.~.{.. ",
". ].j i ^.J /.(.. . . . . _.:.<.[.}.|.1.. ",
". 2.3.4.5.6.7.& 8.. . . 9.0.a.b.b.c.d.e.. ",
". f.g.h.i.j.F k.. . . . . l.m.n.n.o.p.q.. ",
". r.- s.F t.y . . . u.. . . v.w.x.y.z.A.. ",
". B.C.D.E.F.. . . G.H.I.. . . J.K.L.M.N.. ",
". O.P.= Q.. . . R.S.H.I.T.. . . U.V.W.X.. ",
". Y.Z.B = `..  +.+++@+#+$+%+. &+*+=+-+;+. ",
". >+B.,+'+)+!+~+{+]+^+/+(+_+J.U.:+<+[+}+. ",
". |+1+2+3+4+5+6+7+8+9+0+a+b+L.c+d+e+f+g+. ",
"+ h+i+j+k+l+m+n+8 o+p+q+r+s+t+u+v+w+x+y+. ",
". z+A+B+C+D+E+F+G+G+H+I+J+K+X.L+M+N+y+O+. ",
"  . . . . . . . . . . . . . . . . . + .   "};
