/* XPM */
static char * close_inactive_xpm[] = {
"21 21 245 2",
"  	c None",
". 	c #FEFEFA",
"+ 	c #FFFFFF",
"@ 	c #FDFDF6",
"# 	c #C1ACB4",
"$ 	c #C0A7AC",
"% 	c #BFA3A7",
"& 	c #BDA0A3",
"* 	c #BD9FA0",
"= 	c #BC9C9E",
"- 	c #BC9D9F",
"; 	c #BC9B9D",
"> 	c #BB9B9C",
", 	c #BB9B9B",
"' 	c #BB9897",
") 	c #BA9696",
"! 	c #BA9492",
"~ 	c #B8918F",
"{ 	c #B49396",
"] 	c #FDFEFA",
"^ 	c #FDFDF3",
"/ 	c #C4B4BF",
"( 	c #C6B5C1",
"_ 	c #C2B0BA",
": 	c #C0ACB3",
"< 	c #C0A8AF",
"[ 	c #C0A7AD",
"} 	c #BFA5AB",
"| 	c #BFA3AA",
"1 	c #BFA3A9",
"2 	c #BEA2A8",
"3 	c #BDA0A5",
"4 	c #BC9EA2",
"5 	c #BC9C9F",
"6 	c #BB989B",
"7 	c #BA9394",
"8 	c #B28D8E",
"9 	c #AA8E95",
"0 	c #BFA7AD",
"a 	c #C8B6C4",
"b 	c #C8B6C5",
"c 	c #C2B0BB",
"d 	c #C0AAB0",
"e 	c #BFA6AC",
"f 	c #BFA4AB",
"g 	c #BFA2A9",
"h 	c #BEA1A8",
"i 	c #BD9FA5",
"j 	c #BC9DA2",
"k 	c #BC9B9F",
"l 	c #BB999C",
"m 	c #BA9596",
"n 	c #B38E90",
"o 	c #A58589",
"p 	c #BFA2A8",
"q 	c #C3B1BC",
"r 	c #C3B1BB",
"s 	c #C1ADB7",
"t 	c #C0A9B0",
"u 	c #C0A8AE",
"v 	c #BDA0A6",
"w 	c #BD9FA4",
"x 	c #BC9BA0",
"y 	c #BB999D",
"z 	c #BB979B",
"A 	c #BB9698",
"B 	c #BA9395",
"C 	c #B48E91",
"D 	c #A5858A",
"E 	c #BEA1A5",
"F 	c #C1ACB5",
"G 	c #C1ACB6",
"H 	c #D9C9CD",
"I 	c #F2ECEE",
"J 	c #BD9FA3",
"K 	c #BC9CA1",
"L 	c #BB9B9F",
"M 	c #BB989C",
"N 	c #BB9799",
"O 	c #BA9697",
"P 	c #F1E9EA",
"Q 	c #D5BEBF",
"R 	c #BA9495",
"S 	c #B99294",
"T 	c #B59092",
"U 	c #A6878D",
"V 	c #C1A9B0",
"W 	c #C0AAB1",
"X 	c #F2ECED",
"Y 	c #F1EBEC",
"Z 	c #BC999C",
"` 	c #BB979A",
" .	c #F1E9E9",
"..	c #BA9292",
"+.	c #A6888D",
"@.	c #BD9D9F",
"#.	c #C0A7AE",
"$.	c #F1ECED",
"%.	c #BC9A9D",
"&.	c #BC989B",
"*.	c #BA9392",
"=.	c #A7888D",
"-.	c #BE9FA4",
";.	c #F1EBEB",
">.	c #F1EAEB",
",.	c #F1EAEA",
"'.	c #BA9291",
").	c #B69092",
"!.	c #A8888D",
"~.	c #BC9B9C",
"{.	c #BEA1A7",
"].	c #BC9EA3",
"^.	c #F1EAE9",
"/.	c #BB9593",
"(.	c #BB9492",
"_.	c #B68F91",
":.	c #BC999A",
"<.	c #BEA0A5",
"[.	c #BD9EA2",
"}.	c #BC9896",
"|.	c #BC9895",
"1.	c #BC9693",
"2.	c #BC9793",
"3.	c #B68F8F",
"4.	c #A8888C",
"5.	c #BC9798",
"6.	c #BD9FA2",
"7.	c #BFA2A7",
"8.	c #BEA1A6",
"9.	c #BD9996",
"0.	c #BD9794",
"a.	c #BB9592",
"b.	c #B68F8E",
"c.	c #A9878B",
"d.	c #BC9897",
"e.	c #BD9EA0",
"f.	c #BEA0A4",
"g.	c #BFA2A6",
"h.	c #F2ECEC",
"i.	c #F2EBEC",
"j.	c #F2EBEB",
"k.	c #BE9D9E",
"l.	c #F2EBEA",
"m.	c #BE9B96",
"n.	c #BE9A95",
"o.	c #BD9A94",
"p.	c #B7908E",
"q.	c #A9878A",
"r.	c #BB9996",
"s.	c #BD9D9E",
"t.	c #BE9FA3",
"u.	c #BE9F9F",
"v.	c #BE9E9F",
"w.	c #BE9C9B",
"x.	c #BE9C96",
"y.	c #BE9C95",
"z.	c #B8938F",
"A.	c #AA8789",
"B.	c #BB9895",
"C.	c #BD9C9D",
"D.	c #BE9FA0",
"E.	c #BEA0A3",
"F.	c #BE9FA1",
"G.	c #BF9FA0",
"H.	c #BF9F9D",
"I.	c #C09F9B",
"J.	c #BE9993",
"K.	c #AA8788",
"L.	c #BB9894",
"M.	c #BD9B9B",
"N.	c #DDCDCF",
"O.	c #BFA0A2",
"P.	c #BEA0A1",
"Q.	c #BF9F9F",
"R.	c #BFA09E",
"S.	c #C0A19C",
"T.	c #BFA09B",
"U.	c #DDCCC8",
"V.	c #BF9D95",
"W.	c #BE9A92",
"X.	c #B9948E",
"Y.	c #AA8687",
"Z.	c #BB9893",
"`.	c #BD9B99",
" +	c #BD9D9C",
".+	c #BF9F9E",
"++	c #BFA09D",
"@+	c #C0A09B",
"#+	c #BF9F9A",
"$+	c #BF9F98",
"%+	c #BF9E96",
"&+	c #BF9E95",
"*+	c #BE9B92",
"=+	c #BA9892",
"-+	c #BB9C97",
";+	c #BC9C9A",
">+	c #BC9D9C",
",+	c #BD9D9D",
"'+	c #BD9E9D",
")+	c #BD9E9C",
"!+	c #BE9E9B",
"~+	c #BE9F9B",
"{+	c #BE9F9A",
"]+	c #BE9C97",
"^+	c #BE9D96",
"/+	c #BE9B93",
"(+	c #BC9991",
"_+	c #B6938D",
":+	c #A98788",
"<+	c #B6999A",
"[+	c #B69693",
"}+	c #B69896",
"|+	c #B79997",
"1+	c #B79797",
"2+	c #B79798",
"3+	c #B89897",
"4+	c #B89997",
"5+	c #B89996",
"6+	c #BA9A96",
"7+	c #BA9B96",
"8+	c #B99894",
"9+	c #B99792",
"0+	c #B99691",
"a+	c #B99790",
"b+	c #B7948E",
"c+	c #B18F8B",
"d+	c #AB9096",
"e+	c #FFFFFE",
"f+	c #D0CBE0",
"g+	c #AF979B",
"h+	c #AA8E90",
"i+	c #AC9092",
"j+	c #AB8F92",
"k+	c #AA9093",
"l+	c #AA8F92",
"m+	c #AB8E91",
"n+	c #AC8E8E",
"o+	c #AC8D8D",
"p+	c #AD8E8D",
"q+	c #AC8D8C",
"r+	c #AC8C8B",
"s+	c #AD8D8B",
"t+	c #AA8A89",
"u+	c #AB9296",
"v+	c #FEFEFB",
"  . + + + + + + + + + + + + + + + + + @   ",
"@ + # $ % & * = - ; ; > , ' ' ) ! ~ { ] ^ ",
"+ # / ( _ : < [ } | | 1 2 3 4 5 6 7 8 9 + ",
"+ 0 a b c # d < e f | g h i j k l m n o + ",
"+ p q r s t u f g v w j x k y z A B C D + ",
"+ E F G t H I v J K L M N O P Q R S T U + ",
"+ J V W u I X Y K k Z ` m  . . .....T +.+ ",
"+ @.#.< } g $.Y Y %.&.A  . . ...*...T =.+ ",
"+ @.f } | g -.Y ;.>.` ,. . ...'...! ).!.+ ",
"+ ~.p | g {.w ].;.>.>.,.^./.(.*.*.*._.!.+ ",
"+ :.<.p p {.w [.5 ;.>.,.}.|.1.2.2.! 3.4.+ ",
"+ 5.6.7.p 8.<.J Y ;.;.,.,.9.0.2.2.a.b.c.+ ",
"+ d.e.f.g.8.8.h.i.j.k.j.l.l.m.n.o.2.p.q.+ ",
"+ r.s.t.E g.X h.i.u.v.w.l.l.l.x.y.2.z.A.+ ",
"+ B.C.D.E.X h.h.F.G.u.H.I.l.l.l.y.J.z.K.+ ",
"+ L.M.v.F.N.h.O.P.u.Q.R.S.T.l.U.V.W.X.Y.+ ",
"+ Z.`. +v.u.u.u.u.u..+++@+#+$+%+&+*+X.K.+ ",
"+ =+-+;+>+,+,+'+'+)+!+~+{+]+^+y./+(+_+:++ ",
"+ <+[+}+|+1+2+1+3+4+5+6+7+8+9+0+a+b+c+d++ ",
"e+f+g+h+i+j+k+l+j+j+m+n+o+p+q+r+s+t+u++ v+",
"  e++ + + + + + + + + + + + + + + + + v+  "};
