/* XPM */
static char * close_pressed_xpm[] = {
"21 21 195 2",
"  	c None",
". 	c #FFFFFF",
"+ 	c #F5F7FD",
"@ 	c #EADBD6",
"# 	c #947365",
"$ 	c #905F41",
"% 	c #936242",
"& 	c #925F42",
"* 	c #956140",
"= 	c #976243",
"- 	c #9B6444",
"; 	c #9C6344",
"> 	c #9B6040",
", 	c #9C5F3F",
"' 	c #9E5C3B",
") 	c #9B5737",
"! 	c #995231",
"~ 	c #974D2E",
"{ 	c #974B2A",
"] 	c #904425",
"^ 	c #9D5A41",
"/ 	c #937164",
"( 	c #9C6A4B",
"_ 	c #A97251",
": 	c #AE7453",
"< 	c #AF7450",
"[ 	c #B27351",
"} 	c #B4734F",
"| 	c #B77551",
"1 	c #BA7551",
"2 	c #B8744F",
"3 	c #B86F4B",
"4 	c #B76B47",
"5 	c #B66542",
"6 	c #B4603B",
"7 	c #B15934",
"8 	c #B05631",
"9 	c #AC512B",
"0 	c #AA4D28",
"a 	c #AE5D40",
"b 	c #8A5A3E",
"c 	c #A8704D",
"d 	c #B67955",
"e 	c #BB7855",
"f 	c #BC7653",
"g 	c #BE7551",
"h 	c #C17752",
"i 	c #C27751",
"j 	c #C57751",
"k 	c #C5754F",
"l 	c #C4734C",
"m 	c #C26D47",
"n 	c #C06640",
"o 	c #BD6039",
"p 	c #BB5B33",
"q 	c #B95630",
"r 	c #B7522C",
"s 	c #B54F29",
"t 	c #B34C26",
"u 	c #88583B",
"v 	c #A86C4B",
"w 	c #B87552",
"x 	c #BA714D",
"y 	c #BC7049",
"z 	c #BF6E48",
"A 	c #C06D47",
"B 	c #C16E47",
"C 	c #C26E48",
"D 	c #C46D45",
"E 	c #C26942",
"F 	c #C26540",
"G 	c #C0603A",
"H 	c #BE5C35",
"I 	c #BB572F",
"J 	c #B9532C",
"K 	c #B85029",
"L 	c #B84F28",
"M 	c #B74D26",
"N 	c #855638",
"O 	c #A96A48",
"P 	c #B56D49",
"Q 	c #B76844",
"R 	c #DBB19E",
"S 	c #BB613C",
"T 	c #BC613A",
"U 	c #BE603B",
"V 	c #BD5F39",
"W 	c #BD5D37",
"X 	c #BC5B34",
"Y 	c #BB5831",
"Z 	c #DBA794",
"` 	c #B75029",
" .	c #B74E27",
"..	c #B64C25",
"+.	c #875437",
"@.	c #A86544",
"#.	c #B56642",
"$.	c #B6613B",
"%.	c #B7532E",
"&.	c #B9552F",
"*.	c #B9552E",
"=.	c #B9532D",
"-.	c #B54D26",
";.	c #875234",
">.	c #A7603F",
",.	c #B3613E",
"'.	c #B45A35",
").	c #B3522E",
"!.	c #B64E29",
"~.	c #B74F29",
"{.	c #B74E26",
"].	c #874F31",
"^.	c #A65C3A",
"/.	c #B35C38",
"(.	c #B2552F",
"_.	c #B24D28",
":.	c #B14A25",
"<.	c #B64C26",
"[.	c #B94F26",
"}.	c #B94F27",
"|.	c #B84E26",
"1.	c #864C2E",
"2.	c #A65735",
"3.	c #B25632",
"4.	c #B3502C",
"5.	c #B34B26",
"6.	c #B24925",
"7.	c #B34924",
"8.	c #BB5127",
"9.	c #BC5127",
"0.	c #BC5228",
"a.	c #86492A",
"b.	c #A55230",
"c.	c #B3532E",
"d.	c #B34D28",
"e.	c #B24A26",
"f.	c #B24A25",
"g.	c #B44A24",
"h.	c #B54B25",
"i.	c #BD5228",
"j.	c #BE5329",
"k.	c #BE5428",
"l.	c #894727",
"m.	c #A44E2C",
"n.	c #B3502A",
"o.	c #B44C27",
"p.	c #B14823",
"q.	c #B34A24",
"r.	c #C0552A",
"s.	c #C1562A",
"t.	c #C1572A",
"u.	c #C05529",
"v.	c #BF5529",
"w.	c #8B4527",
"x.	c #A64E2B",
"y.	c #B34E29",
"z.	c #B44B25",
"A.	c #C2582B",
"B.	c #C3592B",
"C.	c #BA5027",
"D.	c #8E4627",
"E.	c #A84E2A",
"F.	c #B44E28",
"G.	c #B54D27",
"H.	c #C45A2C",
"I.	c #8F4626",
"J.	c #A84D29",
"K.	c #B34D27",
"L.	c #B64D26",
"M.	c #904526",
"N.	c #A94C29",
"O.	c #E1B6A6",
"P.	c #E7BDAA",
"Q.	c #C55B2C",
"R.	c #C0562A",
"S.	c #8E4224",
"T.	c #A94C27",
"U.	c #B44E27",
"V.	c #B54C25",
"W.	c #C3592C",
"X.	c #8D4121",
"Y.	c #A84A25",
"Z.	c #B44D26",
"`.	c #BF5429",
" +	c #9B563D",
".+	c #A84724",
"++	c #B44C25",
"@+	c #C05629",
"#+	c #C16541",
"$+	c #E8DAD5",
"%+	c #AD5B3D",
"&+	c #B14923",
"*+	c #B74D25",
"=+	c #C16542",
"-+	c #F1DDD5",
"  . + . . . . . . . . . . . . . . . + .   ",
". @ # $ % & * = - ; > , ' ) ! ~ { ] ^ @ . ",
"+ / ( _ : < [ } | 1 2 3 4 5 6 7 8 9 0 a + ",
". b c d e f g h i j k l m n o p q r s t . ",
". u v w x y z A B C D E F G H I J K L M . ",
". N O P Q R . S T U V W X Y . Z `  .M ... ",
". +.@.#.$.. . . %.&.&.*.=.. . . -.M ..... ",
". ;.>.,.'.).. . . !.~.~.. . . {.M M M ... ",
". ].^./.(._.:.. . . <.. . . [.}.}.[.|.M . ",
". 1.2.3.4.5.6.7.. . . . . 8.9.0.8.8.}.M . ",
". a.b.c.d.e.f.g.h.. . . 0.i.j.j.k.i.8.|.. ",
". l.m.n.o.p.q.h.. . . . . r.s.t.u.v.0.[.. ",
". w.x.y.o.q.z.. . . 0.. . . A.B.A.s.k.C.. ",
". D.E.F.G.z.. . . 8.i.r.. . . H.B.A.v.C.. ",
". I.J.K.L.. . . [.0.j.s.A.. . . H.A.u.8.. ",
". M.N.F.L.O.. {.}.0.j.s.A.H.. P.Q.B.R.8.. ",
". S.T.U.-.V.L.M [.8.i.u.t.B.W.Q.H.A.u.8.. ",
". X.Y.Z.....M M [.8.0.`.s.A.A.B.A.t.j.C.. ",
"+  +.+++........M [.8.0.j.`.@+s.R.j.0.#++ ",
". $+%+&+........*+|.|.[.C.C.8.8.8.C.=+-+. ",
"  . . . . . . . . . . . . . . . . . . .   "};
