/* XPM */
static char * close_prelight_xpm[] = {
"21 21 238 2",
"  	c None",
". 	c #FFFFFF",
"+ 	c #F5F7FD",
"@ 	c #E7D0C8",
"# 	c #F08F6D",
"$ 	c #F08A68",
"% 	c #F1835E",
"& 	c #F17D55",
"* 	c #F27C52",
"= 	c #F3764C",
"- 	c #F2764D",
"; 	c #F37448",
"> 	c #F27246",
", 	c #F37043",
"' 	c #F36B3E",
") 	c #F46A3A",
"! 	c #F56434",
"~ 	c #F05F2E",
"{ 	c #E0663C",
"] 	c #DEC7BF",
"^ 	c #EF906E",
"/ 	c #EDA68D",
"( 	c #ECA891",
"_ 	c #ECA287",
": 	c #EE997C",
"< 	c #EE9576",
"[ 	c #EF9070",
"} 	c #F08E6C",
"| 	c #F08B68",
"1 	c #F08966",
"2 	c #F18863",
"3 	c #F1845E",
"4 	c #F1825B",
"5 	c #F17D56",
"6 	c #F27A4F",
"7 	c #F0693B",
"8 	c #E35C2F",
"9 	c #C95D38",
"0 	c #ECA994",
"a 	c #EBAC97",
"b 	c #ECA88E",
"c 	c #ED9C83",
"d 	c #EE9376",
"e 	c #F08E6D",
"f 	c #F08B6A",
"g 	c #F08B67",
"h 	c #F1855F",
"i 	c #F17F58",
"j 	c #F27B53",
"k 	c #F3744B",
"l 	c #F06D41",
"m 	c #E36033",
"n 	c #C34A21",
"o 	c #F18560",
"p 	c #ECA288",
"q 	c #ECA186",
"r 	c #F1805A",
"s 	c #F27D54",
"t 	c #F2774E",
"u 	c #F3754A",
"v 	c #F37044",
"w 	c #F06C3F",
"x 	c #E36236",
"y 	c #C44E24",
"z 	c #ED9A7E",
"A 	c #ED9E83",
"B 	c #ED987D",
"C 	c #F6C8B9",
"D 	c #F18965",
"E 	c #F8B49E",
"F 	c #F36B3D",
"G 	c #F06A3C",
"H 	c #E36238",
"I 	c #C55027",
"J 	c #EE9577",
"K 	c #EE9A7B",
"L 	c #F37347",
"M 	c #F36F42",
"N 	c #F46B3B",
"O 	c #F26C3A",
"P 	c #E36338",
"Q 	c #C45028",
"R 	c #EF9273",
"S 	c #EF906F",
"T 	c #F08D6B",
"U 	c #F2784D",
"V 	c #F27446",
"W 	c #F46D3A",
"X 	c #F46C3C",
"Y 	c #F16C3C",
"Z 	c #E46539",
"` 	c #C45029",
" .	c #F2784E",
"..	c #F18760",
"+.	c #F2794E",
"@.	c #F4703C",
"#.	c #F3703E",
"$.	c #F17040",
"%.	c #E5693A",
"&.	c #C55129",
"*.	c #F27146",
"=.	c #F27C46",
"-.	c #F37943",
";.	c #F07543",
">.	c #E66D3D",
",.	c #C9552A",
"'.	c #F36E43",
").	c #F18661",
"!.	c #F2835D",
"~.	c #F1825A",
"{.	c #F1845A",
"].	c #F28652",
"^.	c #F2844E",
"/.	c #F3834B",
"(.	c #F38148",
"_.	c #F38048",
":.	c #F17B46",
"<.	c #E8703D",
"[.	c #CA542A",
"}.	c #F1825C",
"|.	c #F18E55",
"1.	c #F28B52",
"2.	c #F28A4E",
"3.	c #F3874C",
"4.	c #F18148",
"5.	c #E9733E",
"6.	c #CD5729",
"7.	c #F46637",
"8.	c #F18058",
"9.	c #F19363",
"0.	c #F19558",
"a.	c #F19255",
"b.	c #F28C50",
"c.	c #F28449",
"d.	c #E9743C",
"e.	c #D05727",
"f.	c #F56334",
"g.	c #F17D57",
"h.	c #F19063",
"i.	c #F19565",
"j.	c #F09967",
"k.	c #F19758",
"l.	c #F29252",
"m.	c #F28647",
"n.	c #EB733A",
"o.	c #D05523",
"p.	c #F4602E",
"q.	c #F36D41",
"r.	c #F1865B",
"s.	c #F18F61",
"t.	c #F19665",
"u.	c #F09C67",
"v.	c #F09F67",
"w.	c #F2934F",
"x.	c #F28543",
"y.	c #ED7235",
"z.	c #D15220",
"A.	c #F55C29",
"B.	c #F9C8B7",
"C.	c #F18458",
"D.	c #F28C5D",
"E.	c #F19A65",
"F.	c #F19E65",
"G.	c #F1A163",
"H.	c #F9D5BA",
"I.	c #F3904C",
"J.	c #F28340",
"K.	c #ED6F2F",
"L.	c #D2511E",
"M.	c #F55924",
"N.	c #F56433",
"O.	c #F37247",
"P.	c #F3784C",
"Q.	c #F27E52",
"R.	c #F18656",
"S.	c #F18C5A",
"T.	c #F2935D",
"U.	c #F2975D",
"V.	c #F1975A",
"W.	c #F19556",
"X.	c #F2924F",
"Y.	c #F28B45",
"Z.	c #F37F3A",
"`.	c #ED6B2C",
" +	c #D14F1C",
".+	c #F05420",
"++	c #F05C2B",
"@+	c #F16334",
"#+	c #EF6739",
"$+	c #F06C3E",
"%+	c #F06B40",
"&+	c #EF6E42",
"*+	c #F07545",
"=+	c #EF7A4B",
"-+	c #F0814E",
";+	c #F08650",
">+	c #F1894F",
",+	c #F18A4E",
"'+	c #F28A4A",
")+	c #F37F3B",
"!+	c #F27431",
"~+	c #E86026",
"{+	c #CC4917",
"]+	c #DE5F33",
"^+	c #E55423",
"/+	c #E35929",
"(+	c #E35B2E",
"_+	c #E35F31",
":+	c #E36233",
"<+	c #E36436",
"[+	c #E46A39",
"}+	c #E66D3A",
"|+	c #E8723C",
"1+	c #EB733B",
"2+	c #EB753B",
"3+	c #EB7339",
"4+	c #ED6C2E",
"5+	c #E96126",
"6+	c #DC541D",
"7+	c #C4562E",
"8+	c #E0C6BE",
"9+	c #C85932",
"0+	c #C2451A",
"a+	c #C2471E",
"b+	c #C24920",
"c+	c #C24C22",
"d+	c #C44B20",
"e+	c #C64C22",
"f+	c #C95124",
"g+	c #CB5024",
"h+	c #D05324",
"i+	c #D05423",
"j+	c #D35723",
"k+	c #D6551E",
"l+	c #D5521D",
"m+	c #CF4B17",
"n+	c #C5582E",
"o+	c #DBC4BD",
"  . + . . . . . . . . . . . . . . . + .   ",
". @ # $ % & * = - ; ; > , ' ' ) ! ~ { ] . ",
"+ ^ / ( _ : < [ } | 1 2 3 4 5 6 > 7 8 9 + ",
". $ 0 a b c : d [ e f g 2 h i j k l m n . ",
". o p b q : d # | 2 % r s * t u v w x y . ",
". i z A B C . D 3 i * - > v . E F G H I . ",
". s J K < . . . r s t L M . . . N O P Q . ",
". 6 # R S T . . . * U V . . . W X Y Z ` . ",
".  .g } f 1 ... . . +.. . . @.@.#.$.%.&.. ",
". *.o 1 D 2 h 4 . . . . . =.-.-.-.;.>.,.. ",
". '.i h )...!.~.{.. . . ].^./.(._.:.<.[.. ",
". X j ~.!.!.}.{.. . . . . |.1.2.3.4.5.6.. ",
". 7.- & i 4 8.. . . 9.. . . 0.a.b.c.d.e.. ",
". f.> 6 s g.. . . h.i.j.. . . k.l.m.n.o.. ",
". p.q.k 6 . . . r.s.t.u.v.. . . w.x.y.z.. ",
". A.) , u B.. * C.D.9.E.F.G.. H.I.J.K.L.. ",
". M.N.X '.O.; P.Q.R.S.T.U.V.W.X.Y.Z.`. +. ",
". .+++@+#+$+%+&+*+=+-+;+>+,+'+x.)+!+~+{+. ",
"+ ]+^+/+(+_+m :+<+[+}+|+1+2+3+y.4+5+6+7++ ",
". 8+9+0+a+b+c+d+e+f+g+h+i+j+z.k+l+m+n+o+. ",
"  . + . . . . . . . . . . . . . . . + .   "};
