/* XPM */
static char * hide_inactive_xpm[] = {
"21 21 174 2",
"  	c None",
". 	c #FDFDF1",
"+ 	c #FFFFFF",
"@ 	c #F8FCEE",
"# 	c #FBFCEE",
"$ 	c #FEFEFA",
"% 	c #E2ECD1",
"& 	c #DAE4C6",
"* 	c #D3DFBF",
"= 	c #D1DDBD",
"- 	c #D0DCBB",
"; 	c #CDD9B8",
"> 	c #CBD7B4",
", 	c #C8D5B1",
"' 	c #C6D2B0",
") 	c #C2D0AA",
"! 	c #BDCCA6",
"~ 	c #BECBAA",
"{ 	c #FCFDF3",
"] 	c #F4FCEB",
"^ 	c #EAF3DB",
"/ 	c #EBF4DC",
"( 	c #E6F0D5",
"_ 	c #DEE8CD",
": 	c #DBE6C8",
"< 	c #DAE6C8",
"[ 	c #D7E3C5",
"} 	c #D7E2C4",
"| 	c #D2DFBF",
"1 	c #D0DDBD",
"2 	c #CCD9B9",
"3 	c #C8D5B3",
"4 	c #C3D1AE",
"5 	c #B8C5A2",
"6 	c #B1BD9F",
"7 	c #ECF4DD",
"8 	c #E8F2D8",
"9 	c #E2ECD2",
"0 	c #D6E2C4",
"a 	c #D2DDBF",
"b 	c #CEDCBB",
"c 	c #CAD6B5",
"d 	c #C3D1AF",
"e 	c #B7C5A3",
"f 	c #A1AE8E",
"g 	c #E9F3DA",
"h 	c #E4EED4",
"i 	c #D3DFC1",
"j 	c #CFDDBD",
"k 	c #CCD9B8",
"l 	c #C5D2B0",
"m 	c #BAC7A5",
"n 	c #A2B08F",
"o 	c #E4EED3",
"p 	c #CDDAB9",
"q 	c #CAD7B5",
"r 	c #C7D5B2",
"s 	c #C7D5B1",
"t 	c #C2D0AC",
"u 	c #BCC9A8",
"v 	c #A7B495",
"w 	c #DEE9CD",
"x 	c #DCE7CA",
"y 	c #D9E4C6",
"z 	c #CAD7B4",
"A 	c #C5D2AF",
"B 	c #BDCBA9",
"C 	c #DDE9CC",
"D 	c #DCE7C9",
"E 	c #D8E4C6",
"F 	c #D5E2C2",
"G 	c #C3D1AC",
"H 	c #BDCBA8",
"I 	c #C3D1AB",
"J 	c #C6D2AF",
"K 	c #C5D1AC",
"L 	c #C3D0AA",
"M 	c #BCC9A6",
"N 	c #A8B695",
"O 	c #CAD6B3",
"P 	c #C9D5B1",
"Q 	c #C7D3AF",
"R 	c #C6D1AC",
"S 	c #C4D0AA",
"T 	c #A6B291",
"U 	c #D7E4C3",
"V 	c #D5E1C0",
"W 	c #CEDBB9",
"X 	c #CDD9B6",
"Y 	c #C7D3AE",
"Z 	c #C6D1AB",
"` 	c #C2CFA7",
" .	c #C1CFA7",
"..	c #BCC9A4",
"+.	c #A6B391",
"@.	c #CAD6B1",
"#.	c #D1DDBB",
"$.	c #D1DCBB",
"%.	c #CBD6B3",
"&.	c #C5D0AA",
"*.	c #C4CFA7",
"=.	c #C1CDA6",
"-.	c #BCC8A3",
";.	c #A6B390",
">.	c #CFDBB9",
",.	c #D2DFBE",
"'.	c #D6E2C0",
").	c #F6F9F2",
"!.	c #F6F8F2",
"~.	c #F5F8F1",
"{.	c #F5F7F1",
"].	c #F5F7F0",
"^.	c #CAD6B0",
"/.	c #C5D1AA",
"(.	c #C0CDA5",
"_.	c #BAC7A0",
":.	c #A7B390",
"<.	c #CEDBB7",
"[.	c #F6F8F1",
"}.	c #CCD8B3",
"|.	c #C1CDA5",
"1.	c #B9C69F",
"2.	c #CCD8B4",
"3.	c #D1DDBA",
"4.	c #CDD8B3",
"5.	c #CBD6B0",
"6.	c #C3CDA5",
"7.	c #C0CCA2",
"8.	c #B9C59D",
"9.	c #CDD9B5",
"0.	c #D2DDBA",
"a.	c #CFDBB7",
"b.	c #CFD9B5",
"c.	c #CFD9B4",
"d.	c #C9D4AE",
"e.	c #C9D4AC",
"f.	c #C5D1A9",
"g.	c #C0CDA4",
"h.	c #B9C59C",
"i.	c #CDD8B5",
"j.	c #BFCCA1",
"k.	c #B6C29A",
"l.	c #A5B18E",
"m.	c #C5D1AE",
"n.	c #BDC9A4",
"o.	c #C1CCA9",
"p.	c #C2CDAA",
"q.	c #C4D0AC",
"r.	c #C3D0AC",
"s.	c #C1CDA9",
"t.	c #C1CDA7",
"u.	c #C0CCA6",
"v.	c #BECAA3",
"w.	c #BDCAA2",
"x.	c #BAC69D",
"y.	c #B7C49C",
"z.	c #AFBB95",
"A.	c #AEBA9B",
"B.	c #FDFDF4",
"C.	c #FEFEF8",
"D.	c #B9C3A3",
"E.	c #ABB694",
"F.	c #B0B998",
"G.	c #AEB998",
"H.	c #ACB796",
"I.	c #B0BB9A",
"J.	c #AFB998",
"K.	c #ADB895",
"L.	c #AEB996",
"M.	c #ACB794",
"N.	c #ABB792",
"O.	c #A8B590",
"P.	c #B0BA9B",
"Q.	c #FDFDF5",
"  . + + + + + + + + + + + + + + + + + @   ",
"# $ % & * = - ; ; > > > > , ' ' ) ! ~ { ] ",
"+ % ^ / ( % _ : < [ } } | | 1 2 3 4 5 6 + ",
"+ : 7 7 8 9 _ _ < : [ } 0 | a b c d e f + ",
"+ * 8 g h _ : : } i | j b b k 3 ' l m n + ",
"+ * o h _ < } i | j p q r r s l l t u v + ",
"+ | w w x y 0 | j p q z s l A A A A B v + ",
"+ p C x D E F 1 b k z , s A G G G A H v + ",
"+ p y : y 0 F j p k > , A G I ) I G H v + ",
"+ > F y E F | 1 p k > , J K I L L ) M N + ",
"+ O * F F F | 1 p ; > P Q R I S L L M T + ",
"+ O | F U F V | - W X O P Y Z `  . ...+.+ ",
"+ @.#.V U U V V $.W X %.@.Y Y &.*.=.-.;.+ ",
"+ Q >.,.'.).).).!.~.{.].@.^.Y /.*.(._.:.+ ",
"+ Y <.#.V ).).).!.~.[.].}.^.Z /.*.|.1.:.+ ",
"+ /.2.3.#.!.!.!.~.~.].].4.5.Z *.6.7.8.:.+ ",
"+ /.@.9.3.3.3.3.0.a.b.c.4.d.e.f.6.g.h.:.+ ",
"+ (.Z @.2.i.<.9.9.2.}.@.d.Z *.6.|.j.k.l.+ ",
"+ m.n.o.p.q.q.r.q.p.s.t.u.u.v.w.x.y.z.A.+ ",
"B.C.D.E.F.G.G.H.I.I.J.K.L.L.M.N.N.O.P.Q.B.",
"  B.+ + + + + + + + + + + + + + + + + B.  "};
