/* XPM */
static char * hide_prelight_xpm[] = {
"21 21 126 2",
"  	c None",
". 	c #FFFFFF",
"+ 	c #FBFFFB",
"@ 	c #DCEEBF",
"# 	c #D2E3AE",
"$ 	c #C9DCA4",
"% 	c #C7DAA0",
"& 	c #C3D59C",
"* 	c #BFD394",
"= 	c #C0D598",
"- 	c #BBD092",
"; 	c #BCD08F",
"> 	c #B8CA8A",
", 	c #B4C888",
"' 	c #B3C680",
") 	c #ACC17B",
"! 	c #AEC080",
"~ 	c #DEEFC0",
"{ 	c #EBF2D3",
"] 	c #EAF2D8",
"^ 	c #E6F1CC",
"/ 	c #D8ECBB",
"( 	c #D5E8B2",
"_ 	c #D3E5B0",
": 	c #CEDFA8",
"< 	c #C8DAA1",
"[ 	c #C4D59C",
"} 	c #A5BA77",
"| 	c #98A873",
"1 	c #D7E8B2",
"2 	c #ECF3DB",
"3 	c #ECF3DF",
"4 	c #E7F1CF",
"5 	c #E0F0C4",
"6 	c #DAECB9",
"7 	c #D7E9B6",
"8 	c #C5D99E",
"9 	c #BFD398",
"0 	c #A6BA7C",
"a 	c #9AAE69",
"b 	c #CCDFA8",
"c 	c #EAF1D0",
"d 	c #E3F0C7",
"e 	c #DBEEBF",
"f 	c #D7E9B9",
"g 	c #CCE0AB",
"h 	c #BDD08E",
"i 	c #A9BC7C",
"j 	c #E1EFC6",
"k 	c #D7E9B5",
"l 	c #C9DCA2",
"m 	c #C6DAA0",
"n 	c #B8CD8D",
"o 	c #B8CB8A",
"p 	c #B5C987",
"q 	c #A9BC7D",
"r 	c #D4E5B0",
"s 	c #CCDFA7",
"t 	c #C1D598",
"u 	c #B4C984",
"v 	c #B3C881",
"w 	c #B4C784",
"x 	c #ADC17E",
"y 	c #C4D99B",
"z 	c #B5C888",
"A 	c #B4C781",
"B 	c #B1C47F",
"C 	c #B2C581",
"D 	c #B9CA8A",
"E 	c #AFC47D",
"F 	c #B1C47E",
"G 	c #A9BA7C",
"H 	c #BACD8D",
"I 	c #BFD396",
"J 	c #BED08F",
"K 	c #B6C984",
"L 	c #B3C57F",
"M 	c #A7BA77",
"N 	c #BFD392",
"O 	c #BCCD8D",
"P 	c #B3C47E",
"Q 	c #AFC17A",
"R 	c #AEC17A",
"S 	c #A4B772",
"T 	c #C1D392",
"U 	c #BAC988",
"V 	c #B5C881",
"W 	c #B2C57B",
"X 	c #B0C377",
"Y 	c #AFC377",
"Z 	c #A3B670",
"` 	c #B0C581",
" .	c #B8C883",
"..	c #ABBC72",
"+.	c #A0B46B",
"@.	c #ACC37B",
"#.	c #BAC881",
"$.	c #B3C47D",
"%.	c #ADBE73",
"&.	c #A9BA70",
"*.	c #9CAF67",
"=.	c #A9BE77",
"-.	c #B6C988",
";.	c #BAC984",
">.	c #ADBE71",
",.	c #A3B76E",
"'.	c #99AC65",
").	c #A7BE73",
"!.	c #B1C680",
"~.	c #BACB8A",
"{.	c #B9C984",
"].	c #A7BB6E",
"^.	c #A2B669",
"/.	c #97AB63",
"(.	c #9EB46B",
"_.	c #B6CB8A",
":.	c #B3C683",
"<.	c #B3C581",
"[.	c #A3B76B",
"}.	c #9EB365",
"|.	c #92A75F",
"1.	c #A6B879",
"2.	c #9EB270",
"3.	c #9BAE65",
"4.	c #97AA65",
"5.	c #94A861",
"  . . . . . . . . . . . . . . . . . . .   ",
". + @ # $ % & * = - - ; ; > > , ' ) ! + . ",
". ~ { ] ^ ~ / ( ( _ # # : $ < [ * , } | . ",
". 1 2 3 4 5 @ 6 7 ( _ _ # : < 8 9 > 0 a . ",
". b 4 c d e f _ # g $ < & [ = * h > i a . ",
". < 5 j e k # g l m = * h n > o , p q a . ",
". % / @ f r g s m t * h > , u v u w x a . ",
". = 7 f ( # s < y 9 - > z v ' ' v A i a . ",
". = # r # g s m t * h > u ' B B ' C 0 a . ",
". - : # # g l % = * h D v ' ' E B F G a . ",
". H < s g s < % t I J D K v L E E E M a . ",
". o [ $ s s < % & 9 N O K v P Q Q R S a . ",
". v = % < l < < [ 9 T O U V P W X Y Z a . ",
". ` - & % . . . . . . . U  .P X X ..+.a . ",
". @.> * [ . . . . . . . U #.$.X %.&.*.a . ",
". =.-.h * . . . . . . . ;.V $.X >.,.'.a . ",
". ).!., H - N ; O O ~.{.V P X %.].^./.a . ",
". (.=.` p _._., z w :.<.E Y ..&.[.}.|.a . ",
". 1.a 2.,.=.=.=.=.=.=.......,.3.4.5.a a . ",
". . a a a a a a a a a a a a a a a a a . . ",
"  . . . . . . . . . . . . . . . . . . .   "};
