/* XPM */
static char * left_inactive_xpm[] = {
"5 5 7 1",
" 	c None",
".	c #C8D0B7",
"+	c #CFD6BC",
"@	c #DBDFC5",
"#	c #E0E2C8",
"$	c #D6D8BE",
"%	c #D0D6BD",
".+@#$",
".+@#$",
".%@#$",
".+@#$",
".%@#$"};
