/* XPM */
static char * maximize_active_xpm[] = {
"21 21 130 2",
"  	c None",
". 	c #FFFFFF",
"+ 	c #DCDCDC",
"@ 	c #B7C3A2",
"# 	c #AFBB94",
"$ 	c #A5B48B",
"% 	c #A3B288",
"& 	c #9EAD85",
"* 	c #9AAA7C",
"= 	c #9CAD80",
"- 	c #98A77B",
"; 	c #99A878",
"> 	c #95A274",
", 	c #90A072",
"' 	c #8F9E6A",
") 	c #889965",
"! 	c #8B986B",
"~ 	c #B9C5A4",
"{ 	c #C7C7B4",
"] 	c #C6C6B9",
"^ 	c #C1C6AE",
"/ 	c #B4C29F",
"( 	c #B1BF98",
"_ 	c #AFBB96",
": 	c #AAB68F",
"< 	c #A3B289",
"[ 	c #A1AD85",
"} 	c #819261",
"| 	c #75825E",
"1 	c #B3BF98",
"2 	c #C7C7BB",
"3 	c #C7C7BE",
"4 	c #C3C6B1",
"5 	c #BCC6A7",
"6 	c #B5C19D",
"7 	c #B2BF9B",
"8 	c #A1B086",
"9 	c #9CAB81",
"0 	c #839366",
"a 	c #768753",
"b 	c #A7B68F",
"c 	c #C5C6B2",
"d 	c #BFC6AA",
"e 	c #B6C3A2",
"f 	c #B2BF9E",
"g 	c #A8B792",
"h 	c #99A877",
"i 	c #879466",
"j 	c #BCC5A9",
"k 	c #91A170",
"l 	c #879468",
"m 	c #90A16D",
"n 	c #909F6D",
"o 	c #889968",
"p 	c #90A16B",
"q 	c #909F6B",
"r 	c #B1BD96",
"s 	c #A7B68E",
"t 	c #A1B288",
"u 	c #9EAD81",
"v 	c #8E9D69",
"w 	c #8E9D6B",
"x 	c #A5B48A",
"y 	c #9CAD81",
"z 	c #96A274",
"A 	c #91A16B",
"B 	c #8D9D68",
"C 	c #879366",
"D 	c #96A577",
"E 	c #9CAB7F",
"F 	c #9AA878",
"G 	c #92A16D",
"H 	c #919E69",
"I 	c #8D9D67",
"J 	c #839361",
"K 	c #95A373",
"L 	c #9BAB7B",
"M 	c #99A577",
"N 	c #919D68",
"O 	c #8D9A64",
"P 	c #8B9A64",
"Q 	c #80905C",
"R 	c #9DAB7B",
"S 	c #97A171",
"T 	c #92A16B",
"U 	c #8E9B61",
"V 	c #8C9B61",
"W 	c #7F8F59",
"X 	c #8C9D6B",
"Y 	c #A1AD81",
"Z 	c #9BA877",
"` 	c #96A16C",
" .	c #89955C",
"..	c #7D8D55",
"+.	c #889B65",
"@.	c #A1B084",
"#.	c #9EAD80",
"$.	c #98A16B",
"%.	c #919D67",
"&.	c #8B965D",
"*.	c #869359",
"=.	c #7A8950",
"-.	c #879660",
";.	c #91A171",
">.	c #8B975B",
",.	c #819157",
"'.	c #77864E",
").	c #83965D",
"!.	c #8E9E6A",
"~.	c #97A373",
"{.	c #96A16D",
"].	c #8B975D",
"^.	c #859458",
"/.	c #809052",
"(.	c #75854C",
"_.	c #7B8E55",
":.	c #879661",
"<.	c #92A373",
"[.	c #91A072",
"}.	c #8F9E6C",
"|.	c #909D6B",
"1.	c #809054",
"2.	c #7C8D4F",
"3.	c #708148",
"4.	c #829164",
"5.	c #7B8B59",
"6.	c #79884F",
"7.	c #75844E",
"8.	c #72824A",
"9.	c #C6C6C6",
"  . . . . . . . . . . . . . . . . . . .   ",
". + @ # $ % & * = - - ; ; > > , ' ) ! + . ",
". ~ { ] ^ ~ / ( ( _ # # : $ < [ * , } | . ",
". 1 2 3 4 5 @ 6 7 ( _ _ # : < 8 9 > 0 a . ",
". b 4 c d e f _ # g $ < & [ = * h > i a . ",
". < 5 j e . . . . . . . . . . . , k l a . ",
". % / @ f . . . . . . . . . . . m n o a . ",
". = 7 f ( . . . . . . . . . . . p q i a . ",
". = # r # . s t u * h > m ' v . ' w 0 a . ",
". - : # # . x % y * h z A ' ' . v B C a . ",
". D < s g . < % u E F z G A H . I I J a . ",
". K [ $ s . < % & 9 L M G A N . O P Q a . ",
". p = % < . < < [ 9 R M S T N . U V W a . ",
". X - & % . % 8 Y 9 R Z S ` N . U  ...a . ",
". +.> * [ . @.& #.E F h S $.%.. &.*.=.a . ",
". -.;.h * . . . . . . . . . . . >.,.'.a . ",
". ).!., D - L ; M M ~.{.T N U ].^./.(.a . ",
". _.:.X k <.<., [.n }.|.I V  .*.1.2.3.a . ",
". 4.a 5.,.:.:.:.:.:.:. . . .,.6.7.8.a a . ",
". 9.a a a a a a a a a a a a a a a a a 9.. ",
"  . . . . . . . . . . . . . . . . . . .   "};
