/* XPM */
static char * maximize_pressed_xpm[] = {
"21 21 55 1",
" 	c None",
".	c #FFFFFF",
"+	c #E1E1E1",
"@	c #52544B",
"#	c #474A3C",
"$	c #494C3C",
"%	c #4A4C3E",
"&	c #4D503F",
"*	c #4E5140",
"=	c #505340",
"-	c #525544",
";	c #535844",
">	c #545945",
",	c #565B47",
"'	c #575C48",
")	c #585D47",
"!	c #666B57",
"~	c #505542",
"{	c #535643",
"]	c #5A5F48",
"^	c #5C6249",
"/	c #5E634A",
"(	c #5F644B",
"_	c #60654C",
":	c #62674D",
"<	c #64694D",
"[	c #6F745D",
"}	c #474A3A",
"|	c #5B6049",
"1	c #61664C",
"2	c #63684E",
"3	c #656B4F",
"4	c #666C50",
"5	c #686D51",
"6	c #686E50",
"7	c #646A4E",
"8	c #676D51",
"9	c #696F53",
"0	c #4A4C3C",
"a	c #6A7052",
"b	c #4B4E3E",
"c	c #595E48",
"d	c #62684E",
"e	c #6B7152",
"f	c #4D5241",
"g	c #6B7354",
"h	c #6D7354",
"i	c #6E7354",
"j	c #656D4F",
"k	c #6F7455",
"l	c #727756",
"m	c #565B45",
"n	c #737857",
"o	c #717655",
"p	c #777C62",
" ................... ",
".+@##$%&*==-;>,,')!+.",
".@&~{;,']^//(_:<<<<[.",
".}~)|^/(123456666666.",
".#;|/(1<748669999999.",
".#>/(...........9999.",
".0,/1...........9a99.",
".bc_d...........eea9.",
".&|<3.866699eee.eeea.",
".f^74.6699aeegh.ggee.",
".=/48.669aeeiii.iige.",
".-/j6.699eeikkk.kkie.",
".;(66.99eeiikll.lkie.",
".>169.99egiklll.llke.",
".m:69.9aehiklln.llkg.",
".,<69...........nlkh.",
".,<6999aegikollnllkg.",
".'<699aaegiiklllloie.",
".!269999eegiikkkkihp.",
".+[69999aeeeeeghgep+.",
" ................... "};
