/* XPM */
static char * maximize_inactive_xpm[] = {
"21 21 180 2",
"  	c None",
". 	c #FDFDF1",
"+ 	c #FFFFFF",
"@ 	c #F8FCEE",
"# 	c #FBFCEE",
"$ 	c #FEFEFA",
"% 	c #E2ECD1",
"& 	c #DAE4C6",
"* 	c #D3DFBF",
"= 	c #D1DDBD",
"- 	c #D0DCBB",
"; 	c #CDD9B8",
"> 	c #CBD7B4",
", 	c #C8D5B1",
"' 	c #C6D2B0",
") 	c #C2D0AA",
"! 	c #BDCCA6",
"~ 	c #BECBAA",
"{ 	c #FCFDF3",
"] 	c #F4FCEB",
"^ 	c #EAF3DB",
"/ 	c #EBF4DC",
"( 	c #E6F0D5",
"_ 	c #DEE8CD",
": 	c #DBE6C8",
"< 	c #DAE6C8",
"[ 	c #D7E3C5",
"} 	c #D7E2C4",
"| 	c #D2DFBF",
"1 	c #D0DDBD",
"2 	c #CCD9B9",
"3 	c #C8D5B3",
"4 	c #C3D1AE",
"5 	c #B8C5A2",
"6 	c #B1BD9F",
"7 	c #ECF4DD",
"8 	c #E8F2D8",
"9 	c #E2ECD2",
"0 	c #D6E2C4",
"a 	c #D2DDBF",
"b 	c #CEDCBB",
"c 	c #CAD6B5",
"d 	c #C3D1AF",
"e 	c #B7C5A3",
"f 	c #A1AE8E",
"g 	c #E9F3DA",
"h 	c #E4EED4",
"i 	c #D3DFC1",
"j 	c #CFDDBD",
"k 	c #CCD9B8",
"l 	c #C5D2B0",
"m 	c #BAC7A5",
"n 	c #A2B08F",
"o 	c #E4EED3",
"p 	c #F7FAF4",
"q 	c #F7F9F3",
"r 	c #F6F8F2",
"s 	c #F5F8F1",
"t 	c #F5F7F1",
"u 	c #F4F7F0",
"v 	c #F3F6EF",
"w 	c #C2D0AC",
"x 	c #BCC9A8",
"y 	c #A7B495",
"z 	c #DEE9CD",
"A 	c #DCE7CA",
"B 	c #F6F9F3",
"C 	c #C5D2AF",
"D 	c #BDCBA9",
"E 	c #CDDAB9",
"F 	c #DDE9CC",
"G 	c #DCE7C9",
"H 	c #F6F9F2",
"I 	c #F4F6EF",
"J 	c #F3F5EE",
"K 	c #C3D1AC",
"L 	c #BDCBA8",
"M 	c #D9E4C6",
"N 	c #D5E2C2",
"O 	c #C3D1AB",
"P 	c #F2F5EE",
"Q 	c #D8E4C6",
"R 	c #C6D2AF",
"S 	c #C5D1AC",
"T 	c #C3D0AA",
"U 	c #BCC9A6",
"V 	c #A8B695",
"W 	c #CAD6B3",
"X 	c #C9D5B1",
"Y 	c #C7D3AF",
"Z 	c #C6D1AC",
"` 	c #A6B291",
" .	c #D7E4C3",
"..	c #D5E1C0",
"+.	c #CEDBB9",
"@.	c #CDD9B6",
"#.	c #C7D3AE",
"$.	c #C6D1AB",
"%.	c #F2F5ED",
"&.	c #C1CFA7",
"*.	c #BCC9A4",
"=.	c #A6B391",
"-.	c #CAD6B1",
";.	c #D1DDBB",
">.	c #D1DCBB",
",.	c #CBD6B3",
"'.	c #C4CFA7",
").	c #C1CDA6",
"!.	c #BCC8A3",
"~.	c #A6B390",
"{.	c #CFDBB9",
"].	c #D2DFBE",
"^.	c #D6E2C0",
"/.	c #D3DFBE",
"(.	c #D0DBB9",
"_.	c #CDD8B5",
":.	c #CAD6B0",
"<.	c #C0CDA5",
"[.	c #BAC7A0",
"}.	c #A7B390",
"|.	c #CEDBB7",
"1.	c #D3E0BE",
"2.	c #D2DDBA",
"3.	c #D0DBB7",
"4.	c #CCD8B3",
"5.	c #C1CDA5",
"6.	c #B9C69F",
"7.	c #C5D1AA",
"8.	c #CCD8B4",
"9.	c #D1DDBA",
"0.	c #F5F7F0",
"a.	c #F5F7EF",
"b.	c #F3F5ED",
"c.	c #C3CDA5",
"d.	c #C0CCA2",
"e.	c #B9C59D",
"f.	c #CDD9B5",
"g.	c #CFDBB7",
"h.	c #CFD9B5",
"i.	c #CFD9B4",
"j.	c #CDD8B3",
"k.	c #C9D4AE",
"l.	c #C9D4AC",
"m.	c #C5D1A9",
"n.	c #C0CDA4",
"o.	c #B9C59C",
"p.	c #BFCCA1",
"q.	c #B6C29A",
"r.	c #A5B18E",
"s.	c #C5D1AE",
"t.	c #BDC9A4",
"u.	c #C1CCA9",
"v.	c #C2CDAA",
"w.	c #C4D0AC",
"x.	c #C3D0AC",
"y.	c #C1CDA9",
"z.	c #C1CDA7",
"A.	c #C0CCA6",
"B.	c #BECAA3",
"C.	c #BDCAA2",
"D.	c #BAC69D",
"E.	c #B7C49C",
"F.	c #AFBB95",
"G.	c #AEBA9B",
"H.	c #FDFDF4",
"I.	c #FEFEF8",
"J.	c #B9C3A3",
"K.	c #ABB694",
"L.	c #B0B998",
"M.	c #AEB998",
"N.	c #ACB796",
"O.	c #B0BB9A",
"P.	c #AFB998",
"Q.	c #ADB895",
"R.	c #AEB996",
"S.	c #ACB794",
"T.	c #ABB792",
"U.	c #A8B590",
"V.	c #B0BA9B",
"W.	c #FDFDF5",
"  . + + + + + + + + + + + + + + + + + @   ",
"# $ % & * = - ; ; > > > > , ' ' ) ! ~ { ] ",
"+ % ^ / ( % _ : < [ } } | | 1 2 3 4 5 6 + ",
"+ : 7 7 8 9 _ _ < : [ } 0 | a b c d e f + ",
"+ * 8 g h _ : : } i | j b b k 3 ' l m n + ",
"+ * o h _ p q r r s t u v v v v l w x y + ",
"+ | z z A q B r s t u u v v v v C C D y + ",
"+ E F A G q H s s u u I v v J J K C L y + ",
"+ E M : M B N j E k > , C K O P O K L y + ",
"+ > N M Q H | 1 E k > , R S O J T ) U V + ",
"+ W * N N H | 1 E ; > X Y Z O J T T U ` + ",
"+ W | N  .H ..| - +.@.W X #.$.%.&.&.*.=.+ ",
"+ -.;... .q ....>.+.@.,.-.#.#.J '.).!.~.+ ",
"+ Y {.].^.H ..../.;.(._.-.:.#.J '.<.[.}.+ ",
"+ #.|.;...H ....1.;.2.3.4.:.$.J '.5.6.}.+ ",
"+ 7.8.9.;.r r r s s 0.0.a.I J b.c.d.e.}.+ ",
"+ 7.-.f.9.9.9.9.2.g.h.i.j.k.l.m.c.n.o.}.+ ",
"+ <.$.-.8._.|.f.f.8.4.-.k.$.'.c.5.p.q.r.+ ",
"+ s.t.u.v.w.w.x.w.v.y.z.A.A.B.C.D.E.F.G.+ ",
"H.I.J.K.L.M.M.N.O.O.P.Q.R.R.S.T.T.U.V.W.H.",
"  H.+ + + + + + + + + + + + + + + + + H.  "};
