/* XPM */
static char * menu_active_xpm[] = {
"21 21 134 2",
"  	c None",
". 	c #FFFFFF",
"+ 	c #DCDCDC",
"@ 	c #B7C3A2",
"# 	c #AFBB94",
"$ 	c #A5B48B",
"% 	c #A3B288",
"& 	c #9EAD85",
"* 	c #9AAA7C",
"= 	c #9CAD80",
"- 	c #98A77B",
"; 	c #99A878",
"> 	c #95A274",
", 	c #90A072",
"' 	c #8F9E6A",
") 	c #889965",
"! 	c #8B986B",
"~ 	c #B9C5A4",
"{ 	c #C7C7B4",
"] 	c #C6C6B9",
"^ 	c #C1C6AE",
"/ 	c #B4C29F",
"( 	c #B1BF98",
"_ 	c #AFBB96",
": 	c #AAB68F",
"< 	c #A3B289",
"[ 	c #A1AD85",
"} 	c #819261",
"| 	c #75825E",
"1 	c #B3BF98",
"2 	c #C7C7BB",
"3 	c #C7C7BE",
"4 	c #C3C6B1",
"5 	c #BCC6A7",
"6 	c #B5C19D",
"7 	c #B2BF9B",
"8 	c #A1B086",
"9 	c #9CAB81",
"0 	c #839366",
"a 	c #768753",
"b 	c #A7B68F",
"c 	c #C5C6B2",
"d 	c #BFC6AA",
"e 	c #B6C3A2",
"f 	c #B2BF9E",
"g 	c #A8B792",
"h 	c #99A877",
"i 	c #879466",
"j 	c #BCC5A9",
"k 	c #B2BF9A",
"l 	c #A5B48A",
"m 	c #A1B288",
"n 	c #95A577",
"o 	c #95A373",
"p 	c #91A170",
"q 	c #879468",
"r 	c #B1BD96",
"s 	c #A7B68E",
"t 	c #9EAD81",
"u 	c #90A16D",
"v 	c #90A16B",
"w 	c #909F6D",
"x 	c #889968",
"y 	c #909F6B",
"z 	c #8E9D69",
"A 	c #8E9D6B",
"B 	c #9CAD81",
"C 	c #91A16B",
"D 	c #8D9D67",
"E 	c #8D9D68",
"F 	c #879366",
"G 	c #96A577",
"H 	c #9CAB7F",
"I 	c #96A274",
"J 	c #92A16D",
"K 	c #919E69",
"L 	c #839361",
"M 	c #9BAB7B",
"N 	c #99A577",
"O 	c #919D68",
"P 	c #8D9A64",
"Q 	c #8B9A64",
"R 	c #80905C",
"S 	c #9DAB7B",
"T 	c #92A16B",
"U 	c #8F9E65",
"V 	c #8E9B61",
"W 	c #8C9B61",
"X 	c #7F8F59",
"Y 	c #8C9D6B",
"Z 	c #A1AD81",
"` 	c #97A171",
" .	c #96A16C",
"..	c #89955C",
"+.	c #7D8D55",
"@.	c #889B65",
"#.	c #A1B084",
"$.	c #9EAD80",
"%.	c #98A16B",
"&.	c #919D67",
"*.	c #8B965D",
"=.	c #869359",
"-.	c #7A8950",
";.	c #879660",
">.	c #91A171",
",.	c #9BA877",
"'.	c #9AA674",
").	c #97A16D",
"!.	c #8B975B",
"~.	c #819157",
"{.	c #77864E",
"].	c #83965D",
"^.	c #8E9E6A",
"/.	c #97A373",
"(.	c #96A16D",
"_.	c #8B975D",
":.	c #859458",
"<.	c #809052",
"[.	c #75854C",
"}.	c #7B8E55",
"|.	c #879661",
"1.	c #92A373",
"2.	c #91A072",
"3.	c #8F9E6C",
"4.	c #909D6B",
"5.	c #809054",
"6.	c #7C8D4F",
"7.	c #708148",
"8.	c #829164",
"9.	c #7B8B59",
"0.	c #79884F",
"a.	c #75844E",
"b.	c #72824A",
"c.	c #C6C6C6",
"  . . . . . . . . . . . . . . . . . . .   ",
". + @ # $ % & * = - - ; ; > > , ' ) ! + . ",
". ~ { ] ^ ~ / ( ( _ # # : $ < [ * , } | . ",
". 1 2 3 4 5 @ 6 7 ( _ _ # : < 8 9 > 0 a . ",
". b 4 c d e f _ # g $ < & [ = * h > i a . ",
". < 5 j e k # g l m = * h n > o , p q a . ",
". % / @ f r g s m t * h > , u v u w x a . ",
". = 7 f ( # s < . 9 - > . v ' ' v y i a . ",
". = # r # g s m . . h . . ' z z ' A 0 a . ",
". - : # # g l % B . . . C ' ' D z E F a . ",
". G < s g s < % t H . I J C K D D D L a . ",
". o [ $ s s < % . 9 M N . C O P P Q R a . ",
". v = % < l < < . . S . . T O U V W X a . ",
". Y - & % < % 8 Z . . . `  .O V V ..+.a . ",
". @.> * [ 8 #.& $.H . h ` %.&.V *.=.-.a . ",
". ;.>.h * = = 9 H S ,.'.).T &.V !.~.{.a . ",
". ].^., G - M ; N N /.(.T O V _.:.<.[.a . ",
". }.|.Y p 1.1., 2.w 3.4.D W ..=.5.6.7.a . ",
". 8.a 9.~.|.|.|.|.|.|.......~.0.a.b.a a . ",
". c.a a a a a a a a a a a a a a a a a c.. ",
"  . . . . . . . . . . . . . . . . . . .   "};
