/* XPM */
static char * menu_inactive_xpm[] = {
"21 21 176 2",
"  	c None",
". 	c #FDFDF1",
"+ 	c #FFFFFF",
"@ 	c #F8FCEE",
"# 	c #FBFCEE",
"$ 	c #FEFEFA",
"% 	c #E2ECD1",
"& 	c #DAE4C6",
"* 	c #D3DFBF",
"= 	c #D1DDBD",
"- 	c #D0DCBB",
"; 	c #CDD9B8",
"> 	c #CBD7B4",
", 	c #C8D5B1",
"' 	c #C6D2B0",
") 	c #C2D0AA",
"! 	c #BDCCA6",
"~ 	c #BECBAA",
"{ 	c #FCFDF3",
"] 	c #F4FCEB",
"^ 	c #EAF3DB",
"/ 	c #EBF4DC",
"( 	c #E6F0D5",
"_ 	c #DEE8CD",
": 	c #DBE6C8",
"< 	c #DAE6C8",
"[ 	c #D7E3C5",
"} 	c #D7E2C4",
"| 	c #D2DFBF",
"1 	c #D0DDBD",
"2 	c #CCD9B9",
"3 	c #C8D5B3",
"4 	c #C3D1AE",
"5 	c #B8C5A2",
"6 	c #B1BD9F",
"7 	c #ECF4DD",
"8 	c #E8F2D8",
"9 	c #E2ECD2",
"0 	c #D6E2C4",
"a 	c #D2DDBF",
"b 	c #CEDCBB",
"c 	c #CAD6B5",
"d 	c #C3D1AF",
"e 	c #B7C5A3",
"f 	c #A1AE8E",
"g 	c #E9F3DA",
"h 	c #E4EED4",
"i 	c #D3DFC1",
"j 	c #CFDDBD",
"k 	c #CCD9B8",
"l 	c #C5D2B0",
"m 	c #BAC7A5",
"n 	c #A2B08F",
"o 	c #E4EED3",
"p 	c #CDDAB9",
"q 	c #CAD7B5",
"r 	c #C7D5B2",
"s 	c #C7D5B1",
"t 	c #C2D0AC",
"u 	c #BCC9A8",
"v 	c #A7B495",
"w 	c #DEE9CD",
"x 	c #DCE7CA",
"y 	c #D9E4C6",
"z 	c #CAD7B4",
"A 	c #C5D2AF",
"B 	c #BDCBA9",
"C 	c #DDE9CC",
"D 	c #DCE7C9",
"E 	c #D8E4C6",
"F 	c #D5E2C2",
"G 	c #F5F8F1",
"H 	c #F3F6EF",
"I 	c #C3D1AC",
"J 	c #BDCBA8",
"K 	c #F5F7F1",
"L 	c #F4F7F0",
"M 	c #F4F6EF",
"N 	c #C3D1AB",
"O 	c #C6D2AF",
"P 	c #C5D1AC",
"Q 	c #C3D0AA",
"R 	c #BCC9A6",
"S 	c #A8B695",
"T 	c #CAD6B3",
"U 	c #C9D5B1",
"V 	c #C7D3AF",
"W 	c #C6D1AC",
"X 	c #C4D0AA",
"Y 	c #A6B291",
"Z 	c #D7E4C3",
"` 	c #D5E1C0",
" .	c #CEDBB9",
"..	c #CDD9B6",
"+.	c #C7D3AE",
"@.	c #C6D1AB",
"#.	c #C2CFA7",
"$.	c #C1CFA7",
"%.	c #BCC9A4",
"&.	c #A6B391",
"*.	c #CAD6B1",
"=.	c #D1DDBB",
"-.	c #C5D0AA",
";.	c #C4CFA7",
">.	c #C1CDA6",
",.	c #BCC8A3",
"'.	c #A6B390",
").	c #CFDBB9",
"!.	c #D2DFBE",
"~.	c #D6E2C0",
"{.	c #D3DFBE",
"].	c #F5F7F0",
"^.	c #CAD6B0",
"/.	c #C5D1AA",
"(.	c #C0CDA5",
"_.	c #BAC7A0",
":.	c #A7B390",
"<.	c #CEDBB7",
"[.	c #D3E0BE",
"}.	c #F6F8F1",
"|.	c #D0DBB7",
"1.	c #CCD8B3",
"2.	c #C1CDA5",
"3.	c #B9C69F",
"4.	c #CCD8B4",
"5.	c #D1DDBA",
"6.	c #CFDBB7",
"7.	c #CFD9B5",
"8.	c #CDD8B3",
"9.	c #CBD6B0",
"0.	c #C3CDA5",
"a.	c #C0CCA2",
"b.	c #B9C59D",
"c.	c #CDD9B5",
"d.	c #D2DDBA",
"e.	c #CFD9B4",
"f.	c #C9D4AE",
"g.	c #C9D4AC",
"h.	c #C5D1A9",
"i.	c #C0CDA4",
"j.	c #B9C59C",
"k.	c #CDD8B5",
"l.	c #BFCCA1",
"m.	c #B6C29A",
"n.	c #A5B18E",
"o.	c #C5D1AE",
"p.	c #BDC9A4",
"q.	c #C1CCA9",
"r.	c #C2CDAA",
"s.	c #C4D0AC",
"t.	c #C3D0AC",
"u.	c #C1CDA9",
"v.	c #C1CDA7",
"w.	c #C0CCA6",
"x.	c #BECAA3",
"y.	c #BDCAA2",
"z.	c #BAC69D",
"A.	c #B7C49C",
"B.	c #AFBB95",
"C.	c #AEBA9B",
"D.	c #FDFDF4",
"E.	c #FEFEF8",
"F.	c #B9C3A3",
"G.	c #ABB694",
"H.	c #B0B998",
"I.	c #AEB998",
"J.	c #ACB796",
"K.	c #B0BB9A",
"L.	c #AFB998",
"M.	c #ADB895",
"N.	c #AEB996",
"O.	c #ACB794",
"P.	c #ABB792",
"Q.	c #A8B590",
"R.	c #B0BA9B",
"S.	c #FDFDF5",
"  . + + + + + + + + + + + + + + + + + @   ",
"# $ % & * = - ; ; > > > > , ' ' ) ! ~ { ] ",
"+ % ^ / ( % _ : < [ } } | | 1 2 3 4 5 6 + ",
"+ : 7 7 8 9 _ _ < : [ } 0 | a b c d e f + ",
"+ * 8 g h _ : : } i | j b b k 3 ' l m n + ",
"+ * o h _ < } i | j p q r r s l l t u v + ",
"+ | w w x y 0 | j p q z s l A A A A B v + ",
"+ p C x D E F 1 G k z , H A I I I A J v + ",
"+ p y : y 0 F j K L > M H I N ) N I J v + ",
"+ > F y E F | 1 p L L M O P N Q Q ) R S + ",
"+ T * F F F | 1 p ; L U V W N X Q Q R Y + ",
"+ T | F Z F ` | G  ...T M +.@.#.$.$.%.&.+ ",
"+ *.=.` Z Z ` ` G K ..M M +.+.-.;.>.,.'.+ ",
"+ V ).!.~.` ` ` {.G K ].*.^.+./.;.(._.:.+ ",
"+ +.<.=.` ~.` ` [.=.}.|.1.^.@./.;.2.3.:.+ ",
"+ /.4.5.=.[.[.[.=.5.6.7.8.9.@.;.0.a.b.:.+ ",
"+ /.*.c.5.5.5.5.d.6.7.e.8.f.g.h.0.i.j.:.+ ",
"+ (.@.*.4.k.<.c.c.4.1.*.f.@.;.0.2.l.m.n.+ ",
"+ o.p.q.r.s.s.t.s.r.u.v.w.w.x.y.z.A.B.C.+ ",
"D.E.F.G.H.I.I.J.K.K.L.M.N.N.O.P.P.Q.R.S.D.",
"  D.+ + + + + + + + + + + + + + + + + D.  "};
