/* XPM */
static char * shade_inactive_xpm[] = {
"21 21 179 2",
"  	c None",
". 	c #FDFDF1",
"+ 	c #FFFFFF",
"@ 	c #F8FCEE",
"# 	c #FBFCEE",
"$ 	c #FEFEFA",
"% 	c #E2ECD1",
"& 	c #DAE4C6",
"* 	c #D3DFBF",
"= 	c #D1DDBD",
"- 	c #D0DCBB",
"; 	c #CDD9B8",
"> 	c #CBD7B4",
", 	c #C8D5B1",
"' 	c #C6D2B0",
") 	c #C2D0AA",
"! 	c #BDCCA6",
"~ 	c #BECBAA",
"{ 	c #FCFDF3",
"] 	c #F4FCEB",
"^ 	c #EAF3DB",
"/ 	c #EBF4DC",
"( 	c #E6F0D5",
"_ 	c #DEE8CD",
": 	c #DBE6C8",
"< 	c #DAE6C8",
"[ 	c #D7E3C5",
"} 	c #D7E2C4",
"| 	c #D2DFBF",
"1 	c #D0DDBD",
"2 	c #CCD9B9",
"3 	c #C8D5B3",
"4 	c #C3D1AE",
"5 	c #B8C5A2",
"6 	c #B1BD9F",
"7 	c #ECF4DD",
"8 	c #E8F2D8",
"9 	c #E2ECD2",
"0 	c #D6E2C4",
"a 	c #D2DDBF",
"b 	c #CEDCBB",
"c 	c #CAD6B5",
"d 	c #C3D1AF",
"e 	c #B7C5A3",
"f 	c #A1AE8E",
"g 	c #E9F3DA",
"h 	c #E4EED4",
"i 	c #D3DFC1",
"j 	c #CFDDBD",
"k 	c #CCD9B8",
"l 	c #C5D2B0",
"m 	c #BAC7A5",
"n 	c #A2B08F",
"o 	c #E4EED3",
"p 	c #CDDAB9",
"q 	c #CAD7B5",
"r 	c #C7D5B2",
"s 	c #C7D5B1",
"t 	c #C2D0AC",
"u 	c #BCC9A8",
"v 	c #A7B495",
"w 	c #DEE9CD",
"x 	c #DCE7CA",
"y 	c #D9E4C6",
"z 	c #CAD7B4",
"A 	c #C5D2AF",
"B 	c #BDCBA9",
"C 	c #DDE9CC",
"D 	c #DCE7C9",
"E 	c #D8E4C6",
"F 	c #D5E2C2",
"G 	c #F4F7F0",
"H 	c #C3D1AC",
"I 	c #BDCBA8",
"J 	c #F4F6EF",
"K 	c #C3D1AB",
"L 	c #F5F7F1",
"M 	c #F3F6EF",
"N 	c #C5D1AC",
"O 	c #C3D0AA",
"P 	c #BCC9A6",
"Q 	c #A8B695",
"R 	c #CAD6B3",
"S 	c #F5F8F1",
"T 	c #F5F7F0",
"U 	c #F3F5EE",
"V 	c #C4D0AA",
"W 	c #A6B291",
"X 	c #D7E4C3",
"Y 	c #F6F9F2",
"Z 	c #F6F8F2",
"` 	c #CEDBB9",
" .	c #CDD9B6",
"..	c #F3F6EE",
"+.	c #C2CFA7",
"@.	c #C1CFA7",
"#.	c #BCC9A4",
"$.	c #A6B391",
"%.	c #CAD6B1",
"&.	c #D1DDBB",
"*.	c #D5E1C0",
"=.	c #D1DCBB",
"-.	c #CBD6B3",
";.	c #C7D3AE",
">.	c #C5D0AA",
",.	c #C4CFA7",
"'.	c #C1CDA6",
").	c #BCC8A3",
"!.	c #A6B390",
"~.	c #C7D3AF",
"{.	c #CFDBB9",
"].	c #D2DFBE",
"^.	c #D6E2C0",
"/.	c #D3DFBE",
"(.	c #D0DBB9",
"_.	c #CDD8B5",
":.	c #CAD6B0",
"<.	c #C5D1AA",
"[.	c #C0CDA5",
"}.	c #BAC7A0",
"|.	c #A7B390",
"1.	c #CEDBB7",
"2.	c #D3E0BE",
"3.	c #D2DDBA",
"4.	c #D0DBB7",
"5.	c #CCD8B3",
"6.	c #C6D1AB",
"7.	c #C1CDA5",
"8.	c #B9C69F",
"9.	c #CCD8B4",
"0.	c #D1DDBA",
"a.	c #CFDBB7",
"b.	c #CFD9B5",
"c.	c #CDD8B3",
"d.	c #CBD6B0",
"e.	c #C3CDA5",
"f.	c #C0CCA2",
"g.	c #B9C59D",
"h.	c #CDD9B5",
"i.	c #CFD9B4",
"j.	c #C9D4AE",
"k.	c #C9D4AC",
"l.	c #C5D1A9",
"m.	c #C0CDA4",
"n.	c #B9C59C",
"o.	c #BFCCA1",
"p.	c #B6C29A",
"q.	c #A5B18E",
"r.	c #C5D1AE",
"s.	c #BDC9A4",
"t.	c #C1CCA9",
"u.	c #C2CDAA",
"v.	c #C4D0AC",
"w.	c #C3D0AC",
"x.	c #C1CDA9",
"y.	c #C1CDA7",
"z.	c #C0CCA6",
"A.	c #BECAA3",
"B.	c #BDCAA2",
"C.	c #BAC69D",
"D.	c #B7C49C",
"E.	c #AFBB95",
"F.	c #AEBA9B",
"G.	c #FDFDF4",
"H.	c #FEFEF8",
"I.	c #B9C3A3",
"J.	c #ABB694",
"K.	c #B0B998",
"L.	c #AEB998",
"M.	c #ACB796",
"N.	c #B0BB9A",
"O.	c #AFB998",
"P.	c #ADB895",
"Q.	c #AEB996",
"R.	c #ACB794",
"S.	c #ABB792",
"T.	c #A8B590",
"U.	c #B0BA9B",
"V.	c #FDFDF5",
"  . + + + + + + + + + + + + + + + + + @   ",
"# $ % & * = - ; ; > > > > , ' ' ) ! ~ { ] ",
"+ % ^ / ( % _ : < [ } } | | 1 2 3 4 5 6 + ",
"+ : 7 7 8 9 _ _ < : [ } 0 | a b c d e f + ",
"+ * 8 g h _ : : } i | j b b k 3 ' l m n + ",
"+ * o h _ < } i | j p q r r s l l t u v + ",
"+ | w w x y 0 | j p q z s l A A A A B v + ",
"+ p C x D E F 1 b k G , s A H H H A I v + ",
"+ p y : y 0 F j p G G J A H K ) K H I v + ",
"+ > F y E F | 1 L G G J M N K O O ) P Q + ",
"+ R * F F F | S L T > J M U K V O O P W + ",
"+ R | F X F Y Z S `  .R J ..U +.@.@.#.$.+ ",
"+ %.&.*.X X *.Y =.`  .-.%...;.>.,.'.).!.+ ",
"+ ~.{.].^.*.*.*./.&.(._.%.:.;.<.,.[.}.|.+ ",
"+ ;.1.&.*.^.*.*.2.&.3.4.5.:.6.<.,.7.8.|.+ ",
"+ <.9.0.&.2.2.2.&.0.a.b.c.d.6.,.e.f.g.|.+ ",
"+ <.%.h.0.0.0.0.3.a.b.i.c.j.k.l.e.m.n.|.+ ",
"+ [.6.%.9._.1.h.h.9.5.%.j.6.,.e.7.o.p.q.+ ",
"+ r.s.t.u.v.v.w.v.u.x.y.z.z.A.B.C.D.E.F.+ ",
"G.H.I.J.K.L.L.M.N.N.O.P.Q.Q.R.S.S.T.U.V.G.",
"  G.+ + + + + + + + + + + + + + + + + G.  "};
