/* XPM */
static char * shade_toggled_inactive_xpm[] = {
"21 21 177 2",
"  	c None",
". 	c #FDFDF1",
"+ 	c #FFFFFF",
"@ 	c #F8FCEE",
"# 	c #FBFCEE",
"$ 	c #FEFEFA",
"% 	c #E2ECD1",
"& 	c #DAE4C6",
"* 	c #D3DFBF",
"= 	c #D1DDBD",
"- 	c #D0DCBB",
"; 	c #CDD9B8",
"> 	c #CBD7B4",
", 	c #C8D5B1",
"' 	c #C6D2B0",
") 	c #C2D0AA",
"! 	c #BDCCA6",
"~ 	c #BECBAA",
"{ 	c #FCFDF3",
"] 	c #F4FCEB",
"^ 	c #EAF3DB",
"/ 	c #EBF4DC",
"( 	c #E6F0D5",
"_ 	c #DEE8CD",
": 	c #DBE6C8",
"< 	c #DAE6C8",
"[ 	c #D7E3C5",
"} 	c #D7E2C4",
"| 	c #D2DFBF",
"1 	c #D0DDBD",
"2 	c #CCD9B9",
"3 	c #C8D5B3",
"4 	c #C3D1AE",
"5 	c #B8C5A2",
"6 	c #B1BD9F",
"7 	c #ECF4DD",
"8 	c #E8F2D8",
"9 	c #E2ECD2",
"0 	c #D6E2C4",
"a 	c #D2DDBF",
"b 	c #CEDCBB",
"c 	c #CAD6B5",
"d 	c #C3D1AF",
"e 	c #B7C5A3",
"f 	c #A1AE8E",
"g 	c #E9F3DA",
"h 	c #E4EED4",
"i 	c #D3DFC1",
"j 	c #CFDDBD",
"k 	c #CCD9B8",
"l 	c #C5D2B0",
"m 	c #BAC7A5",
"n 	c #A2B08F",
"o 	c #E4EED3",
"p 	c #CDDAB9",
"q 	c #CAD7B5",
"r 	c #C7D5B2",
"s 	c #C7D5B1",
"t 	c #C2D0AC",
"u 	c #BCC9A8",
"v 	c #A7B495",
"w 	c #DEE9CD",
"x 	c #DCE7CA",
"y 	c #D9E4C6",
"z 	c #CAD7B4",
"A 	c #C5D2AF",
"B 	c #BDCBA9",
"C 	c #DDE9CC",
"D 	c #DCE7C9",
"E 	c #D8E4C6",
"F 	c #D5E2C2",
"G 	c #F5F8F1",
"H 	c #F3F6EF",
"I 	c #C3D1AC",
"J 	c #BDCBA8",
"K 	c #F6F9F2",
"L 	c #F5F7F1",
"M 	c #F3F5EE",
"N 	c #C3D1AB",
"O 	c #F4F7F0",
"P 	c #F4F6EF",
"Q 	c #C3D0AA",
"R 	c #BCC9A6",
"S 	c #A8B695",
"T 	c #CAD6B3",
"U 	c #F5F7F0",
"V 	c #C6D1AC",
"W 	c #C4D0AA",
"X 	c #A6B291",
"Y 	c #D7E4C3",
"Z 	c #D5E1C0",
"` 	c #C9D5B1",
" .	c #C7D3AE",
"..	c #C6D1AB",
"+.	c #C2CFA7",
"@.	c #C1CFA7",
"#.	c #BCC9A4",
"$.	c #A6B391",
"%.	c #CAD6B1",
"&.	c #D1DDBB",
"*.	c #D1DCBB",
"=.	c #CEDBB9",
"-.	c #CBD6B3",
";.	c #C5D0AA",
">.	c #C4CFA7",
",.	c #C1CDA6",
"'.	c #BCC8A3",
").	c #A6B390",
"!.	c #C7D3AF",
"~.	c #CFDBB9",
"{.	c #D2DFBE",
"].	c #D6E2C0",
"^.	c #D3DFBE",
"/.	c #D0DBB9",
"(.	c #CDD8B5",
"_.	c #CAD6B0",
":.	c #C5D1AA",
"<.	c #C0CDA5",
"[.	c #BAC7A0",
"}.	c #A7B390",
"|.	c #CEDBB7",
"1.	c #D3E0BE",
"2.	c #D2DDBA",
"3.	c #D0DBB7",
"4.	c #CCD8B3",
"5.	c #C1CDA5",
"6.	c #B9C69F",
"7.	c #CCD8B4",
"8.	c #D1DDBA",
"9.	c #CFDBB7",
"0.	c #CFD9B5",
"a.	c #CDD8B3",
"b.	c #CBD6B0",
"c.	c #C3CDA5",
"d.	c #C0CCA2",
"e.	c #B9C59D",
"f.	c #CDD9B5",
"g.	c #CFD9B4",
"h.	c #C9D4AE",
"i.	c #C9D4AC",
"j.	c #C5D1A9",
"k.	c #C0CDA4",
"l.	c #B9C59C",
"m.	c #BFCCA1",
"n.	c #B6C29A",
"o.	c #A5B18E",
"p.	c #C5D1AE",
"q.	c #BDC9A4",
"r.	c #C1CCA9",
"s.	c #C2CDAA",
"t.	c #C4D0AC",
"u.	c #C3D0AC",
"v.	c #C1CDA9",
"w.	c #C1CDA7",
"x.	c #C0CCA6",
"y.	c #BECAA3",
"z.	c #BDCAA2",
"A.	c #BAC69D",
"B.	c #B7C49C",
"C.	c #AFBB95",
"D.	c #AEBA9B",
"E.	c #FDFDF4",
"F.	c #FEFEF8",
"G.	c #B9C3A3",
"H.	c #ABB694",
"I.	c #B0B998",
"J.	c #AEB998",
"K.	c #ACB796",
"L.	c #B0BB9A",
"M.	c #AFB998",
"N.	c #ADB895",
"O.	c #AEB996",
"P.	c #ACB794",
"Q.	c #ABB792",
"R.	c #A8B590",
"S.	c #B0BA9B",
"T.	c #FDFDF5",
"  . + + + + + + + + + + + + + + + + + @   ",
"# $ % & * = - ; ; > > > > , ' ' ) ! ~ { ] ",
"+ % ^ / ( % _ : < [ } } | | 1 2 3 4 5 6 + ",
"+ : 7 7 8 9 _ _ < : [ } 0 | a b c d e f + ",
"+ * 8 g h _ : : } i | j b b k 3 ' l m n + ",
"+ * o h _ < } i | j p q r r s l l t u v + ",
"+ | w w x y 0 | j p q z s l A A A A B v + ",
"+ p C x D E F G b k z , s H I I I A J v + ",
"+ p y : y 0 K G L k > , H M M ) N I J v + ",
"+ > F y E F | G L O > P H M N Q Q ) R S + ",
"+ T * F F F | 1 L U O P H V N W Q Q R X + ",
"+ T | F Y F Z | - L U P `  ...+.@.@.#.$.+ ",
"+ %.&.Z Y Y Z Z *.=.U -.%. . .;.>.,.'.).+ ",
"+ !.~.{.].Z Z Z ^.&./.(.%._. .:.>.<.[.}.+ ",
"+  .|.&.Z ].Z Z 1.&.2.3.4._...:.>.5.6.}.+ ",
"+ :.7.8.&.1.1.1.&.8.9.0.a.b...>.c.d.e.}.+ ",
"+ :.%.f.8.8.8.8.2.9.0.g.a.h.i.j.c.k.l.}.+ ",
"+ <...%.7.(.|.f.f.7.4.%.h...>.c.5.m.n.o.+ ",
"+ p.q.r.s.t.t.u.t.s.v.w.x.x.y.z.A.B.C.D.+ ",
"E.F.G.H.I.J.J.K.L.L.M.N.O.O.P.Q.Q.R.S.T.E.",
"  E.+ + + + + + + + + + + + + + + + + E.  "};
