/* XPM */
static char * shade_pressed_xpm[] = {
"21 21 57 1",
" 	c None",
".	c #FFFFFF",
"+	c #E1E1E1",
"@	c #52544B",
"#	c #474A3C",
"$	c #494C3C",
"%	c #4A4C3E",
"&	c #4D503F",
"*	c #4E5140",
"=	c #505340",
"-	c #525544",
";	c #535844",
">	c #545945",
",	c #565B47",
"'	c #575C48",
")	c #585D47",
"!	c #666B57",
"~	c #505542",
"{	c #535643",
"]	c #5A5F48",
"^	c #5C6249",
"/	c #5E634A",
"(	c #5F644B",
"_	c #60654C",
":	c #62674D",
"<	c #64694D",
"[	c #6F745D",
"}	c #474A3A",
"|	c #5B6049",
"1	c #61664C",
"2	c #63684E",
"3	c #656B4F",
"4	c #666C50",
"5	c #686D51",
"6	c #686E50",
"7	c #646A4E",
"8	c #676D51",
"9	c #696F53",
"0	c #63694D",
"a	c #656D4F",
"b	c #4A4C3C",
"c	c #6A7052",
"d	c #4B4E3E",
"e	c #595E48",
"f	c #62684E",
"g	c #6B7152",
"h	c #4D5241",
"i	c #6B7354",
"j	c #6D7354",
"k	c #6E7354",
"l	c #6F7455",
"m	c #727756",
"n	c #737857",
"o	c #565B45",
"p	c #747957",
"q	c #717655",
"r	c #777C62",
" ................... ",
".+@##$%&*==-;>,,')!+.",
".@&~{;,']^//(_:<<<<[.",
".}~)|^/(123456666666.",
".#;|/(1<748669999999.",
".#>/(1034a5666999999.",
".b,/103aa66699999c99.",
".de_f3a666.99ccgggc9.",
".&|<34866...gggggggc.",
".h^74866.....ijjiigg.",
".=/4866...g...kkkkig.",
".-/a66...ggk...lllkg.",
".;(6669.ggkkl.mmmlkg.",
".>169999giklmmmnmmlg.",
".o:6999cgjklmmnpmmli.",
".,<6999ggjklmmppnmlj.",
".,<6999cgiklqmmnmmli.",
".'<699ccgikklmmmmqkg.",
".!269999ggikkllllkjr.",
".+[69999cgggggijigr+.",
" ................... "};
