/* XPM */
static char * shade_toggled_prelight_xpm[] = {
"21 21 129 2",
"  	c None",
". 	c #FFFFFF",
"+ 	c #FBFFFB",
"@ 	c #DCEEBF",
"# 	c #D2E3AE",
"$ 	c #C9DCA4",
"% 	c #C7DAA0",
"& 	c #C3D59C",
"* 	c #BFD394",
"= 	c #C0D598",
"- 	c #BBD092",
"; 	c #BCD08F",
"> 	c #B8CA8A",
", 	c #B4C888",
"' 	c #B3C680",
") 	c #ACC17B",
"! 	c #AEC080",
"~ 	c #DEEFC0",
"{ 	c #EBF2D3",
"] 	c #EAF2D8",
"^ 	c #E6F1CC",
"/ 	c #D8ECBB",
"( 	c #D5E8B2",
"_ 	c #D3E5B0",
": 	c #CEDFA8",
"< 	c #C8DAA1",
"[ 	c #C4D59C",
"} 	c #A5BA77",
"| 	c #98A873",
"1 	c #D7E8B2",
"2 	c #ECF3DB",
"3 	c #ECF3DF",
"4 	c #E7F1CF",
"5 	c #E0F0C4",
"6 	c #DAECB9",
"7 	c #D7E9B6",
"8 	c #C5D99E",
"9 	c #BFD398",
"0 	c #A6BA7C",
"a 	c #9AAE69",
"b 	c #CCDFA8",
"c 	c #EAF1D0",
"d 	c #E3F0C7",
"e 	c #DBEEBF",
"f 	c #D7E9B9",
"g 	c #CCE0AB",
"h 	c #BDD08E",
"i 	c #A9BC7C",
"j 	c #E1EFC6",
"k 	c #D7E9B5",
"l 	c #C9DCA2",
"m 	c #C6DAA0",
"n 	c #B8CD8D",
"o 	c #B8CB8A",
"p 	c #B5C987",
"q 	c #A9BC7D",
"r 	c #D4E5B0",
"s 	c #CCDFA7",
"t 	c #C1D598",
"u 	c #B4C984",
"v 	c #B3C881",
"w 	c #B4C784",
"x 	c #ADC17E",
"y 	c #C4D99B",
"z 	c #B5C888",
"A 	c #B4C781",
"B 	c #B1C47F",
"C 	c #B2C581",
"D 	c #AFC47D",
"E 	c #B1C47E",
"F 	c #A9BA7C",
"G 	c #BACD8D",
"H 	c #B3C57F",
"I 	c #A7BA77",
"J 	c #B6C984",
"K 	c #B3C47E",
"L 	c #AFC17A",
"M 	c #AEC17A",
"N 	c #A4B772",
"O 	c #BCCD8D",
"P 	c #BAC988",
"Q 	c #B5C881",
"R 	c #B2C57B",
"S 	c #B0C377",
"T 	c #AFC377",
"U 	c #A3B670",
"V 	c #B0C581",
"W 	c #C4D598",
"X 	c #C1D392",
"Y 	c #BED08E",
"Z 	c #B8C883",
"` 	c #ABBC72",
" .	c #A0B46B",
"..	c #ACC37B",
"+.	c #C2D598",
"@.	c #BFD396",
"#.	c #BED08F",
"$.	c #BAC881",
"%.	c #B3C47D",
"&.	c #ADBE73",
"*.	c #A9BA70",
"=.	c #9CAF67",
"-.	c #A9BE77",
";.	c #B6C988",
">.	c #BDCE8B",
",.	c #BAC984",
"'.	c #ADBE71",
").	c #A3B76E",
"!.	c #99AC65",
"~.	c #A7BE73",
"{.	c #B1C680",
"].	c #BFD392",
"^.	c #BACB8A",
"/.	c #B9C984",
"(.	c #A7BB6E",
"_.	c #A2B669",
":.	c #97AB63",
"<.	c #9EB46B",
"[.	c #B6CB8A",
"}.	c #B3C683",
"|.	c #B3C581",
"1.	c #A3B76B",
"2.	c #9EB365",
"3.	c #92A75F",
"4.	c #A6B879",
"5.	c #9EB270",
"6.	c #9BAE65",
"7.	c #97AA65",
"8.	c #94A861",
"  . . . . . . . . . . . . . . . . . . .   ",
". + @ # $ % & * = - - ; ; > > , ' ) ! + . ",
". ~ { ] ^ ~ / ( ( _ # # : $ < [ * , } | . ",
". 1 2 3 4 5 @ 6 7 ( _ _ # : < 8 9 > 0 a . ",
". b 4 c d e f _ # g $ < & [ = * h > i a . ",
". < 5 j e k # g l m = * h n > o , p q a . ",
". % / @ f r g s m t * h > , u v u w x a . ",
". = 7 f ( # s . y 9 - > z . ' ' v A i a . ",
". = # r # g . . . * h > . . . B ' C 0 a . ",
". - : # # g l . . . h . . . ' D B E F a . ",
". G < s g s < % . . . . . v H D D D I a . ",
". o [ $ s s < % & . . . J v K L L M N a . ",
". v = % < l < < [ 9 . O P Q K R S T U a . ",
". V - & % < % 8 W 9 X Y P Z K S S `  .a . ",
". ..> * [ 8 y & +.@.#.h P $.%.S &.*.=.a . ",
". -.;.h * = = 9 @.X Y >.,.Q %.S '.).!.a . ",
". ~.{., G - ].; O O ^./.Q K S &.(._.:.a . ",
". <.-.V p [.[., z w }.|.D T ` *.1.2.3.a . ",
". 4.a 5.).-.-.-.-.-.-.` ` ` ).6.7.8.a a . ",
". . a a a a a a a a a a a a a a a a a . . ",
"  . . . . . . . . . . . . . . . . . . .   "};
