/* XPM */
static char * stick_toggled_inactive_xpm[] = {
"21 21 199 2",
"  	c None",
". 	c #FDFDF1",
"+ 	c #FFFFFF",
"@ 	c #F8FCEE",
"# 	c #FBFCEE",
"$ 	c #FEFEFA",
"% 	c #E2ECD1",
"& 	c #DAE4C6",
"* 	c #D3DFBF",
"= 	c #D1DDBD",
"- 	c #D0DCBB",
"; 	c #CDD9B8",
"> 	c #CBD7B4",
", 	c #C8D5B1",
"' 	c #C6D2B0",
") 	c #C2D0AA",
"! 	c #BDCCA6",
"~ 	c #BECBAA",
"{ 	c #FCFDF3",
"] 	c #F4FCEB",
"^ 	c #EAF3DB",
"/ 	c #EBF4DC",
"( 	c #E6F0D5",
"_ 	c #DEE8CD",
": 	c #DBE6C8",
"< 	c #DAE6C8",
"[ 	c #D7E3C5",
"} 	c #D7E2C4",
"| 	c #D2DFBF",
"1 	c #D0DDBD",
"2 	c #CCD9B9",
"3 	c #C8D5B3",
"4 	c #C3D1AE",
"5 	c #B8C5A2",
"6 	c #B1BD9F",
"7 	c #ECF4DD",
"8 	c #E8F2D8",
"9 	c #E2ECD2",
"0 	c #D6E2C4",
"a 	c #D2DDBF",
"b 	c #CEDCBB",
"c 	c #CAD6B5",
"d 	c #C3D1AF",
"e 	c #B7C5A3",
"f 	c #A1AE8E",
"g 	c #E9F3DA",
"h 	c #E4EED4",
"i 	c #D3DFC1",
"j 	c #CFDDBD",
"k 	c #CCD9B8",
"l 	c #C5D2B0",
"m 	c #BAC7A5",
"n 	c #A2B08F",
"o 	c #E4EED3",
"p 	c #ABBAC5",
"q 	c #DFE1DF",
"r 	c #AEBEC8",
"s 	c #C7D5B2",
"t 	c #C7D5B1",
"u 	c #C2D0AC",
"v 	c #BCC9A8",
"w 	c #A7B495",
"x 	c #DEE9CD",
"y 	c #DCE7CA",
"z 	c #D9E4C6",
"A 	c #A9B9C3",
"B 	c #E5E5E1",
"C 	c #E7E7E3",
"D 	c #EAEAE6",
"E 	c #ECECE9",
"F 	c #EFEFEC",
"G 	c #B3C3CF",
"H 	c #C5D2AF",
"I 	c #BDCBA9",
"J 	c #CDDAB9",
"K 	c #DDE9CC",
"L 	c #DCE7C9",
"M 	c #D8E4C6",
"N 	c #F1F1EF",
"O 	c #F3F3F1",
"P 	c #B6C5D2",
"Q 	c #C3D1AC",
"R 	c #BDCBA8",
"S 	c #E2E8DE",
"T 	c #A9DCA6",
"U 	c #4DBF4A",
"V 	c #A0D29E",
"W 	c #E8EEE6",
"X 	c #F5F5F3",
"Y 	c #F7F7F6",
"Z 	c #C3D1AB",
"` 	c #D5E2C2",
" .	c #55D551",
"..	c #43C33F",
"+.	c #29A826",
"@.	c #9ACC98",
"#.	c #F9F9F8",
"$.	c #BAC9D6",
"%.	c #C3D0AA",
"&.	c #BCC9A6",
"*.	c #A8B695",
"=.	c #CAD6B3",
"-.	c #42C33F",
";.	c #38B935",
">.	c #21A121",
",.	c #269623",
"'.	c #FAFAF9",
").	c #F3F5F6",
"!.	c #A6B291",
"~.	c #D7E4C3",
"{.	c #2AA827",
"].	c #22A220",
"^.	c #139210",
"/.	c #98C897",
"(.	c #FCFCFB",
"_.	c #BCCBD9",
":.	c #C1CFA7",
"<.	c #BCC9A4",
"[.	c #A6B391",
"}.	c #CAD6B1",
"|.	c #D1DDBB",
"1.	c #D5E1C0",
"2.	c #249624",
"3.	c #98C997",
"4.	c #EEF3ED",
"5.	c #FDFDFD",
"6.	c #C5D0AA",
"7.	c #C4CFA7",
"8.	c #C1CDA6",
"9.	c #BCC8A3",
"0.	c #A6B390",
"a.	c #C7D3AF",
"b.	c #CFDBB9",
"c.	c #D2DFBE",
"d.	c #D6E2C0",
"e.	c #BCCCD9",
"f.	c #C5D1AA",
"g.	c #C0CDA5",
"h.	c #BAC7A0",
"i.	c #A7B390",
"j.	c #C7D3AE",
"k.	c #CEDBB7",
"l.	c #C6D1AB",
"m.	c #C1CDA5",
"n.	c #B9C69F",
"o.	c #CCD8B4",
"p.	c #D1DDBA",
"q.	c #D3E0BE",
"r.	c #CDD8B3",
"s.	c #CBD6B0",
"t.	c #C3CDA5",
"u.	c #C0CCA2",
"v.	c #B9C59D",
"w.	c #CDD9B5",
"x.	c #D2DDBA",
"y.	c #CFDBB7",
"z.	c #CFD9B5",
"A.	c #CFD9B4",
"B.	c #C9D4AE",
"C.	c #C9D4AC",
"D.	c #C5D1A9",
"E.	c #C0CDA4",
"F.	c #B9C59C",
"G.	c #CDD8B5",
"H.	c #CCD8B3",
"I.	c #BFCCA1",
"J.	c #B6C29A",
"K.	c #A5B18E",
"L.	c #C5D1AE",
"M.	c #BDC9A4",
"N.	c #C1CCA9",
"O.	c #C2CDAA",
"P.	c #C4D0AC",
"Q.	c #C3D0AC",
"R.	c #C1CDA9",
"S.	c #C1CDA7",
"T.	c #C0CCA6",
"U.	c #BECAA3",
"V.	c #BDCAA2",
"W.	c #BAC69D",
"X.	c #B7C49C",
"Y.	c #AFBB95",
"Z.	c #AEBA9B",
"`.	c #FDFDF4",
" +	c #FEFEF8",
".+	c #B9C3A3",
"++	c #ABB694",
"@+	c #B0B998",
"#+	c #AEB998",
"$+	c #ACB796",
"%+	c #B0BB9A",
"&+	c #AFB998",
"*+	c #ADB895",
"=+	c #AEB996",
"-+	c #ACB794",
";+	c #ABB792",
">+	c #A8B590",
",+	c #B0BA9B",
"'+	c #FDFDF5",
"  . + + + + + + + + + + + + + + + + + @   ",
"# $ % & * = - ; ; > > > > , ' ' ) ! ~ { ] ",
"+ % ^ / ( % _ : < [ } } | | 1 2 3 4 5 6 + ",
"+ : 7 7 8 9 _ _ < : [ } 0 | a b c d e f + ",
"+ * 8 g h _ : : } i | j b b k 3 ' l m n + ",
"+ * o h _ < } i | p q r s s t l l u v w + ",
"+ | x x y z 0 A B C D E F G H H H H I w + ",
"+ J K y L M A B C D E F N O P Q Q H R w + ",
"+ J z : z 0 B C S T U V W X Y ) Z Q R w + ",
"+ > ` z M p C D T  ...+.@.Y #.$.%.) &.*.+ ",
"+ =.* ` ` q D E U -.;.>.,.#.'.).%.%.&.!.+ ",
"+ =.| ` ~.r E F V {.].^./.'.(._.:.:.<.[.+ ",
"+ }.|.1.~.~.F N W @.2.3.4.(.5.6.7.8.9.0.+ ",
"+ a.b.c.d.1.G O X Y #.'.(.5.e.f.7.g.h.i.+ ",
"+ j.k.|.1.d.1.P Y #.'.(.5.e.l.f.7.m.n.i.+ ",
"+ f.o.p.|.q.q.q.|.$.)._.r.s.l.7.t.u.v.i.+ ",
"+ f.}.w.p.p.p.p.x.y.z.A.r.B.C.D.t.E.F.i.+ ",
"+ g.l.}.o.G.k.w.w.o.H.}.B.l.7.t.m.I.J.K.+ ",
"+ L.M.N.O.P.P.Q.P.O.R.S.T.T.U.V.W.X.Y.Z.+ ",
"`. +.+++@+#+#+$+%+%+&+*+=+=+-+;+;+>+,+'+`.",
"  `.+ + + + + + + + + + + + + + + + + `.  "};
