/* XPM */
static char * stick_active_xpm[] = {
"21 21 142 2",
"  	c None",
". 	c #FFFFFF",
"+ 	c #DCDCDC",
"@ 	c #B7C3A2",
"# 	c #AFBB94",
"$ 	c #A5B48B",
"% 	c #A3B288",
"& 	c #9EAD85",
"* 	c #9AAA7C",
"= 	c #9CAD80",
"- 	c #98A77B",
"; 	c #99A878",
"> 	c #95A274",
", 	c #90A072",
"' 	c #8F9E6A",
") 	c #889965",
"! 	c #8B986B",
"~ 	c #B9C5A4",
"{ 	c #C7C7B4",
"] 	c #C6C6B9",
"^ 	c #C1C6AE",
"/ 	c #B4C29F",
"( 	c #B1BF98",
"_ 	c #AFBB96",
": 	c #AAB68F",
"< 	c #A3B289",
"[ 	c #A1AD85",
"} 	c #819261",
"| 	c #75825E",
"1 	c #B3BF98",
"2 	c #C7C7BB",
"3 	c #C7C7BE",
"4 	c #C3C6B1",
"5 	c #BCC6A7",
"6 	c #B5C19D",
"7 	c #B2BF9B",
"8 	c #A1B086",
"9 	c #9CAB81",
"0 	c #839366",
"a 	c #768753",
"b 	c #A7B68F",
"c 	c #C5C6B2",
"d 	c #BFC6AA",
"e 	c #B6C3A2",
"f 	c #B2BF9E",
"g 	c #A8B792",
"h 	c #99A877",
"i 	c #879466",
"j 	c #BCC5A9",
"k 	c #B2BF9A",
"l 	c #A5B48A",
"m 	c #A7B7C1",
"n 	c #DADCDA",
"o 	c #ABBAC6",
"p 	c #95A577",
"q 	c #95A373",
"r 	c #91A170",
"s 	c #879468",
"t 	c #B1BD96",
"u 	c #A6B5BF",
"v 	c #E0E0DB",
"w 	c #E2E2DE",
"x 	c #E5E5E2",
"y 	c #E8E8E5",
"z 	c #ECECE9",
"A 	c #B2C1CD",
"B 	c #90A16D",
"C 	c #90A16B",
"D 	c #909F6D",
"E 	c #889968",
"F 	c #EFEFEC",
"G 	c #F1F1EF",
"H 	c #B5C4D0",
"I 	c #909F6B",
"J 	c #F3F3F1",
"K 	c #F5F5F4",
"L 	c #8E9D69",
"M 	c #8E9D6B",
"N 	c #F7F7F6",
"O 	c #B9C8D5",
"P 	c #8D9D68",
"Q 	c #879366",
"R 	c #96A577",
"S 	c #A7B68E",
"T 	c #F9F9F8",
"U 	c #F2F4F5",
"V 	c #8D9D67",
"W 	c #839361",
"X 	c #FBFBFA",
"Y 	c #BCCBD8",
"Z 	c #8D9A64",
"` 	c #8B9A64",
" .	c #80905C",
"..	c #FDFDFC",
"+.	c #8F9E65",
"@.	c #8E9B61",
"#.	c #8C9B61",
"$.	c #7F8F59",
"%.	c #8C9D6B",
"&.	c #BCCCD9",
"*.	c #89955C",
"=.	c #7D8D55",
"-.	c #889B65",
";.	c #A1B084",
">.	c #919D67",
",.	c #8B965D",
"'.	c #869359",
").	c #7A8950",
"!.	c #879660",
"~.	c #91A171",
"{.	c #9CAB7F",
"].	c #97A16D",
"^.	c #92A16B",
"/.	c #8B975B",
"(.	c #819157",
"_.	c #77864E",
":.	c #83965D",
"<.	c #8E9E6A",
"[.	c #9BAB7B",
"}.	c #99A577",
"|.	c #97A373",
"1.	c #96A16D",
"2.	c #919D68",
"3.	c #8B975D",
"4.	c #859458",
"5.	c #809052",
"6.	c #75854C",
"7.	c #7B8E55",
"8.	c #879661",
"9.	c #92A373",
"0.	c #91A072",
"a.	c #8F9E6C",
"b.	c #909D6B",
"c.	c #809054",
"d.	c #7C8D4F",
"e.	c #708148",
"f.	c #829164",
"g.	c #7B8B59",
"h.	c #79884F",
"i.	c #75844E",
"j.	c #72824A",
"k.	c #C6C6C6",
"  . . . . . . . . . . . . . . . . . . .   ",
". + @ # $ % & * = - - ; ; > > , ' ) ! + . ",
". ~ { ] ^ ~ / ( ( _ # # : $ < [ * , } | . ",
". 1 2 3 4 5 @ 6 7 ( _ _ # : < 8 9 > 0 a . ",
". b 4 c d e f _ # g $ < & [ = * h > i a . ",
". < 5 j e k # g l m n o h p > q , r s a . ",
". % / @ f t g u v w x y z A B C B D E a . ",
". = 7 f ( # u v w x y z F G H ' C I i a . ",
". = # t # g v w x y z F G J K L ' M 0 a . ",
". - : # # m w x y z F G J K N O L P Q a . ",
". R < S g n x y z F G J K N T U V V W a . ",
". q [ $ S o y z F G J K N T X Y Z `  .a . ",
". C = % < l z F G J K N T X ..+.@.#.$.a . ",
". %.- & % < A G J K N T X ..&.@.@.*.=.a . ",
". -.> * [ 8 ;.H K N T X ..&.>.@.,.'.).a . ",
". !.~.h * = = 9 {.O U Y ].^.>.@./.(._.a . ",
". :.<., R - [.; }.}.|.1.^.2.@.3.4.5.6.a . ",
". 7.8.%.r 9.9., 0.D a.b.V #.*.'.c.d.e.a . ",
". f.a g.(.8.8.8.8.8.8.*.*.*.(.h.i.j.a a . ",
". k.a a a a a a a a a a a a a a a a a k.. ",
"  . . . . . . . . . . . . . . . . . . .   "};
