/* XPM */
static char * stick_pressed_xpm[] = {
"21 21 80 1",
" 	c None",
".	c #FFFFFF",
"+	c #E1E1E1",
"@	c #52544B",
"#	c #474A3C",
"$	c #494C3C",
"%	c #4A4C3E",
"&	c #4D503F",
"*	c #4E5140",
"=	c #505340",
"-	c #525544",
";	c #535844",
">	c #545945",
",	c #565B47",
"'	c #575C48",
")	c #585D47",
"!	c #666B57",
"~	c #505542",
"{	c #535643",
"]	c #5A5F48",
"^	c #5C6249",
"/	c #5E634A",
"(	c #5F644B",
"_	c #60654C",
":	c #62674D",
"<	c #64694D",
"[	c #6F745D",
"}	c #474A3A",
"|	c #5B6049",
"1	c #61664C",
"2	c #63684E",
"3	c #656B4F",
"4	c #666C50",
"5	c #686D51",
"6	c #686E50",
"7	c #646A4E",
"8	c #676D51",
"9	c #696F53",
"0	c #63694D",
"a	c #8A99A0",
"b	c #B6B7AF",
"c	c #91A0A6",
"d	c #4A4C3C",
"e	c #87979E",
"f	c #B7B7AD",
"g	c #BCBBB1",
"h	c #C1C1B6",
"i	c #C7C6BB",
"j	c #CDCCC0",
"k	c #9DACB1",
"l	c #6A7052",
"m	c #4B4E3E",
"n	c #595E48",
"o	c #62684E",
"p	c #D2D1C5",
"q	c #D7D5C8",
"r	c #A4B2B6",
"s	c #6B7152",
"t	c #DBDACC",
"u	c #DFDDCF",
"v	c #4D5241",
"w	c #E3E1D3",
"x	c #ABBABD",
"y	c #6B7354",
"z	c #E6E5D6",
"A	c #E2E2D6",
"B	c #6E7354",
"C	c #656D4F",
"D	c #EAE8D9",
"E	c #B0BEC1",
"F	c #6F7455",
"G	c #EDEBDB",
"H	c #727756",
"I	c #B2C0C2",
"J	c #737857",
"K	c #565B45",
"L	c #747957",
"M	c #6D7354",
"N	c #717655",
"O	c #777C62",
" ................... ",
".+@##$%&*==-;>,,')!+.",
".@&~{;,']^//(_:<<<<[.",
".}~)|^/(123456666666.",
".#;|/(1<748669999999.",
".#>/(1034abc66999999.",
".d,/103efghijk999l99.",
".mn_o3efghijpqrsssl9.",
".&|<34fghijpqtussssl.",
".v^74aghijpqtuwxyyss.",
".=/48bhijpqtuwzABBys.",
".-/C6cijpqtuwzDEFFBs.",
".;(666jpqtuwzDGHHFBs.",
".>1699kqtuwzDGIJHHFs.",
".K:6999ruwzDGIJLHHFy.",
".,<6999ssxAEHHLLJHFM.",
".,<6999lsyBFNHHJHHFy.",
".'<699llsyBBFHHHHNBs.",
".!269999ssyBBFFFFBMO.",
".+[69999lsssssyMysO+.",
" ................... "};
