/* XPM */
static char * stick_inactive_xpm[] = {
"21 21 179 2",
"  	c None",
". 	c #FDFDF1",
"+ 	c #FFFFFF",
"@ 	c #F8FCEE",
"# 	c #FBFCEE",
"$ 	c #FEFEFA",
"% 	c #E2ECD1",
"& 	c #DAE4C6",
"* 	c #D3DFBF",
"= 	c #D1DDBD",
"- 	c #D0DCBB",
"; 	c #CDD9B8",
"> 	c #CBD7B4",
", 	c #C8D5B1",
"' 	c #C6D2B0",
") 	c #C2D0AA",
"! 	c #BDCCA6",
"~ 	c #BECBAA",
"{ 	c #FCFDF3",
"] 	c #F4FCEB",
"^ 	c #EAF3DB",
"/ 	c #EBF4DC",
"( 	c #E6F0D5",
"_ 	c #DEE8CD",
": 	c #DBE6C8",
"< 	c #DAE6C8",
"[ 	c #D7E3C5",
"} 	c #D7E2C4",
"| 	c #D2DFBF",
"1 	c #D0DDBD",
"2 	c #CCD9B9",
"3 	c #C8D5B3",
"4 	c #C3D1AE",
"5 	c #B8C5A2",
"6 	c #B1BD9F",
"7 	c #ECF4DD",
"8 	c #E8F2D8",
"9 	c #E2ECD2",
"0 	c #D6E2C4",
"a 	c #D2DDBF",
"b 	c #CEDCBB",
"c 	c #CAD6B5",
"d 	c #C3D1AF",
"e 	c #B7C5A3",
"f 	c #A1AE8E",
"g 	c #E9F3DA",
"h 	c #E4EED4",
"i 	c #D3DFC1",
"j 	c #CFDDBD",
"k 	c #CCD9B8",
"l 	c #C5D2B0",
"m 	c #BAC7A5",
"n 	c #A2B08F",
"o 	c #E4EED3",
"p 	c #A7B7C1",
"q 	c #DADCDA",
"r 	c #ABBAC6",
"s 	c #C7D5B2",
"t 	c #C7D5B1",
"u 	c #C2D0AC",
"v 	c #BCC9A8",
"w 	c #A7B495",
"x 	c #DEE9CD",
"y 	c #DCE7CA",
"z 	c #D9E4C6",
"A 	c #A6B5BF",
"B 	c #E0E0DB",
"C 	c #E2E2DE",
"D 	c #E5E5E2",
"E 	c #E8E8E5",
"F 	c #ECECE9",
"G 	c #B2C1CD",
"H 	c #C5D2AF",
"I 	c #BDCBA9",
"J 	c #CDDAB9",
"K 	c #DDE9CC",
"L 	c #DCE7C9",
"M 	c #D8E4C6",
"N 	c #EFEFEC",
"O 	c #F1F1EF",
"P 	c #B5C4D0",
"Q 	c #C3D1AC",
"R 	c #BDCBA8",
"S 	c #F3F3F1",
"T 	c #F5F5F4",
"U 	c #C3D1AB",
"V 	c #D5E2C2",
"W 	c #F7F7F6",
"X 	c #B9C8D5",
"Y 	c #C3D0AA",
"Z 	c #BCC9A6",
"` 	c #A8B695",
" .	c #CAD6B3",
"..	c #F9F9F8",
"+.	c #F2F4F5",
"@.	c #A6B291",
"#.	c #D7E4C3",
"$.	c #FBFBFA",
"%.	c #BCCBD8",
"&.	c #C1CFA7",
"*.	c #BCC9A4",
"=.	c #A6B391",
"-.	c #CAD6B1",
";.	c #D1DDBB",
">.	c #D5E1C0",
",.	c #FDFDFC",
"'.	c #C5D0AA",
").	c #C4CFA7",
"!.	c #C1CDA6",
"~.	c #BCC8A3",
"{.	c #A6B390",
"].	c #C7D3AF",
"^.	c #CFDBB9",
"/.	c #D2DFBE",
"(.	c #D6E2C0",
"_.	c #BCCCD9",
":.	c #C5D1AA",
"<.	c #C0CDA5",
"[.	c #BAC7A0",
"}.	c #A7B390",
"|.	c #C7D3AE",
"1.	c #CEDBB7",
"2.	c #C6D1AB",
"3.	c #C1CDA5",
"4.	c #B9C69F",
"5.	c #CCD8B4",
"6.	c #D1DDBA",
"7.	c #D3E0BE",
"8.	c #CDD8B3",
"9.	c #CBD6B0",
"0.	c #C3CDA5",
"a.	c #C0CCA2",
"b.	c #B9C59D",
"c.	c #CDD9B5",
"d.	c #D2DDBA",
"e.	c #CFDBB7",
"f.	c #CFD9B5",
"g.	c #CFD9B4",
"h.	c #C9D4AE",
"i.	c #C9D4AC",
"j.	c #C5D1A9",
"k.	c #C0CDA4",
"l.	c #B9C59C",
"m.	c #CDD8B5",
"n.	c #CCD8B3",
"o.	c #BFCCA1",
"p.	c #B6C29A",
"q.	c #A5B18E",
"r.	c #C5D1AE",
"s.	c #BDC9A4",
"t.	c #C1CCA9",
"u.	c #C2CDAA",
"v.	c #C4D0AC",
"w.	c #C3D0AC",
"x.	c #C1CDA9",
"y.	c #C1CDA7",
"z.	c #C0CCA6",
"A.	c #BECAA3",
"B.	c #BDCAA2",
"C.	c #BAC69D",
"D.	c #B7C49C",
"E.	c #AFBB95",
"F.	c #AEBA9B",
"G.	c #FDFDF4",
"H.	c #FEFEF8",
"I.	c #B9C3A3",
"J.	c #ABB694",
"K.	c #B0B998",
"L.	c #AEB998",
"M.	c #ACB796",
"N.	c #B0BB9A",
"O.	c #AFB998",
"P.	c #ADB895",
"Q.	c #AEB996",
"R.	c #ACB794",
"S.	c #ABB792",
"T.	c #A8B590",
"U.	c #B0BA9B",
"V.	c #FDFDF5",
"  . + + + + + + + + + + + + + + + + + @   ",
"# $ % & * = - ; ; > > > > , ' ' ) ! ~ { ] ",
"+ % ^ / ( % _ : < [ } } | | 1 2 3 4 5 6 + ",
"+ : 7 7 8 9 _ _ < : [ } 0 | a b c d e f + ",
"+ * 8 g h _ : : } i | j b b k 3 ' l m n + ",
"+ * o h _ < } i | p q r s s t l l u v w + ",
"+ | x x y z 0 A B C D E F G H H H H I w + ",
"+ J K y L M A B C D E F N O P Q Q H R w + ",
"+ J z : z 0 B C D E F N O S T ) U Q R w + ",
"+ > V z M p C D E F N O S T W X Y ) Z ` + ",
"+  .* V V q D E F N O S T W ..+.Y Y Z @.+ ",
"+  .| V #.r E F N O S T W ..$.%.&.&.*.=.+ ",
"+ -.;.>.#.#.F N O S T W ..$.,.'.).!.~.{.+ ",
"+ ].^./.(.>.G O S T W ..$.,._.:.).<.[.}.+ ",
"+ |.1.;.>.(.>.P T W ..$.,._.2.:.).3.4.}.+ ",
"+ :.5.6.;.7.7.7.;.X +.%.8.9.2.).0.a.b.}.+ ",
"+ :.-.c.6.6.6.6.d.e.f.g.8.h.i.j.0.k.l.}.+ ",
"+ <.2.-.5.m.1.c.c.5.n.-.h.2.).0.3.o.p.q.+ ",
"+ r.s.t.u.v.v.w.v.u.x.y.z.z.A.B.C.D.E.F.+ ",
"G.H.I.J.K.L.L.M.N.N.O.P.Q.Q.R.S.S.T.U.V.G.",
"  G.+ + + + + + + + + + + + + + + + + G.  "};
