/* XPM */
static char * stick_prelight_xpm[] = {
"21 21 151 2",
"  	c None",
". 	c #FFFFFF",
"+ 	c #FBFFFB",
"@ 	c #DCEEBF",
"# 	c #D2E3AE",
"$ 	c #C9DCA4",
"% 	c #C7DAA0",
"& 	c #C3D59C",
"* 	c #BFD394",
"= 	c #C0D598",
"- 	c #BBD092",
"; 	c #BCD08F",
"> 	c #B8CA8A",
", 	c #B4C888",
"' 	c #B3C680",
") 	c #ACC17B",
"! 	c #AEC080",
"~ 	c #DEEFC0",
"{ 	c #EBF2D3",
"] 	c #EAF2D8",
"^ 	c #E6F1CC",
"/ 	c #D8ECBB",
"( 	c #D5E8B2",
"_ 	c #D3E5B0",
": 	c #CEDFA8",
"< 	c #C8DAA1",
"[ 	c #C4D59C",
"} 	c #A5BA77",
"| 	c #98A873",
"1 	c #D7E8B2",
"2 	c #ECF3DB",
"3 	c #ECF3DF",
"4 	c #E7F1CF",
"5 	c #E0F0C4",
"6 	c #DAECB9",
"7 	c #D7E9B6",
"8 	c #C5D99E",
"9 	c #BFD398",
"0 	c #A6BA7C",
"a 	c #9AAE69",
"b 	c #CCDFA8",
"c 	c #EAF1D0",
"d 	c #E3F0C7",
"e 	c #DBEEBF",
"f 	c #D7E9B9",
"g 	c #CCE0AB",
"h 	c #BDD08E",
"i 	c #A9BC7C",
"j 	c #E1EFC6",
"k 	c #D7E9B5",
"l 	c #C9DCA2",
"m 	c #BCB694",
"n 	c #F4D48C",
"o 	c #BCAF83",
"p 	c #B8CD8D",
"q 	c #B8CB8A",
"r 	c #B5C987",
"s 	c #A9BC7D",
"t 	c #D4E5B0",
"u 	c #BCB99F",
"v 	c #FEDF9C",
"w 	c #FDD98C",
"x 	c #FDD684",
"y 	c #FCD37C",
"z 	c #FCD074",
"A 	c #BAA871",
"B 	c #B4C984",
"C 	c #B3C881",
"D 	c #B4C784",
"E 	c #ADC17E",
"F 	c #FBDC98",
"G 	c #F7E3B3",
"H 	c #F2EDD7",
"I 	c #F6E0AC",
"J 	c #FAD17B",
"K 	c #FBC863",
"L 	c #BAA365",
"M 	c #B4C781",
"N 	c #F2EEDA",
"O 	c #F1EFDF",
"P 	c #F2EDD8",
"Q 	c #F9CB6D",
"R 	c #FAC254",
"S 	c #B1C47F",
"T 	c #B2C581",
"U 	c #F5D99C",
"V 	c #FAC04E",
"W 	c #B99E58",
"X 	c #B1C47E",
"Y 	c #A9BA7C",
"Z 	c #BACD8D",
"` 	c #CCDFA7",
" .	c #F2EBD4",
"..	c #F9BD48",
"+.	c #F0B745",
"@.	c #AFC47D",
"#.	c #A7BA77",
"$.	c #F5D797",
"%.	c #F9BB43",
"&.	c #B99B51",
"*.	c #AFC17A",
"=.	c #AEC17A",
"-.	c #A4B772",
";.	c #F1ECD7",
">.	c #F8C259",
",.	c #F9B93E",
"'.	c #B2C57B",
").	c #B0C377",
"!.	c #AFC377",
"~.	c #A3B670",
"{.	c #B0C581",
"].	c #B9994E",
"^.	c #ABBC72",
"/.	c #A0B46B",
"(.	c #ACC37B",
"_.	c #C4D99B",
":.	c #B3C47D",
"<.	c #ADBE73",
"[.	c #A9BA70",
"}.	c #9CAF67",
"|.	c #A9BE77",
"1.	c #B6C988",
"2.	c #BFD396",
"3.	c #BAC984",
"4.	c #B5C881",
"5.	c #ADBE71",
"6.	c #A3B76E",
"7.	c #99AC65",
"8.	c #A7BE73",
"9.	c #B1C680",
"0.	c #BFD392",
"a.	c #BCCD8D",
"b.	c #BACB8A",
"c.	c #B9C984",
"d.	c #B3C47E",
"e.	c #A7BB6E",
"f.	c #A2B669",
"g.	c #97AB63",
"h.	c #9EB46B",
"i.	c #B6CB8A",
"j.	c #B5C888",
"k.	c #B3C683",
"l.	c #B3C581",
"m.	c #A3B76B",
"n.	c #9EB365",
"o.	c #92A75F",
"p.	c #A6B879",
"q.	c #9EB270",
"r.	c #9BAE65",
"s.	c #97AA65",
"t.	c #94A861",
"  . . . . . . . . . . . . . . . . . . .   ",
". + @ # $ % & * = - - ; ; > > , ' ) ! + . ",
". ~ { ] ^ ~ / ( ( _ # # : $ < [ * , } | . ",
". 1 2 3 4 5 @ 6 7 ( _ _ # : < 8 9 > 0 a . ",
". b 4 c d e f _ # g $ < & [ = * h > i a . ",
". < 5 j e k # g l m n o h p > q , r s a . ",
". % / @ f t g u v w x y z A B C B D E a . ",
". = 7 f ( # u v F G H I J K L ' C M i a . ",
". = # t # g v F N O O O P Q R S ' T 0 a . ",
". - : # # m w G O O O O O U V W S X Y a . ",
". Z < ` g n x H O O O O O  ...+.@.@.#.a . ",
". q [ $ ` o y I O O O O O $.%.&.*.=.-.a . ",
". C = % < l z J P O O O ;.>.,.'.).!.~.a . ",
". {.- & % < A K Q U  .$.>.,.].).).^./.a . ",
". (.> * [ 8 _.L R V ..%.,.].:.).<.[.}.a . ",
". |.1.h * = = 9 2.W +.&.3.4.:.).5.6.7.a . ",
". 8.9., Z - 0.; a.a.b.c.4.d.).<.e.f.g.a . ",
". h.|.{.r i.i., j.D k.l.@.!.^.[.m.n.o.a . ",
". p.a q.6.|.|.|.|.|.|.^.^.^.6.r.s.t.a a . ",
". . a a a a a a a a a a a a a a a a a . . ",
"  . . . . . . . . . . . . . . . . . . .   "};
