/* XPM */
static char * stick_toggled_pressed_xpm[] = {
"21 21 101 2",
"  	c None",
". 	c #FFFFFF",
"+ 	c #E1E1E1",
"@ 	c #52544B",
"# 	c #474A3C",
"$ 	c #494C3C",
"% 	c #4A4C3E",
"& 	c #4D503F",
"* 	c #4E5140",
"= 	c #505340",
"- 	c #525544",
"; 	c #535844",
"> 	c #545945",
", 	c #565B47",
"' 	c #575C48",
") 	c #585D47",
"! 	c #666B57",
"~ 	c #505542",
"{ 	c #535643",
"] 	c #5A5F48",
"^ 	c #5C6249",
"/ 	c #5E634A",
"( 	c #5F644B",
"_ 	c #60654C",
": 	c #62674D",
"< 	c #64694D",
"[ 	c #6F745D",
"} 	c #474A3A",
"| 	c #5B6049",
"1 	c #61664C",
"2 	c #63684E",
"3 	c #656B4F",
"4 	c #666C50",
"5 	c #686D51",
"6 	c #686E50",
"7 	c #646A4E",
"8 	c #676D51",
"9 	c #696F53",
"0 	c #63694D",
"a 	c #8A99A0",
"b 	c #B6B7AF",
"c 	c #91A0A6",
"d 	c #4A4C3C",
"e 	c #87979E",
"f 	c #B7B7AD",
"g 	c #BCBBB1",
"h 	c #C1C1B6",
"i 	c #C7C6BB",
"j 	c #CDCCC0",
"k 	c #9DACB1",
"l 	c #6A7052",
"m 	c #4B4E3E",
"n 	c #595E48",
"o 	c #62684E",
"p 	c #D2D1C5",
"q 	c #D7D5C8",
"r 	c #A4B2B6",
"s 	c #6B7152",
"t 	c #BBC1B0",
"u 	c #93C58A",
"v 	c #49BB45",
"w 	c #8DBF84",
"x 	c #CDD1BF",
"y 	c #DBDACC",
"z 	c #DFDDCF",
"A 	c #4D5241",
"B 	c #55D551",
"C 	c #43C33F",
"D 	c #29A826",
"E 	c #8BBB80",
"F 	c #E3E1D3",
"G 	c #ABBABD",
"H 	c #6B7354",
"I 	c #42C33F",
"J 	c #38B935",
"K 	c #21A121",
"L 	c #23931F",
"M 	c #E6E5D6",
"N 	c #E2E2D6",
"O 	c #6E7354",
"P 	c #656D4F",
"Q 	c #8DBF85",
"R 	c #2AA827",
"S 	c #22A220",
"T 	c #139210",
"U 	c #8ABA80",
"V 	c #EAE8D9",
"W 	c #B0BEC1",
"X 	c #6F7455",
"Y 	c #8BBC80",
"Z 	c #219320",
"` 	c #DBDFCC",
" .	c #EDEBDB",
"..	c #727756",
"+.	c #B2C0C2",
"@.	c #737857",
"#.	c #565B45",
"$.	c #747957",
"%.	c #6D7354",
"&.	c #717655",
"*.	c #777C62",
"  . . . . . . . . . . . . . . . . . . .   ",
". + @ # # $ % & * = = - ; > , , ' ) ! + . ",
". @ & ~ { ; , ' ] ^ / / ( _ : < < < < [ . ",
". } ~ ) | ^ / ( 1 2 3 4 5 6 6 6 6 6 6 6 . ",
". # ; | / ( 1 < 7 4 8 6 6 9 9 9 9 9 9 9 . ",
". # > / ( 1 0 3 4 a b c 6 6 9 9 9 9 9 9 . ",
". d , / 1 0 3 e f g h i j k 9 9 9 l 9 9 . ",
". m n _ o 3 e f g h i j p q r s s s l 9 . ",
". & | < 3 4 f g t u v w x y z s s s s l . ",
". A ^ 7 4 a g h u B C D E z F G H H s s . ",
". = / 4 8 b h i v I J K L F M N O O H s . ",
". - / P 6 c i j Q R S T U M V W X X O s . ",
". ; ( 6 6 6 j p x Y Z U ` V  .....X O s . ",
". > 1 6 9 9 k q y z F M V  .+.@.....X s . ",
". #.: 6 9 9 9 r z F M V  .+.@.$.....X H . ",
". , < 6 9 9 9 s s G N W ....$.$.@...X %.. ",
". , < 6 9 9 9 l s H O X &.....@.....X H . ",
". ' < 6 9 9 l l s H O O X ........&.O s . ",
". ! 2 6 9 9 9 9 s s H O O X X X X O %.*.. ",
". + [ 6 9 9 9 9 l s s s s s H %.H s *.+ . ",
"  . . . . . . . . . . . . . . . . . . .   "};
