/* XPM */
static char * stick_toggled_prelight_xpm[] = {
"21 21 168 2",
"  	c None",
". 	c #FFFFFF",
"+ 	c #FBFFFB",
"@ 	c #DCEEBF",
"# 	c #D2E3AE",
"$ 	c #C9DCA4",
"% 	c #C7DAA0",
"& 	c #C3D59C",
"* 	c #BFD394",
"= 	c #C0D598",
"- 	c #BBD092",
"; 	c #BCD08F",
"> 	c #B8CA8A",
", 	c #B4C888",
"' 	c #B3C680",
") 	c #ACC17B",
"! 	c #AEC080",
"~ 	c #DEEFC0",
"{ 	c #EBF2D3",
"] 	c #EAF2D8",
"^ 	c #E6F1CC",
"/ 	c #D8ECBB",
"( 	c #D5E8B2",
"_ 	c #D3E5B0",
": 	c #CEDFA8",
"< 	c #C8DAA1",
"[ 	c #C4D59C",
"} 	c #A5BA77",
"| 	c #98A873",
"1 	c #D7E8B2",
"2 	c #ECF3DB",
"3 	c #ECF3DF",
"4 	c #E7F1CF",
"5 	c #E0F0C4",
"6 	c #DAECB9",
"7 	c #D7E9B6",
"8 	c #C5D99E",
"9 	c #BFD398",
"0 	c #A6BA7C",
"a 	c #9AAE69",
"b 	c #CCDFA8",
"c 	c #EAF1D0",
"d 	c #E3F0C7",
"e 	c #DBEEBF",
"f 	c #D7E9B9",
"g 	c #CCE0AB",
"h 	c #BDD08E",
"i 	c #A9BC7C",
"j 	c #E1EFC6",
"k 	c #D7E9B5",
"l 	c #C9DCA2",
"m 	c #BCB694",
"n 	c #F4D48C",
"o 	c #BCAF83",
"p 	c #B8CD8D",
"q 	c #B8CB8A",
"r 	c #B5C987",
"s 	c #A9BC7D",
"t 	c #D4E5B0",
"u 	c #BCB99F",
"v 	c #FEDF9C",
"w 	c #FDD98C",
"x 	c #FDD684",
"y 	c #FCD37C",
"z 	c #FCD074",
"A 	c #BAA871",
"B 	c #B4C984",
"C 	c #B3C881",
"D 	c #B4C784",
"E 	c #ADC17E",
"F 	c #FBDC98",
"G 	c #F7E3B3",
"H 	c #F2EDD7",
"I 	c #F6E0AC",
"J 	c #FAD17B",
"K 	c #FBC863",
"L 	c #BAA365",
"M 	c #B4C781",
"N 	c #E9ECD2",
"O 	c #ACDEA0",
"P 	c #4DBF48",
"Q 	c #A0D194",
"R 	c #E7E8CE",
"S 	c #F9CB6D",
"T 	c #FAC254",
"U 	c #B1C47F",
"V 	c #B2C581",
"W 	c #55D551",
"X 	c #43C33F",
"Y 	c #29A826",
"Z 	c #98C88C",
"` 	c #F5D99C",
" .	c #FAC04E",
"..	c #B99E58",
"+.	c #B1C47E",
"@.	c #A9BA7C",
"#.	c #BACD8D",
"$.	c #CCDFA7",
"%.	c #42C33F",
"&.	c #38B935",
"*.	c #21A121",
"=.	c #259520",
"-.	c #F2EBD4",
";.	c #F9BD48",
">.	c #F0B745",
",.	c #AFC47D",
"'.	c #A7BA77",
").	c #2AA827",
"!.	c #22A220",
"~.	c #139210",
"{.	c #93C288",
"].	c #F5D797",
"^.	c #F9BB43",
"/.	c #B99B51",
"(.	c #AFC17A",
"_.	c #AEC17A",
":.	c #A4B772",
"<.	c #98C98C",
"[.	c #239521",
"}.	c #93C388",
"|.	c #E6E6CD",
"1.	c #F8C259",
"2.	c #F9B93E",
"3.	c #B2C57B",
"4.	c #B0C377",
"5.	c #AFC377",
"6.	c #A3B670",
"7.	c #B0C581",
"8.	c #B9994E",
"9.	c #ABBC72",
"0.	c #A0B46B",
"a.	c #ACC37B",
"b.	c #C4D99B",
"c.	c #B3C47D",
"d.	c #ADBE73",
"e.	c #A9BA70",
"f.	c #9CAF67",
"g.	c #A9BE77",
"h.	c #B6C988",
"i.	c #BFD396",
"j.	c #BAC984",
"k.	c #B5C881",
"l.	c #ADBE71",
"m.	c #A3B76E",
"n.	c #99AC65",
"o.	c #A7BE73",
"p.	c #B1C680",
"q.	c #BFD392",
"r.	c #BCCD8D",
"s.	c #BACB8A",
"t.	c #B9C984",
"u.	c #B3C47E",
"v.	c #A7BB6E",
"w.	c #A2B669",
"x.	c #97AB63",
"y.	c #9EB46B",
"z.	c #B6CB8A",
"A.	c #B5C888",
"B.	c #B3C683",
"C.	c #B3C581",
"D.	c #A3B76B",
"E.	c #9EB365",
"F.	c #92A75F",
"G.	c #A6B879",
"H.	c #9EB270",
"I.	c #9BAE65",
"J.	c #97AA65",
"K.	c #94A861",
"  . . . . . . . . . . . . . . . . . . .   ",
". + @ # $ % & * = - - ; ; > > , ' ) ! + . ",
". ~ { ] ^ ~ / ( ( _ # # : $ < [ * , } | . ",
". 1 2 3 4 5 @ 6 7 ( _ _ # : < 8 9 > 0 a . ",
". b 4 c d e f _ # g $ < & [ = * h > i a . ",
". < 5 j e k # g l m n o h p > q , r s a . ",
". % / @ f t g u v w x y z A B C B D E a . ",
". = 7 f ( # u v F G H I J K L ' C M i a . ",
". = # t # g v F N O P Q R S T U ' V 0 a . ",
". - : # # m w G O W X Y Z `  ...U +.@.a . ",
". #.< $.g n x H P %.&.*.=.-.;.>.,.,.'.a . ",
". q [ $ $.o y I Q ).!.~.{.].^./.(._.:.a . ",
". C = % < l z J R <.[.}.|.1.2.3.4.5.6.a . ",
". 7.- & % < A K S ` -.].1.2.8.4.4.9.0.a . ",
". a.> * [ 8 b.L T  .;.^.2.8.c.4.d.e.f.a . ",
". g.h.h * = = 9 i...>./.j.k.c.4.l.m.n.a . ",
". o.p., #.- q.; r.r.s.t.k.u.4.d.v.w.x.a . ",
". y.g.7.r z.z., A.D B.C.,.5.9.e.D.E.F.a . ",
". G.a H.m.g.g.g.g.g.g.9.9.9.m.I.J.K.a a . ",
". . a a a a a a a a a a a a a a a a a . . ",
"  . . . . . . . . . . . . . . . . . . .   "};
