/* XPM */
static char * stick_toggled_active_xpm[] = {
"21 21 162 2",
"  	c None",
". 	c #FFFFFF",
"+ 	c #DCDCDC",
"@ 	c #B7C3A2",
"# 	c #AFBB94",
"$ 	c #A5B48B",
"% 	c #A3B288",
"& 	c #9EAD85",
"* 	c #9AAA7C",
"= 	c #9CAD80",
"- 	c #98A77B",
"; 	c #99A878",
"> 	c #95A274",
", 	c #90A072",
"' 	c #8F9E6A",
") 	c #889965",
"! 	c #8B986B",
"~ 	c #B9C5A4",
"{ 	c #C7C7B4",
"] 	c #C6C6B9",
"^ 	c #C1C6AE",
"/ 	c #B4C29F",
"( 	c #B1BF98",
"_ 	c #AFBB96",
": 	c #AAB68F",
"< 	c #A3B289",
"[ 	c #A1AD85",
"} 	c #819261",
"| 	c #75825E",
"1 	c #B3BF98",
"2 	c #C7C7BB",
"3 	c #C7C7BE",
"4 	c #C3C6B1",
"5 	c #BCC6A7",
"6 	c #B5C19D",
"7 	c #B2BF9B",
"8 	c #A1B086",
"9 	c #9CAB81",
"0 	c #839366",
"a 	c #768753",
"b 	c #A7B68F",
"c 	c #C5C6B2",
"d 	c #BFC6AA",
"e 	c #B6C3A2",
"f 	c #B2BF9E",
"g 	c #A8B792",
"h 	c #99A877",
"i 	c #879466",
"j 	c #BCC5A9",
"k 	c #B2BF9A",
"l 	c #A5B48A",
"m 	c #ABBAC5",
"n 	c #DFE1DF",
"o 	c #AEBEC8",
"p 	c #95A577",
"q 	c #95A373",
"r 	c #91A170",
"s 	c #879468",
"t 	c #B1BD96",
"u 	c #A9B9C3",
"v 	c #E5E5E1",
"w 	c #E7E7E3",
"x 	c #EAEAE6",
"y 	c #ECECE9",
"z 	c #EFEFEC",
"A 	c #B3C3CF",
"B 	c #90A16D",
"C 	c #90A16B",
"D 	c #909F6D",
"E 	c #889968",
"F 	c #F1F1EF",
"G 	c #F3F3F1",
"H 	c #B6C5D2",
"I 	c #909F6B",
"J 	c #E2E8DE",
"K 	c #A9DCA6",
"L 	c #4DBF4A",
"M 	c #A0D29E",
"N 	c #E8EEE6",
"O 	c #F5F5F3",
"P 	c #F7F7F6",
"Q 	c #8E9D69",
"R 	c #8E9D6B",
"S 	c #55D551",
"T 	c #43C33F",
"U 	c #29A826",
"V 	c #9ACC98",
"W 	c #F9F9F8",
"X 	c #BAC9D6",
"Y 	c #8D9D68",
"Z 	c #879366",
"` 	c #96A577",
" .	c #A7B68E",
"..	c #42C33F",
"+.	c #38B935",
"@.	c #21A121",
"#.	c #269623",
"$.	c #FAFAF9",
"%.	c #F3F5F6",
"&.	c #8D9D67",
"*.	c #839361",
"=.	c #2AA827",
"-.	c #22A220",
";.	c #139210",
">.	c #98C897",
",.	c #FCFCFB",
"'.	c #BCCBD9",
").	c #8D9A64",
"!.	c #8B9A64",
"~.	c #80905C",
"{.	c #249624",
"].	c #98C997",
"^.	c #EEF3ED",
"/.	c #FDFDFD",
"(.	c #8F9E65",
"_.	c #8E9B61",
":.	c #8C9B61",
"<.	c #7F8F59",
"[.	c #8C9D6B",
"}.	c #BCCCD9",
"|.	c #89955C",
"1.	c #7D8D55",
"2.	c #889B65",
"3.	c #A1B084",
"4.	c #919D67",
"5.	c #8B965D",
"6.	c #869359",
"7.	c #7A8950",
"8.	c #879660",
"9.	c #91A171",
"0.	c #9CAB7F",
"a.	c #97A16D",
"b.	c #92A16B",
"c.	c #8B975B",
"d.	c #819157",
"e.	c #77864E",
"f.	c #83965D",
"g.	c #8E9E6A",
"h.	c #9BAB7B",
"i.	c #99A577",
"j.	c #97A373",
"k.	c #96A16D",
"l.	c #919D68",
"m.	c #8B975D",
"n.	c #859458",
"o.	c #809052",
"p.	c #75854C",
"q.	c #7B8E55",
"r.	c #879661",
"s.	c #92A373",
"t.	c #91A072",
"u.	c #8F9E6C",
"v.	c #909D6B",
"w.	c #809054",
"x.	c #7C8D4F",
"y.	c #708148",
"z.	c #829164",
"A.	c #7B8B59",
"B.	c #79884F",
"C.	c #75844E",
"D.	c #72824A",
"E.	c #C6C6C6",
"  . . . . . . . . . . . . . . . . . . .   ",
". + @ # $ % & * = - - ; ; > > , ' ) ! + . ",
". ~ { ] ^ ~ / ( ( _ # # : $ < [ * , } | . ",
". 1 2 3 4 5 @ 6 7 ( _ _ # : < 8 9 > 0 a . ",
". b 4 c d e f _ # g $ < & [ = * h > i a . ",
". < 5 j e k # g l m n o h p > q , r s a . ",
". % / @ f t g u v w x y z A B C B D E a . ",
". = 7 f ( # u v w x y z F G H ' C I i a . ",
". = # t # g v w J K L M N O P Q ' R 0 a . ",
". - : # # m w x K S T U V P W X Q Y Z a . ",
". ` <  .g n x y L ..+.@.#.W $.%.&.&.*.a . ",
". q [ $  .o y z M =.-.;.>.$.,.'.).!.~.a . ",
". C = % < l z F N V {.].^.,./.(._.:.<.a . ",
". [.- & % < A G O P W $.,./.}._._.|.1.a . ",
". 2.> * [ 8 3.H P W $.,./.}.4._.5.6.7.a . ",
". 8.9.h * = = 9 0.X %.'.a.b.4._.c.d.e.a . ",
". f.g., ` - h.; i.i.j.k.b.l._.m.n.o.p.a . ",
". q.r.[.r s.s., t.D u.v.&.:.|.6.w.x.y.a . ",
". z.a A.d.r.r.r.r.r.r.|.|.|.d.B.C.D.a a . ",
". E.a a a a a a a a a a a a a a a a a E.. ",
"  . . . . . . . . . . . . . . . . . . .   "};
