/* XPM */
static char * title_3_inactive_xpm[] = {
"19 29 22 1",
" 	c None",
".	c #D6D9BB",
"+	c #D6D8BB",
"@	c #F1F1DA",
"#	c #EDEBD3",
"$	c #ECEBD2",
"%	c #DFE0C2",
"&	c #E0E0C2",
"*	c #DBDCBF",
"=	c #D4D7BB",
"-	c #D3D6BA",
";	c #D6D9BC",
">	c #D7DBBD",
",	c #D8DCBE",
"'	c #DADDBF",
")	c #DCDEC0",
"!	c #DDDFC1",
"~	c #DEDFC1",
"{	c #E0E1C3",
"]	c #D1D5B9",
"^	c #D0D5B9",
"/	c #CBCEB6",
"..+++++++++++++++++",
"@@@@@@@@@@@@@@@@@@@",
"#################$$",
"%%%%%%%%%%%%%%%%%&&",
"*******************",
"+++++++++++++++++++",
"===================",
"-------------------",
"-------------------",
"-------------------",
"===================",
"===================",
"===================",
"===================",
";;;;;;;;;;;;;;;;;;;",
";;;;;;;;;;;;;;;;;;;",
">>>>>>>>>>>>>>>>>>>",
",,,,,,,,,,,,,,,,,,,",
"'''''''''''''''''''",
")))))))))))))))))))",
"!!!!!!!!!!!!!!!!!!!",
"~~!!!!!!!!!!!!!!!!!",
"{{{{{{{{{{{{{{{{{{{",
"{{{{{{{{{{{{{{{{{{{",
"{{{{{{{{{{{{{{{{{{{",
"!!!!!!!!!!!!!!!!!!!",
")))))))))))))))))))",
"]]^^^^^^^^^^^^^^^]]",
"///////////////////"};
