/* XPM */
static char * title_2_active_xpm[] = {
"19 29 32 1",
" 	c None",
".	c #8BA169",
"+	c #E9F3C8",
"@	c #E9F2C7",
"#	c #E0E7B8",
"$	c #DFE6B7",
"%	c #DFE6B6",
"&	c #DFE5B6",
"*	c #DEE5B5",
"=	c #C0CC93",
"-	c #BFCB92",
";	c #C0CB93",
">	c #B8C58D",
",	c #AFBC84",
"'	c #AAB883",
")	c #AAB882",
"!	c #A9B782",
"~	c #A7B580",
"{	c #ADBD85",
"]	c #B0C088",
"^	c #B3C48B",
"/	c #B5C68D",
"(	c #BAC88E",
"_	c #BBC98F",
":	c #BDCA91",
"<	c #BCC990",
"[	c #BAC98F",
"}	c #C2CD95",
"|	c #A4B37F",
"1	c #A3B27F",
"2	c #A3B17F",
"3	c #96A867",
"...................",
"++@@@@@@@@@@@@@@@@@",
"############$$$%&**",
"==----------;;;;;==",
">>>>>>>>>>>>>>>>>>>",
",,,,,,,,,,,,,,,,,,,",
"''''''''''''))))!!!",
"~~~~~~~~~~~~~~~~~~~",
"~~~~~~~~~~~~~~~~~~~",
"~~~~~~~~~~~~~~~~~~~",
"'''''''''''''''''''",
"'''''''''''''''''''",
"'''''''''''''''''''",
"'''''''''''''''''''",
"{{{{{{{{{{{{{{{{{{{",
"{{{{{{{{{{{{{{{{{{{",
"]]]]]]]]]]]]]]]]]]]",
"^^^^^^^^^^^^^^^^^^^",
"///////////////////",
"(((((((((((((((((((",
"___________________",
"::<<<<<____[[[[[[__",
"}}}}}}}}}}}}}}}}}}}",
"}}}}}}}}}}}}}}}}}}}",
"}}}}}}}}}}}}}}}}}}}",
"___________________",
"(((((((((((((((((((",
"||11111111111111222",
"3333333333333333333"};
