/* XPM */
static char * top_right_inactive_xpm[] = {
"6 29 36 1",
" 	c None",
".	c #CCD1B7",
"+	c #E1E2C4",
"@	c #C6CBB3",
"#	c #D8DCBE",
"$	c #D7DABD",
"%	c #D4D6BA",
"&	c #CED3B9",
"*	c #CFD2B8",
"=	c #C8CDB4",
"-	c #BAC1AC",
";	c #C4C9B1",
">	c #B6BCA9",
",	c #BFC5AE",
"'	c #BCC1AC",
")	c #C0C6AF",
"!	c #B9BEAA",
"~	c #A9AEA0",
"{	c #C4CBB3",
"]	c #CBD1B7",
"^	c #CED2B8",
"/	c #C8D0B6",
"(	c #CCD2B8",
"_	c #AEB3A2",
":	c #D0D6BA",
"<	c #CFD5B9",
"[	c #CAD1B7",
"}	c #D3D8BB",
"|	c #CDD3B9",
"1	c #B2B6A5",
"2	c #D6DBBD",
"3	c #D4D9BC",
"4	c #D3D9BC",
"5	c #D7DCBE",
"6	c #D8DDBF",
"7	c #CBCEB6",
".     ",
"+.@   ",
"++#.  ",
"$$%.& ",
"**.=- ",
"===;;>",
"=@;,'>",
"@@;)!~",
"=@@)!~",
"==@{!~",
"]]@{'~",
"]]@{!~",
"^]/{'~",
"^(/{'~",
"^(]/,~",
"&^(/'_",
":<([,_",
"}:<|,1",
"}}:|,1",
"23}:;1",
"22}4@1",
"5234@1",
"5524;1",
"6524;_",
"6524;_",
"5234;_",
"2224;_",
"^(<4;_",
"77<|;1"};
