/* XPM */
static char * top_left_inactive_xpm[] = {
"6 29 44 1",
" 	c None",
".	c #CBCEB5",
"+	c #CDD0B7",
"@	c #DEDFC2",
"#	c #D6D8BD",
"$	c #DBDCBF",
"%	c #C9CDB4",
"&	c #D3D6BA",
"*	c #D0D2B9",
"=	c #D9DABD",
"-	c #D3D5B9",
";	c #C4C9B1",
">	c #D0D3B9",
",	c #B9BEAA",
"'	c #BAC1AC",
")	c #C8CDB4",
"!	c #CCD0B7",
"~	c #CFD2B8",
"{	c #C6CBB3",
"]	c #CCD1B7",
"^	c #D2D5B9",
"/	c #D4D6BA",
"(	c #C0C7B1",
"_	c #D4D7BB",
":	c #CBD1B7",
"<	c #CFD3B9",
"[	c #D6D8BB",
"}	c #C4CBB3",
"|	c #CED2B8",
"1	c #D2D6BA",
"2	c #D6D9BC",
"3	c #D7DABD",
"4	c #C8D1B7",
"5	c #CED3B9",
"6	c #CFD5B9",
"7	c #D9DCBE",
"8	c #CAD1B7",
"9	c #D4D9BC",
"0	c #DADDBF",
"a	c #D0D6BA",
"b	c #D7DBBD",
"c	c #C6CEB6",
"d	c #DBDEC0",
"e	c #CBCEB6",
"     .",
"   ++@",
"  +#@$",
" %&*==",
" %.---",
";>.***",
";;%+**",
",;%+**",
"';)!**",
"';)~*-",
"'{]~^/",
"()]>&_",
"(:<>/_",
"(:<>__",
"(:<&_[",
"}|1_22",
"}|1_23",
"451_23",
"461237",
"869277",
"86_270",
"4a9b70",
"ca9b0d",
"ca9b00",
"ca9b70",
"c69b7b",
"c69&/_",
"c66^)e",
"c66^ee"};
