/* XPM */
static char * top_left_active_xpm[] = {
"6 29 39 1",
" 	c None",
".	c #98A475",
"+	c #8BA169",
"@	c #9CA879",
"#	c #BDC992",
"$	c #ADBA86",
"%	c #B8C58D",
"&	c #A7B580",
"*	c #A3AE7D",
"=	c #B3C088",
"-	c #93A274",
";	c #A7B27F",
">	c #899B6D",
",	c #758D5E",
"'	c #92A274",
")	c #99A879",
"!	c #9EAD7C",
"~	c #9BA979",
"{	c #A5B27F",
"]	c #A8B680",
"^	c #A2AF7D",
"/	c #AAB883",
"(	c #9DAF7D",
"_	c #AFBC84",
":	c #A5B680",
"<	c #ADBD85",
"[	c #AFBD85",
"}	c #B1C088",
"|	c #B4C48B",
"1	c #AABD85",
"2	c #AABA83",
"3	c #B6C68D",
"4	c #ABBD85",
"5	c #B0C088",
"6	c #B7C78E",
"7	c #A7B680",
"8	c #A4B27F",
"9	c #98A577",
"0	c #96A867",
"     .",
"   +@#",
"  +$#%",
" +&*==",
" -.;;;",
">+.***",
",>-@**",
",>-@**",
",+')**",
",+'!*;",
",+~!{]",
",+~^&/",
",+(^]/",
",+(^//",
",+(&/_",
",+:/<[",
",+:/[}",
",+:/[}",
",+:<}|",
",+1<||",
",+2[|3",
",+45|3",
",+4536",
",+4533",
",+45|3",
",+45|5",
",+47]/",
",+48'9",
",+4890"};
