/* XPM */
static char * top_right_active_xpm[] = {
"6 29 36 1",
" 	c None",
".	c #8BA169",
"+	c #C4CF97",
"@	c #9BA979",
"#	c #B3C48B",
"$	c #B1C088",
"%	c #A8B680",
"&	c #9EAD7C",
"*	c #92A274",
"=	c #758962",
"-	c #899B6D",
";	c #6E7E5B",
">	c #8E9F72",
",	c #809267",
"'	c #7A8962",
")	c #82956B",
"!	c #72845D",
"~	c #5E764F",
"{	c #8D9F72",
"]	c #8B9F72",
"^	c #98A979",
"/	c #9CAD7C",
"(	c #92A879",
"_	c #99AD7C",
":	c #9DAF7D",
"<	c #A2B580",
"[	c #9DB27F",
"}	c #93AA79",
"|	c #A8BC84",
"1	c #9BAF7D",
"2	c #ADC088",
"3	c #AABD85",
"4	c #A8BD85",
"5	c #B0C48B",
"6	c #B3C68D",
"7	c #96A867",
".     ",
"+@.   ",
"++#.  ",
"$$%@. ",
"&&@*= ",
"***--;",
"*>-,';",
">>-)!~",
"*>{)!~",
"**{]!~",
"^^{]'~",
"^^{]!~",
"/^(]'~",
"/_(]'~",
"/_^(,~",
":/_('~",
"<[_},~",
"|<[1,~",
"||<1,~",
"23|<-~",
"22|4{~",
"5234>~",
"5524-~",
"6524-~",
"6524-~",
"5234-~",
"2224-~",
"/_[4-~",
"77[4-~"};
